<svg width="22" height="20" viewBox="0 0 22 20" fill="none" xmlns="http://www.w3.org/2000/svg">
<path d="M9.77416 13.595H20.6438C21.3916 13.595 22 12.9866 22 12.2388V3.62826C22 3.44994 21.8554 3.30537 21.6771 3.30537H4.17079L3.50162 2.00414C3.14957 1.31964 2.45272 0.894409 1.68302 0.894409H0.322896C0.144571 0.894409 0 1.03898 0 1.21731C0 1.39563 0.144571 1.5402 0.322896 1.5402H1.68302C2.20964 1.5402 2.68645 1.83115 2.92733 2.29948L8.26184 12.6722C8.35544 12.8542 8.47861 13.0138 8.62348 13.1472L6.69924 15.7129C5.83994 15.7974 5.16634 16.524 5.16634 17.4052C5.16634 18.3429 5.92924 19.1058 6.86693 19.1058C7.80462 19.1058 8.56751 18.3429 8.56751 17.4052C8.56751 17.0069 8.42953 16.6405 8.19937 16.3504H18.9669C18.7368 16.6405 18.5988 17.0069 18.5988 17.4052C18.5988 18.3429 19.3617 19.1058 20.2994 19.1058C21.2371 19.1058 22 18.3429 22 17.4052C22 16.4675 21.2371 15.7046 20.2994 15.7046H7.51272L9.17615 13.4867C9.36395 13.5569 9.56569 13.595 9.77416 13.595ZM6.86693 18.46C6.28533 18.46 5.81213 17.9868 5.81213 17.4052C5.81213 16.8237 6.28511 16.3506 6.86654 16.3504C6.86658 16.3504 6.86663 16.3504 6.86667 16.3504C6.8668 16.3504 6.86688 16.3504 6.86701 16.3504C7.44857 16.3504 7.92172 16.8236 7.92172 17.4052C7.92172 17.9868 7.44853 18.46 6.86693 18.46ZM21.3542 17.4052C21.3542 17.9868 20.881 18.46 20.2994 18.46C19.7178 18.46 19.2446 17.9868 19.2446 17.4052C19.2446 16.8236 19.7178 16.3504 20.2994 16.3504C20.881 16.3504 21.3542 16.8236 21.3542 17.4052ZM4.50294 3.95116H21.3542V12.2388C21.3542 12.6305 21.0355 12.9492 20.6438 12.9492H9.77416C9.37712 12.9492 9.01772 12.7299 8.83612 12.3768L4.50294 3.95116Z" fill="white"/>
<path d="M6.86587 17.0823C6.78105 17.0823 6.69753 17.1167 6.63768 17.177C6.57741 17.2368 6.54297 17.3204 6.54297 17.4052C6.54297 17.4904 6.57741 17.5735 6.63768 17.6333C6.69753 17.6936 6.78105 17.7281 6.86587 17.7281C6.95068 17.7281 7.0342 17.6936 7.09405 17.6333C7.15432 17.5735 7.18876 17.49 7.18876 17.4052C7.18876 17.3204 7.15432 17.2368 7.09405 17.177C7.0342 17.1167 6.95068 17.0823 6.86587 17.0823Z" fill="white"/>
<path d="M20.0713 17.177C20.011 17.2368 19.9766 17.3204 19.9766 17.4052C19.9766 17.4904 20.011 17.5735 20.0713 17.6333C20.1311 17.6936 20.2146 17.7281 20.2995 17.7281C20.3843 17.7281 20.4678 17.6936 20.5276 17.6333C20.5879 17.5735 20.6224 17.4904 20.6224 17.4052C20.6224 17.3204 20.5879 17.2368 20.5276 17.177C20.4678 17.1167 20.3843 17.0823 20.2995 17.0823C20.2146 17.0823 20.1311 17.1167 20.0713 17.177Z" fill="white"/>
<path d="M18.5768 11.5284C18.7551 11.5284 18.8997 11.3838 18.8997 11.2055V5.69472C18.8997 5.5164 18.7551 5.37183 18.5768 5.37183C18.3985 5.37183 18.2539 5.5164 18.2539 5.69472V11.2055C18.2539 11.3838 18.3985 11.5284 18.5768 11.5284Z" fill="white"/>
<path d="M16.5104 11.5284C16.6887 11.5284 16.8333 11.3838 16.8333 11.2055V5.69472C16.8333 5.5164 16.6887 5.37183 16.5104 5.37183C16.3321 5.37183 16.1875 5.5164 16.1875 5.69472V11.2055C16.1875 11.3838 16.3321 11.5284 16.5104 11.5284Z" fill="white"/>
<path d="M14.444 11.5284C14.6223 11.5284 14.7669 11.3838 14.7669 11.2055V5.69472C14.7669 5.5164 14.6223 5.37183 14.444 5.37183C14.2657 5.37183 14.1211 5.5164 14.1211 5.69472V11.2055C14.1211 11.3838 14.2657 11.5284 14.444 11.5284Z" fill="white"/>
<path d="M12.3776 11.5284C12.5559 11.5284 12.7005 11.3838 12.7005 11.2055V5.69472C12.7005 5.5164 12.5559 5.37183 12.3776 5.37183C12.1993 5.37183 12.0547 5.5164 12.0547 5.69472V11.2055C12.0547 11.3838 12.1993 11.5284 12.3776 11.5284Z" fill="white"/>
<path d="M10.3112 11.5284C10.4895 11.5284 10.6341 11.3838 10.6341 11.2055V5.69472C10.6341 5.5164 10.4895 5.37183 10.3112 5.37183C10.1329 5.37183 9.98828 5.5164 9.98828 5.69472V11.2055C9.98828 11.3838 10.1329 11.5284 10.3112 11.5284Z" fill="white"/>
</svg>
