<svg viewBox="0 0 33 29" fill="none" xmlns="http://www.w3.org/2000/svg">
<path d="M14.6612 19.8926H30.9658C32.0874 19.8926 33 18.98 33 17.8583V4.94246C33 4.67497 32.7831 4.45811 32.5157 4.45811H6.25618L5.25242 2.50627C4.72436 1.47952 3.67908 0.841675 2.52453 0.841675H0.484344C0.216857 0.841675 0 1.05853 0 1.32602C0 1.59351 0.216857 1.81036 0.484344 1.81036H2.52453C3.31447 1.81036 4.02968 2.24679 4.391 2.94928L12.3928 18.5083C12.5332 18.7813 12.7179 19.0208 12.9352 19.2209L10.0489 23.0695C8.75992 23.1962 7.74951 24.2861 7.74951 25.6078C7.74951 27.0144 8.89386 28.1587 10.3004 28.1587C11.7069 28.1587 12.8513 27.0144 12.8513 25.6078C12.8513 25.0105 12.6443 24.4608 12.2991 24.0256H28.4504C28.1052 24.4608 27.8982 25.0105 27.8982 25.6078C27.8982 27.0144 29.0425 28.1587 30.4491 28.1587C31.8556 28.1587 32.9999 27.0144 32.9999 25.6078C32.9999 24.2013 31.8557 23.0569 30.4491 23.0569H11.2691L13.7642 19.7301C14.0459 19.8354 14.3485 19.8926 14.6612 19.8926ZM10.3004 27.19C9.42799 27.19 8.7182 26.4802 8.7182 25.6078C8.7182 24.7356 9.42767 24.0259 10.2998 24.0256C10.2999 24.0256 10.2999 24.0256 10.3 24.0256C10.3002 24.0256 10.3003 24.0256 10.3005 24.0256C11.1729 24.0257 11.8826 24.7354 11.8826 25.6078C11.8826 26.4802 11.1728 27.19 10.3004 27.19ZM32.0313 25.6078C32.0313 26.4802 31.3215 27.19 30.4491 27.19C29.5767 27.19 28.8669 26.4802 28.8669 25.6078C28.8669 24.7354 29.5767 24.0256 30.4491 24.0256C31.3215 24.0256 32.0313 24.7354 32.0313 25.6078ZM6.75441 5.4268H32.0313V17.8583C32.0313 18.4458 31.5533 18.9239 30.9658 18.9239H14.6612C14.0657 18.9239 13.5266 18.5949 13.2542 18.0653L6.75441 5.4268Z" fill="#333333"/>
<path d="M10.3007 25.1234C10.1734 25.1234 10.0482 25.1751 9.95839 25.2655C9.86798 25.3553 9.81631 25.4805 9.81631 25.6078C9.81631 25.7356 9.86798 25.8603 9.95839 25.95C10.0482 26.0404 10.1734 26.0921 10.3007 26.0921C10.4279 26.0921 10.5532 26.0404 10.6429 25.95C10.7333 25.8603 10.785 25.735 10.785 25.6078C10.785 25.4805 10.7333 25.3553 10.6429 25.2655C10.5532 25.1751 10.4279 25.1234 10.3007 25.1234Z" fill="333333"/>
<path d="M30.1071 25.2655C30.0167 25.3553 29.9651 25.4805 29.9651 25.6078C29.9651 25.7356 30.0167 25.8603 30.1071 25.95C30.1969 26.0404 30.3222 26.0921 30.4494 26.0921C30.5766 26.0921 30.7019 26.0404 30.7917 25.95C30.8821 25.8603 30.9337 25.7356 30.9337 25.6078C30.9337 25.4805 30.8821 25.3553 30.7917 25.2655C30.7019 25.1751 30.5766 25.1234 30.4494 25.1234C30.3222 25.1234 30.1969 25.1751 30.1071 25.2655Z" fill="333333"/>
<path d="M27.8663 16.7928C28.1338 16.7928 28.3506 16.576 28.3506 16.3085V8.04233C28.3506 7.77484 28.1338 7.55798 27.8663 7.55798C27.5988 7.55798 27.382 7.77484 27.382 8.04233V16.3085C27.382 16.576 27.5988 16.7928 27.8663 16.7928Z" fill="333333"/>
<path d="M24.7662 16.7928C25.0337 16.7928 25.2506 16.576 25.2506 16.3085V8.04233C25.2506 7.77484 25.0337 7.55798 24.7662 7.55798C24.4987 7.55798 24.2819 7.77484 24.2819 8.04233V16.3085C24.2819 16.576 24.4987 16.7928 24.7662 16.7928Z" fill="333333"/>
<path d="M21.6662 16.7928C21.9337 16.7928 22.1505 16.576 22.1505 16.3085V8.04233C22.1505 7.77484 21.9337 7.55798 21.6662 7.55798C21.3987 7.55798 21.1818 7.77484 21.1818 8.04233V16.3085C21.1818 16.576 21.3987 16.7928 21.6662 16.7928Z" fill="333333"/>
<path d="M18.5669 16.7928C18.8344 16.7928 19.0513 16.576 19.0513 16.3085V8.04233C19.0513 7.77484 18.8344 7.55798 18.5669 7.55798C18.2994 7.55798 18.0826 7.77484 18.0826 8.04233V16.3085C18.0826 16.576 18.2994 16.7928 18.5669 16.7928Z" fill="333333"/>
<path d="M15.4669 16.7928C15.7344 16.7928 15.9512 16.576 15.9512 16.3085V8.04233C15.9512 7.77484 15.7344 7.55798 15.4669 7.55798C15.1994 7.55798 14.9825 7.77484 14.9825 8.04233V16.3085C14.9825 16.576 15.1994 16.7928 15.4669 16.7928Z" fill="333333"/>
</svg>
