<svg  viewBox="0 0 107 114" fill="none" xmlns="http://www.w3.org/2000/svg">
<path fill-rule="evenodd" clip-rule="evenodd" d="M1.01036 110.522C1.01036 112.407 19.2299 113.852 41.7843 113.852C64.2759 113.852 82.4954 112.344 82.4954 110.522C82.4954 108.7 64.2759 107.192 41.7843 107.192C19.2299 107.192 1.01036 108.7 1.01036 110.522Z" fill="#354B54"/>
<path fill-rule="evenodd" clip-rule="evenodd" d="M42.3446 1.83326C41.9048 2.3987 41.5278 3.08976 41.1509 3.78085C40.2713 5.72845 39.8944 7.86452 39.2661 9.93777C38.8891 11.1943 38.4494 12.388 37.8211 13.5817C37.0672 14.7754 36.4389 15.9062 35.6222 17.0999C34.3657 19.1103 33.2348 21.3721 32.9835 23.948C32.9207 25.0788 33.0463 26.2725 33.2976 27.4034C33.3605 27.6547 33.4233 27.9688 33.5489 28.1572C33.4861 28.2201 33.4233 28.2201 33.3605 28.2201C33.3605 28.0944 33.2348 28.1572 33.2348 28.1572C32.3553 27.9059 31.4757 28.0944 30.5961 28.0944C30.3448 27.529 30.0307 26.7751 29.8422 26.084C29.5909 25.0788 29.2768 24.1364 29.0883 23.1312L29.1511 23.0684C28.9627 22.6914 28.8998 22.1888 28.837 21.8119C28.5857 19.6758 28.5857 17.5397 28.9627 15.4665L29.0255 15.5293C29.0255 15.2151 29.214 14.7126 29.214 14.3984C29.2768 14.2099 29.5281 14.0214 29.4653 13.7073C30.0935 11.7597 31.35 10.0634 33.1092 8.93257C34.1772 8.17866 35.4337 8.05301 36.5646 7.67606C36.6902 7.5504 36.8159 7.23629 36.8159 6.98499C36.6902 6.60803 36.3761 6.35672 35.9991 6.23107C35.9363 6.35672 35.8735 6.16822 35.7479 6.16822C34.9939 5.79127 33.9259 6.04258 33.1092 6.10541C32.8579 6.23106 32.6066 6.16825 32.3553 6.35673C30.0307 7.11064 28.2716 8.55562 26.7638 10.5032C25.2559 12.5765 24.5649 15.1523 24.0622 17.7282C23.9366 18.859 23.7481 20.0527 23.6853 21.1836C22.9314 20.9323 22.3659 20.3669 21.4236 20.5553C20.8581 20.6182 20.3555 20.9323 19.9157 21.2464C19.0362 20.1784 17.5284 19.9899 16.2719 20.4297C14.8269 21.1836 13.7588 22.6286 13.1306 23.8851C12.8164 23.9479 12.3766 24.1364 12.0625 24.2621C11.9997 24.3877 11.874 24.4505 11.6856 24.5134C11.3714 24.7647 10.9317 25.0788 10.7432 25.4557C10.4919 25.7699 10.3034 26.0212 10.1777 26.5238C10.1149 27.4034 10.4291 28.2829 10.2406 29.0996C10.1149 29.2881 9.98927 29.4766 9.92645 29.7907C9.73797 30.6703 9.54949 31.6755 9.67515 32.5551C9.61232 33.6859 10.2406 34.5655 10.6175 35.5707C11.3086 36.7644 11.9997 38.1466 12.6279 39.4031C12.9421 40.157 13.2562 40.9737 13.6332 41.7276C14.7012 43.738 16.0205 45.6856 17.7797 47.005C16.7116 49.2667 15.141 51.2143 14.1358 53.4761C12.5651 54.4185 10.7432 54.8583 9.92645 56.5546C9.42384 57.3085 8.6071 58.2508 8.66993 59.3188C8.41863 60.1984 8.29297 61.0152 8.29297 61.9576L8.23014 62.0204C8.29297 63.4025 8.16733 65.2245 8.16733 66.6695C8.23016 67.8004 8.41862 68.994 8.54427 69.9992C8.73275 70.3762 8.66992 71.0044 8.8584 71.507C9.17253 73.0777 9.61231 74.774 10.429 76.1562C8.66992 77.0357 6.65951 77.664 5.02604 78.6692C4.83756 78.8577 4.77473 79.2347 4.64908 79.5488C4.58626 79.5488 4.58625 79.6116 4.52342 79.6116C4.27212 80.4912 3.76953 81.2451 3.4554 82.1246C2.88996 83.3183 2.45018 84.6377 1.82192 85.8314C1.7591 86.0827 1.88474 86.3968 2.01039 86.5852C2.13604 86.7737 2.38736 86.7109 2.51301 86.648C3.76953 86.0826 5.02604 85.4544 6.28256 84.9518C7.66472 85.957 8.79559 87.1507 10.0521 88.0931C9.67515 89.2868 9.36101 90.6061 8.98406 91.7998C6.03125 93.9987 2.95279 96.072 -2.18033e-05 98.3337C0.439759 99.8415 0.628228 101.412 1.13083 102.92C1.38214 104.239 1.94758 105.496 2.19888 106.878C2.26171 106.941 2.2617 106.878 2.38735 106.878C2.88996 106.438 3.45539 106.124 4.02083 105.747C5.46582 104.553 7.16211 103.234 8.6071 102.04C9.17253 101.978 9.67514 101.852 10.2406 101.852C10.4919 103.108 10.9945 104.176 11.3086 105.37C11.3714 105.621 11.3714 105.81 11.6227 105.936C11.6856 105.873 11.7484 105.936 11.874 105.873C13.8216 104.365 15.5808 102.731 17.5912 101.286C18.9105 100.03 20.2927 98.7734 21.7377 97.5798C21.8633 98.4593 21.7377 99.4645 21.989 100.344C22.2403 102.229 21.3607 103.862 21.2979 105.747C21.2979 106.941 21.2351 108.072 21.6749 109.14C22.0518 109.642 22.7429 109.705 23.3083 110.019C24.6905 110.396 26.324 111.025 27.769 111.213C28.6485 111.401 29.4653 111.464 30.282 111.59C31.1616 111.59 32.1668 111.841 32.9835 111.778C34.4913 111.841 36.062 111.716 37.5698 111.339C38.1352 111.276 38.7635 111.087 39.3289 110.962C40.02 110.773 40.7111 110.585 41.3393 110.271C41.4022 110.019 41.6535 110.019 41.5906 109.831C41.6535 108.951 41.5906 107.82 41.9048 106.878C42.0932 105.747 42.2189 104.805 41.9676 103.548C43.1613 103.423 44.4178 103.548 45.6115 103.423C46.491 103.485 47.1193 103.234 47.9361 103.171C47.7476 105.37 47.1821 107.443 47.0565 109.705C46.9937 110.333 47.3078 111.025 47.9361 111.276C49.1926 111.904 50.7632 112.155 52.2082 112.532C52.7736 112.721 53.3391 112.595 53.9045 112.784C54.7841 112.784 55.7265 113.098 56.5432 112.972C59.6217 113.161 62.3232 112.909 65.276 112.407C65.4645 112.344 65.7158 112.218 65.9042 112.155C66.0927 111.778 66.5325 111.59 66.7838 111.276C66.9094 111.025 67.0979 110.71 67.2864 110.459C67.789 109.391 67.6634 107.946 67.8518 106.815C67.9147 106.313 67.789 105.936 67.789 105.37C67.8518 103.925 67.4749 102.417 67.0351 101.035C67.5377 99.4017 67.9147 97.7054 68.1031 96.0091C68.6057 95.7578 68.9199 95.3808 69.2968 95.1295C70.2392 94.3756 71.1816 93.5589 72.124 92.7422C73.192 91.5485 74.4485 90.5433 75.5166 89.2868C75.8935 88.7213 76.3961 88.2187 76.8987 87.7161C77.4642 87.025 77.8411 86.1455 78.4066 85.4544C78.972 84.7005 79.3489 83.6324 79.9144 82.8157C80.2913 81.9361 80.5426 81.1194 80.9824 80.2398C81.4222 78.8577 81.9248 77.4127 82.3018 75.9677C82.3646 74.5855 82.8672 73.329 82.8672 72.0097C82.8044 71.6956 82.93 71.2557 82.8672 70.9416C82.8672 71.0044 82.8672 71.0045 82.8044 71.0045C82.8044 70.4391 82.8044 69.9364 82.8672 69.4338C82.93 69.4967 82.8672 69.5594 82.93 69.6223C82.93 69.4966 82.93 69.3082 82.93 69.1825C82.93 69.2453 82.93 69.371 82.8672 69.4338C82.8672 69.2454 82.8672 69.1197 82.8672 68.994C82.93 69.0568 82.93 69.0568 82.93 69.0568C82.9929 68.617 82.6787 67.9888 83.1813 67.6747L83.2442 67.7375C84.1865 66.3553 85.1917 64.8475 86.8252 64.1565C87.2022 63.9052 87.7048 63.9051 88.0817 63.968C88.5843 64.5334 88.4587 65.5386 88.2074 66.1669C87.1393 68.3658 85.5059 69.8107 85.0033 72.1981C84.752 72.3238 84.8776 72.7008 84.8148 72.9521C84.4378 74.6484 84.2494 76.4075 84.8776 78.0409C85.0661 78.1038 85.0033 78.2922 85.1289 78.3551C85.3174 78.4179 85.5059 78.4179 85.6315 78.2923C85.82 78.1038 85.82 77.9153 85.7572 77.6012C85.5059 77.0986 85.443 76.4703 85.5059 75.9049C85.7572 76.1562 85.82 76.4703 86.0713 76.7844C86.4483 77.287 87.0137 77.5384 87.4535 77.9781C87.5791 78.041 87.7048 78.0409 87.8304 78.0409C87.8933 77.9153 88.0817 77.9153 88.0189 77.7896C88.0817 77.0985 87.1393 77.0985 86.9509 76.5959C86.197 75.7164 85.8828 74.4599 85.7572 73.329C85.7572 73.2662 85.82 73.2033 85.82 73.1405C86.0085 73.0777 85.9457 73.3919 86.0713 73.5175C86.6367 74.7112 87.642 75.5279 88.7728 76.1562C88.8356 76.4075 89.0241 76.2819 89.1498 76.3447C89.3383 76.2819 89.5267 76.2819 89.5267 76.0306C89.5267 75.7792 89.3383 75.6536 89.2126 75.5279C89.087 75.5907 89.1498 75.2766 88.8985 75.4023C88.6472 75.2138 88.333 75.151 88.2074 74.8368C86.9509 74.0829 86.3226 72.5123 86.4483 70.8788C86.6367 70.1877 87.2022 69.6223 87.5791 68.994C88.4587 67.6747 89.9037 66.1669 89.2754 64.2193C89.2126 63.3397 88.4587 62.8371 87.7676 62.3345C86.9509 61.9575 85.9457 61.9575 85.0661 62.0832C83.9981 62.3345 82.93 62.8999 82.1133 63.7166C81.3594 61.8319 80.6055 59.7586 79.4746 57.9995C79.2233 57.9367 79.4118 57.6854 79.4118 57.5598C79.6003 57.3084 79.4118 56.9943 79.4746 56.8058C87.5163 52.8478 95.4952 48.8269 103.6 44.8061C104.228 44.0522 104.793 43.2983 105.484 42.5444C105.547 41.9789 106.176 41.7905 106.301 41.225C106.238 41.0994 106.238 40.8481 106.238 40.6596C106.05 40.5968 105.861 40.4711 105.673 40.5968C105.547 40.6596 105.359 40.7224 105.17 40.6596C104.542 41.0366 103.914 41.3507 103.223 41.5392C102.909 41.2879 102.657 41.0994 102.343 40.8481C101.966 40.2827 101.338 39.9685 100.961 39.4031C101.212 39.089 101.401 38.712 101.526 38.3979C101.589 38.3351 101.589 38.2094 101.589 38.2094C101.652 37.9581 101.841 37.8324 101.966 37.644C102.029 37.3927 101.903 37.3298 101.841 37.267C101.589 37.2042 101.338 37.3298 101.212 37.3298C100.584 37.4555 100.144 37.8953 99.5789 38.0838C97.4428 38.9633 95.3067 39.78 93.1706 40.7224V40.8481C93.1078 40.7225 93.1078 40.8481 92.9193 40.8481C89.9665 42.0418 87.0765 43.2354 84.1237 44.492C86.1341 42.4815 88.3959 40.5968 90.5319 38.6492C90.9089 37.7696 90.8461 36.7016 91.2858 35.7592C91.3487 35.5707 91.0346 35.5079 91.0974 35.2566C90.6576 35.1938 90.3435 35.6335 90.0293 35.6963C89.778 36.0105 89.4639 36.199 89.1498 36.4503C88.7728 36.7016 88.4587 37.267 87.9561 37.0785C87.7676 37.0157 87.265 37.0785 87.5163 36.7016C87.5791 36.3246 87.7676 35.822 87.7676 35.5079C87.8304 35.3822 87.7676 35.1309 87.5791 35.0681C87.265 35.1309 87.2022 34.8796 86.888 35.0053C86.0713 35.6335 85.3802 36.0733 84.5635 36.7016C84.9404 36.1361 85.443 35.6964 85.9457 35.1937C86.3854 34.8168 86.888 34.0629 87.3906 33.7488C87.3278 33.4346 87.7048 33.3718 87.7676 33.1205C88.8985 32.0525 89.8409 30.8588 90.9717 29.7907C91.0345 29.5394 91.0974 29.5394 91.223 29.4138C91.0345 28.1572 90.7832 26.9007 90.4691 25.6442C90.4691 25.3301 90.5319 24.8903 90.155 24.8275C89.9665 24.8903 89.9037 25.2045 89.6524 25.2045C89.0241 25.9584 88.1446 26.7123 87.642 27.529C87.265 27.4662 87.0765 28.5342 86.8252 27.7803C86.7624 27.3405 86.7624 26.7751 86.7624 26.3353C86.5111 25.9584 86.6996 25.2045 86.0713 25.2673C81.2337 30.3562 76.2705 35.3822 71.3073 40.4711C71.056 40.157 70.8675 39.7172 70.6162 39.4031C70.4277 38.7748 70.0507 38.2094 69.8622 37.7068C70.302 36.5131 71.0559 35.4451 71.2444 34.1885C71.4329 33.8116 71.4957 33.3718 71.4957 32.8692C71.4329 32.932 71.4329 32.932 71.4329 32.932C72.1868 30.1677 72.5638 27.4662 73.1292 24.639C73.2548 23.7595 73.6946 23.0055 73.9459 22.126C74.2601 21.2464 74.637 20.1784 75.0768 19.236C75.4538 18.6706 75.7679 17.9167 76.1448 17.4141C76.2077 17.1627 76.3961 16.9114 76.459 16.6601C77.3385 15.4664 77.9668 14.0843 78.7835 12.9534C79.1605 12.388 79.2233 11.6969 79.4746 11.0687V11.1943C79.7887 9.68646 79.7259 7.99018 78.5322 6.92214C78.2181 6.67083 77.904 6.5452 77.4642 6.23107C75.9564 5.91694 74.1344 5.91692 73.0035 6.48235C72.2496 6.8593 71.6214 7.23629 70.8675 7.61324C69.7994 8.30433 68.857 9.2467 68.0403 10.1891C67.9775 9.68648 67.789 9.30952 67.6633 8.80691C67.9146 8.49278 67.9147 8.05299 68.0403 7.73887C68.1031 6.98496 67.9146 6.29387 67.3492 5.85409C66.9723 5.60279 66.5953 5.47715 66.1555 5.47715C66.0299 5.16302 65.8414 4.72323 65.5901 4.59758C65.2131 4.1578 64.7105 4.03216 64.3336 3.59238C63.7053 3.21542 63.0771 2.7128 62.3232 2.39867C61.9462 2.4615 61.6321 2.02173 61.1295 2.02173C59.4332 1.89608 57.6741 2.1474 56.2291 2.90131C56.1662 2.96414 55.9778 2.90128 55.9149 3.02693C55.6008 2.9641 55.4123 2.58718 55.0982 2.58718C53.9673 1.95892 52.1454 2.08456 51.0145 2.64999C50.4491 2.90129 50.0093 3.21542 49.5067 3.46672L48.7528 4.03217C48.5015 2.96413 48.6271 1.51913 47.5591 0.765218C46.9937 0.513914 46.4911 0.199778 45.8 0.0113003C44.4806 -0.114351 43.2869 0.828051 42.3446 1.83326Z" fill="black"/>
<path fill-rule="evenodd" clip-rule="evenodd" d="M42.7909 2.65014C42.4768 3.15275 42.2883 3.65534 41.9114 4.09513C41.4716 5.16316 41.2203 6.29405 40.8434 7.29926C40.5921 8.3673 40.2779 9.37251 40.0266 10.4406C39.7125 11.8227 38.9586 13.0792 38.3303 14.3357C37.4508 15.8435 36.5084 17.3514 35.566 18.8592C34.4979 20.8696 33.6812 23.3198 34.0582 25.7072C34.3095 26.2098 34.3095 26.8381 34.498 27.4035C34.8749 27.0266 35.4403 26.8381 35.9429 26.7124C36.1942 26.4611 35.9429 26.0213 36.1942 25.8329C36.7597 24.8905 37.2623 23.8224 37.8905 22.8172C38.456 22.0633 39.0842 21.3722 39.7125 20.6811C40.0266 20.3042 40.592 20.3042 40.9062 19.8016C41.0946 19.5503 41.5973 19.4246 41.4716 19.0477C41.346 17.7283 41.8486 16.5975 42.3512 15.5922C42.4768 15.3409 42.7281 15.2153 42.7281 14.9012C43.2307 14.5242 43.4192 13.7703 43.9218 13.3933C43.859 13.0164 43.6077 12.8279 43.4192 12.5138C43.482 12.1368 43.4192 11.697 43.6705 11.3201C44.1731 10.8803 44.8642 10.7547 45.4925 10.5662C45.8066 10.0636 45.9322 9.62379 46.2464 9.12119C46.0579 9.05836 45.9951 8.93271 45.8694 8.80706C45.8066 8.36728 45.9951 7.86466 46.0579 7.42488C46.3092 6.23119 47.3144 5.54011 48.0683 4.59772C48.0683 3.71816 47.817 2.90143 47.6285 2.08469C47.4401 1.70774 47.0631 1.51926 46.8746 1.14231C46.3092 0.891002 45.8066 0.702548 45.1783 0.891025C44.1731 1.20515 43.4192 1.8334 42.7909 2.65014Z" fill="#C6C6C6"/>
<path fill-rule="evenodd" clip-rule="evenodd" d="M58.1772 3.08981C56.2296 3.7809 54.5333 4.97457 52.8998 6.29391C52.0831 7.17347 51.4548 7.9902 50.8894 8.99541C50.9522 9.24672 50.7009 9.43519 50.8894 9.62367C50.8266 9.81215 51.015 9.875 51.1407 10.0006C52.1459 8.99544 53.0255 7.99023 54.0307 6.98502C55.1616 6.04263 56.2924 5.28872 57.5489 4.66046C58.617 4.2835 59.5593 3.78088 60.6902 3.46675C61.3185 3.40393 61.8211 3.27828 62.4493 3.27828C61.5698 2.39872 59.8735 2.71285 58.6798 2.96415C58.4913 3.02698 58.3657 3.15264 58.1772 3.08981Z" fill="#F7A600"/>
<path fill-rule="evenodd" clip-rule="evenodd" d="M50.1999 4.09497C50.0115 4.1578 49.7602 4.3463 49.5089 4.47195C48.5665 5.47716 47.4984 6.29387 47.0587 7.73886C48.4408 6.16822 50.0115 4.59757 52.0219 3.96931C52.713 3.71801 53.4041 3.34108 54.0951 3.4039H54.6606C54.4721 3.1526 54.0951 3.02696 53.781 2.90131C52.5245 3.02696 51.2052 3.34106 50.1999 4.09497Z" fill="#F7A600"/>
<path fill-rule="evenodd" clip-rule="evenodd" d="M62.6368 4.22075C60.3122 4.40923 58.3018 5.41444 56.2285 6.73378C55.349 7.36204 54.5322 8.05313 53.7783 8.93269C53.0872 9.49812 52.5847 10.3777 51.8307 10.8803C51.4538 11.1316 50.8883 10.6918 50.3857 10.6918C50.3857 10.5033 50.0716 10.629 50.0716 10.4405C49.8203 10.3149 49.7575 10.1892 49.6318 9.93788C49.8831 9.56093 49.6318 9.05832 49.8831 8.68137C50.2601 7.5505 51.1397 6.60812 52.0192 5.66574C52.5846 5.10031 53.1501 4.78618 53.8412 4.22075C53.0872 4.40923 52.459 4.53488 51.8307 4.84901C49.946 5.91705 48.0612 7.48769 47.2444 9.56094C46.8047 10.3149 46.5534 11.3829 45.611 11.5714C45.234 11.7599 44.7314 11.7598 44.4801 12.1368C44.4173 12.1996 44.5429 12.3881 44.5429 12.4509C44.7314 12.5137 44.7942 12.6394 44.8571 12.8279C45.234 12.5766 45.7366 12.5766 46.1764 12.4509C46.8047 12.5137 47.4329 12.8279 47.8727 13.2048C48.1868 13.4561 48.3125 14.0216 48.2497 14.587C48.3125 14.3357 48.6266 14.2101 48.8151 14.0844C49.192 13.8331 49.7575 13.8331 50.1973 13.7703C50.637 13.7703 51.3909 13.8331 51.5794 14.3357C51.6422 14.587 51.8307 14.6498 51.8936 14.9011C52.1449 15.2781 52.1449 15.9064 52.082 16.409C54.0925 16.9744 56.4798 16.6603 58.5531 16.6603C59.0557 16.4718 59.5583 16.5974 59.9981 16.409C61.0033 16.2833 62.0085 16.032 62.9509 15.8435C63.3278 15.7179 63.8305 15.7807 63.9561 15.2781C65.0241 13.9587 65.8409 12.5137 66.9717 11.3201C66.9089 10.6918 66.9089 9.93788 66.7204 9.30963C65.9037 8.74419 64.8357 9.30964 64.0818 9.56094C63.642 9.81225 63.2022 10.1264 62.6996 10.4405C61.6944 11.2573 60.6892 12.1368 59.8096 13.0792C59.5583 13.2677 59.307 13.0164 59.0557 13.142C58.3018 13.0164 57.6735 12.5138 57.2966 11.8855C57.3594 11.697 57.2337 11.5086 57.2337 11.2572C57.3594 11.1316 57.2338 10.8175 57.4851 10.7546C57.6107 10.1264 58.1133 9.87506 58.3646 9.30963C59.5583 8.17876 61.0661 7.11075 62.6368 6.35684C63.0137 6.23119 63.3907 6.10552 63.7048 5.97987C64.2074 5.85421 64.5844 5.66575 65.1498 5.60293C64.8985 5.03749 64.3959 4.78618 63.8933 4.40922C63.5163 4.28357 63.0137 4.15793 62.6368 4.22075Z" fill="#F7A600"/>
<path fill-rule="evenodd" clip-rule="evenodd" d="M62.3846 7.55049C61.6307 7.86462 61.128 8.36723 60.437 8.80701C59.6202 9.30961 59.1804 10.0007 58.5522 10.8174C58.4894 11.1316 58.2381 11.4457 58.4266 11.7598C58.615 11.9483 58.8035 12.3252 59.1804 12.1368C60.5626 10.9431 62.0076 9.37243 63.8924 8.68135C64.4578 8.43005 65.2746 8.11595 65.9028 7.92747C66.2798 7.9903 66.6567 7.99027 66.9708 8.17875C67.0337 7.99027 67.0965 7.80182 67.1593 7.61334C67.1593 7.23639 67.2222 6.98508 67.1593 6.67095C67.0337 6.41965 66.908 6.23117 66.5939 6.23117C66.1541 6.04269 65.4002 6.29398 64.8976 6.41964C64.0809 6.73376 63.2013 7.04789 62.3846 7.55049Z" fill="#F7A600"/>
<path fill-rule="evenodd" clip-rule="evenodd" d="M71.3101 8.42999C70.4306 8.99542 69.7395 9.87497 68.9856 10.6917C67.3521 12.2624 66.0956 14.0215 64.6506 15.9691C65.1532 15.7178 65.7815 15.5921 66.2841 15.3408C66.5982 15.278 66.9123 15.278 67.1636 15.278C67.7919 15.278 68.4829 15.5293 68.8599 15.9062C69.0484 15.9691 69.174 16.1576 69.2369 16.2832C69.3625 16.4717 69.174 16.6601 69.1112 16.8486C68.6086 17.2884 67.9175 16.9115 67.3521 17.2256C66.9751 17.4769 66.5982 17.791 66.2841 18.0423C65.4045 18.9847 64.3993 19.7386 63.6454 20.8695C62.326 22.5658 61.1323 24.5134 59.6874 26.2725C58.2424 28.7855 56.9858 31.0473 55.6665 33.6231C54.9126 35.0053 54.2843 36.4503 53.5932 37.8325C53.5932 38.0838 53.2791 38.2094 53.2163 38.3979C52.965 38.7749 52.5252 39.0262 52.2111 39.2775C51.4572 39.7173 50.7033 40.0942 49.8865 40.2199C49.5096 40.2827 48.8813 40.157 48.4415 40.0314C48.1274 39.8429 47.8761 39.5916 47.4991 39.4031C47.2478 39.1518 47.3107 38.6492 46.9337 38.5235L46.9965 38.2722C46.8709 38.2722 46.7452 38.3351 46.6196 38.3979C46.6824 38.6492 46.2426 38.6492 46.1798 38.9005C46.1798 38.8377 45.9285 38.9633 46.0541 38.9633C45.8028 39.089 45.8028 39.3402 45.6144 39.5287C45.2374 40.0942 44.8605 40.7224 44.6092 41.3507L44.4207 42.7957C44.7976 42.9842 45.1746 43.2355 45.6144 43.3612C46.6196 43.9894 47.8133 43.9265 49.007 43.9265C49.5096 43.8637 49.9493 43.5496 50.5148 43.6124C51.52 43.2354 52.3995 42.6072 53.1535 41.9789C53.6561 41.4763 54.0959 41.0365 54.3472 40.4711C55.2267 39.4031 55.4152 38.0838 55.7921 36.8273C56.3576 35.7592 55.9806 34.5655 56.4204 33.4975C56.4832 33.4346 56.6089 33.4975 56.7345 33.4975C56.9858 33.6231 56.9858 33.8744 56.8602 34.1886C57.2371 34.0629 57.7398 34.0629 58.1167 34.1886C58.4937 34.1886 58.6821 34.5655 58.9963 34.754C58.9963 34.8796 59.1219 35.0053 59.0591 35.131C58.6821 35.3823 58.1795 35.131 57.8026 35.2566C57.4884 35.4451 57.1115 35.4451 56.8602 35.6964C56.7974 36.8272 56.4204 37.644 56.1063 38.712C55.6665 40.4712 54.5985 41.979 53.2791 43.1098C52.588 43.6753 51.8969 44.1778 51.0174 44.492C50.3263 44.8061 49.5096 44.9946 48.8185 44.9946C48.5672 45.0574 48.2531 45.0574 48.0646 44.9946C47.3107 45.4972 46.7452 46.0626 46.117 46.6281C45.74 47.005 45.2374 47.4448 44.8605 47.8218C44.672 47.6333 44.295 47.759 44.2322 47.4448C44.2322 47.1307 44.4835 46.8165 44.6092 46.6281C45.1746 45.9998 45.9913 45.4343 46.6196 44.8689C46.2426 44.7433 45.8657 44.6176 45.4259 44.5548C44.2322 45.3087 43.9181 46.8165 42.5987 47.3191C42.3474 47.382 42.3474 47.0678 42.0961 47.005L41.7192 45.9998C41.3422 46.2511 41.2166 46.7537 40.8396 47.0678C40.4627 47.6332 40.0857 48.2615 39.7716 48.9526L40.5883 49.0783C41.5307 49.2039 42.5359 48.9527 43.5411 49.0155C44.672 48.9527 45.8657 48.5128 46.9965 48.2615C48.5044 47.8217 49.8865 47.1935 51.4572 46.7537C51.7713 46.5652 52.2111 46.5653 52.5252 46.2511C52.7765 46.1883 52.9022 46.1254 53.2163 46.1254C54.3471 45.4972 55.478 44.9318 56.6089 44.4292C57.0487 43.8009 57.8654 43.8009 58.4936 43.3612C59.813 42.6701 61.258 42.1675 62.6402 41.4764C62.8915 40.9738 62.8286 40.2199 62.9543 39.5916C62.8915 38.2094 62.7658 36.9529 62.703 35.5707C62.3889 34.8168 62.4517 34.0001 62.2632 33.1833C62.1375 32.8064 62.0119 32.3038 61.8234 31.9268C61.8234 31.864 61.9491 31.7384 62.0747 31.6755C62.2004 31.7384 62.4517 31.7384 62.5773 31.864C62.5773 32.1153 62.8915 32.1153 62.8915 32.2409C63.3941 33.4346 63.3312 34.5655 63.7082 35.7592C63.9595 38.3351 63.6454 40.9109 64.0223 43.424C64.2108 43.7381 64.6506 43.8009 65.0275 43.9265C65.2788 43.8009 65.7814 43.8637 65.9071 43.5496C66.1584 43.2983 66.4097 43.047 66.5982 42.7957C67.4777 41.602 68.2317 40.3455 68.7971 39.0262C69.1112 38.2723 69.4253 37.5183 69.6766 36.8273C69.8023 36.6388 69.928 36.4503 70.0536 36.2618C70.4306 35.5079 70.4934 34.6912 70.8075 33.9373C71.1845 31.2357 71.8756 28.6599 72.1897 25.9584C72.5666 24.2621 73.1321 22.503 73.7603 20.8695C74.2001 19.613 74.7027 18.3565 75.3938 17.2884C76.3362 15.4665 77.4042 14.0843 78.3466 12.388C78.7236 11.1943 79.0377 9.68649 78.5979 8.36714C78.4722 7.73889 77.844 7.36193 77.2786 7.11063C75.8964 6.85932 74.5771 7.04782 73.3834 7.67608C72.5666 7.7389 71.9384 8.11586 71.3101 8.42999Z" fill="#C6C6C6"/>
<path fill-rule="evenodd" clip-rule="evenodd" d="M31.8519 7.29921C29.9672 8.2416 28.208 9.49811 27.0772 11.3829C25.8835 13.3933 25.3181 15.7178 24.8783 18.1052C24.8154 18.8591 24.5641 19.6759 24.5641 20.4298C24.5641 22.2517 24.5641 24.1365 24.9411 25.9584C25.1924 27.6547 25.695 29.4139 26.072 31.0474C26.3861 31.8013 26.6374 32.5552 27.14 33.0578C27.0772 33.3091 27.4541 33.3091 27.517 33.4975C27.8939 33.8117 28.3965 34.063 28.8991 34.2515C29.2761 33.8745 29.7159 33.4976 30.03 33.1206C30.0928 32.5552 30.2813 32.0526 30.407 31.4871C30.4698 31.4243 30.4698 31.4243 30.5326 31.4243C29.5902 28.283 28.2709 25.2046 27.8939 21.9376C27.6426 21.6863 27.8311 21.1209 27.7683 20.7439C27.8311 20.2413 27.517 19.8015 27.7054 19.2989C27.5798 18.2937 27.7683 17.1 27.8939 15.9692C28.2709 14.0216 28.8363 12.0111 30.0928 10.3777C30.9096 9.30961 32.0404 8.17877 33.2969 7.80181C33.988 7.42486 34.8047 7.23639 35.5587 6.98508C35.1817 6.60813 34.4906 6.85942 34.1137 6.73376C33.4226 6.92224 32.543 6.98508 31.8519 7.29921Z" fill="white"/>
<path fill-rule="evenodd" clip-rule="evenodd" d="M44.7987 14.147C45.1128 14.0842 45.427 14.3355 45.6783 14.524C45.7411 14.5868 45.7411 14.6496 45.7411 14.7125C45.8039 15.1522 45.8039 15.592 45.6783 16.0946L45.427 16.66C45.4898 16.7229 45.427 16.7857 45.3641 16.8485C45.3013 16.8485 45.3641 16.7857 45.3641 16.7857C45.1128 17.3511 44.7987 17.8538 44.1705 17.9794C43.982 18.1679 43.6678 18.2307 43.4794 18.2307C43.2909 18.1679 43.0396 18.1678 42.7883 18.105C42.537 18.2935 42.8511 18.5448 42.7255 18.7333C42.9768 19.1102 42.6626 19.6129 42.9768 19.927C43.0396 20.1155 43.2281 20.1783 43.4794 20.2411C43.7935 20.1783 44.2333 20.1783 44.4218 19.8642C44.5474 19.8014 44.6731 19.6757 44.7987 19.6129C45.05 19.2359 45.6154 18.9218 45.6783 18.4192C46.1809 18.0422 46.118 17.2255 46.5578 16.7229C46.6207 16.2203 46.872 15.8433 46.9976 15.2779C47.1861 14.9009 47.0604 14.4612 47.0604 14.0842C47.1233 13.7701 46.9348 13.3931 46.6835 13.2046C45.9924 12.9533 45.2385 13.7072 44.7987 14.147Z" fill="white"/>
<path fill-rule="evenodd" clip-rule="evenodd" d="M49.3223 14.901C50.0762 15.4036 50.139 16.1575 49.8877 16.9742C49.6364 17.8538 49.0082 18.6077 48.2543 19.1731C47.8773 19.2359 47.5004 19.236 47.1862 19.4244C46.9977 19.2988 46.7464 19.4244 46.6208 19.1731C46.3695 19.927 46.0554 21.0579 46.8093 21.6233L47.3747 21.749C48.9454 21.4349 49.6993 19.927 50.2647 18.6077C50.3904 18.3564 50.516 18.0422 50.6416 17.7909C50.8929 17.2883 51.0186 16.8486 51.2071 16.2831C51.2071 15.9062 51.2071 15.5292 51.0814 15.2151C50.9558 15.1523 50.893 14.9638 50.7673 14.8382C50.7045 14.7125 50.3903 14.6497 50.3903 14.4612C49.9506 14.524 49.6364 14.6497 49.3223 14.901Z" fill="white"/>
<path fill-rule="evenodd" clip-rule="evenodd" d="M43.7929 15.5921C43.7929 15.5293 43.8557 15.655 43.8557 15.7806C43.9186 15.7806 43.9814 16.0319 44.107 15.9063C44.2327 15.8434 44.3583 15.8435 44.484 15.7806C44.5468 15.5293 44.5468 15.278 44.5468 15.0267C44.484 15.0895 44.4212 15.0267 44.3583 14.9639C44.107 15.0895 43.9185 15.278 43.7929 15.5921Z" fill="white"/>
<path fill-rule="evenodd" clip-rule="evenodd" d="M47.8111 16.6601C47.9367 16.7857 47.7483 16.9742 47.8739 17.0999C48.3137 17.0999 48.6278 16.7858 48.7535 16.4716C48.7535 16.2831 48.8791 16.2203 48.8163 16.0318C48.6907 15.9062 48.5022 15.8434 48.4393 15.9062C48.188 16.0947 47.9996 16.4088 47.8111 16.6601Z" fill="white"/>
<path fill-rule="evenodd" clip-rule="evenodd" d="M64.146 17.3512C61.633 19.0475 59.5597 21.372 57.3608 23.5709C55.6645 25.6442 53.9054 27.529 52.3976 29.7907C51.6437 30.9844 50.8898 31.9896 50.1358 33.2461C49.7589 33.9372 49.3191 34.5027 49.0678 35.2566C48.8165 36.1361 48.3139 37.0157 48.0626 37.8952C47.9998 38.3978 48.2511 38.7748 48.6909 39.0261C49.005 39.2774 49.4448 39.2146 49.8217 39.1517C50.3871 39.0889 51.0154 38.7748 51.518 38.4607C51.7693 38.335 52.0834 38.0837 52.2719 37.8324C52.5232 37.7068 52.6489 37.267 52.9002 37.0785C54.5965 33.6231 56.2928 30.1677 58.2404 26.8379C59.2456 24.9531 60.6906 23.5081 61.7586 21.749C62.4497 20.9323 62.9523 19.8642 63.769 19.1103C64.8999 17.9795 65.9679 16.7858 67.4129 16.1575C67.4758 16.0319 67.2873 15.969 67.1616 15.9062C66.0936 16.2831 64.9627 16.5973 64.146 17.3512Z" fill="white"/>
<path fill-rule="evenodd" clip-rule="evenodd" d="M63.0135 16.9115C61.9454 17.1628 61.0659 17.2885 59.9978 17.5398C59.4324 17.477 58.8041 17.6026 58.3015 17.6655C56.2911 17.6655 54.0294 17.9796 52.019 17.2885C51.7048 18.3565 51.2022 19.5502 50.5111 20.4926C50.5111 20.5554 50.7624 20.6811 50.7624 20.8696C50.6996 21.3722 50.3855 21.6863 50.0085 21.9376C49.5059 22.3146 49.2546 21.6863 48.8777 22.1889C48.6892 22.3145 48.5007 22.4402 48.3122 22.503C48.3751 22.503 48.6892 22.503 48.6892 22.6915C48.752 23.1313 48.4379 23.4454 48.1866 23.7595C48.0609 23.8224 47.8096 24.0109 47.6212 23.8224C47.5583 23.5711 47.307 23.1313 47.5583 22.9428L47.9353 22.6915C47.684 22.7543 47.4327 22.7543 47.1814 22.7543C47.0557 23.1941 46.9301 23.8224 46.4275 24.0108C46.3018 24.0737 46.0505 24.0737 45.862 24.0108C45.6736 23.6967 45.5479 23.2569 45.7364 22.9428C45.9249 22.7543 46.0505 22.4402 46.1762 22.1889L45.7992 21.8748C45.7364 21.9376 45.6107 22.1261 45.4223 22.0633C45.4851 22.2517 45.7364 22.3774 45.6107 22.6287C45.3594 22.88 45.5479 23.4454 45.0453 23.3826C44.7312 23.5082 44.5427 23.1313 44.417 23.0057C44.3542 22.88 44.3542 22.7543 44.3542 22.6287C44.2914 22.88 44.3542 23.2569 44.1029 23.3826C44.0401 23.6339 43.726 23.6339 43.5375 23.7595C43.2862 23.7595 42.972 23.6967 42.8464 23.5082C42.7207 23.1313 42.7836 22.7543 42.9092 22.4402C43.0349 22.3146 43.1605 21.9376 43.4746 22.0004C43.2862 21.8748 43.349 21.6235 43.2233 21.435C43.1605 21.3722 43.2862 21.3722 43.2862 21.3093C43.1605 21.3722 43.1605 21.4978 43.1605 21.6235C42.9092 21.812 42.5951 22.0004 42.281 21.9376C42.2181 21.7491 41.904 21.6235 42.0297 21.3722C41.9668 21.3722 41.9668 21.3093 41.9668 21.3093C41.5899 21.6863 41.6527 22.3774 40.8988 22.3145C40.7731 22.1889 40.6475 22.0632 40.6475 21.8748C40.5847 21.6235 40.7731 21.4978 40.7731 21.3093C40.836 21.2465 40.8988 21.2465 40.8988 21.1837C41.1501 20.9952 41.2758 20.8067 41.7155 20.9324C41.904 20.9324 41.904 21.1837 41.9668 21.3093C41.9668 21.058 42.1553 21.1208 42.281 20.9324C42.2181 20.9324 42.0925 20.7439 42.0297 20.8067L41.7155 20.5554C41.1501 20.8067 40.5847 21.058 40.2705 21.6235C40.5218 22.0633 40.2077 22.4402 40.0192 22.8171C39.7679 22.88 39.391 23.0056 39.1397 22.8171C38.5114 23.4454 38.2601 24.325 37.7575 25.016C37.569 25.5187 37.2549 26.0841 37.1921 26.5239C38.6999 26.3354 40.0192 26.5239 41.2757 26.7752C42.4694 27.1522 43.7888 27.5291 44.9825 27.9061C45.4222 28.1574 45.7992 28.3458 46.239 28.5343C46.3646 28.66 46.5531 28.9113 46.4903 29.2254C46.1762 29.4139 45.7992 29.2254 45.5479 29.1626C44.9825 28.9113 44.3542 28.7856 43.7888 28.5343C42.7836 28.283 41.7784 27.7804 40.7731 27.6547C39.1397 27.1521 37.3177 27.4034 35.8727 27.7804C33.9251 28.8484 32.166 30.2934 31.4749 32.4923C32.7314 32.1154 34.0508 31.55 35.4958 31.8013C36.2497 31.9897 36.8779 32.1154 37.5062 32.4295C38.6999 32.8693 39.7679 33.5604 40.6475 34.4399C40.7103 34.6284 40.5847 34.8169 40.459 34.8797C40.3962 34.8169 40.2077 34.8797 40.1449 34.8797C40.0821 34.8797 40.1449 34.8797 40.1449 34.8169C39.8308 34.8169 39.6423 34.5027 39.3281 34.4399C38.7627 34.063 38.1973 33.686 37.6319 33.3719C36.9408 33.0578 36.1869 32.8065 35.3701 32.618C34.9932 32.5552 34.5534 32.5551 34.1764 32.5551C33.7995 32.4923 33.3597 32.7436 33.0456 32.8065C31.9775 33.1206 30.9723 33.5604 30.0928 34.2514H30.1556C30.0928 34.4399 29.8415 34.5656 29.7158 34.6912C28.9619 35.3195 28.8362 36.2619 28.208 36.9529C28.1452 37.5184 27.831 37.9582 27.6426 38.4608C27.4541 38.9006 27.3912 39.466 27.3912 39.9686C27.5169 40.0314 27.6426 39.7801 27.831 39.8429C28.6478 39.466 29.5273 39.4031 30.4069 39.5288C31.0351 39.5288 31.789 39.7801 32.4173 39.8429C32.8571 40.157 33.6738 40.0942 33.9251 40.7225C33.988 40.8481 33.9251 41.0995 33.7366 41.2251C33.1084 41.288 32.6058 40.8481 32.0404 40.7225C31.2865 40.7853 30.4697 40.3456 29.653 40.5969C29.1504 40.6597 28.6478 40.534 28.1452 40.6597C26.5117 41.2251 25.4436 42.7958 24.8782 44.4292C24.4384 45.6857 24.3128 47.2564 24.3128 48.6385C24.4384 48.827 24.25 49.1411 24.5013 49.204C24.941 49.3296 25.2552 49.0783 25.6321 48.9527C26.7002 48.5129 28.2708 48.6386 29.4645 48.7014C29.7786 48.7642 29.9671 49.0155 30.2184 49.2668C30.2812 49.5181 30.0928 49.581 29.9671 49.7066C29.5901 49.7694 29.2132 49.6437 28.8991 49.5809C28.0195 49.5809 27.0143 49.3925 26.0719 49.7694C25.7578 49.8322 25.3808 49.8951 25.2552 50.0836C25.0039 50.3977 24.6897 50.7118 24.6897 51.2144C24.5013 51.5286 24.4384 51.8427 24.4384 52.2825C24.5013 53.4761 24.8154 54.5442 25.1923 55.4866H25.2552C25.3808 55.7379 25.4436 56.052 25.5693 56.2405C25.5065 56.2405 25.5065 56.3033 25.5065 56.3033C25.5065 56.3033 25.5065 56.3033 25.5693 56.3033C25.6321 56.6803 25.8834 57.0572 25.9463 57.497C26.1976 57.6227 26.1976 57.9996 26.386 58.1881C26.6373 58.5022 26.8258 58.8164 27.1399 59.0677C28.0823 59.2561 29.276 59.1933 30.2812 59.2561L30.4069 59.3189L30.3441 59.3818C30.4069 59.319 30.5325 59.4446 30.5954 59.5074C30.5325 59.7587 30.4069 59.8844 30.2184 60.0101C29.9043 60.1357 29.5901 60.0729 29.276 60.1357C28.7106 60.1985 28.0823 60.01 27.5169 59.9472C28.0823 60.8896 28.6478 62.0205 29.653 62.5859C30.5325 63.3398 31.5378 63.7796 32.6686 64.2194C32.7943 64.2194 32.9827 64.2822 33.1712 64.4079C35.1816 65.0989 37.5062 65.2874 39.7051 64.9732C41.2129 64.4078 43.0349 63.4654 43.4746 61.7063C43.5375 61.2665 43.6631 60.6383 43.5375 60.2613C43.726 59.8843 43.4118 59.5074 43.349 59.1305C42.7207 58.3766 42.281 57.497 41.9668 56.6174C41.904 55.9264 41.904 55.2352 42.1553 54.607C42.0925 54.3557 42.3438 54.23 42.281 53.9159C42.0925 53.8531 41.904 53.8531 41.7155 53.9787C40.9616 54.5442 40.6475 55.3609 39.8308 55.8635C39.4538 55.9891 39.014 56.1148 38.7627 56.4289C38.6371 56.4289 38.3858 56.4918 38.1973 56.5546C37.8203 56.8688 37.1921 56.9315 37.0036 57.4341C36.8779 57.9367 36.8151 58.5022 37.2549 58.8164C37.6947 59.2561 38.4486 59.3818 39.1397 59.1933C39.3281 59.6959 39.4538 60.2613 39.4538 60.7011C39.391 61.2666 39.2025 61.8948 38.6999 62.209C38.4486 62.2718 38.2601 62.1461 38.0716 62.0205C38.0088 61.8948 38.0088 61.7692 38.0088 61.5807C38.1973 61.2666 38.4486 61.0152 38.3858 60.5754C38.3229 60.5126 38.2601 60.387 38.1345 60.3242C38.0088 60.8268 37.4434 61.2037 37.0036 61.3922C36.9408 61.5807 36.7523 61.455 36.6266 61.455C36.501 61.3294 36.3125 61.3922 36.2497 61.1409C36.1869 61.0781 36.1869 60.8896 36.2497 60.7639C36.6895 60.6383 37.0664 60.3241 37.2549 59.8844C37.1921 59.7587 37.0036 59.6959 36.8779 59.633C36.501 59.3817 36.3125 58.8792 36.124 58.5022C35.8099 57.8111 36.1869 57.1201 36.501 56.6174C36.6266 56.4918 36.7523 56.3662 36.8779 56.2405C36.7523 55.9892 36.8151 55.4866 36.8779 55.1724C36.8151 55.0468 36.7523 54.9839 36.7523 54.8583C37.0036 53.8531 37.0036 52.6594 37.2549 51.717C37.8832 49.4553 38.9512 47.6962 40.2077 45.8743C40.7731 45.1832 41.3386 44.4921 41.9668 43.801C42.5323 43.424 42.9092 42.9842 43.4746 42.6701C43.6003 40.3455 44.8568 38.1467 46.8672 37.3299C46.9929 37.1414 47.4327 37.3299 47.4955 37.0786C48.2494 34.7541 49.3803 32.8065 50.7624 30.796C51.642 29.6023 52.4587 28.3458 53.3383 27.1521C55.977 23.3826 59.2439 20.3041 62.825 17.3513C63.1391 17.1 63.5789 16.9115 63.8302 16.5974C63.3276 16.7231 63.2648 16.9115 63.0135 16.9115Z" fill="#C6C6C6"/>
<path fill-rule="evenodd" clip-rule="evenodd" d="M15.2043 22.1887C14.7645 22.7541 14.6388 23.3824 14.4504 24.0735C14.1362 24.4504 13.8221 24.6389 13.3195 24.6389C12.2515 24.8902 11.4976 25.5185 11.2463 26.5865C11.3719 26.9635 11.1206 27.6546 11.4976 27.9059C11.4976 28.0944 11.7488 28.0943 11.686 28.2828C11.7488 28.9739 11.1206 29.1624 10.9321 29.7907C10.5552 31.0472 10.618 32.6178 11.1834 33.8115C12.063 35.6963 12.9425 37.5182 13.6965 39.403C14.3247 40.3454 14.6388 41.2878 15.3928 42.1673C15.9582 43.361 17.0262 44.1777 17.843 45.1829C18.0943 45.4342 18.2827 45.5599 18.4712 45.8112C18.911 45.1829 19.3508 44.4918 19.8534 43.9264C21.4868 41.6647 23.5601 39.6543 25.4449 37.7067C24.8795 36.0104 25.1308 34.2513 25.4449 32.4293C25.0679 31.1728 24.691 29.8535 24.4397 28.4713C23.9999 26.4609 23.6858 24.5133 23.5601 22.44C23.1832 21.9374 22.6805 21.6861 22.0523 21.372C21.4868 21.1207 20.9214 21.372 20.5445 21.749C20.9214 22.6285 20.9214 23.6337 20.5445 24.5761C20.4816 24.8274 20.4188 25.2043 20.1675 25.33C20.0419 25.3928 19.8534 25.2672 19.7277 25.2672C19.5393 25.0787 19.3508 24.8274 19.4764 24.5133C19.8534 23.885 19.6649 23.1939 19.7277 22.5028C19.5393 22.2515 19.5392 21.8746 19.2251 21.749C18.6597 21.1207 17.843 20.6809 16.9634 20.9322C16.3351 21.1207 15.7069 21.6861 15.2043 22.1887Z" fill="#C6C6C6"/>
<path fill-rule="evenodd" clip-rule="evenodd" d="M50.8917 21.6862C50.7661 21.8119 50.8289 22.0632 50.6404 22.126C50.6404 22.1889 50.6404 22.3773 50.7032 22.503C50.9545 22.5658 50.9545 22.7543 51.2687 22.7543C51.4571 22.8171 51.52 22.6287 51.6456 22.5658C51.7084 22.126 52.2111 21.6234 51.7713 21.2465C51.4571 21.1208 51.2058 21.5606 50.8917 21.6862Z" fill="black"/>
<path fill-rule="evenodd" clip-rule="evenodd" d="M44.482 21.749C44.3563 21.8118 44.4191 22.0631 44.2307 22.0003C44.2935 22.0631 44.4191 22.1259 44.3563 22.2516C44.4191 22.1259 44.9217 22.0003 44.7333 21.749C44.8589 21.4977 44.6704 21.4977 44.6704 21.372C44.4191 21.4348 44.5448 21.6862 44.482 21.749Z" fill="#C6C6C6"/>
<path fill-rule="evenodd" clip-rule="evenodd" d="M42.0278 22.0633C41.8393 22.3146 41.7765 22.6287 41.588 22.88C41.6508 22.9428 41.6508 23.1313 41.6508 23.257C41.7765 23.3826 41.965 23.6339 42.1534 23.3826C42.2791 23.3826 42.4676 23.1941 42.5304 23.1313C42.5932 22.8172 42.8445 22.5659 42.7817 22.2518C42.7189 22.1889 42.656 22.1261 42.5304 22.0633C42.3419 22.0633 42.1534 22.0633 42.0278 22.0633Z" fill="black"/>
<path fill-rule="evenodd" clip-rule="evenodd" d="M49.3824 22.3146C49.2568 22.4402 49.4453 22.5659 49.3196 22.6916C49.2568 22.8172 49.2568 23.1313 49.5081 23.1941C49.885 23.257 50.0107 22.9428 50.262 22.8172C50.3248 22.6915 50.3876 22.4402 50.3248 22.2518C50.262 22.1889 50.1992 22.0633 50.0107 22.0633C49.7594 22.1261 49.6337 22.3146 49.3824 22.3146Z" fill="black"/>
<path fill-rule="evenodd" clip-rule="evenodd" d="M39.7704 23.5083C39.8332 23.6968 39.8332 23.7596 39.8332 23.9481C39.9589 24.0109 40.0217 24.0109 40.1474 24.0737C40.273 23.9481 40.5871 24.0109 40.65 23.7596C40.5871 23.6339 40.7128 23.6339 40.7756 23.5083C40.8385 23.4455 40.7128 23.3198 40.65 23.257C40.3987 23.3198 40.273 23.1313 40.0845 23.1942C39.9589 23.3198 39.8332 23.3826 39.7704 23.5083Z" fill="black"/>
<path fill-rule="evenodd" clip-rule="evenodd" d="M44.3572 23.9479C44.1059 24.262 43.8546 24.7646 44.1059 25.1415C44.2316 25.2043 44.4201 25.3928 44.5457 25.2044C44.6714 25.2672 44.8598 25.2043 44.9227 25.0159C45.0483 24.7646 45.1111 24.5133 45.2368 24.262C45.2996 24.0107 45.174 23.8222 44.9227 23.6965C44.6714 23.6965 44.5457 23.8222 44.3572 23.9479Z" fill="black"/>
<path fill-rule="evenodd" clip-rule="evenodd" d="M42.4131 24.3249C42.3503 24.5134 42.5388 24.639 42.4759 24.8275C42.7273 25.0788 42.9786 25.016 43.167 24.8903C43.4183 24.8275 43.3555 24.5134 43.4183 24.3249C43.4183 24.0736 43.1042 23.9479 42.9157 23.9479C42.6644 23.9479 42.5388 24.1364 42.4131 24.3249Z" fill="black"/>
<path fill-rule="evenodd" clip-rule="evenodd" d="M48.5033 24.4505C48.4404 24.7018 48.5661 24.8903 48.6918 25.0788C48.8802 25.1416 49.0687 25.1416 49.2572 25.0159C49.3828 24.8275 49.6341 24.5134 49.5085 24.2621C49.5085 24.1364 49.5085 24.0107 49.3828 24.0107C49.0059 24.1364 48.5661 23.9479 48.5033 24.4505Z" fill="black"/>
<path fill-rule="evenodd" clip-rule="evenodd" d="M40.646 24.7646C40.5832 24.9531 40.4576 25.1416 40.5204 25.3301C40.5832 25.3929 40.7717 25.707 41.023 25.5814C41.0858 25.3929 41.3371 25.5814 41.3999 25.3301C41.4628 25.0159 41.8397 24.5761 41.5256 24.3877C41.2115 24.262 40.7089 24.3249 40.646 24.7646Z" fill="black"/>
<path fill-rule="evenodd" clip-rule="evenodd" d="M46.1151 24.5134C45.9895 24.8275 45.7382 25.1416 45.9895 25.4558C46.1151 25.5186 46.1151 25.7071 46.3036 25.6442L46.3664 25.5814C46.4293 25.5814 46.4293 25.6442 46.5549 25.6442C46.6806 25.3301 47.1204 25.016 46.8062 24.639C46.6806 24.3249 46.3664 24.3249 46.1151 24.5134Z" fill="black"/>
<path fill-rule="evenodd" clip-rule="evenodd" d="M15.0125 25.4558C14.9497 26.1469 14.6984 26.6495 14.3214 27.2777C14.2586 27.3406 14.0701 27.4034 14.0701 27.529C14.0701 27.7803 14.1958 27.8431 14.3214 27.9688C14.5099 28.0945 14.6984 28.2201 14.9497 28.0316C15.5151 27.4662 15.8292 26.7123 15.9549 25.8956C15.9549 25.6443 15.8292 25.3301 15.5779 25.2045C15.3266 25.1417 15.0125 25.2045 15.0125 25.4558Z" fill="black"/>
<path fill-rule="evenodd" clip-rule="evenodd" d="M88.8964 27.215C84.1845 32.3039 79.3469 37.2671 74.5721 42.356C74.8862 42.6073 75.1376 42.8586 75.3889 43.1099C77.0223 42.1047 78.4673 40.9739 79.9751 39.9058C80.9175 39.3404 81.5458 38.398 82.2997 37.6441C84.9384 34.7541 87.6399 31.9897 90.2786 29.0997C90.1529 28.1574 90.0273 27.215 89.8388 26.2726C89.5247 26.5867 89.3362 26.9637 88.8964 27.215Z" fill="#7D8D9E"/>
<path fill-rule="evenodd" clip-rule="evenodd" d="M83.061 29.5393C79.4171 33.3089 75.7104 37.1412 72.0665 40.9736C72.3178 41.0364 72.6948 41.2249 73.0717 41.3506C73.323 41.539 73.5115 41.6018 73.7628 41.7275C78.035 37.3297 82.2443 32.9319 86.4536 28.5341C86.2023 27.9059 86.2023 27.1519 86.0138 26.5237C85.0715 27.4661 83.8778 28.6598 83.061 29.5393Z" fill="#7D8D9E"/>
<path fill-rule="evenodd" clip-rule="evenodd" d="M30.9768 28.8483C31.1025 29.3509 31.291 29.7907 31.3538 30.3561C31.7308 29.8535 32.1705 29.3509 32.5475 28.8483C32.0449 28.8483 31.5423 28.8483 30.9768 28.8483Z" fill="#C6C6C6"/>
<path fill-rule="evenodd" clip-rule="evenodd" d="M26.5117 37.267C26.5746 37.5183 26.7002 37.8952 26.8887 38.1465C27.2657 37.1413 27.7683 36.0733 28.3965 35.1309C27.9567 34.8796 27.3285 34.6283 27.0144 34.3142C26.8259 34.1257 26.6374 34.0629 26.4489 33.8744C26.072 34.9424 26.3233 36.1361 26.5117 37.267Z" fill="#C6C6C6"/>
<path fill-rule="evenodd" clip-rule="evenodd" d="M85.8818 36.6387C82.552 39.0261 79.3479 41.4135 75.9553 43.7381C76.2694 44.115 76.6464 44.6176 76.8349 45.0574H76.9605C79.9762 42.7956 82.8661 40.5339 85.8818 38.335C86.1331 38.0209 86.8242 37.8952 86.8242 37.267C86.7613 36.89 86.887 36.3246 86.9498 35.8848C86.6357 36.1361 86.2587 36.3246 85.8818 36.6387Z" fill="#7D8D9E"/>
<path fill-rule="evenodd" clip-rule="evenodd" d="M84.6894 36.5134L84.7524 36.4503H84.6894V36.5134Z" fill="white"/>
<path fill-rule="evenodd" clip-rule="evenodd" d="M88.586 37.7696C87.3295 38.6491 86.0729 39.6544 84.8792 40.5339C84.3766 40.9737 83.8112 41.3507 83.3714 41.7904C81.2982 43.1726 79.4762 44.8061 77.4658 46.2511C77.5914 46.5024 77.7171 46.8165 77.8428 47.0049C79.0364 46.4395 80.293 46.0625 81.4866 45.4971C81.7379 45.4971 81.8636 45.3086 81.9893 45.183C82.6175 44.806 82.9945 44.115 83.6855 43.738C83.7484 43.6752 83.874 43.6124 83.8112 43.4239C84.251 43.1726 84.5651 42.9213 84.9421 42.6071C86.4499 41.225 88.0205 39.9684 89.5284 38.5235H89.654C90.031 38.335 89.9053 37.8952 89.9681 37.5811L89.9053 37.5183C90.0938 37.267 90.1566 36.8272 90.1566 36.5131C89.5912 36.9528 89.2142 37.3926 88.586 37.7696Z" fill="#7D8D9E"/>
<path fill-rule="evenodd" clip-rule="evenodd" d="M99.8908 38.6493C99.1997 39.0262 98.5086 39.2147 97.8175 39.466C97.5662 39.5917 97.3777 39.6545 97.2521 39.8429C93.1684 41.5392 89.1475 43.2356 85.0639 44.9319C82.7393 45.9371 80.4776 46.9423 78.0902 47.9475C78.153 48.3244 78.3415 48.7014 78.4672 49.0784C82.5508 47.1936 86.6345 45.4345 90.7182 43.5497C92.8543 42.4816 95.116 41.7277 97.2521 40.7225C98.1945 40.1571 99.1368 39.6545 100.205 39.2776C100.205 39.0891 100.205 39.0262 100.268 38.9006C100.582 38.9634 100.456 38.6493 100.645 38.5236V38.3351C100.393 38.398 100.205 38.5236 99.8908 38.6493Z" fill="#7D8D9E"/>
<path fill-rule="evenodd" clip-rule="evenodd" d="M19.2266 46.6909C17.7816 49.3296 15.8341 51.9054 14.7032 54.8582C13.9493 56.743 13.1325 58.6278 12.5043 60.5754C13.1954 60.4497 13.7608 60.1984 14.4519 60.1356C14.4519 59.8843 14.7032 59.9471 14.766 59.8215C15.0173 59.9471 15.3314 59.8215 15.3314 60.1356C15.143 61.3921 15.0173 62.523 14.766 63.7795C14.2006 66.3554 14.0749 69.1826 13.8864 71.9469C13.8236 72.7008 13.7608 73.706 13.9493 74.4599C18.6612 72.3867 23.3103 70.3134 28.0851 68.303L28.0222 68.2402C30.0327 67.3606 31.9803 66.5438 33.9907 65.6014C33.6766 65.5386 33.3624 65.413 33.1111 65.3502C32.2316 65.0989 31.4148 64.7219 30.5981 64.2821C30.0327 63.968 29.4673 63.591 28.9018 63.2769C28.6505 63.0256 28.3364 62.7743 28.1479 62.523C27.2055 61.6435 26.7029 60.387 25.949 59.3817C24.5668 57.9996 24.1271 55.9263 23.436 54.0415C23.1847 52.7222 23.059 51.5913 23.6873 50.3976C23.1218 48.7641 23.436 47.382 23.6244 45.7485C23.9386 44.0522 24.6925 42.1046 25.8862 41.0994C26.0118 40.8481 26.3259 40.8481 26.4516 40.534C26.5144 40.0942 26.5144 39.6544 26.5773 39.2146C26.326 39.1518 26.1375 38.9633 26.0118 38.712C23.3103 41.0994 21.1742 43.7381 19.2266 46.6909Z" fill="#E30613"/>
<path fill-rule="evenodd" clip-rule="evenodd" d="M68.667 40.471C68.9183 40.4082 69.1068 40.4082 69.2953 40.4082C69.6094 40.5339 69.9863 40.4082 70.3005 40.471C69.9863 39.9056 69.735 39.3402 69.4209 38.7748C69.2324 39.3402 68.9811 40.0313 68.667 40.471Z" fill="#E30613"/>
<path fill-rule="evenodd" clip-rule="evenodd" d="M100.651 39.9686C93.3 43.1099 85.9494 46.4396 78.5988 49.7694C78.8501 50.7746 78.9758 51.6541 79.0386 52.7222C85.2583 49.7693 91.5409 46.8794 97.8863 43.9265C98.2633 43.8009 98.6402 43.6125 99.08 43.424C99.7711 42.9842 100.525 42.8585 101.153 42.3559C101.405 42.2931 101.53 42.1675 101.719 42.1047C101.97 41.9162 102.284 41.7905 102.598 41.6648C102.033 41.0994 101.467 40.4712 100.839 39.9686C100.839 39.9686 100.713 39.9686 100.651 39.9686Z" fill="#7D8D9E"/>
<path fill-rule="evenodd" clip-rule="evenodd" d="M104.29 41.7905C95.8718 45.7486 87.4532 49.6437 79.0973 53.6017C79.1602 54.3557 79.0345 54.7954 79.0345 55.5493C79.0973 55.675 79.223 55.675 79.2858 55.8006C87.2647 51.9054 95.1807 47.8846 103.222 43.9266C104.039 43.047 104.73 42.1675 105.547 41.2879C105.044 41.4136 104.73 41.8534 104.29 41.7905Z" fill="#7D8D9E"/>
<path fill-rule="evenodd" clip-rule="evenodd" d="M68.3594 41.602C68.2337 41.7277 67.9824 41.5392 67.9196 41.7905C67.5426 42.4188 67.04 42.9842 66.5374 43.6753C66.2861 43.8638 66.0348 44.0522 65.8464 44.2407C65.5951 44.4292 65.2181 44.6177 64.904 44.6177C64.7155 44.8062 64.3385 44.7433 64.0244 44.5548C63.6475 44.492 63.2705 44.2407 63.0192 43.9266C62.8935 43.6753 62.7679 43.4868 62.7051 43.1727C62.3281 43.2983 61.9512 43.4868 61.6998 43.7381C61.637 43.7381 61.637 43.7381 61.637 43.6753C61.2601 43.9895 60.7575 44.2407 60.3805 44.5548C58.8727 45.7485 57.3649 47.382 56.3597 48.7642C56.0455 49.1412 55.7942 49.6438 55.4801 50.0207C55.166 50.7746 54.6634 51.5285 54.5377 52.408C54.3492 53.6017 54.0351 55.0468 54.1608 56.3033C54.4749 56.4289 54.9147 56.6802 55.2288 56.4289C54.9147 55.5494 55.3544 54.4813 55.7942 53.6646C55.8571 53.5389 56.0455 53.6018 56.1712 53.6018C56.4225 53.6018 56.5481 53.7902 56.6738 53.9159C56.234 54.7954 55.8571 55.9264 56.234 56.8687C56.3597 57.0572 56.4853 57.3713 56.7366 57.497L57.1136 58.2509C57.1764 57.497 57.3021 56.7431 57.4277 56.052C57.679 55.9891 57.9931 55.9891 58.2444 56.1148C58.4957 56.1776 58.4329 56.5546 58.4329 56.8687C58.3073 57.9996 58.0559 59.1932 58.4957 60.1985C58.4329 60.2613 58.5586 60.387 58.5586 60.4498C58.8727 60.1985 59.2497 59.7587 59.6894 59.8843C59.8779 60.01 59.8779 60.1985 59.9407 60.387C58.4957 61.5807 57.6162 63.3397 56.611 64.9732C56.0455 65.9784 55.7314 67.1721 55.4173 68.303C55.6686 68.3658 56.0455 68.3658 56.3597 68.3658C57.2392 68.4286 58.2444 68.303 59.124 68.303C61.3857 68.1774 63.6474 68.0517 65.7207 67.235C66.7887 66.9209 67.7939 66.5439 68.862 66.1669C69.8672 65.7271 70.8724 65.4759 71.752 65.0989C72.82 64.5335 73.8881 64.0308 74.8933 63.4026C75.1446 63.2141 75.6472 63.2141 75.6472 62.8372C75.8985 62.6487 76.0241 62.3974 76.2126 62.0832C76.5896 61.5178 76.8409 60.8267 76.8409 60.0728C76.2754 60.1985 75.5215 60.4498 74.9561 60.7011C74.8304 60.7011 74.642 60.7011 74.5791 60.6383C74.5163 60.5755 74.3278 60.5754 74.265 60.387C74.2022 60.1357 74.3907 60.1357 74.5163 60.01C75.4587 59.6959 76.4639 59.3818 77.2178 58.8163C77.532 58.5022 77.9089 57.9996 78.2859 57.8111C78.3487 57.497 78.5372 57.2457 78.4743 56.9315C78.5372 56.8059 78.4743 56.5546 78.4115 56.4289C78.1602 56.2404 77.532 56.1776 77.7833 55.5493C78.0346 53.7274 78.0346 51.5914 77.4691 49.9579C76.9665 48.2616 76.5267 46.5652 75.5844 45.1831C75.0189 44.3035 74.3278 43.5496 73.5739 42.8586C72.7572 42.4816 72.0661 41.7905 71.1237 41.7277C70.3698 41.4135 69.4274 41.4764 68.5479 41.5392C68.5479 41.5392 68.485 41.602 68.3594 41.602Z" fill="#C6C6C6"/>
<path fill-rule="evenodd" clip-rule="evenodd" d="M61.4452 42.4188C61.4452 42.4188 61.508 42.4188 61.4452 42.4188C61.3196 42.5445 61.0054 42.5444 60.8169 42.6701H60.8798C60.6913 42.7957 60.6285 42.8585 60.44 42.9214C60.3772 42.9214 60.3143 42.9214 60.3143 42.9842C60.3772 42.9214 60.3772 42.9214 60.3772 42.9214C60.1259 42.9842 59.9374 43.1727 59.6233 43.2983C59.6861 43.2983 59.6861 43.2355 59.6861 43.2983L59.6233 43.3612C59.5604 43.2984 59.5604 43.2983 59.5604 43.2983C57.8013 44.115 56.1678 45.2459 54.4715 46.1255C53.9061 46.3768 53.4035 46.691 52.7753 46.8794C52.3983 47.2564 51.77 47.3192 51.2674 47.6333C50.5135 47.8218 49.7596 48.136 48.9429 48.3873H49.0057C48.2518 48.4501 47.6235 48.9526 46.8068 48.9526C46.6812 49.2039 46.367 49.0783 46.1157 49.204C45.4246 49.3924 44.6079 49.5181 43.9168 49.5809C43.5399 49.7065 43.0373 49.5181 42.7231 49.6438C41.4666 49.8951 40.3357 49.5809 39.142 49.3925C38.8907 50.0207 38.5766 50.649 38.3881 51.34C38.074 52.1568 37.8855 53.0363 37.7599 53.9787C37.697 54.4813 37.6971 55.0467 37.6971 55.4865C38.7023 55.3609 39.7075 54.8583 40.2729 53.9787C40.4614 53.6646 40.8383 53.3505 41.0897 53.162C41.4666 52.6594 42.2833 52.4709 42.8488 52.6594C42.9116 52.6594 42.9744 52.7222 43.1001 52.7222C43.477 53.0363 43.4142 53.5389 43.3514 53.9159C43.2257 54.1672 43.1001 54.4813 43.1001 54.7955C42.7859 55.8007 43.1629 56.9315 43.6655 57.6226C44.1053 58.5022 45.1105 59.3189 44.7335 60.6383L44.7964 60.8895C46.6811 60.0728 48.5031 59.2561 50.3879 58.4394C50.8276 58.2509 51.3931 58.0624 51.8329 57.8739C52.3355 57.6226 52.8381 57.3085 53.3407 57.1829C53.1522 54.9211 53.4035 52.2824 54.4087 50.2091C54.9741 48.827 55.9165 47.6333 56.8589 46.4396C57.1102 46.1883 57.4872 45.9371 57.6757 45.5601C58.7437 44.5549 59.6861 43.4868 61.1311 42.7958C61.508 42.4188 62.1363 42.2303 62.6389 41.9162L62.7017 41.6649C62.1991 42.2303 61.7593 42.356 61.4452 42.4188Z" fill="#E30613"/>
<path fill-rule="evenodd" clip-rule="evenodd" d="M11.1849 56.4917C10.6823 57.1828 10.054 57.9996 9.80273 58.8791C9.7399 59.3189 9.99121 59.6331 10.1169 60.01C10.431 60.2613 10.7451 60.7639 11.3106 60.7011C12.0645 58.6278 12.8184 56.5545 13.6979 54.6069C12.7556 54.9839 11.6875 55.5493 11.1849 56.4917Z" fill="#E30613"/>
<path fill-rule="evenodd" clip-rule="evenodd" d="M40.6511 55.5493C40.3998 55.8006 40.5883 56.3032 40.2742 56.5545C39.96 57.12 39.3318 56.9315 38.892 57.3084L38.9548 57.6226C39.3318 58.188 39.8344 57.7482 40.3998 57.7482C40.8396 57.6853 40.9652 57.1828 41.2794 56.8687C41.405 56.4917 41.5307 55.9263 41.2165 55.675C41.2165 55.4865 40.9652 55.4865 40.9652 55.3608C40.8396 55.4865 40.6511 55.3608 40.6511 55.5493Z" fill="black"/>
<path fill-rule="evenodd" clip-rule="evenodd" d="M75.2045 56.5546C75.0788 56.9315 75.4558 56.9315 75.7071 57.12C76.2725 57.3713 76.3353 56.7431 76.7123 56.5546C76.7751 56.4289 76.9008 56.4289 76.9636 56.3033C76.9008 56.1148 76.9008 56.052 76.9008 55.9263C76.6495 55.8635 76.3982 55.7378 76.1469 55.8006C75.8327 55.9263 75.5186 56.2405 75.2045 56.5546Z" fill="black"/>
<path fill-rule="evenodd" clip-rule="evenodd" d="M54.5979 57.811C51.2681 59.3189 47.8127 60.701 44.4201 62.146C44.2945 62.3973 44.2316 62.7114 44.0432 62.9627C43.9803 63.0256 43.8547 63.2768 43.7919 63.3397C43.2893 64.2821 42.4725 64.5334 41.7186 65.0988C41.4673 65.2245 41.216 65.2873 40.9647 65.4758C40.7762 65.4758 40.5878 65.5386 40.3993 65.6643C39.6454 65.9156 38.8286 65.8527 38.0747 65.9155C37.1952 65.9155 36.5041 65.8527 35.5617 65.7899C35.4989 65.9155 35.436 65.9784 35.3104 65.9784C30.1587 68.1145 25.1326 70.2505 20.0437 72.4494C15.4574 74.5227 10.7455 76.596 6.15921 78.5436C6.22204 79.109 5.97074 79.6115 5.90792 80.0513H5.97075C5.84509 80.5539 5.71944 81.0566 5.59379 81.4963C15.7716 76.7844 26.0122 72.2609 36.1899 67.6747C36.6297 67.4862 37.0067 67.2977 37.3836 67.0464C38.2004 66.7951 38.7658 66.3553 39.5825 66.1668C42.4097 64.9103 45.2369 63.6538 48.0012 62.3973C50.6399 61.3292 53.2786 60.1984 55.9173 58.9419C55.9801 58.7534 56.1686 58.879 56.2314 58.6905C55.9801 58.3136 55.8544 57.811 55.5403 57.3712C55.289 57.5597 54.9749 57.7482 54.5979 57.811Z" fill="#7D8D9E"/>
<path fill-rule="evenodd" clip-rule="evenodd" d="M78.0927 59.5075C78.0927 60.1357 77.9671 60.8896 77.8414 61.5179C77.6529 61.6435 77.7158 61.9577 77.4645 62.0833C77.4016 62.5859 76.5849 62.8372 77.0875 63.3398C77.4644 63.9053 77.5901 64.5335 77.8414 65.099C78.2184 65.8529 78.1555 66.6068 78.2184 67.4235C78.1555 68.1774 78.1555 68.8685 77.8414 69.5596C77.1503 70.7533 76.7734 72.0726 76.0823 73.3291C75.3284 74.5857 74.6373 75.7794 73.8206 77.0359C73.0667 78.1667 72.2499 79.3604 71.3075 80.3656C70.9934 80.7426 70.6164 81.1196 70.3023 81.4337C69.3599 82.3132 68.1034 82.9415 66.9725 83.6326C66.093 84.198 64.9621 84.3237 63.8312 84.6378C63.3915 84.6378 63.0773 84.575 62.6376 84.575C62.4491 84.4493 62.2606 84.3236 62.0721 84.0723C62.0721 83.7582 62.3234 83.7582 62.6376 83.6954C63.8312 83.6326 65.0249 83.1928 66.1558 82.8158C68.2291 81.9363 69.9254 80.3028 71.2447 78.6065C71.7473 78.1039 71.9986 77.4128 72.4384 76.9102C73.1923 75.8421 73.8206 74.7741 74.4488 73.6433C73.7577 74.0202 73.0038 74.3343 72.2499 74.6485C71.496 74.8998 70.7421 75.0882 69.9254 75.2767C68.606 75.5909 67.161 75.528 65.9673 75.5909C65.716 75.528 65.5904 75.4652 65.4647 75.2139V74.837C66.2815 74.837 67.0982 74.7741 67.7893 74.7113C68.9201 74.6484 70.051 74.2715 71.119 74.0202C72.6897 73.4548 74.0719 72.5752 75.2655 71.5072C76.7105 69.7481 77.4645 67.0466 76.5221 64.7848C76.3964 64.4707 76.2079 64.1566 75.9566 63.9681C75.7053 64.0937 75.5797 64.3451 75.3284 64.4707C74.1347 65.0361 73.0038 65.7272 71.6845 66.2298C70.1138 66.7324 68.6688 67.5492 67.0982 67.9889C66.5956 68.0518 66.2186 68.3659 65.716 68.3659C64.7108 68.7428 63.7056 68.9313 62.5747 68.9941C60.69 69.3711 58.5539 69.3083 56.6691 69.3083C56.1665 69.3083 55.7896 69.1198 55.287 69.1198C54.91 69.1198 54.7843 69.057 54.4074 69.1198C54.0932 69.5596 53.6535 69.9366 53.3393 70.4392C50.7635 72.9522 48.4389 75.528 45.9259 78.1039C43.6642 80.5541 41.4024 82.9415 39.0779 85.3288C35.3083 89.5382 31.2247 93.8732 27.2666 98.3338C28.209 99.0249 29.0258 99.5275 30.031 100.156C31.6016 100.721 33.2351 101.475 34.9942 101.601C38.8894 102.355 42.7218 102.417 46.7426 102.166C45.1092 100.784 44.104 98.8364 43.8527 96.5747C43.7898 95.2553 43.8526 93.8103 44.3552 92.8051C44.8579 91.7371 45.5489 90.7947 46.617 90.1665C47.8107 89.2869 49.2557 88.8471 50.6378 88.2817C52.5226 87.5906 54.7215 87.4021 56.8576 87.4021C57.6115 87.5906 58.3654 87.5278 59.1821 87.7163C59.9361 87.9676 60.6271 88.0932 61.3182 88.2817C62.5747 88.7843 63.7056 89.4754 64.7736 90.1665C64.9621 90.355 65.2134 90.5434 65.4019 90.6062C66.2186 91.2973 67.0982 91.9884 67.7265 92.8051C67.9149 93.0564 68.1662 93.2449 68.2919 93.559C68.2919 93.6847 68.4175 93.8732 68.5432 93.9988C68.6688 94.0617 68.7945 94.0617 68.9201 93.9988C69.6112 93.4334 70.3023 92.8051 70.9306 92.3025C70.8677 92.3025 70.8677 92.3653 70.8677 92.3025C70.9306 92.2397 70.9934 92.0512 71.119 92.1141C71.119 92.1141 71.119 92.0513 71.0562 92.0513L71.1819 91.9884V92.0513C71.119 91.9884 71.119 91.9884 71.1819 91.9256C71.3075 91.9256 71.4332 91.6743 71.496 91.7371C72.564 90.6691 73.6321 89.6639 74.6373 88.5958C75.5169 87.5278 76.3336 86.3969 77.1503 85.266C77.4645 84.8263 77.7158 84.3236 78.0927 83.821C78.4697 83.1299 78.8466 82.4389 79.1608 81.8106C79.4749 81.0567 79.7262 80.4285 80.1031 79.8002C80.3544 79.0463 80.7314 78.2924 80.9199 77.6013C81.1712 76.9102 81.234 76.2819 81.4225 75.6537C81.7994 74.1458 81.8623 72.6381 81.9879 71.1302C81.8623 70.5648 82.0507 69.9365 81.9251 69.3083C81.8623 66.6696 81.5481 63.9681 80.4801 61.6436C80.1031 60.4499 79.5377 59.5075 78.9723 58.4395C78.721 58.8792 78.5325 59.1933 78.0927 59.5075Z" fill="#E30613"/>
<path fill-rule="evenodd" clip-rule="evenodd" d="M56.4215 59.6958C56.1702 59.8215 55.9817 59.9471 55.7304 60.0728C49.008 62.9628 42.4113 65.9784 35.6261 68.994C25.5112 73.5175 15.3962 78.041 5.34412 82.6272C7.16607 84.1351 8.92519 85.6429 10.6843 87.0879C11.501 86.1455 11.9408 84.889 12.6319 83.8838C13.1973 83.8209 13.7628 83.5068 14.3282 83.3183C24.5688 78.4179 34.8722 73.5175 45.1128 68.6799C45.5526 68.4914 46.0552 68.1772 46.5578 68.1144L46.6207 67.9888C49.9504 66.481 53.343 64.8475 56.6728 63.2769C57.1126 62.6486 57.4267 61.8947 57.9921 61.2665C57.6152 61.0152 57.4895 60.4497 57.1126 60.1984C57.0497 59.9471 56.8613 59.8214 56.7984 59.5701C56.7356 59.5701 56.5471 59.6958 56.4215 59.6958Z" fill="#7D8D9E"/>
<path fill-rule="evenodd" clip-rule="evenodd" d="M9.2376 62.9627C9.2376 64.3449 9.17477 65.7899 9.30043 67.1092C9.36325 68.4914 9.67738 69.8736 9.86585 71.2557C10.1172 72.7635 10.7454 74.2085 11.248 75.5907C11.9391 75.3394 12.5045 75.0253 13.1956 74.774L13.1328 74.6483C13.0072 72.3238 13.2585 70.062 13.3841 67.8003C13.5098 65.727 14.0124 63.8423 14.2637 61.769C14.3893 61.4549 14.3265 61.1408 14.4521 60.8267C13.0072 61.2036 11.3109 61.9576 9.92868 60.9523C9.80303 60.7639 9.67738 60.5754 9.55172 60.3869C9.2376 61.2665 9.30042 62.0832 9.2376 62.9627Z" fill="#E30613"/>
<path fill-rule="evenodd" clip-rule="evenodd" d="M85.1301 62.6486C84.8788 62.7743 84.5647 62.8371 84.3762 63.0256C83.6223 63.4025 83.1825 63.9052 82.6799 64.4078C82.7427 65.0989 82.9312 65.7899 82.994 66.481C83.8107 65.0988 85.1929 63.6538 86.7636 63.0256C86.8892 62.8371 87.2033 62.9627 87.3918 62.7742L87.8316 62.8371C87.7688 62.6486 87.4547 62.6486 87.2662 62.523C86.5751 62.4602 85.7584 62.4601 85.1301 62.6486Z" fill="#C6C6C6"/>
<path fill-rule="evenodd" clip-rule="evenodd" d="M49.8882 67.4234C37.8257 73.1406 25.7631 78.6692 13.7634 84.6377C13.5121 85.3916 13.0723 86.0199 12.7582 86.8366C12.1299 87.8418 11.6273 89.0984 11.0619 90.1664C22.3077 84.5121 33.4907 78.7321 44.7993 73.0777C46.3071 72.5751 47.5008 71.5699 48.9458 71.0673H48.883C49.6369 70.816 50.1395 70.3763 50.8306 70.125C50.7678 69.9365 50.9562 70.0621 50.9562 69.9364V69.9993C51.2704 69.748 51.7102 69.748 51.9615 69.4339C52.3384 69.4967 52.5897 69.1825 53.0295 69.0569C53.1552 68.994 53.4064 68.9941 53.4693 68.8056C53.8462 68.6171 54.5373 68.4915 54.4745 67.9261C55.0399 66.858 55.3541 65.6643 55.9195 64.5963C53.9091 65.5386 51.8986 66.481 49.8882 67.4234Z" fill="#7D8D9E"/>
<path fill-rule="evenodd" clip-rule="evenodd" d="M82.9918 68.1774C83.0558 68.2414 83.0558 68.2414 82.9918 68.1774C83.0558 68.2414 83.0558 68.1774 82.9918 68.1774Z" fill="white"/>
<path d="M82.9912 69.6223H83.054V70.3133H82.9912V69.6223Z" fill="black"/>
<path fill-rule="evenodd" clip-rule="evenodd" d="M77.5874 70.1249L77.5244 70.1879L77.5874 70.1249Z" fill="black"/>
<path fill-rule="evenodd" clip-rule="evenodd" d="M48.692 71.9469C43.9172 74.3971 39.1425 76.6588 34.3677 79.109C34.0536 79.2975 33.8023 79.486 33.6138 79.8001C32.3573 80.7425 31.1636 81.5592 29.9071 82.5644C29.5301 82.9414 29.0275 83.2555 28.6506 83.6325V83.5697L28.5877 83.6325L28.6506 83.6953L28.5877 83.7581V83.6953C27.8338 84.2607 27.1428 84.889 26.3888 85.3916C26.4517 85.3916 26.4517 85.3288 26.4517 85.3288C26.3888 85.3288 26.3888 85.3916 26.3888 85.3916C25.8234 85.7685 25.4464 86.2711 24.881 86.5853L24.8182 86.5225C24.4412 86.8994 23.8758 87.2763 23.4989 87.5905C23.1847 87.7161 22.7449 88.1559 22.4308 88.4072C22.368 88.3444 22.4936 88.3444 22.4936 88.2816C22.4308 88.3444 22.368 88.47 22.3052 88.5329C22.3052 88.5329 22.3052 88.5329 22.3052 88.47L21.991 88.7214V88.7842C21.4884 89.1611 21.0486 89.6009 20.546 89.9151L20.4832 89.8523C20.4204 89.9151 20.4204 89.9779 20.3576 90.0407C20.3576 90.0407 20.2947 90.0407 20.2947 89.9779C20.2319 90.2292 20.0434 90.0407 20.0434 90.292C20.0434 90.2292 20.0434 90.2292 20.0434 90.2292C17.2163 92.5538 14.3263 94.6898 11.5619 96.9515C11.5619 97.2028 11.5619 97.3285 11.6876 97.5798H11.6248C11.8761 98.962 12.0017 100.407 12.1902 101.852L12.253 101.789C12.4415 102.417 12.3787 103.046 12.5043 103.674C12.4415 103.862 12.63 103.925 12.5672 104.114C24.9438 93.182 37.1949 82.3131 49.5087 71.5071C49.3203 71.6327 48.9433 71.8213 48.692 71.9469Z" fill="#7D8D9E"/>
<path fill-rule="evenodd" clip-rule="evenodd" d="M57.3632 73.1405C57.3003 73.2662 57.3003 73.3919 57.3632 73.5175C57.7401 74.083 58.2427 74.7112 58.6197 75.2138C58.1171 75.2766 57.7401 74.9625 57.2375 74.8369C57.049 74.7112 56.7349 74.6484 56.5464 74.5855C55.981 74.2714 55.5412 73.8945 55.0386 73.5175C54.9758 73.5804 54.913 73.4547 54.7873 73.4547C54.7245 73.3918 54.536 73.5175 54.4732 73.5804C54.4103 73.7688 54.536 73.9573 54.536 74.1458C55.5412 74.8997 56.5464 75.5279 57.7401 75.9049C57.9286 76.0305 58.1171 75.9677 58.3055 76.1562C59.0595 76.4703 60.0018 76.596 60.8186 76.5331C60.9442 76.4703 60.9442 76.2818 60.8814 76.1562C60.5673 75.7792 60.1275 75.6536 59.7505 75.2766C59.4364 75.151 59.3736 74.8369 59.1223 74.5855C60.316 74.8997 61.6353 75.3394 63.0803 75.2766C63.0803 75.151 63.2688 75.2766 63.3316 75.2138C63.3316 75.151 63.5201 74.9625 63.4573 74.8369C63.0803 74.5856 62.7034 74.5856 62.3264 74.4599C61.8238 74.5228 61.4468 74.2086 61.0071 74.2086C60.2531 73.9573 59.4992 73.8944 58.8081 73.4547C58.4312 73.3918 58.0542 73.0778 57.6773 72.8893C57.6773 72.9521 57.3632 72.952 57.3632 73.1405Z" fill="black"/>
<path fill-rule="evenodd" clip-rule="evenodd" d="M47.3104 75.151C44.4832 77.6641 41.5304 80.1143 38.6404 82.6901V82.6273C38.5776 82.8786 38.2635 82.8786 38.1378 83.1299V83.0671C38.0122 83.2555 37.7609 83.444 37.5724 83.6325C37.6352 83.6953 37.6352 83.5697 37.698 83.5697C37.6352 83.5697 37.6352 83.6325 37.5724 83.6325C37.5724 83.7582 37.3211 83.6953 37.4467 83.8209C37.3839 83.8209 37.4467 83.821 37.3839 83.7581C37.3211 83.7581 37.3839 83.821 37.3211 83.8838C37.3211 83.821 37.3211 83.8209 37.3211 83.8209C37.2583 84.0722 36.9441 83.9467 36.9441 84.198V84.1351C36.8813 84.3235 36.63 84.3864 36.5043 84.5121C36.5672 84.4493 36.5672 84.5121 36.5672 84.5121C35.9389 84.889 35.4991 85.5801 34.8709 85.957C34.8709 86.0199 34.7452 86.0827 34.6196 86.0827L34.6824 86.1455C31.1641 89.0984 27.7087 92.1139 24.2533 95.1296C24.2533 95.695 24.4418 96.1976 24.5046 96.6374C24.6931 97.517 24.8816 98.2081 25.0701 99.1504C32.3578 90.8574 40.0226 83.067 47.436 75.0253L47.3104 75.151Z" fill="#7D8D9E"/>
<path fill-rule="evenodd" clip-rule="evenodd" d="M51.8936 77.4127C51.8307 77.4756 51.6423 77.5384 51.6423 77.7269L51.7051 78.041C52.2705 79.2975 52.9616 80.3656 53.904 81.3708C54.0296 81.4964 54.2809 81.6849 54.4694 81.8734C54.9092 82.1875 55.5375 82.6272 55.9772 82.8786C57.3594 83.6325 58.9929 84.512 60.6892 84.4492C60.8776 84.3864 60.9405 84.1351 61.0033 84.0723C60.8148 83.9466 60.752 83.5069 60.4379 83.5697C59.3698 83.1927 58.239 83.0671 57.2337 82.6901C56.4798 82.3132 55.7259 81.9362 55.0977 81.4964C53.7155 80.4284 53.0244 78.7949 52.2077 77.4127C52.082 77.5384 52.0192 77.2871 51.8936 77.4127Z" fill="black"/>
<path fill-rule="evenodd" clip-rule="evenodd" d="M28.5241 82.2503C28.587 82.6273 28.0843 82.6273 27.8959 82.9414C26.765 83.8838 25.5085 84.6377 24.3148 85.5801L24.252 85.5173C24.0635 85.8314 23.7494 85.9571 23.4981 86.2084C22.9326 86.6481 22.3044 87.1507 21.6133 87.5905L21.5505 87.7162C15.6448 92.2396 9.67639 96.7631 3.77077 101.224C5.84402 100.784 8.16857 100.91 10.3046 100.47C10.3046 99.2761 10.2418 97.9568 10.2418 96.7631C10.3046 96.7003 10.4303 96.7003 10.5559 96.6374C17.3411 91.3601 24.1263 86.1455 30.9115 80.8682C30.1576 81.2451 29.1524 81.6849 28.5241 82.2503Z" fill="#7D8D9E"/>
<path fill-rule="evenodd" clip-rule="evenodd" d="M38.3884 82.8785L38.3254 82.9416L38.3884 82.8785Z" fill="black"/>
<path fill-rule="evenodd" clip-rule="evenodd" d="M38.136 83.1298L38.0104 83.2555L38.136 83.1298Z" fill="black"/>
<path fill-rule="evenodd" clip-rule="evenodd" d="M4.77722 84.0094V83.9466V84.0094C4.52592 84.2607 4.40027 84.7005 4.14896 84.9518L5.6568 84.135C5.59397 83.8837 5.27984 83.7581 5.02854 83.5696C4.96572 83.7581 4.90287 83.8837 4.77722 84.0094Z" fill="#7D8D9E"/>
<path fill-rule="evenodd" clip-rule="evenodd" d="M24.0617 84.2607C19.4754 86.5224 15.0776 89.0354 10.4913 91.2972C10.4913 91.36 10.4285 91.4229 10.4913 91.4229C10.4285 91.6742 9.9887 91.6741 9.9887 91.9882C9.2348 92.428 8.66936 92.9935 7.97827 93.3704C5.84219 94.9411 3.83177 96.6374 1.69569 98.1452C1.63287 98.208 1.63286 98.3965 1.63286 98.5221C1.94699 99.3389 2.07265 100.093 2.38678 100.91C4.83699 99.2761 7.09872 97.4541 9.42328 95.695C14.575 91.7369 19.978 87.7161 25.1925 83.6953C24.8784 84.0094 24.4386 84.135 24.0617 84.2607Z" fill="#7D8D9E"/>
<path fill-rule="evenodd" clip-rule="evenodd" d="M37.3194 83.8838L37.2564 83.9468L37.3194 83.8838Z" fill="black"/>
<path fill-rule="evenodd" clip-rule="evenodd" d="M26.0735 85.5801L26.1991 85.4545L26.1363 85.5173L26.0735 85.5801Z" fill="black"/>
<path fill-rule="evenodd" clip-rule="evenodd" d="M23.9365 87.2764L23.8735 87.3394L23.9365 87.2764Z" fill="black"/>
<path fill-rule="evenodd" clip-rule="evenodd" d="M47.1813 90.8574C46.3017 91.4228 45.9248 92.4909 45.2965 93.3076C45.0452 94.1243 44.9196 95.1295 44.9196 96.0091C44.9824 96.4489 45.1709 97.0143 45.0452 97.5169C45.2337 98.7106 45.9248 99.8415 46.6787 100.847C47.0556 101.224 47.4954 101.601 47.9352 101.915L48.1865 101.852C47.7467 100.47 47.3698 99.0875 47.1185 97.6425C46.3017 96.9514 45.6735 96.0091 45.6735 94.9411C45.6106 94.7526 45.6735 94.5641 45.862 94.5012C46.2389 94.8782 46.1761 95.5693 46.6787 96.0091L46.8043 95.9463C46.6787 95.0039 46.6787 94.0615 46.7415 93.0563C46.8043 92.8678 46.93 92.7422 47.1185 92.7422C47.4954 92.9306 47.3698 93.3076 47.4326 93.6846C47.4326 95.0667 47.6211 96.6373 47.998 97.9567C48.2493 98.5221 48.4378 99.0247 48.7519 99.5273C48.9404 99.4017 49.1289 99.4645 49.3174 99.5273C49.5687 99.7786 49.2545 99.8414 49.3802 100.093C49.2545 101.538 48.8148 102.92 48.8148 104.365C48.7519 105.119 48.6891 105.81 48.5635 106.564H48.5006C48.5635 106.564 48.5635 106.627 48.5635 106.689H48.5006C48.5635 107.443 48.0609 108.197 48.1865 108.951V108.888C48.3122 109.14 48.0609 109.391 48.1865 109.642C48.1865 109.894 48.1865 110.208 48.375 110.333C48.6263 110.333 48.6263 110.71 48.8776 110.71C49.1289 110.899 49.443 110.836 49.6315 110.962C51.1393 111.339 52.6471 111.716 54.2178 111.841C55.2858 112.093 56.7936 111.841 57.8617 112.03C60.3747 112.092 62.7621 111.778 65.2123 111.339C65.7149 111.15 65.9662 110.773 66.406 110.522C66.4688 110.145 66.7201 109.768 66.7829 109.454C66.9714 109.014 66.9714 108.323 67.0342 107.82C67.0971 106.313 66.9714 105.307 66.9714 103.799C66.7201 102.229 66.0919 100.658 65.7777 99.0876C65.9662 98.8363 66.2175 99.0876 66.4688 99.0247C66.6573 99.0876 66.7201 99.276 66.8458 99.4017C67.2856 98.0195 67.474 96.4489 67.6625 94.9411C67.7881 94.5013 67.6625 93.9987 67.4112 93.6217C65.4008 91.2972 62.6364 89.8522 59.7464 88.9098C58.113 88.5957 56.7308 88.47 55.1602 88.3444C52.0189 88.3444 49.6315 89.6009 47.1813 90.8574Z" fill="#C6C6C6"/>
<path fill-rule="evenodd" clip-rule="evenodd" d="M71.9337 91.5485L71.8706 91.6115L71.9337 91.5485Z" fill="black"/>
<path fill-rule="evenodd" clip-rule="evenodd" d="M22.8025 98.0196C22.8025 99.4018 23.4307 100.721 22.991 102.166C22.7397 102.92 22.6768 103.737 22.4255 104.491C22.4884 105.056 22.2371 105.496 22.2999 105.998C22.3627 106.627 22.3627 107.255 22.4884 107.883C22.7397 107.82 22.5512 108.135 22.6768 108.197C22.8025 108.574 23.2423 108.763 23.6821 108.951C23.9334 109.14 24.2475 109.14 24.5616 109.203C27.8286 110.208 31.284 110.836 34.9279 110.648C36.7498 110.396 38.5718 110.082 40.2681 109.517C40.3309 109.454 40.5194 109.454 40.5194 109.328C40.645 108.763 40.5822 108.072 40.7078 107.443C40.8335 106.69 40.9592 105.936 41.0848 105.182C41.0848 104.616 41.0848 103.988 41.022 103.423C39.2629 103.234 37.5037 103.171 35.7446 102.794C34.4253 102.669 33.1059 102.355 31.8494 101.852C29.9646 101.224 28.394 100.218 26.8862 99.0248C26.4464 99.4646 26.0066 100.03 25.5668 100.407C25.504 100.595 25.2527 100.658 25.0642 100.721C24.8129 100.658 24.3731 100.784 24.2475 100.407C23.9962 100.344 24.2475 100.03 23.9962 99.8415C23.7449 98.7106 23.6192 97.5169 23.2423 96.3232C22.614 96.5745 22.9282 97.3285 22.8025 98.0196Z" fill="#C6C6C6"/>
<path fill-rule="evenodd" clip-rule="evenodd" d="M52.7092 100.093C52.7721 100.533 53.4003 100.658 53.4631 101.161C53.526 101.287 53.526 101.538 53.4003 101.664C52.5208 102.48 51.1386 102.229 50.1962 101.915C50.0705 101.915 50.1334 102.103 50.0705 102.166C50.4475 102.983 51.4527 103.109 52.3951 103.046C52.8349 102.983 53.2747 102.857 53.6516 102.669C54.217 102.292 54.7825 101.664 54.7825 100.91C54.6568 100.784 54.6568 100.533 54.5312 100.407C54.1542 100.156 53.7773 100.03 53.2747 99.7787C52.9605 99.8416 52.7092 99.9044 52.7092 100.093Z" fill="black"/>
<path fill-rule="evenodd" clip-rule="evenodd" d="M3.1402 102.354C3.07737 103.234 3.32867 104.239 3.3915 105.182C4.64802 104.051 6.03018 103.046 7.34952 101.915C5.96735 102.103 4.39672 102.103 3.1402 102.354Z" fill="#7D8D9E"/>
<path fill-rule="evenodd" clip-rule="evenodd" d="M52.8373 104.176C52.0206 104.365 51.141 104.114 50.3243 103.988C50.2615 104.176 50.0102 104.239 50.1358 104.365C50.3871 104.93 51.2039 104.93 51.7065 105.119C52.3976 105.182 53.0886 105.056 53.7169 104.867L54.031 104.491C54.0939 104.239 53.9682 104.051 53.9054 103.862C53.7797 103.737 53.6541 103.799 53.5284 103.737C53.2143 103.862 53.0886 104.114 52.8373 104.176Z" fill="black"/>
<path fill-rule="evenodd" clip-rule="evenodd" d="M23.1196 105.684C23.3709 105.936 23.4337 106.313 23.8735 106.438C23.9992 106.627 24.3761 106.752 24.5646 107.004C25.0044 107.255 24.7531 108.009 25.1928 108.135C25.2557 108.197 25.4442 108.072 25.4442 108.26C25.6955 108.197 25.8839 107.883 25.8211 107.569C25.6954 107.129 26.1981 107.192 26.3865 106.941C27.2661 106.69 28.397 106.752 28.9624 107.506C29.6535 107.946 29.3394 109.077 30.0933 109.454C30.2189 109.391 30.4702 109.391 30.4702 109.203C30.7215 108.449 30.0933 108.009 29.9048 107.318C29.1509 106.375 28.1457 105.81 26.7635 105.936C26.1981 106.061 25.5698 106.124 25.0672 106.375C24.6274 105.998 24.1248 105.621 23.5594 105.433C23.3081 105.37 23.1824 105.559 23.1196 105.684Z" fill="black"/>
<path fill-rule="evenodd" clip-rule="evenodd" d="M31.4795 107.381C31.4795 107.569 31.7308 107.695 31.7308 107.883C32.4847 108.197 33.6784 108.135 33.9297 109.077C33.9925 109.328 34.0553 109.768 34.3066 109.768C34.4951 109.517 34.872 109.831 34.9349 109.517C34.7464 108.323 33.9925 107.506 32.9873 107.255C32.6103 107.192 32.1077 107.004 31.6679 107.129L31.4795 107.381Z" fill="black"/>
<path fill-rule="evenodd" clip-rule="evenodd" d="M48.6308 108.26C48.568 108.323 48.6308 108.386 48.568 108.449C48.568 108.511 48.5051 108.7 48.6308 108.7L48.6936 108.637C48.6308 108.763 48.7564 108.763 48.7564 108.888V108.826C48.9449 108.888 49.0077 109.14 49.1962 108.951C49.259 109.014 49.3219 108.763 49.4475 108.888C49.5103 108.825 49.5104 108.7 49.636 108.637C50.013 108.511 50.3899 108.386 50.704 108.637C50.8297 109.014 50.9553 109.391 50.9553 109.831C51.1438 109.894 51.1438 110.019 51.2695 110.082C51.5208 110.145 51.7092 110.019 51.9606 110.019V110.082C52.7145 109.894 53.3427 109.077 54.1595 109.202C54.9134 109.265 55.3532 109.579 55.8558 110.082C56.1071 110.459 56.2327 110.962 56.6097 111.024C56.7353 111.213 56.9238 111.087 57.1123 111.087C57.4264 110.962 56.861 110.773 57.2379 110.71C57.1123 109.768 56.1699 109.202 55.5416 108.7C54.7877 108.323 54.1595 108.134 53.2799 108.323C52.7145 108.386 52.2747 108.7 51.8349 109.077C51.6464 108.888 51.6464 108.511 51.3951 108.323C50.6412 107.632 49.4475 107.82 48.6308 108.26Z" fill="black"/>
<path fill-rule="evenodd" clip-rule="evenodd" d="M48.3122 108.009L48.2493 108.197L48.3122 108.009Z" fill="black"/>
<path fill-rule="evenodd" clip-rule="evenodd" d="M48.187 108.511L48.2498 108.386H48.187V108.511Z" fill="black"/>
<path fill-rule="evenodd" clip-rule="evenodd" d="M58.43 108.7C58.3043 108.763 58.3043 108.951 58.1787 109.014C58.2415 109.265 58.43 109.391 58.6185 109.517C58.8698 109.579 59.1839 109.642 59.498 109.705C60.0634 109.579 60.1891 110.208 60.4404 110.459C60.4404 110.71 60.6917 110.773 60.8174 110.962C61.0058 110.962 61.1943 110.962 61.2571 110.962C61.5085 110.899 61.32 110.71 61.4456 110.585C61.0687 109.831 60.5661 108.888 59.6237 108.888C59.2467 108.826 58.8069 108.763 58.43 108.7Z" fill="black"/>
</svg>
