<svg viewBox="0 0 22 16" fill="none" xmlns="http://www.w3.org/2000/svg">
<path d="M17.8127 12.2592C17.7255 12.2592 17.6382 12.2272 17.5701 12.1627L13.4882 8.33332C13.3456 8.19995 13.3385 7.97507 13.4726 7.83248C13.6067 7.68848 13.8301 7.68209 13.9741 7.81688L18.056 11.6462C18.1986 11.7796 18.2057 12.0045 18.0717 12.1471C18.0014 12.2216 17.9078 12.2592 17.8127 12.2592Z" fill="#333333"/>
<path d="M4.18708 12.2594C4.09273 12.2594 3.99838 12.2218 3.92815 12.1474C3.79408 12.0048 3.80117 11.7799 3.94376 11.6465L8.02708 7.81717C8.17038 7.6838 8.39526 7.68948 8.52863 7.83278C8.66271 7.97537 8.65561 8.20025 8.51302 8.33361L4.4297 12.163C4.3616 12.2275 4.27434 12.2594 4.18708 12.2594Z" fill="#333333"/>
<path d="M20.2265 15.8198H1.77351C0.79595 15.8198 0 15.0245 0 14.0463V1.95307C0 0.974806 0.79595 0.179565 1.77351 0.179565H20.2265C21.2041 0.179565 22 0.974806 22 1.95307V14.0463C22 15.0245 21.2041 15.8198 20.2265 15.8198ZM1.77351 0.888968C1.18683 0.888968 0.709403 1.3664 0.709403 1.95307V14.0463C0.709403 14.6329 1.18683 15.1104 1.77351 15.1104H20.2265C20.8132 15.1104 21.2906 14.6329 21.2906 14.0463V1.95307C21.2906 1.3664 20.8132 0.888968 20.2265 0.888968H1.77351Z" fill="#333333"/>
<path d="M10.9999 9.7821C10.5282 9.7821 10.0564 9.62533 9.69745 9.31248L0.58872 1.36646C0.441165 1.23806 0.425558 1.01389 0.55396 0.865622C0.68378 0.718066 0.907242 0.704587 1.0548 0.83157L10.1635 8.77688C10.6168 9.17202 11.383 9.17202 11.8356 8.77688L20.933 0.84434C21.0798 0.715938 21.3033 0.730126 21.4338 0.878391C21.5622 1.02666 21.5473 1.25012 21.3998 1.37923L12.3024 9.31177C11.9427 9.62533 11.4717 9.7821 10.9999 9.7821Z" fill="#333333"/>
</svg>
