<svg width="19" height="19" viewBox="0 0 19 19" fill="none" xmlns="http://www.w3.org/2000/svg">
<path d="M9.5012 3.03364C9.80982 3.03364 10.06 2.78345 10.06 2.47483C10.06 2.1662 9.80982 1.91602 9.5012 1.91602C9.19257 1.91602 8.94238 2.1662 8.94238 2.47483C8.94238 2.78345 9.19257 3.03364 9.5012 3.03364Z" fill="#666666"/>
<path d="M9.5 19C4.27102 19 0 14.729 0 9.5C0 4.27102 4.27102 0 9.5 0C14.729 0 19 4.23111 19 9.46008C19 14.6891 14.729 19 9.5 19ZM9.5 1.15758C4.90967 1.15758 1.1975 4.86975 1.1975 9.46008C1.1975 14.0504 4.90967 17.7626 9.50004 17.7626C14.0904 17.7626 17.8025 14.0504 17.8025 9.46008C17.8025 4.90967 14.0903 1.15758 9.5 1.15758Z" fill="#666666"/>
<path d="M9.5012 17.0441C9.80982 17.0441 10.06 16.7939 10.06 16.4853C10.06 16.1766 9.80982 15.9265 9.5012 15.9265C9.19257 15.9265 8.94238 16.1766 8.94238 16.4853C8.94238 16.7939 9.19257 17.0441 9.5012 17.0441Z" fill="#666666"/>
<path d="M16.4865 10.0189C16.7952 10.0189 17.0454 9.76868 17.0454 9.46006C17.0454 9.15143 16.7952 8.90125 16.4865 8.90125C16.1779 8.90125 15.9277 9.15143 15.9277 9.46006C15.9277 9.76868 16.1779 10.0189 16.4865 10.0189Z" fill="#666666"/>
<path d="M2.51584 10.0189C2.82447 10.0189 3.07466 9.76868 3.07466 9.46006C3.07466 9.15143 2.82447 8.90125 2.51584 8.90125C2.20722 8.90125 1.95703 9.15143 1.95703 9.46006C1.95703 9.76868 2.20722 10.0189 2.51584 10.0189Z" fill="#666666"/>
<path d="M9.30029 10.6975C9.14062 10.6975 8.98095 10.6575 8.86124 10.5378L6.94526 8.542C6.70575 8.3025 6.70575 7.94327 6.94526 7.70377C7.18476 7.46426 7.54399 7.46426 7.78349 7.70377L9.30029 9.22057L12.8129 5.70795C13.0524 5.46844 13.4116 5.46844 13.6511 5.70795C13.8907 5.94746 13.8907 6.30668 13.6511 6.54619L9.73939 10.4979C9.61964 10.6176 9.45997 10.6974 9.30029 10.6975Z" fill="#666666"/>
</svg>
