<svg width="19" height="14" viewBox="0 0 19 14" fill="none" xmlns="http://www.w3.org/2000/svg">
<path d="M15.3971 10.1926C15.3197 10.1926 15.2424 10.1657 15.182 10.1114L11.5639 6.88684C11.4375 6.77453 11.4312 6.58517 11.55 6.4651C11.6689 6.34384 11.867 6.33847 11.9946 6.45196L15.6127 9.67648C15.7391 9.78878 15.7454 9.97814 15.6266 10.0982C15.5643 10.1609 15.4813 10.1926 15.3971 10.1926Z" fill="#546580"/>
<path d="M3.6816 10.1926C3.60635 10.1926 3.5311 10.1609 3.4751 10.0982C3.36817 9.97811 3.37382 9.78871 3.48754 9.67639L6.74402 6.4513C6.85831 6.33897 7.03765 6.34375 7.14401 6.46444C7.25094 6.58453 7.24528 6.77393 7.13157 6.88625L3.87508 10.1113C3.82077 10.1657 3.75118 10.1926 3.6816 10.1926Z" fill="#546580"/>
<path d="M17.1801 13.1655H1.50639C0.676068 13.1655 0 12.4961 0 11.6726V1.49289C0 0.66941 0.676068 0 1.50639 0H17.1801C18.0104 0 18.6865 0.66941 18.6865 1.49289V11.6726C18.6865 12.4961 18.0104 13.1655 17.1801 13.1655ZM1.50639 0.597155C1.00808 0.597155 0.602556 0.99904 0.602556 1.49289V11.6726C0.602556 12.1664 1.00808 12.5683 1.50639 12.5683H17.1801C17.6784 12.5683 18.0839 12.1664 18.0839 11.6726V1.49289C18.0839 0.99904 17.6784 0.597155 17.1801 0.597155H1.50639Z" fill="#546580"/>
<path d="M9.3493 8.06915C8.94963 8.06915 8.54996 7.93653 8.24585 7.6719L0.528907 0.950474C0.403897 0.841861 0.390675 0.652238 0.499458 0.526822C0.609442 0.402007 0.79876 0.390606 0.923769 0.498019L8.64071 7.21884C9.02476 7.55308 9.67385 7.55308 10.0573 7.21884L17.7646 0.50882C17.889 0.400207 18.0783 0.412208 18.1889 0.537624C18.2977 0.663039 18.2851 0.852062 18.1601 0.961276L10.4528 7.6713C10.148 7.93653 9.74897 8.06915 9.3493 8.06915Z" fill="#546580"/>
</svg>
