<svg width="25" height="25" viewBox="0 0 25 25" fill="none" xmlns="http://www.w3.org/2000/svg">
<path d="M5.81537 5.74793V4.42426C5.81537 3.88342 6.27048 3.44682 6.98974 3.28631C7.74782 1.36401 9.62221 0 11.8106 0C13.9962 0 15.8648 1.36036 16.6248 3.27875C17.3642 3.43269 17.8251 3.87459 17.8251 4.42426V5.74793C17.8251 6.27742 17.3976 6.71269 16.704 6.8811C16.1902 8.3729 15.0225 9.57873 13.4835 10.0991C13.346 10.5372 12.9362 10.8669 12.4533 10.8669H11.1783C10.5831 10.8669 10.0988 10.3673 10.0988 9.77201C10.0988 9.17683 10.5831 8.67726 11.1783 8.67726H12.4533C12.7179 8.67726 12.9605 8.77725 13.1485 8.93584C14.729 8.37874 15.8026 6.88833 15.8026 5.18128C15.8026 3.52538 14.7875 2.10198 13.3472 1.5003C12.6417 2.78528 11.5014 3.72371 10.1905 4.09037C9.87283 4.17968 9.54272 3.99383 9.45381 3.6762C9.36497 3.35857 9.54896 3.02906 9.86659 2.94022C10.7724 2.68688 11.574 2.06589 12.1274 1.20682C12.0227 1.19853 11.9111 1.19435 11.8043 1.19435C9.60589 1.19435 7.80588 2.98288 7.80588 5.18128V6.32413C7.80588 6.49963 7.73966 6.66618 7.60589 6.77964C7.47206 6.89317 7.30591 6.94181 7.133 6.91328C6.33312 6.78051 5.81537 6.32314 5.81537 5.74793ZM21.0101 22.1468C21.0101 22.4767 20.7428 22.744 20.4129 22.744H12.7824C12.4526 22.744 12.1852 22.4767 12.1852 22.1468V17.5685C12.1852 17.2387 12.4526 16.9713 12.7824 16.9713H20.4129C20.7428 16.9713 21.0101 17.2387 21.0101 17.5685V22.1468ZM13.3796 21.5497H19.8158V18.1657H13.3796V21.5497ZM9.80502 22.0141H4.94296L6.52043 15.5086C6.76282 14.5118 8.04355 13.6513 9.39728 13.5444C9.85856 14.2776 10.7953 14.7565 11.8316 14.7565C12.868 14.7565 13.8049 14.2714 14.2662 13.5383C15.6199 13.6449 16.9008 14.4963 17.143 15.493C17.2208 15.8135 17.5435 16.0098 17.8643 15.9317C18.1848 15.8538 18.3814 15.5287 18.3035 15.2083C17.9111 13.5937 16.0131 12.3267 13.9826 12.3267H13.9005C13.6454 12.3267 13.4185 12.4906 13.3356 12.7318C13.195 13.1414 12.6332 13.557 11.8316 13.557C11.0301 13.557 10.4683 13.1409 10.3277 12.7313C10.2449 12.4901 10.0179 12.3267 9.76288 12.3267H9.68087C7.65041 12.3267 5.7524 13.5933 5.35986 15.2079L3.60649 22.4217C3.59853 22.4515 3.59275 22.4827 3.58937 22.5142C3.58147 22.5875 3.58738 22.6602 3.60523 22.7287C3.62142 22.7909 3.64743 22.8494 3.68147 22.9019C3.75187 23.0111 3.85763 23.0975 3.98742 23.1424C4.00912 23.15 4.03135 23.1563 4.0541 23.1613C4.0975 23.171 4.14089 23.1922 4.18362 23.1922C4.1896 23.1922 4.1955 23.2085 4.20141 23.2085H9.80495C10.1348 23.2085 10.4021 22.9411 10.4021 22.6113C10.4021 22.2815 10.1348 22.0141 9.80502 22.0141ZM20.8175 23.8057H12.367C12.0371 23.8057 11.7698 24.073 11.7698 24.4028C11.7698 24.7327 12.0371 25 12.367 25H20.8175C21.1473 25 21.4147 24.7327 21.4147 24.4028C21.4147 24.073 21.1473 23.8057 20.8175 23.8057ZM11.2911 5.55869C11.2911 5.22885 11.0238 4.96152 10.6939 4.96152H10.0304C9.70058 4.96152 9.43324 5.22885 9.43324 5.55869C9.43324 5.88853 9.70058 6.15586 10.0304 6.15586H10.6939C11.0238 6.15586 11.2911 5.88853 11.2911 5.55869ZM12.9697 6.15586H13.6332C13.963 6.15586 14.2303 5.88853 14.2303 5.55869C14.2303 5.22885 13.963 4.96152 13.6332 4.96152H12.9697C12.6399 4.96152 12.3725 5.22885 12.3725 5.55869C12.3725 5.88853 12.6399 6.15586 12.9697 6.15586Z" fill="#546580"/>
</svg>
