<svg viewBox="0 0 18 27" fill="none" xmlns="http://www.w3.org/2000/svg"><path d="M15.682 0H1.71C.767 0 0 .767 0 1.71v23.58C0 26.234.767 27 1.71 27h13.972c.943 0 1.71-.767 1.71-1.71V1.71c0-.943-.767-1.71-1.71-1.71zM.857 4.296h15.678v17.857H.857V4.297zm.852-3.44h13.973c.47 0 .853.383.853.854v2.015H.857V1.71c0-.47.382-.853.852-.853zm13.973 25.287H1.71a.854.854 0 0 1-.852-.852v-2.567h15.678v2.567c0 .47-.382.852-.853.852z" fill="#333"/><path d="M8.696 23.102c-.774 0-1.403.63-1.403 1.403 0 .774.63 1.403 1.403 1.403s1.403-.63 1.403-1.403-.63-1.403-1.403-1.403zm0 2.235a.833.833 0 0 1 0-1.664.833.833 0 0 1 0 1.664zM6.754 2.72h3.883a.286.286 0 1 0 0-.571H6.754a.286.286 0 1 0 0 .57zm-1.026 0a.287.287 0 0 0 .285-.286.287.287 0 0 0-.488-.202.288.288 0 0 0 0 .404.288.288 0 0 0 .203.084z" fill="#333"/></svg>