<svg width="20" height="20" viewBox="0 0 20 20" xmlns="http://www.w3.org/2000/svg">
<path fill-rule="evenodd" clip-rule="evenodd" d="M9.99999 0.690918C12.7158 0.690918 13.0563 0.701718 14.1229 0.747377C15.1873 0.792925 15.9143 0.95154 16.5503 1.18349C17.2079 1.42321 17.7656 1.74402 18.3216 2.2656C18.8775 2.78721 19.2194 3.31043 19.475 3.92739C19.7222 4.52416 19.8912 5.20618 19.9398 6.2048C19.9884 7.2055 19.9999 7.525 19.9999 10.073C19.9999 12.6211 19.9884 12.9406 19.9398 13.9413C19.8912 14.9399 19.7222 15.6219 19.475 16.2187C19.2194 16.8356 18.8775 17.3588 18.3216 17.8805C17.7656 18.402 17.2079 18.7228 16.5503 18.9626C15.9143 19.1945 15.1873 19.3531 14.1229 19.3987C13.0563 19.4443 12.7158 19.4551 9.99999 19.4551C7.28414 19.4551 6.9436 19.4443 5.87699 19.3987C4.81261 19.3531 4.08568 19.1945 3.44961 18.9626C2.79202 18.7228 2.23435 18.402 1.67838 17.8805C1.12245 17.3588 0.780522 16.8356 0.525005 16.2187C0.277785 15.6219 0.108724 14.9399 0.0601775 13.9413C0.0115115 12.9406 0 12.6211 0 10.073C0 7.525 0.0115115 7.2055 0.0601775 6.2048C0.108724 5.20618 0.277785 4.52416 0.525005 3.92739C0.780522 3.31043 1.12245 2.78721 1.67838 2.2656C2.23435 1.74402 2.79202 1.42321 3.44961 1.18349C4.08568 0.95154 4.81261 0.792925 5.87699 0.747377C6.9436 0.701718 7.28414 0.690918 9.99999 0.690918ZM9.99999 2.38139C7.32987 2.38139 7.01358 2.39096 5.95912 2.43609C4.98414 2.47781 4.45465 2.63065 4.10227 2.75913C3.6355 2.92933 3.30238 3.13264 2.95247 3.46097C2.60252 3.78926 2.38582 4.1018 2.20442 4.53973C2.06747 4.87033 1.90456 5.3671 1.86011 6.28185C1.81199 7.27116 1.80179 7.5679 1.80179 10.073C1.80179 12.5782 1.81199 12.8749 1.86011 13.8642C1.90456 14.779 2.06747 15.2757 2.20442 15.6063C2.38582 16.0443 2.60256 16.3568 2.95247 16.6851C3.30238 17.0134 3.6355 17.2167 4.10227 17.3869C4.45465 17.5154 4.98414 17.6683 5.95912 17.71C7.01346 17.7551 7.32967 17.7647 9.99999 17.7647C12.6703 17.7647 12.9865 17.7551 14.0408 17.71C15.0158 17.6683 15.5453 17.5154 15.8977 17.3869C16.3644 17.2167 16.6976 17.0134 17.0475 16.6851C17.3974 16.3568 17.6141 16.0443 17.7955 15.6063C17.9325 15.2757 18.0954 14.779 18.1398 13.8642C18.1879 12.8749 18.1981 12.5782 18.1981 10.073C18.1981 7.5679 18.1879 7.27116 18.1398 6.28185C18.0954 5.3671 17.9325 4.87033 17.7955 4.53973C17.6141 4.1018 17.3974 3.78926 17.0475 3.46097C16.6976 3.13264 16.3644 2.92933 15.8977 2.75913C15.5453 2.63065 15.0158 2.47781 14.0408 2.43609C12.9864 2.39096 12.6701 2.38139 9.99999 2.38139ZM9.99999 5.25519C12.836 5.25519 15.1351 7.41219 15.1351 10.073C15.1351 12.7339 12.836 14.8909 9.99999 14.8909C7.1639 14.8909 4.86485 12.7339 4.86485 10.073C4.86485 7.41219 7.1639 5.25519 9.99999 5.25519ZM9.99999 13.2004C11.8409 13.2004 13.3333 11.8002 13.3333 10.073C13.3333 8.34582 11.8409 6.94566 9.99999 6.94566C8.15902 6.94566 6.66665 8.34582 6.66665 10.073C6.66665 11.8002 8.15902 13.2004 9.99999 13.2004ZM16.538 5.06485C16.538 5.68664 16.0007 6.19068 15.338 6.19068C14.6753 6.19068 14.138 5.68664 14.138 5.06485C14.138 4.44305 14.6753 3.93897 15.338 3.93897C16.0007 3.93897 16.538 4.44305 16.538 5.06485Z"/>
</svg>
