<svg width="12" height="16" viewBox="0 0 12 16" fill="none" xmlns="http://www.w3.org/2000/svg">
<path d="M5.95349 0.114746C2.67907 0.114746 0 2.66136 0 5.77389C0 8.6742 4.83721 14.1211 5.35814 14.7578L5.95349 15.3237L6.54884 14.687C7.06977 14.1211 11.907 8.6742 11.907 5.77389C11.907 2.66136 9.22791 0.114746 5.95349 0.114746ZM5.95349 13.1308C4.31628 11.2208 1.48837 7.54237 1.48837 5.77389C1.48837 3.43949 3.49768 1.52953 5.95349 1.52953C8.40931 1.52953 10.4186 3.43949 10.4186 5.77389C10.4186 7.54237 7.5907 11.2208 5.95349 13.1308Z" fill="#F8CF51"/>
<path d="M5.95355 2.94458C4.31634 2.94458 2.97681 4.21789 2.97681 5.77416C2.97681 7.33042 4.31634 8.60373 5.95355 8.60373C7.59076 8.60373 8.9303 7.33042 8.9303 5.77416C8.9303 4.21789 7.59076 2.94458 5.95355 2.94458ZM5.95355 7.18894C5.13495 7.18894 4.46518 6.55229 4.46518 5.77416C4.46518 4.99602 5.13495 4.35937 5.95355 4.35937C6.77216 4.35937 7.44193 4.99602 7.44193 5.77416C7.44193 6.55229 6.77216 7.18894 5.95355 7.18894Z" fill="#F8CF51"/>
</svg>
