<svg width="30" height="18" viewBox="0 0 30 18" fill="none" xmlns="http://www.w3.org/2000/svg">
<path fill-rule="evenodd" clip-rule="evenodd" d="M20.7538 18H21.187L21.6596 17.96L22.0928 17.88L22.526 17.84L22.9592 17.72L23.3923 17.6L23.7862 17.44L24.18 17.28L24.5738 17.12L24.9676 16.92L25.322 16.68L25.7158 16.48L26.0309 16.2L26.3853 15.96L26.7004 15.68L27.0154 15.36L27.2911 15.04L27.5667 14.72L27.8424 14.4L28.0787 14.04L28.315 13.68L28.5513 13.28L28.7482 12.88L28.9057 12.48L29.0632 12.08L29.2207 11.68L29.3389 11.24L29.4176 10.8L29.4964 10.36L29.5752 9.92L29.6146 9.44V9V8.52L29.5752 8.08L29.4964 7.6L29.4176 7.16L29.3389 6.76L29.2207 6.32L29.0632 5.88L28.9057 5.48L28.7482 5.08L28.5513 4.72L28.315 4.32L28.0787 3.96L27.8424 3.6L27.5667 3.28L27.2911 2.96L27.0154 2.64L26.7004 2.32L26.3853 2.04L26.0309 1.8L25.7158 1.52L25.322 1.32L24.9676 1.08L24.5738 0.88L24.18 0.72L23.7862 0.56L23.3923 0.4L22.9592 0.28L22.526 0.2L22.0928 0.12L21.6596 0.04L21.187 0H20.7538H20.2812L19.8087 0.04L19.3755 0.12L18.9423 0.2L18.5091 0.28L18.1153 0.4L17.6821 0.56L17.2883 0.72L16.8945 0.88L16.5007 1.08L16.1462 1.32L15.7918 1.52L15.4374 1.8L15.1223 2.04L14.7679 2.32L14.4922 2.64L14.1772 2.96L13.9015 3.28L13.6258 3.6L13.3895 3.96L13.1533 4.32L12.9564 4.72L12.7595 5.08L12.5625 5.48L12.405 5.88L12.2869 6.32L12.1687 6.76L12.0506 7.16L11.9718 7.6L11.9324 8.08L11.8931 8.52V9V9.44L11.9324 9.92L11.9718 10.36L12.0506 10.8L12.1687 11.24L12.2869 11.68L12.405 12.08L12.5625 12.48L12.7595 12.88L12.9564 13.28L13.1533 13.68L13.3895 14.04L13.6258 14.4L13.9015 14.72L14.1772 15.04L14.4922 15.36L14.7679 15.68L15.1223 15.96L15.4374 16.2L15.7918 16.48L16.1462 16.68L16.5007 16.92L16.8945 17.12L17.2883 17.28L17.6821 17.44L18.1153 17.6L18.5091 17.72L18.9423 17.84L19.3755 17.88L19.8087 17.96L20.2812 18H20.7538Z" fill="#C7C7C7"/>
<path fill-rule="evenodd" clip-rule="evenodd" d="M8.86074 18H9.33332L9.76651 17.96L10.2391 17.88L10.6723 17.84L11.1055 17.72L11.4993 17.6L11.9325 17.44L12.3263 17.28L12.7201 17.12L13.1139 16.92L13.4683 16.68L13.8228 16.48L14.1772 16.2L14.4922 15.96L14.8073 15.68L15.1223 15.36L15.4374 15.04L15.7131 14.72L15.9493 14.4L16.225 14.04L16.4613 13.68L16.6582 13.28L16.8551 12.88L17.0126 12.48L17.1702 12.08L17.3277 11.68L17.4458 11.24L17.564 10.8L17.6033 10.36L17.6821 9.92L17.7215 9.44V9V8.52L17.6821 8.08L17.6033 7.6L17.564 7.16L17.4458 6.76L17.3277 6.32L17.1702 5.88L17.0126 5.48L16.8551 5.08L16.6582 4.72L16.4613 4.32L16.225 3.96L15.9493 3.6L15.7131 3.28L15.4374 2.96L15.1223 2.64L14.8073 2.32L14.4922 2.04L14.1772 1.8L13.8228 1.52L13.4683 1.32L13.1139 1.08L12.7201 0.88L12.3263 0.72L11.9325 0.56L11.4993 0.4L11.1055 0.28L10.6723 0.2L10.2391 0.12L9.76651 0.04L9.33332 0H8.86074H8.42755L7.95498 0.04L7.52179 0.12L7.08859 0.2L6.6554 0.28L6.22221 0.4L5.8284 0.56L5.43459 0.72L5.04078 0.88L4.64697 1.08L4.29254 1.32L3.89873 1.52L3.58368 1.8L3.22925 2.04L2.9142 2.32L2.59915 2.64L2.32348 2.96L2.00844 3.28L1.77215 3.6L1.49648 3.96L1.29958 4.32L1.06329 4.72L0.866384 5.08L0.708859 5.48L0.551335 5.88L0.393811 6.32L0.275668 6.76L0.196905 7.16L0.118143 7.6L0.0393811 8.08L0 8.52V9V9.44L0.0393811 9.92L0.118143 10.36L0.196905 10.8L0.275668 11.24L0.393811 11.68L0.551335 12.08L0.708859 12.48L0.866384 12.88L1.06329 13.28L1.29958 13.68L1.49648 14.04L1.77215 14.4L2.00844 14.72L2.32348 15.04L2.59915 15.36L2.9142 15.68L3.22925 15.96L3.58368 16.2L3.89873 16.48L4.29254 16.68L4.64697 16.92L5.04078 17.12L5.43459 17.28L5.8284 17.44L6.22221 17.6L6.6554 17.72L7.08859 17.84L7.52179 17.88L7.95498 17.96L8.42755 18H8.86074Z" fill="#999999"/>
<path fill-rule="evenodd" clip-rule="evenodd" d="M13.7834 3.43971H18.4698V2.95972H14.1773L13.7834 3.43971Z" fill="#C7C7C7"/>
<path fill-rule="evenodd" clip-rule="evenodd" d="M13.0747 4.51955H18.4699V4.03955H13.3504L13.0747 4.51955Z" fill="#C7C7C7"/>
<path fill-rule="evenodd" clip-rule="evenodd" d="M12.5232 5.64011H18.4698V5.12012H12.7595L12.5232 5.64011Z" fill="#C7C7C7"/>
<path fill-rule="evenodd" clip-rule="evenodd" d="M12.1689 6.71975H18.4699V6.23975H12.3265L12.1689 6.71975Z" fill="#C7C7C7"/>
<path fill-rule="evenodd" clip-rule="evenodd" d="M12.3657 11.9595H18.5092V11.4795H12.2476L12.3657 11.9595Z" fill="#C7C7C7"/>
<path fill-rule="evenodd" clip-rule="evenodd" d="M12.8381 13.0403H18.509V12.5603H12.6018L12.8381 13.0403Z" fill="#C7C7C7"/>
<path fill-rule="evenodd" clip-rule="evenodd" d="M13.4684 14.1201H18.5091V13.6401H13.1533L13.4684 14.1201Z" fill="#C7C7C7"/>
<path fill-rule="evenodd" clip-rule="evenodd" d="M14.335 15.24H18.5093V14.72H13.9412L14.335 15.24Z" fill="#C7C7C7"/>
<path fill-rule="evenodd" clip-rule="evenodd" d="M11.9719 7.80007H18.4698V7.32007H12.0507L11.9719 7.80007Z" fill="#C7C7C7"/>
<path fill-rule="evenodd" clip-rule="evenodd" d="M15.9495 10.8802H18.4305V10.4001H16.0282L15.9495 10.8802Z" fill="#C7C7C7"/>
<path fill-rule="evenodd" clip-rule="evenodd" d="M16.1462 9.80055H18.4303V9.32056H16.225L16.1462 9.80055Z" fill="#C7C7C7"/>
<path fill-rule="evenodd" clip-rule="evenodd" d="M11.8145 9.32056H12.4446V9.80055H11.8145V9.32056Z" fill="#C7C7C7"/>
<path fill-rule="evenodd" clip-rule="evenodd" d="M10.5934 8.72045H10.554H10.5146L10.4752 8.68045H10.4359H10.3965H10.3571H10.3177H10.2783L10.2389 8.64045H10.1996H10.1208H10.0814H10.0027H9.96328H9.88452L9.76638 8.68045H9.727H9.64823L9.60885 8.72045H9.56947L9.53009 8.76045H9.49071L9.45133 8.80045L9.41195 8.84045V8.88045V8.92045V8.96045V9.00045V9.04045L9.45133 9.08045V9.12045L9.53009 9.16045L9.60885 9.24045L9.68762 9.28045H9.76638L9.88452 9.32045L9.96328 9.36045L10.0814 9.40045L10.1602 9.44045L10.2389 9.48045L10.3177 9.56045L10.3965 9.64045L10.4752 9.72045L10.5146 9.84045L10.554 9.96045V10.1204V10.3204L10.5146 10.4805L10.4752 10.6004L10.4359 10.7204L10.3965 10.8004L10.3177 10.9204L10.2389 10.9604L10.1602 11.0405L10.0814 11.1204L9.96328 11.1604L9.88452 11.2004H9.76638L9.64823 11.2405H9.56947L9.45133 11.2805H9.37257H9.25443H9.13628H9.01814H8.9H8.82124H8.74247H8.66371L8.58495 11.2405H8.50619H8.42743H8.38805L8.34866 11.2004H8.2699H8.23052L8.19114 11.1604H8.15176L8.073 11.1204L8.23052 10.4805H8.2699H8.30928L8.38805 10.5204H8.42743H8.46681L8.54557 10.5604H8.62433H8.70309L8.78185 10.6004H8.86062H8.93938H9.01814H9.0969H9.21504H9.29381H9.37257L9.45133 10.5604L9.49071 10.5204L9.53009 10.4805L9.56947 10.4404L9.60885 10.4004V10.3604V10.2805V10.2004V10.1204L9.53009 10.0805L9.45133 10.0404L9.37257 9.96045L9.29381 9.92045L9.17566 9.88045L9.05752 9.84045L8.93938 9.80045L8.82124 9.72045L8.70309 9.64045L8.62433 9.56045L8.54557 9.44045L8.46681 9.28045V9.12045V8.92045V8.84045L8.50619 8.72045V8.60045L8.54557 8.52045L8.62433 8.40045L8.66371 8.32045L8.74247 8.28045L8.78185 8.20045L8.9 8.12045L8.97876 8.08045L9.0969 8.04045L9.21504 8.00045H9.33319L9.49071 7.96045H9.64823H9.84514H9.9239H10.042H10.1208H10.1996H10.2783H10.3571H10.4359H10.4752L10.5146 8.00045H10.554H10.5934H10.6328H10.6721H10.7115V8.04045H10.7509L10.5934 8.72045Z" fill="white"/>
<path d="M10.5934 8.72045H10.554H10.5146L10.4752 8.68045H10.4359H10.3965H10.3571H10.3177H10.2783L10.2389 8.64045H10.1996H10.1208H10.0814H10.0027H9.96328H9.88452L9.76638 8.68045H9.727H9.64823L9.60885 8.72045H9.56947L9.53009 8.76045H9.49071L9.45133 8.80045L9.41195 8.84045V8.88045V8.92045V8.96045V9.00045V9.04045L9.45133 9.08045V9.12045L9.53009 9.16045L9.60885 9.24045L9.68762 9.28045H9.76638L9.88452 9.32045L9.96328 9.36045L10.0814 9.40045L10.1602 9.44045L10.2389 9.48045L10.3177 9.56045L10.3965 9.64045L10.4752 9.72045L10.5146 9.84045L10.554 9.96045V10.1204V10.3204L10.5146 10.4805L10.4752 10.6004L10.4359 10.7204L10.3965 10.8004L10.3177 10.9204L10.2389 10.9604L10.1602 11.0405L10.0814 11.1204L9.96328 11.1604L9.88452 11.2004H9.76638L9.64823 11.2405H9.56947L9.45133 11.2805H9.37257H9.25443H9.13628H9.01814H8.9H8.82124H8.74247H8.66371L8.58495 11.2405H8.50619H8.42743H8.38805L8.34866 11.2004H8.2699H8.23052L8.19114 11.1604H8.15176L8.073 11.1204L8.23052 10.4805H8.2699H8.30928L8.38805 10.5204H8.42743H8.46681L8.54557 10.5604H8.62433H8.70309L8.78185 10.6004H8.86062H8.93938H9.01814H9.0969H9.21504H9.29381H9.37257L9.45133 10.5604L9.49071 10.5204L9.53009 10.4805L9.56947 10.4404L9.60885 10.4004V10.3604V10.2805V10.2004V10.1204L9.53009 10.0805L9.45133 10.0404L9.37257 9.96045L9.29381 9.92045L9.17566 9.88045L9.05752 9.84045L8.93938 9.80045L8.82124 9.72045L8.70309 9.64045L8.62433 9.56045L8.54557 9.44045L8.46681 9.28045V9.12045V8.92045V8.84045L8.50619 8.72045V8.60045L8.54557 8.52045L8.62433 8.40045L8.66371 8.32045L8.74247 8.28045L8.78185 8.20045L8.9 8.12045L8.97876 8.08045L9.0969 8.04045L9.21504 8.00045H9.33319L9.49071 7.96045H9.64823H9.84514H9.9239H10.042H10.1208H10.1996H10.2783H10.3571H10.4359H10.4752L10.5146 8.00045H10.554H10.5934H10.6328H10.6721H10.7115V8.04045H10.7509L10.5934 8.72045Z" stroke="white" stroke-width="0.216" stroke-miterlimit="2.6131"/>
<path fill-rule="evenodd" clip-rule="evenodd" d="M11.3024 7.28027H12.1294L12.0113 8.00028H12.5232L12.4051 8.68028H11.8538L11.5781 10.3603V10.4403L11.6175 10.4803V10.5203L11.6568 10.5603L11.7356 10.6003H11.775H11.8538H11.9325H11.9719H12.0507H12.09H12.1294L12.1688 10.5603H12.2082H12.2476L12.1294 11.1203L12.09 11.1603H12.0507L12.0113 11.2003H11.9719H11.9325L11.8931 11.2403H11.8538H11.8144H11.775H11.7356H11.6962L11.6175 11.2803H11.4205L11.3024 11.2403H11.1843H11.1055L10.9873 11.2003L10.948 11.1603H10.8692L10.8298 11.1203L10.7904 11.0803L10.7511 11.0403V10.9603L10.7117 10.9203V10.8803V10.8003V10.7203V10.6803L10.7511 10.6003L11.3024 7.28027Z" fill="white"/>
<path d="M11.3024 7.28027H12.1294L12.0113 8.00028H12.5232L12.4051 8.68028H11.8538L11.5781 10.3603V10.4403L11.6175 10.4803V10.5203L11.6568 10.5603L11.7356 10.6003H11.775H11.8538H11.9325H11.9719H12.0507H12.09H12.1294L12.1688 10.5603H12.2082H12.2476L12.1294 11.1203L12.09 11.1603H12.0507L12.0113 11.2003H11.9719H11.9325L11.8931 11.2403H11.8538H11.8144H11.775H11.7356H11.6962L11.6175 11.2803H11.4205L11.3024 11.2403H11.1843H11.1055L10.9873 11.2003L10.948 11.1603H10.8692L10.8298 11.1203L10.7904 11.0803L10.7511 11.0403V10.9603L10.7117 10.9203V10.8803V10.8003V10.7203V10.6803L10.7511 10.6003L11.3024 7.28027Z" stroke="white" stroke-width="0.216" stroke-miterlimit="2.6131"/>
<path d="M13.1533 9.84045V9.88045V9.96045V10.0004L13.1926 10.0805V10.1204L13.232 10.1604L13.2714 10.2404V10.2805L13.3108 10.3204L13.3895 10.4004L13.4289 10.4404L13.4683 10.4805H13.5471L13.5864 10.5204L13.6652 10.5604H13.7046H13.7834H13.8621L13.9409 10.6004H14.0196H14.0984H14.1772H14.2559H14.3347L14.4135 10.5604H14.4922H14.571L14.6497 10.5204L14.7285 10.4805L14.8467 10.4404L14.9254 10.4004L15.0042 10.3604L14.886 11.0805L14.8467 11.1204L14.7679 11.1604H14.7285H14.6891L14.6497 11.2004H14.6104H14.571L14.4922 11.2405H14.4528H14.3741H14.3347H14.2559H14.1772H14.0984L14.0196 11.2805H13.9015L13.744 11.2405H13.6258H13.4683L13.3108 11.2004L13.1533 11.1604L13.0351 11.0805L12.8776 11.0004L12.7594 10.9204L12.6413 10.8004L12.5625 10.6805L12.4444 10.5604L12.405 10.4004L12.3262 10.2004L12.2869 10.0004V9.80045L12.3262 9.52045V9.44045V9.32045L12.3656 9.20045L12.405 9.08045L12.4444 8.96045L12.4838 8.80045L12.5625 8.68045L12.6413 8.56045L12.7594 8.44045L12.8776 8.32045L12.9957 8.20045L13.1533 8.12045L13.3108 8.04045L13.5077 8.00045L13.7046 7.96045H13.9803H14.0984H14.2165L14.3347 8.00045H14.4528L14.571 8.04045L14.6891 8.12045L14.8073 8.20045L14.886 8.28045L14.9648 8.36045L15.0436 8.48045L15.1223 8.64045L15.1617 8.80045L15.2011 8.96045V9.20045L15.1617 9.40045L15.1223 9.68045V9.84045H12.917L13.0745 9.24045H14.3741V9.20045V9.12045V9.04045V9.00045L14.3347 8.92045V8.88045L14.2953 8.84045L14.2559 8.80045L14.2165 8.76045L14.1772 8.72045L14.1378 8.68045H14.0984L14.059 8.64045H13.9803H13.9409H13.9015H13.8227H13.7834H13.744L13.6652 8.68045H13.6258L13.5864 8.72045L13.5471 8.76045L13.5077 8.80045L13.4683 8.84045L13.4289 8.88045L13.3895 8.92045L13.3502 8.96045V9.04045L13.3108 9.08045V9.16045L13.2714 9.20045L13.1533 9.84045Z" stroke="white" stroke-width="0.216" stroke-miterlimit="2.6131"/>
<path fill-rule="evenodd" clip-rule="evenodd" d="M20.2811 8.20012L20.2417 8.16012H20.2024L20.163 8.12012H20.1236L20.0842 8.08012H20.0448L20.0055 8.04012H19.9267H19.8873L19.8086 8.00012H19.7692H19.6904H19.6116L19.5723 7.96012H19.4935H19.4147H19.336L19.2572 8.00012H19.1785H19.0997L19.0209 8.04012L18.9422 8.08012L18.824 8.12012L18.7453 8.16012L18.6665 8.24012L18.5877 8.32012L18.509 8.40012L18.4696 8.52012L18.3908 8.64012L18.3121 8.80012L18.2727 8.96012L18.2333 9.16012L18.1939 9.28012V9.40012V9.48012V9.60012V9.68012L18.2333 9.80012V9.88012L18.2727 9.96012L18.3121 10.0401L18.3908 10.1201L18.4302 10.2001L18.509 10.2801L18.5877 10.3201L18.6665 10.3601L18.7846 10.4001L18.9028 10.4401H18.9422H18.9816L19.0209 10.4801H19.0997H19.1785H19.2178H19.2966H19.3754L19.4541 10.4401H19.5329H19.6116L19.6904 10.4001L19.7692 10.3601L19.8086 10.3201L19.8873 10.2801L19.9661 10.2401L19.8086 11.0401L19.7692 11.0801L19.7298 11.1201H19.6904L19.651 11.1601H19.6116L19.5723 11.2001H19.4935L19.4147 11.2401H19.336H19.2178H19.0997H18.9422H18.824H18.6271H18.509L18.3515 11.2001L18.2333 11.1601L18.0758 11.0801L17.9576 11.0401L17.8395 10.9201L17.7214 10.8401L17.6032 10.7201L17.5244 10.5601L17.4063 10.4001L17.3669 10.2401L17.2882 10.0401L17.2488 9.84012V9.64012V9.40012L17.2882 9.16012L17.3275 9.04012V8.92012L17.3669 8.80012L17.4063 8.68012L17.4457 8.56012L17.4851 8.48012L17.5244 8.36012L17.5638 8.28012L17.6032 8.16012L17.6426 8.08012L17.682 8.00012L17.7607 7.92012L17.8001 7.84012L17.8395 7.76012L17.9183 7.72012L17.997 7.64012L18.0364 7.60012L18.1152 7.52012L18.1939 7.48012L18.2727 7.44012L18.3515 7.36012L18.4302 7.32012H18.509L18.5877 7.28012L18.7059 7.24012L18.7846 7.20012H18.8634L18.9816 7.16012H19.0997H19.1785H19.2966L19.4147 7.12012L19.4935 7.16012H19.6116H19.6904H19.7692L19.8479 7.20012H19.9267H20.0055L20.0842 7.24012H20.163L20.2024 7.28012H20.2811L20.3205 7.32012H20.3599H20.3993L20.4387 7.36012L20.2811 8.20012Z" fill="white"/>
<path d="M20.2811 8.20012L20.2417 8.16012H20.2024L20.163 8.12012H20.1236L20.0842 8.08012H20.0448L20.0055 8.04012H19.9267H19.8873L19.8086 8.00012H19.7692H19.6904H19.6116L19.5723 7.96012H19.4935H19.4147H19.336L19.2572 8.00012H19.1785H19.0997L19.0209 8.04012L18.9422 8.08012L18.824 8.12012L18.7453 8.16012L18.6665 8.24012L18.5877 8.32012L18.509 8.40012L18.4696 8.52012L18.3908 8.64012L18.3121 8.80012L18.2727 8.96012L18.2333 9.16012L18.1939 9.28012V9.40012V9.48012V9.60012V9.68012L18.2333 9.80012V9.88012L18.2727 9.96012L18.3121 10.0401L18.3908 10.1201L18.4302 10.2001L18.509 10.2801L18.5877 10.3201L18.6665 10.3601L18.7846 10.4001L18.9028 10.4401H18.9422H18.9816L19.0209 10.4801H19.0997H19.1785H19.2178H19.2966H19.3754L19.4541 10.4401H19.5329H19.6116L19.6904 10.4001L19.7692 10.3601L19.8086 10.3201L19.8873 10.2801L19.9661 10.2401L19.8086 11.0401L19.7692 11.0801L19.7298 11.1201H19.6904L19.651 11.1601H19.6116L19.5723 11.2001H19.4935L19.4147 11.2401H19.336H19.2178H19.0997H18.9422H18.824H18.6271H18.509L18.3515 11.2001L18.2333 11.1601L18.0758 11.0801L17.9576 11.0401L17.8395 10.9201L17.7214 10.8401L17.6032 10.7201L17.5244 10.5601L17.4063 10.4001L17.3669 10.2401L17.2882 10.0401L17.2488 9.84012V9.64012V9.40012L17.2882 9.16012L17.3275 9.04012V8.92012L17.3669 8.80012L17.4063 8.68012L17.4457 8.56012L17.4851 8.48012L17.5244 8.36012L17.5638 8.28012L17.6032 8.16012L17.6426 8.08012L17.682 8.00012L17.7607 7.92012L17.8001 7.84012L17.8395 7.76012L17.9183 7.72012L17.997 7.64012L18.0364 7.60012L18.1152 7.52012L18.1939 7.48012L18.2727 7.44012L18.3515 7.36012L18.4302 7.32012H18.509L18.5877 7.28012L18.7059 7.24012L18.7846 7.20012H18.8634L18.9816 7.16012H19.0997H19.1785H19.2966L19.4147 7.12012L19.4935 7.16012H19.6116H19.6904H19.7692L19.8479 7.20012H19.9267H20.0055L20.0842 7.24012H20.163L20.2024 7.28012H20.2811L20.3205 7.32012H20.3599H20.3993L20.4387 7.36012L20.2811 8.20012Z" stroke="white" stroke-width="0.216" stroke-miterlimit="2.6131"/>
<path fill-rule="evenodd" clip-rule="evenodd" d="M27.6455 11.2803H26.8185L26.8972 10.9203V10.8803L26.8579 10.9603L26.7791 11.0003L26.7397 11.0403L26.7003 11.1203L26.6216 11.1603H26.5822L26.5428 11.2003L26.4641 11.2403H26.4247L26.3459 11.2803H26.3065H26.2278H26.1884L26.1096 11.3203H26.0703H25.9915L25.834 11.2803H25.7158L25.5583 11.2003L25.4402 11.1603L25.3614 11.0403L25.2433 10.9603L25.1645 10.8403L25.0857 10.7203L25.0464 10.5603L24.9676 10.4403V10.2803L24.9282 10.1203V9.96027V9.80027V9.64027L24.9676 9.52027L25.007 9.32027L25.0464 9.16027L25.1251 9.00027L25.2039 8.84027L25.2826 8.72027L25.3614 8.60027L25.4402 8.48027L25.5583 8.40027L25.6765 8.28027L25.7552 8.24027L25.8734 8.16027L25.9915 8.12027L26.1096 8.08027L26.2278 8.04027L26.3459 8.00027H26.4641H26.5822L26.661 8.04027H26.7397H26.8185L26.8579 8.08027L26.9366 8.12027L26.976 8.16027H27.0548L27.0942 8.20027L27.1335 8.24027L27.1729 8.28027L27.2123 8.32027L27.2517 8.36027V8.40027L27.2911 8.44027V8.48027L27.5273 7.28027H28.3149L27.6455 11.2803Z" fill="white"/>
<path d="M27.6455 11.2803H26.8185L26.8972 10.9203V10.8803L26.8579 10.9603L26.7791 11.0003L26.7397 11.0403L26.7003 11.1203L26.6216 11.1603H26.5822L26.5428 11.2003L26.4641 11.2403H26.4247L26.3459 11.2803H26.3065H26.2278H26.1884L26.1096 11.3203H26.0703H25.9915L25.834 11.2803H25.7158L25.5583 11.2003L25.4402 11.1603L25.3614 11.0403L25.2433 10.9603L25.1645 10.8403L25.0857 10.7203L25.0464 10.5603L24.9676 10.4403V10.2803L24.9282 10.1203V9.96027V9.80027V9.64027L24.9676 9.52027L25.007 9.32027L25.0464 9.16027L25.1251 9.00027L25.2039 8.84027L25.2826 8.72027L25.3614 8.60027L25.4402 8.48027L25.5583 8.40027L25.6765 8.28027L25.7552 8.24027L25.8734 8.16027L25.9915 8.12027L26.1096 8.08027L26.2278 8.04027L26.3459 8.00027H26.4641H26.5822L26.661 8.04027H26.7397H26.8185L26.8579 8.08027L26.9366 8.12027L26.976 8.16027H27.0548L27.0942 8.20027L27.1335 8.24027L27.1729 8.28027L27.2123 8.32027L27.2517 8.36027V8.40027L27.2911 8.44027V8.48027L27.5273 7.28027H28.3149L27.6455 11.2803Z" stroke="white" stroke-width="0.216" stroke-miterlimit="2.6131"/>
<path fill-rule="evenodd" clip-rule="evenodd" d="M26.3065 10.52H26.3852H26.464L26.5428 10.48L26.6215 10.44L26.6609 10.4L26.7397 10.36L26.779 10.32L26.8184 10.24L26.8972 10.2L26.9366 10.12L26.9759 10.08V10L27.0153 9.92001L27.0547 9.84001V9.76001L27.0941 9.68001V9.60001V9.48001V9.40001V9.32001V9.24001V9.16001L27.0547 9.12001V9.04001L27.0153 8.96001L26.9759 8.92001L26.9366 8.88001L26.8972 8.84001L26.8578 8.80001L26.779 8.76001H26.7397H26.6609H26.5821H26.5034L26.4246 8.80001H26.3852L26.3065 8.84001L26.2671 8.92001L26.1883 8.96001L26.149 9.00001L26.1096 9.08001L26.0702 9.16001L26.0308 9.24001L25.9914 9.32001L25.9521 9.40001V9.48001L25.9127 9.56001V9.64001L25.8733 9.76001V9.92001L25.9127 10.08L25.9521 10.2L25.9914 10.32L26.0702 10.44L26.1883 10.52H26.3065Z" fill="#C7C7C7"/>
<path fill-rule="evenodd" clip-rule="evenodd" d="M7.95487 10.6005L7.83673 11.2805H7.08848V11.1205L7.12786 11.0405V10.9605V10.8805L7.08848 10.9605L7.0491 11.0005L6.97033 11.0405L6.93095 11.0805L6.85219 11.1205L6.77343 11.1605L6.69466 11.2005L6.6159 11.2405H6.53714L6.45837 11.2805H6.34023L6.26147 11.3205H6.1827H6.10394H6.02518L5.94642 11.2805H5.82827L5.74951 11.2405L5.63136 11.2005L5.5526 11.1605L5.51322 11.1205L5.43446 11.0405L5.39507 11.0005L5.35569 10.9205L5.31631 10.8805L5.27693 10.8005V10.7205L5.23755 10.6805V10.6005V10.5205V10.4405V10.4005V10.2805V10.1605L5.27693 10.0405L5.31631 9.96045L5.35569 9.84045L5.43446 9.76045L5.47384 9.68045L5.5526 9.60045L5.63136 9.52045L5.71013 9.48045L5.78889 9.40045L5.90703 9.36045L5.9858 9.32045L6.06456 9.28045H6.1827L6.30085 9.24045H6.34023H6.37961H6.41899H6.45837L6.49776 9.20045H6.53714H6.57652H6.65528H6.69466H6.73404H6.77343H6.85219H6.89157H6.97033H7.0491H7.12786H7.16724H7.246H7.28538H7.32477V9.16045V9.12045L7.36415 9.04045V9.00045V8.92045L7.32477 8.88045L7.28538 8.80045L7.246 8.76045L7.16724 8.72045H7.12786L7.0491 8.68045H6.97033H6.89157H6.81281H6.69466H6.6159H6.49776H6.41899L6.30085 8.72045H6.22209H6.14332L6.06456 8.76045H5.9858H5.90703L5.82827 8.80045H5.78889L5.74951 8.84045H5.71013L5.90703 8.12045L5.9858 8.08045H6.06456L6.10394 8.04045H6.1827L6.26147 8.00045H6.34023H6.41899H6.49776L6.57652 7.96045H6.65528H6.77343H6.85219H6.93095H7.0491H7.16724H7.246L7.32477 8.00045H7.44291H7.52167L7.60044 8.04045L7.71858 8.08045L7.79734 8.12045L7.87611 8.16045L7.95487 8.24045L8.03363 8.32045L8.1124 8.36045L8.19116 8.44045L8.23054 8.56045V8.64045L8.26992 8.76045V8.88045L8.23054 9.00045L7.95487 10.6005Z" fill="white"/>
<path d="M7.95487 10.6005L7.83673 11.2805H7.08848V11.1205L7.12786 11.0405V10.9605V10.8805L7.08848 10.9605L7.0491 11.0005L6.97033 11.0405L6.93095 11.0805L6.85219 11.1205L6.77343 11.1605L6.69466 11.2005L6.6159 11.2405H6.53714L6.45837 11.2805H6.34023L6.26147 11.3205H6.1827H6.10394H6.02518L5.94642 11.2805H5.82827L5.74951 11.2405L5.63136 11.2005L5.5526 11.1605L5.51322 11.1205L5.43446 11.0405L5.39507 11.0005L5.35569 10.9205L5.31631 10.8805L5.27693 10.8005V10.7205L5.23755 10.6805V10.6005V10.5205V10.4405V10.4005V10.2805V10.1605L5.27693 10.0405L5.31631 9.96045L5.35569 9.84045L5.43446 9.76045L5.47384 9.68045L5.5526 9.60045L5.63136 9.52045L5.71013 9.48045L5.78889 9.40045L5.90703 9.36045L5.9858 9.32045L6.06456 9.28045H6.1827L6.30085 9.24045H6.34023H6.37961H6.41899H6.45837L6.49776 9.20045H6.53714H6.57652H6.65528H6.69466H6.73404H6.77343H6.85219H6.89157H6.97033H7.0491H7.12786H7.16724H7.246H7.28538H7.32477V9.16045V9.12045L7.36415 9.04045V9.00045V8.92045L7.32477 8.88045L7.28538 8.80045L7.246 8.76045L7.16724 8.72045H7.12786L7.0491 8.68045H6.97033H6.89157H6.81281H6.69466H6.6159H6.49776H6.41899L6.30085 8.72045H6.22209H6.14332L6.06456 8.76045H5.9858H5.90703L5.82827 8.80045H5.78889L5.74951 8.84045H5.71013L5.90703 8.12045L5.9858 8.08045H6.06456L6.10394 8.04045H6.1827L6.26147 8.00045H6.34023H6.41899H6.49776L6.57652 7.96045H6.65528H6.77343H6.85219H6.93095H7.0491H7.16724H7.246L7.32477 8.00045H7.44291H7.52167L7.60044 8.04045L7.71858 8.08045L7.79734 8.12045L7.87611 8.16045L7.95487 8.24045L8.03363 8.32045L8.1124 8.36045L8.19116 8.44045L8.23054 8.56045V8.64045L8.26992 8.76045V8.88045L8.23054 9.00045L7.95487 10.6005Z" stroke="white" stroke-width="0.216" stroke-miterlimit="2.6131"/>
<path fill-rule="evenodd" clip-rule="evenodd" d="M7.2066 9.79956V9.75952H7.16722H7.12784H7.08846H7.04908H7.0097H6.97032H6.89155H6.85217H6.81279H6.77341H6.73403L6.69465 9.79956H6.65527H6.61588L6.5765 9.83961H6.53712H6.49774L6.45836 9.87965H6.41898L6.3796 9.91969L6.34022 9.95973L6.30084 9.99977L6.26145 10.0398H6.22207V10.0799L6.18269 10.1199V10.2L6.14331 10.24V10.3201L6.18269 10.4402V10.4803L6.22207 10.5203L6.26145 10.5604H6.34022L6.3796 10.6004H6.41898H6.49774L6.61588 10.5604H6.69465H6.73403L6.81279 10.5203L6.85217 10.4803H6.89155L6.97032 10.4402L7.0097 10.4002L7.04908 10.3602V10.3201L7.08846 10.2801L7.12784 10.24V10.2V10.1599L7.16722 10.0799L7.2066 9.95973V9.87965V9.79956Z" fill="#999999"/>
<path fill-rule="evenodd" clip-rule="evenodd" d="M1.65415 11.2803H0.827148L1.536 7.28027H2.95372L3.07186 9.64028L4.05638 7.28027H5.51348L4.844 11.2803H4.017L4.52895 8.28028H4.48957L3.26876 11.2803H2.363V11.1203L2.32362 10.8003V10.3203L2.28424 9.80028L2.24486 9.24028L2.20548 8.76028V8.44028V8.28028H2.1661L1.65415 11.2803Z" fill="white"/>
<path d="M1.65415 11.2803H0.827148L1.536 7.28027H2.95372L3.07186 9.64028L4.05638 7.28027H5.51348L4.844 11.2803H4.017L4.52895 8.28028H4.48957L3.26876 11.2803H2.363V11.1203L2.32362 10.8003V10.3203L2.28424 9.80028L2.24486 9.24028L2.20548 8.76028V8.44028V8.28028H2.1661L1.65415 11.2803Z" stroke="white" stroke-width="0.216" stroke-miterlimit="2.6131"/>
<path fill-rule="evenodd" clip-rule="evenodd" d="M22.8017 10.6005L22.6442 11.2805H21.8959V11.1205L21.9353 11.0405V10.9605V10.9205L21.8959 10.9605L21.8566 11.0005L21.7778 11.0405L21.7384 11.0805L21.6597 11.1205L21.5809 11.1605L21.5021 11.2005L21.4234 11.2405H21.3446L21.2659 11.2805H21.1871L21.1083 11.3205H21.0296H20.9508H20.8721L20.7933 11.2805H20.6752L20.557 11.2405L20.4783 11.2005L20.3995 11.1605L20.3601 11.1205L20.2814 11.0405L20.242 11.0005L20.2026 10.9205L20.1632 10.8805L20.1239 10.8005V10.7205L20.0845 10.6805V10.6005V10.5205V10.4405V10.4005V10.2805V10.1605L20.1239 10.0405L20.1632 9.96045L20.2026 9.84045L20.2814 9.76045L20.3208 9.68045L20.3995 9.60045L20.4783 9.52045L20.557 9.48045L20.6358 9.40045L20.7539 9.36045L20.8327 9.32045L20.9114 9.28045H21.0296L21.1083 9.24045H21.1477H21.1871H21.2265H21.2659L21.3052 9.20045H21.384H21.4234H21.4628H21.5415H21.5809H21.6203H21.6597H21.699H21.7384H21.8172H21.8959H21.9353H22.0141H22.0928H22.1322H22.1716V9.16045V9.12045V9.04045L22.211 9.00045L22.1716 8.92045V8.88045L22.1322 8.80045L22.0535 8.76045L22.0141 8.72045H21.9747L21.8959 8.68045H21.8172H21.7384H21.6597H21.5415H21.4628H21.3446H21.2659L21.1871 8.72045H21.069H20.9902L20.9114 8.76045H20.8327H20.7539L20.6752 8.80045H20.6358L20.5964 8.84045H20.557L20.7539 8.12045L20.8327 8.08045H20.9114L20.9508 8.04045H21.0296L21.1083 8.00045H21.1871H21.2659H21.3446L21.4234 7.96045H21.5021H21.6203H21.699H21.7778H21.8959H21.9747H22.0928L22.1716 8.00045H22.2504H22.3685L22.4473 8.04045L22.526 8.08045L22.6442 8.12045L22.7229 8.16045L22.8017 8.24045L22.8804 8.32045L22.9592 8.36045L22.9986 8.44045L23.038 8.56045L23.0773 8.64045L23.1167 8.76045V8.88045L23.0773 9.00045L22.8017 10.6005Z" fill="white"/>
<path fill-rule="evenodd" clip-rule="evenodd" d="M22.6443 11.2811H22.6837L22.8018 10.6003H22.7624L22.6443 11.241V11.2811H22.6837H22.6443Z" fill="white"/>
<path fill-rule="evenodd" clip-rule="evenodd" d="M21.8958 11.2796H22.644V11.24H21.8958L21.9351 11.2796H21.8958Z" fill="white"/>
<path fill-rule="evenodd" clip-rule="evenodd" d="M21.9352 10.9196L21.8958 10.8796V10.9596V11.0396V11.1196V11.2796H21.9352V11.1196V11.0396V10.9596V10.9196L21.8958 10.8796L21.9352 10.9196Z" fill="white"/>
<path fill-rule="evenodd" clip-rule="evenodd" d="M20.7932 11.3196H20.872H20.9507H21.0295H21.1083H21.187L21.2658 11.2796H21.384L21.4627 11.2396L21.5415 11.1996H21.6203L21.6596 11.1596L21.7384 11.1196L21.8172 11.0396L21.8566 10.9996L21.8959 10.9596L21.9353 10.9196L21.8959 10.8796L21.8566 10.9596L21.8172 10.9996L21.7778 11.0396L21.699 11.0796L21.6596 11.1196L21.5809 11.1596L21.5021 11.1996H21.4233L21.3446 11.2396H21.2658L21.187 11.2796H21.1083H21.0295H20.9507H20.872H20.7932V11.3196Z" fill="white"/>
<path fill-rule="evenodd" clip-rule="evenodd" d="M20.0452 10.4001V10.4402V10.5203L20.0845 10.6004V10.6804V10.7205L20.1239 10.8006L20.1633 10.8806L20.2027 10.9207L20.2421 11.0008L20.2814 11.0408L20.3208 11.1209L20.3996 11.1609L20.4783 11.201L20.5571 11.241L20.6752 11.2811L20.7933 11.3211V11.2811L20.6752 11.241L20.5964 11.201L20.5177 11.1609L20.4389 11.1209L20.3602 11.0809L20.3208 11.0408L20.2421 10.9607L20.2027 10.9207V10.8406L20.1633 10.8006L20.1239 10.7205V10.6804V10.6004L20.0845 10.5203V10.4402V10.4001H20.0452Z" fill="white"/>
<path fill-rule="evenodd" clip-rule="evenodd" d="M21.1085 9.24023H21.0297L20.9116 9.28023L20.8328 9.32023L20.7146 9.36023L20.6359 9.40023L20.5571 9.44023L20.4784 9.52023L20.3996 9.60023L20.3208 9.68023L20.2421 9.76023L20.2027 9.84023L20.1633 9.96023L20.1239 10.0402L20.0845 10.1602L20.0452 10.2802V10.4002H20.0845V10.2802L20.1239 10.1602V10.0402L20.1633 9.96023L20.2421 9.88023L20.2815 9.76023L20.3602 9.68023L20.3996 9.60023L20.4784 9.56023L20.5571 9.48023L20.6359 9.44023L20.754 9.40023L20.8328 9.36023L20.9509 9.32023L21.0297 9.28023H21.1085V9.24023Z" fill="white"/>
<path fill-rule="evenodd" clip-rule="evenodd" d="M21.7382 9.15967H21.6988H21.6594H21.62H21.5807H21.5413L21.4625 9.19975H21.4232H21.3838H21.305H21.2657H21.2263H21.1869L21.1475 9.23984H21.1082V9.27993H21.1475V9.23984H21.1869H21.2263H21.2657H21.305H21.3838H21.4232L21.4625 9.19975H21.5413H21.5807H21.62H21.6594H21.6988H21.7382V9.15967Z" fill="white"/>
<path fill-rule="evenodd" clip-rule="evenodd" d="M22.1321 9.19932L22.1714 9.15967H22.1321H22.0927H22.0139H21.9352H21.8958H21.817H21.7383V9.19932H21.817H21.8958H21.9352H22.0139H22.0927H22.1321H22.1714H22.1321Z" fill="white"/>
<path fill-rule="evenodd" clip-rule="evenodd" d="M22.1715 8.99976V9.03976V9.11976L22.1321 9.15976V9.19976H22.1715V9.15976L22.2109 9.11976V9.03976V8.99976H22.1715Z" fill="white"/>
<path fill-rule="evenodd" clip-rule="evenodd" d="M21.8171 8.68038V8.72038H21.8959H21.9353L22.014 8.76038L22.0534 8.80038L22.0928 8.84038L22.1322 8.88038L22.1716 8.92038V9.00038H22.211V8.92038L22.1716 8.88038L22.1322 8.80038L22.0928 8.76038L22.014 8.72038L21.9747 8.68038H21.8959L21.8171 8.64038V8.68038Z" fill="white"/>
<path fill-rule="evenodd" clip-rule="evenodd" d="M20.5173 8.84059L20.5567 8.88063L20.5961 8.84059H20.6355L20.6749 8.80054H20.7536L20.8324 8.7605H20.9112H20.9899L21.0687 8.72046H21.1868H21.2656H21.3444L21.4625 8.68042H21.5413H21.6594H21.7382H21.8169L21.7382 8.64038H21.6594H21.5413H21.4625L21.3444 8.68042H21.2656H21.1868H21.0687L20.9899 8.72046H20.9112H20.8324L20.7536 8.7605H20.6749L20.6355 8.80054H20.5961L20.5567 8.84059H20.5173Z" fill="white"/>
<path fill-rule="evenodd" clip-rule="evenodd" d="M20.7536 8.07983V8.11988L20.5173 8.84064H20.5567L20.793 8.11988H20.7536V8.07983V8.11988V8.07983Z" fill="white"/>
<path fill-rule="evenodd" clip-rule="evenodd" d="M22.0929 7.96045H21.9747H21.896H21.7778H21.699H21.6203H21.5021H21.4234H21.3446H21.2659L21.1871 8.00056H21.1083H21.0296L20.9508 8.04067H20.9114L20.8327 8.08079H20.7539V8.1209H20.8327L20.9114 8.08079H20.9508L21.0296 8.04067H21.1083L21.1871 8.00056H21.2659H21.3446H21.4234H21.5021H21.6203H21.699H21.7778H21.896H21.9747H22.0929V7.96045Z" fill="white"/>
<path fill-rule="evenodd" clip-rule="evenodd" d="M23.1165 9.00046V8.88046V8.76045V8.64045L23.0771 8.56045L23.0377 8.44045L22.9589 8.36045L22.8802 8.28045L22.8014 8.20045L22.7227 8.16045L22.6439 8.12045L22.5651 8.08045L22.447 8.04045L22.3682 8.00045L22.2501 7.96045H22.1713H22.0925V8.00045H22.1713H22.2501L22.3682 8.04045L22.447 8.08045L22.5257 8.12045L22.6439 8.16045L22.7227 8.20045L22.8014 8.24045L22.8802 8.32045L22.9196 8.40045L22.9983 8.48045L23.0377 8.56045L23.0771 8.64045V8.76045V8.88046V9.00046H23.1165Z" fill="white"/>
<path fill-rule="evenodd" clip-rule="evenodd" d="M22.8018 10.5998L23.1169 8.99976H23.0775L22.7625 10.5998H22.8018Z" fill="white"/>
<path fill-rule="evenodd" clip-rule="evenodd" d="M22.0534 9.8003V9.76026H22.014H21.9747L21.9353 9.72021H21.8565L21.8171 9.76026H21.7778H21.7384H21.699H21.6203H21.5809L21.5415 9.8003H21.5021H21.4628H21.4234L21.384 9.84034H21.3446L21.3052 9.88038H21.2659L21.2265 9.92042L21.1871 9.96047H21.1477L21.1084 10.0005L21.069 10.0405V10.0806L21.0296 10.1206V10.2007L20.9902 10.2408V10.3208L21.0296 10.441V10.481L21.069 10.521L21.1084 10.5611H21.1871L21.2265 10.6011H21.2659H21.384L21.4628 10.5611H21.5415L21.5809 10.521H21.6596L21.699 10.481L21.7778 10.441H21.8171L21.8565 10.4009L21.8959 10.3609L21.9353 10.3208L21.9747 10.2808V10.2408V10.2007L22.014 10.1607V10.1206V10.0405L22.0534 9.96047V9.88038V9.8003Z" fill="#C7C7C7"/>
<path fill-rule="evenodd" clip-rule="evenodd" d="M28.197 10.8407L28.2364 10.7607V10.6807L28.2758 10.6407L28.3545 10.5607L28.3939 10.5207L28.4727 10.4807L28.5514 10.4407H28.6302H28.7089L28.7877 10.4807L28.8665 10.5207L28.9452 10.5607L28.9846 10.6407L29.024 10.6807L29.0633 10.7607V10.8407H28.9452V10.8007V10.7207L28.9058 10.6807L28.8665 10.6007L28.8271 10.5607L28.7877 10.5207H28.7089H28.6302H28.5514H28.512L28.4333 10.5607L28.3939 10.6007L28.3545 10.6807L28.3152 10.7207V10.8007V10.8407H28.197Z" fill="white"/>
<path fill-rule="evenodd" clip-rule="evenodd" d="M28.4727 10.8399V10.6794H28.6302H28.6695H28.7089H28.7483L28.7877 10.7196V10.7597V10.7998V10.8399H28.6302H28.6695H28.7089V10.7998H28.7483V10.7597L28.7089 10.7196H28.6695H28.6302H28.5514V10.8399H28.4727Z" fill="white"/>
<path fill-rule="evenodd" clip-rule="evenodd" d="M28.197 10.8403V10.8803L28.2364 10.9603V11.0403L28.2758 11.1203L28.3545 11.1603L28.3939 11.2003L28.4727 11.2403L28.5514 11.2803H28.6302H28.7089L28.7877 11.2403L28.8665 11.2003L28.9452 11.1603L28.9846 11.1203L29.024 11.0403L29.0633 10.9603V10.8803V10.8403H28.9452L28.9846 10.8803L28.9452 10.9203V11.0003L28.9058 11.0803L28.8665 11.1203L28.8271 11.1603L28.7877 11.2003H28.7089H28.6302H28.5514H28.512L28.4333 11.1603L28.3939 11.1203L28.3545 11.0803L28.3152 11.0003V10.9203V10.8803V10.8403H28.197Z" fill="white"/>
<path fill-rule="evenodd" clip-rule="evenodd" d="M28.4727 10.8403V11.0403H28.5514V10.8803H28.6302L28.7089 11.0403H28.7877L28.7089 10.8803H28.7483L28.7877 10.8403H28.6302H28.5514H28.4727Z" fill="white"/>
<path d="M28.197 10.8811V10.8011L28.2364 10.721L28.2758 10.6409L28.3152 10.5608L28.3939 10.5208L28.4727 10.4807L28.5514 10.4407H28.6302H28.7089L28.7877 10.4807L28.8665 10.5208L28.9452 10.5608L28.9846 10.6409L29.024 10.721L29.0633 10.8011V10.8811V10.9612L29.024 11.0413L28.9846 11.1214L28.9452 11.2015H28.8665L28.7877 11.2415L28.7089 11.2816H28.6302H28.5514L28.4727 11.2415L28.3939 11.2015L28.3545 11.1614L28.3152 11.0813L28.2758 11.0013L28.2364 10.9212L28.197 10.8811ZM28.5514 11.0413H28.4727V10.6809H28.6302H28.6696H28.7089H28.7483H28.7877V10.721V10.761V10.8011V10.8411H28.7483H28.7089L28.7877 11.0013H28.7089L28.6302 10.8411H28.5514V11.0413V11.0413ZM28.6302 10.8411H28.6696V10.8011H28.5908V10.9212H28.6302V10.8411ZM28.6302 11.2015H28.7089L28.7877 11.1614L28.8271 11.1214L28.8665 11.0813L28.9058 11.0413L28.9452 11.0013V10.9212V10.8411V10.761V10.6809L28.9058 10.6008L28.8665 10.5608L28.8271 10.5208L28.7877 10.4807L28.7089 10.4407H28.6302H28.5514L28.4727 10.4807L28.4333 10.5208L28.3939 10.5608L28.3545 10.6809L28.3152 10.761V10.8411V10.9212V11.0013V11.0813L28.3545 11.1214L28.3939 11.1614L28.4333 11.2015L28.4727 11.2415L28.5514 11.2816L28.6302 11.2015Z" stroke="white" stroke-width="0.216" stroke-miterlimit="2.6131"/>
<path fill-rule="evenodd" clip-rule="evenodd" d="M22.9985 11.2805H23.8649L24.1406 9.52045L24.18 9.48045V9.40045V9.32045L24.2194 9.28045L24.2587 9.20045L24.2981 9.12045L24.3375 9.08045L24.3769 9.00045L24.4163 8.96045L24.495 8.92045L24.5738 8.88045L24.6526 8.84045L24.7313 8.80045H24.8101L24.9282 8.76045H25.0464H25.0858H25.1251L25.2433 7.96045L25.1645 8.00045H25.0858H25.007L24.9282 8.04045H24.8888L24.8101 8.08045L24.7313 8.12045L24.6919 8.16045L24.6526 8.20045L24.5738 8.24045L24.5344 8.28045L24.495 8.32045L24.4556 8.40045L24.4163 8.44045L24.3769 8.48045L24.2981 8.56045L24.4163 8.00045H23.5499L22.9985 11.2805Z" fill="white"/>
<path d="M22.9985 11.2805H23.8649L24.1406 9.52045L24.18 9.48045V9.40045V9.32045L24.2194 9.28045L24.2587 9.20045L24.2981 9.12045L24.3375 9.08045L24.3769 9.00045L24.4163 8.96045L24.495 8.92045L24.5738 8.88045L24.6526 8.84045L24.7313 8.80045H24.8101L24.9282 8.76045H25.0464H25.0858H25.1251L25.2433 7.96045L25.1645 8.00045H25.0858H25.007L24.9282 8.04045H24.8888L24.8101 8.08045L24.7313 8.12045L24.6919 8.16045L24.6526 8.20045L24.5738 8.24045L24.5344 8.28045L24.495 8.32045L24.4556 8.40045L24.4163 8.44045L24.3769 8.48045L24.2981 8.56045L24.4163 8.00045H23.5499L22.9985 11.2805Z" stroke="white" stroke-width="0.216" stroke-miterlimit="2.6131"/>
<path fill-rule="evenodd" clip-rule="evenodd" d="M15.0828 11.2805H15.9491L16.2248 9.52045L16.2642 9.48045V9.40045V9.36045L16.3036 9.28045V9.20045L16.343 9.16045L16.3823 9.12045L16.4217 9.04045L16.4611 9.00045L16.5399 8.96045L16.5792 8.92045L16.658 8.88045H16.7368L16.8549 8.84045H16.9337L17.0518 8.80045H17.0912V8.84045H17.1306H17.17V8.80045V8.72045L17.2093 8.68045V8.60045L17.2487 8.48045V8.40045L17.2881 8.32045L17.3275 8.28045V8.20045L17.3669 8.16045L17.4062 8.12045L17.4456 8.04045V8.00045H17.485H17.4456H17.4062L17.3669 7.96045H17.3275L17.2487 8.00045H17.17H17.0912L17.0124 8.04045H16.9337L16.8943 8.08045L16.8155 8.12045L16.7761 8.16045L16.6974 8.20045L16.658 8.24045L16.6186 8.28045L16.5792 8.32045L16.5399 8.40045L16.5005 8.44045L16.4611 8.48045L16.3823 8.56045L16.5005 8.00045H15.6341L15.0828 11.2805Z" fill="white"/>
<path d="M15.0828 11.2805H15.9491L16.2248 9.52045L16.2642 9.48045V9.40045V9.36045L16.3036 9.28045V9.20045L16.343 9.16045L16.3823 9.12045L16.4217 9.04045L16.4611 9.00045L16.5399 8.96045L16.5792 8.92045L16.658 8.88045H16.7368L16.8549 8.84045H16.9337L17.0518 8.80045H17.0912V8.84045H17.1306H17.17V8.80045V8.72045L17.2093 8.68045V8.60045L17.2487 8.48045V8.40045L17.2881 8.32045L17.3275 8.28045V8.20045L17.3669 8.16045L17.4062 8.12045L17.4456 8.04045V8.00045H17.485H17.4456H17.4062L17.3669 7.96045H17.3275L17.2487 8.00045H17.17H17.0912L17.0124 8.04045H16.9337L16.8943 8.08045L16.8155 8.12045L16.7761 8.16045L16.6974 8.20045L16.658 8.24045L16.6186 8.28045L16.5792 8.32045L16.5399 8.40045L16.5005 8.44045L16.4611 8.48045L16.3823 8.56045L16.5005 8.00045H15.6341L15.0828 11.2805Z" stroke="white" stroke-width="0.216" stroke-miterlimit="2.6131"/>
<path fill-rule="evenodd" clip-rule="evenodd" d="M28.2363 14.441V14.3608L28.2757 14.2806L28.3545 14.2405L28.3938 14.2003L28.4726 14.1602L28.5514 14.1201H28.6301H28.7089L28.7876 14.1602L28.8664 14.2003L28.9452 14.2405L28.9845 14.2806L29.0239 14.3608L29.0633 14.441H28.9452V14.4009L28.9058 14.3207L28.8664 14.2806L28.827 14.2405L28.7876 14.2003H28.7089L28.6301 14.1602L28.5514 14.2003H28.512L28.4332 14.2405L28.3938 14.2806L28.3545 14.3207L28.3151 14.4009V14.441H28.2363Z" fill="#C7C7C7"/>
<path fill-rule="evenodd" clip-rule="evenodd" d="M28.4727 14.4403V14.3601H28.6302H28.6695H28.7089H28.7483L28.7877 14.4002V14.4403H28.7483V14.4002H28.7089H28.6695H28.6302H28.5514V14.4403H28.4727Z" fill="#C7C7C7"/>
<path fill-rule="evenodd" clip-rule="evenodd" d="M28.197 14.5203L28.2366 14.4397H28.3157V14.5203H28.197Z" fill="#C7C7C7"/>
<path fill-rule="evenodd" clip-rule="evenodd" d="M28.4727 14.5199V14.4397H28.5514V14.5199H28.6302H28.6695H28.7089V14.4798H28.7483V14.4397H28.7877V14.4798V14.5199H28.4727Z" fill="#C7C7C7"/>
<path fill-rule="evenodd" clip-rule="evenodd" d="M28.9844 14.5203L28.9448 14.4397H29.0636V14.5203H28.9844Z" fill="#C7C7C7"/>
<path fill-rule="evenodd" clip-rule="evenodd" d="M28.197 14.5203L28.2364 14.6003V14.7203L28.2758 14.7603L28.3545 14.8403L28.3939 14.8803L28.4727 14.9203L28.5514 14.9603H28.6302H28.7089L28.7877 14.9203L28.8665 14.8803L28.9452 14.8403L28.9846 14.7603L29.024 14.7203L29.0633 14.6003V14.5203H28.9846L28.9452 14.6003V14.6803L28.9058 14.7203L28.8665 14.8003L28.8271 14.8403H28.7877L28.7089 14.8803H28.6302H28.5514L28.512 14.8403H28.4333L28.3939 14.8003L28.3545 14.7203L28.3152 14.6803V14.6003V14.5203H28.197Z" fill="#C7C7C7"/>
<path fill-rule="evenodd" clip-rule="evenodd" d="M28.4727 14.5203V14.6807H28.5514V14.5604H28.6302L28.7089 14.6807H28.7877L28.7089 14.5604H28.7483V14.5203H28.7877H28.4727Z" fill="#C7C7C7"/>
<path fill-rule="evenodd" clip-rule="evenodd" d="M15.201 8.96045L15.1617 8.80045L15.1223 8.64045L15.0435 8.52045L14.9648 8.36045L14.886 8.24045L14.8072 8.16045L14.6891 8.08045L14.5709 8.04045L14.4528 8.00045H14.3346L14.2165 7.96045H14.0984H13.9802H13.7439L13.5076 8.00045L13.3107 8.04045L13.1532 8.12045L12.9957 8.20045L12.8775 8.32045L12.7594 8.44045L12.6806 8.56045L12.6018 8.68045L12.4837 8.80045L12.4443 8.92045L12.4049 9.04045L12.3656 9.20045L12.3262 9.32045V9.44045V9.52045V9.76045V10.0004L12.3656 10.2004L12.4049 10.3604L12.4837 10.5204L12.5625 10.6404L12.6806 10.7604L12.7988 10.8804L12.9169 10.9604L13.035 11.0404L13.1926 11.0804L13.3501 11.1204L13.5076 11.1604L13.6652 11.2004H13.8227H13.9802H14.0984H14.1771H14.2559H14.3346H14.4134H14.4922H14.5316H14.5709H14.6103H14.6497H14.6891H14.7285H14.7678L14.8072 11.1604L14.8466 11.1204L14.9648 10.3604L14.9254 10.4004L14.8466 10.4404L14.7678 10.4804L14.6891 10.5204L14.5709 10.5604H14.4922H14.4134H14.3346H14.2559H14.1771H14.0984H14.0196H13.9408H13.8621H13.7833H13.7045H13.6258L13.547 10.5204L13.4682 10.4804L13.4289 10.4404L13.3895 10.4004L13.3501 10.3604L13.3107 10.3204L13.2713 10.2804L13.232 10.2404L13.1926 10.2004L13.1532 10.1604V10.1204V10.0804V10.0404V10.0004H15.0829V9.80045L15.1223 9.56045L15.1617 9.32045L15.201 8.96045ZM14.374 9.24045H13.2713V9.20045V9.12045V9.04045L13.3107 8.96045L13.3501 8.92045L13.3895 8.88045L13.4289 8.84045L13.4682 8.80045L13.5076 8.76045L13.547 8.72045L13.5864 8.68045L13.6258 8.64045L13.6652 8.60045H13.7045H13.7439H13.7833H13.8227H13.8621H13.9014H13.9408H13.9802L14.0196 8.64045L14.059 8.68045L14.0984 8.72045L14.1377 8.76045L14.1771 8.80045L14.2165 8.84045L14.2559 8.88045L14.2953 8.92045V9.00045V9.08045V9.16045L14.374 9.24045Z" fill="white"/>
</svg>
