
<svg width="81px" height="18px" viewBox="0 0 81 18" version="1.1" xmlns="http://www.w3.org/2000/svg" xmlns:xlink="http://www.w3.org/1999/xlink">
    <g id="Page-1" stroke="none" stroke-width="1" fill="none" fill-rule="evenodd">
        <g id="Group-2">
            <g id="Group-1" transform="translate(0.000000, 2.000000)" fill-rule="nonzero">
                <rect id="Rectangle" fill="#FFFFFF" x="0" y="0" width="43.2677" height="14.0732"></rect>
                <polygon id="Path" fill="#999999" points="18.782 13.8997 15.21 13.8997 17.4569 0.231934 20.9713 0.231934"></polygon>
                <path d="M12.2716,0.231934 L8.93005,9.61405 L8.52676,7.58705 L7.31688,1.44813 C7.31688,1.44813 7.20165,0.231934 5.6461,0.231934 L0.0576132,0.231934 L0,0.463591 C0,0.463591 1.7284,0.811077 3.68725,2.02728 L6.74075,13.8997 L10.428,13.8997 L16.0165,0.289848 L12.2716,0.289848 L12.2716,0.231934 Z" id="Path" fill="#999999"></path>
                <path d="M40.0413,13.8997 L43.2676,13.8997 L40.4446,0.231934 L37.6215,0.231934 C36.2964,0.231934 36.0084,1.27439 36.0084,1.27439 L30.708,13.8997 L34.3952,13.8997 L35.1442,11.8727 L39.638,11.8727 L40.0413,13.8997 Z M36.1236,9.03491 L37.9672,3.93845 L39.0042,9.03491 L36.1236,9.03491 Z" id="Shape" fill="#999999"></path>
                <path d="M30.9959,3.53277 L31.4568,0.579142 C31.4568,0.579142 29.9012,0 28.2881,0 C26.5597,0 22.3539,0.752885 22.3539,4.51731 C22.3539,8.05008 27.251,8.10799 27.251,9.90333 C27.251,11.7566 22.8724,11.4091 21.4321,10.2508 L20.9136,13.3203 C20.9136,13.3203 22.4691,14.0732 24.8889,14.0732 C27.3086,14.0732 30.9383,12.799 30.9383,9.38211 C30.9383,5.84934 25.9835,5.50185 25.9835,3.99608 C26.0411,2.49031 29.4979,2.66405 30.9959,3.53277 Z" id="Path" fill="#999999"></path>
                <path d="M8.46912,7.58705 L7.31686,1.44813 C7.31686,1.44813 7.20163,0.231934 5.64608,0.231934 L0.057613,0.231934 L0,0.463591 C0,0.463591 2.6502,1.04273 5.24279,3.12765 C7.72015,5.09674 8.46912,7.58705 8.46912,7.58705 Z" id="Path" fill="#C7C7C7"></path>
            </g>
            <g id="Group" transform="translate(51.000000, 0.000000)">
                <polygon id="Path" fill="#C7C7C7" points="20.7538 18 21.187 18 21.6596 17.96 22.0928 17.88 22.526 17.84 22.9592 17.72 23.3923 17.6 23.7862 17.44 24.18 17.28 24.5738 17.12 24.9676 16.92 25.322 16.68 25.7158 16.48 26.0309 16.2 26.3853 15.96 26.7004 15.68 27.0154 15.36 27.2911 15.04 27.5667 14.72 27.8424 14.4 28.0787 14.04 28.315 13.68 28.5513 13.28 28.7482 12.88 28.9057 12.48 29.0632 12.08 29.2207 11.68 29.3389 11.24 29.4176 10.8 29.4964 10.36 29.5752 9.92 29.6146 9.44 29.6146 9 29.6146 8.52 29.5752 8.08 29.4964 7.6 29.4176 7.16 29.3389 6.76 29.2207 6.32 29.0632 5.88 28.9057 5.48 28.7482 5.08 28.5513 4.72 28.315 4.32 28.0787 3.96 27.8424 3.6 27.5667 3.28 27.2911 2.96 27.0154 2.64 26.7004 2.32 26.3853 2.04 26.0309 1.8 25.7158 1.52 25.322 1.32 24.9676 1.08 24.5738 0.88 24.18 0.72 23.7862 0.56 23.3923 0.4 22.9592 0.28 22.526 0.2 22.0928 0.12 21.6596 0.04 21.187 0 20.7538 0 20.2812 0 19.8087 0.04 19.3755 0.12 18.9423 0.2 18.5091 0.28 18.1153 0.4 17.6821 0.56 17.2883 0.72 16.8945 0.88 16.5007 1.08 16.1462 1.32 15.7918 1.52 15.4374 1.8 15.1223 2.04 14.7679 2.32 14.4922 2.64 14.1772 2.96 13.9015 3.28 13.6258 3.6 13.3895 3.96 13.1533 4.32 12.9564 4.72 12.7595 5.08 12.5625 5.48 12.405 5.88 12.2869 6.32 12.1687 6.76 12.0506 7.16 11.9718 7.6 11.9324 8.08 11.8931 8.52 11.8931 9 11.8931 9.44 11.9324 9.92 11.9718 10.36 12.0506 10.8 12.1687 11.24 12.2869 11.68 12.405 12.08 12.5625 12.48 12.7595 12.88 12.9564 13.28 13.1533 13.68 13.3895 14.04 13.6258 14.4 13.9015 14.72 14.1772 15.04 14.4922 15.36 14.7679 15.68 15.1223 15.96 15.4374 16.2 15.7918 16.48 16.1462 16.68 16.5007 16.92 16.8945 17.12 17.2883 17.28 17.6821 17.44 18.1153 17.6 18.5091 17.72 18.9423 17.84 19.3755 17.88 19.8087 17.96 20.2812 18"></polygon>
                <polygon id="Path" fill="#999999" points="8.86074 18 9.33332 18 9.76651 17.96 10.2391 17.88 10.6723 17.84 11.1055 17.72 11.4993 17.6 11.9325 17.44 12.3263 17.28 12.7201 17.12 13.1139 16.92 13.4683 16.68 13.8228 16.48 14.1772 16.2 14.4922 15.96 14.8073 15.68 15.1223 15.36 15.4374 15.04 15.7131 14.72 15.9493 14.4 16.225 14.04 16.4613 13.68 16.6582 13.28 16.8551 12.88 17.0126 12.48 17.1702 12.08 17.3277 11.68 17.4458 11.24 17.564 10.8 17.6033 10.36 17.6821 9.92 17.7215 9.44 17.7215 9 17.7215 8.52 17.6821 8.08 17.6033 7.6 17.564 7.16 17.4458 6.76 17.3277 6.32 17.1702 5.88 17.0126 5.48 16.8551 5.08 16.6582 4.72 16.4613 4.32 16.225 3.96 15.9493 3.6 15.7131 3.28 15.4374 2.96 15.1223 2.64 14.8073 2.32 14.4922 2.04 14.1772 1.8 13.8228 1.52 13.4683 1.32 13.1139 1.08 12.7201 0.88 12.3263 0.72 11.9325 0.56 11.4993 0.4 11.1055 0.28 10.6723 0.2 10.2391 0.12 9.76651 0.04 9.33332 0 8.86074 0 8.42755 0 7.95498 0.04 7.52179 0.12 7.08859 0.2 6.6554 0.28 6.22221 0.4 5.8284 0.56 5.43459 0.72 5.04078 0.88 4.64697 1.08 4.29254 1.32 3.89873 1.52 3.58368 1.8 3.22925 2.04 2.9142 2.32 2.59915 2.64 2.32348 2.96 2.00844 3.28 1.77215 3.6 1.49648 3.96 1.29958 4.32 1.06329 4.72 0.866384 5.08 0.708859 5.48 0.551335 5.88 0.393811 6.32 0.275668 6.76 0.196905 7.16 0.118143 7.6 0.0393811 8.08 0 8.52 0 9 0 9.44 0.0393811 9.92 0.118143 10.36 0.196905 10.8 0.275668 11.24 0.393811 11.68 0.551335 12.08 0.708859 12.48 0.866384 12.88 1.06329 13.28 1.29958 13.68 1.49648 14.04 1.77215 14.4 2.00844 14.72 2.32348 15.04 2.59915 15.36 2.9142 15.68 3.22925 15.96 3.58368 16.2 3.89873 16.48 4.29254 16.68 4.64697 16.92 5.04078 17.12 5.43459 17.28 5.8284 17.44 6.22221 17.6 6.6554 17.72 7.08859 17.84 7.52179 17.88 7.95498 17.96 8.42755 18"></polygon>
                <polygon id="Path" fill="#C7C7C7" points="13.7834 3.43971 18.4698 3.43971 18.4698 2.95972 14.1773 2.95972"></polygon>
                <polygon id="Path" fill="#C7C7C7" points="13.0747 4.51955 18.4699 4.51955 18.4699 4.03955 13.3504 4.03955"></polygon>
                <polygon id="Path" fill="#C7C7C7" points="12.5232 5.64011 18.4698 5.64011 18.4698 5.12012 12.7595 5.12012"></polygon>
                <polygon id="Path" fill="#C7C7C7" points="12.1689 6.71975 18.4699 6.71975 18.4699 6.23975 12.3265 6.23975"></polygon>
                <polygon id="Path" fill="#C7C7C7" points="12.3657 11.9595 18.5092 11.9595 18.5092 11.4795 12.2476 11.4795"></polygon>
                <polygon id="Path" fill="#C7C7C7" points="12.8381 13.0403 18.509 13.0403 18.509 12.5603 12.6018 12.5603"></polygon>
                <polygon id="Path" fill="#C7C7C7" points="13.4684 14.1201 18.5091 14.1201 18.5091 13.6401 13.1533 13.6401"></polygon>
                <polygon id="Path" fill="#C7C7C7" points="14.335 15.24 18.5093 15.24 18.5093 14.72 13.9412 14.72"></polygon>
                <polygon id="Path" fill="#C7C7C7" points="11.9719 7.80007 18.4698 7.80007 18.4698 7.32007 12.0507 7.32007"></polygon>
                <polygon id="Path" fill="#C7C7C7" points="15.9495 10.8802 18.4305 10.8802 18.4305 10.4001 16.0282 10.4001"></polygon>
                <polygon id="Path" fill="#C7C7C7" points="16.1462 9.80055 18.4303 9.80055 18.4303 9.32056 16.225 9.32056"></polygon>
                <polygon id="Path" fill="#C7C7C7" points="11.8145 9.32056 12.4446 9.32056 12.4446 9.80055 11.8145 9.80055"></polygon>
                <polygon id="Path" fill="#FFFFFF" points="10.5934 8.72045 10.554 8.72045 10.5146 8.72045 10.4752 8.68045 10.4359 8.68045 10.3965 8.68045 10.3571 8.68045 10.3177 8.68045 10.2783 8.68045 10.2389 8.64045 10.1996 8.64045 10.1208 8.64045 10.0814 8.64045 10.0027 8.64045 9.96328 8.64045 9.88452 8.64045 9.76638 8.68045 9.727 8.68045 9.64823 8.68045 9.60885 8.72045 9.56947 8.72045 9.53009 8.76045 9.49071 8.76045 9.45133 8.80045 9.41195 8.84045 9.41195 8.88045 9.41195 8.92045 9.41195 8.96045 9.41195 9.00045 9.41195 9.04045 9.45133 9.08045 9.45133 9.12045 9.53009 9.16045 9.60885 9.24045 9.68762 9.28045 9.76638 9.28045 9.88452 9.32045 9.96328 9.36045 10.0814 9.40045 10.1602 9.44045 10.2389 9.48045 10.3177 9.56045 10.3965 9.64045 10.4752 9.72045 10.5146 9.84045 10.554 9.96045 10.554 10.1204 10.554 10.3204 10.5146 10.4805 10.4752 10.6004 10.4359 10.7204 10.3965 10.8004 10.3177 10.9204 10.2389 10.9604 10.1602 11.0405 10.0814 11.1204 9.96328 11.1604 9.88452 11.2004 9.76638 11.2004 9.64823 11.2405 9.56947 11.2405 9.45133 11.2805 9.37257 11.2805 9.25443 11.2805 9.13628 11.2805 9.01814 11.2805 8.9 11.2805 8.82124 11.2805 8.74247 11.2805 8.66371 11.2805 8.58495 11.2405 8.50619 11.2405 8.42743 11.2405 8.38805 11.2405 8.34866 11.2004 8.2699 11.2004 8.23052 11.2004 8.19114 11.1604 8.15176 11.1604 8.073 11.1204 8.23052 10.4805 8.2699 10.4805 8.30928 10.4805 8.38805 10.5204 8.42743 10.5204 8.46681 10.5204 8.54557 10.5604 8.62433 10.5604 8.70309 10.5604 8.78185 10.6004 8.86062 10.6004 8.93938 10.6004 9.01814 10.6004 9.0969 10.6004 9.21504 10.6004 9.29381 10.6004 9.37257 10.6004 9.45133 10.5604 9.49071 10.5204 9.53009 10.4805 9.56947 10.4404 9.60885 10.4004 9.60885 10.3604 9.60885 10.2805 9.60885 10.2004 9.60885 10.1204 9.53009 10.0805 9.45133 10.0404 9.37257 9.96045 9.29381 9.92045 9.17566 9.88045 9.05752 9.84045 8.93938 9.80045 8.82124 9.72045 8.70309 9.64045 8.62433 9.56045 8.54557 9.44045 8.46681 9.28045 8.46681 9.12045 8.46681 8.92045 8.46681 8.84045 8.50619 8.72045 8.50619 8.60045 8.54557 8.52045 8.62433 8.40045 8.66371 8.32045 8.74247 8.28045 8.78185 8.20045 8.9 8.12045 8.97876 8.08045 9.0969 8.04045 9.21504 8.00045 9.33319 8.00045 9.49071 7.96045 9.64823 7.96045 9.84514 7.96045 9.9239 7.96045 10.042 7.96045 10.1208 7.96045 10.1996 7.96045 10.2783 7.96045 10.3571 7.96045 10.4359 7.96045 10.4752 7.96045 10.5146 8.00045 10.554 8.00045 10.5934 8.00045 10.6328 8.00045 10.6721 8.00045 10.7115 8.00045 10.7115 8.04045 10.7509 8.04045"></polygon>
                <polygon id="Path" stroke="#FFFFFF" stroke-width="0.216" points="10.5934 8.72045 10.554 8.72045 10.5146 8.72045 10.4752 8.68045 10.4359 8.68045 10.3965 8.68045 10.3571 8.68045 10.3177 8.68045 10.2783 8.68045 10.2389 8.64045 10.1996 8.64045 10.1208 8.64045 10.0814 8.64045 10.0027 8.64045 9.96328 8.64045 9.88452 8.64045 9.76638 8.68045 9.727 8.68045 9.64823 8.68045 9.60885 8.72045 9.56947 8.72045 9.53009 8.76045 9.49071 8.76045 9.45133 8.80045 9.41195 8.84045 9.41195 8.88045 9.41195 8.92045 9.41195 8.96045 9.41195 9.00045 9.41195 9.04045 9.45133 9.08045 9.45133 9.12045 9.53009 9.16045 9.60885 9.24045 9.68762 9.28045 9.76638 9.28045 9.88452 9.32045 9.96328 9.36045 10.0814 9.40045 10.1602 9.44045 10.2389 9.48045 10.3177 9.56045 10.3965 9.64045 10.4752 9.72045 10.5146 9.84045 10.554 9.96045 10.554 10.1204 10.554 10.3204 10.5146 10.4805 10.4752 10.6004 10.4359 10.7204 10.3965 10.8004 10.3177 10.9204 10.2389 10.9604 10.1602 11.0405 10.0814 11.1204 9.96328 11.1604 9.88452 11.2004 9.76638 11.2004 9.64823 11.2405 9.56947 11.2405 9.45133 11.2805 9.37257 11.2805 9.25443 11.2805 9.13628 11.2805 9.01814 11.2805 8.9 11.2805 8.82124 11.2805 8.74247 11.2805 8.66371 11.2805 8.58495 11.2405 8.50619 11.2405 8.42743 11.2405 8.38805 11.2405 8.34866 11.2004 8.2699 11.2004 8.23052 11.2004 8.19114 11.1604 8.15176 11.1604 8.073 11.1204 8.23052 10.4805 8.2699 10.4805 8.30928 10.4805 8.38805 10.5204 8.42743 10.5204 8.46681 10.5204 8.54557 10.5604 8.62433 10.5604 8.70309 10.5604 8.78185 10.6004 8.86062 10.6004 8.93938 10.6004 9.01814 10.6004 9.0969 10.6004 9.21504 10.6004 9.29381 10.6004 9.37257 10.6004 9.45133 10.5604 9.49071 10.5204 9.53009 10.4805 9.56947 10.4404 9.60885 10.4004 9.60885 10.3604 9.60885 10.2805 9.60885 10.2004 9.60885 10.1204 9.53009 10.0805 9.45133 10.0404 9.37257 9.96045 9.29381 9.92045 9.17566 9.88045 9.05752 9.84045 8.93938 9.80045 8.82124 9.72045 8.70309 9.64045 8.62433 9.56045 8.54557 9.44045 8.46681 9.28045 8.46681 9.12045 8.46681 8.92045 8.46681 8.84045 8.50619 8.72045 8.50619 8.60045 8.54557 8.52045 8.62433 8.40045 8.66371 8.32045 8.74247 8.28045 8.78185 8.20045 8.9 8.12045 8.97876 8.08045 9.0969 8.04045 9.21504 8.00045 9.33319 8.00045 9.49071 7.96045 9.64823 7.96045 9.84514 7.96045 9.9239 7.96045 10.042 7.96045 10.1208 7.96045 10.1996 7.96045 10.2783 7.96045 10.3571 7.96045 10.4359 7.96045 10.4752 7.96045 10.5146 8.00045 10.554 8.00045 10.5934 8.00045 10.6328 8.00045 10.6721 8.00045 10.7115 8.00045 10.7115 8.04045 10.7509 8.04045"></polygon>
                <polygon id="Path" fill="#FFFFFF" points="11.3024 7.28027 12.1294 7.28027 12.0113 8.00028 12.5232 8.00028 12.4051 8.68028 11.8538 8.68028 11.5781 10.3603 11.5781 10.4403 11.6175 10.4803 11.6175 10.5203 11.6568 10.5603 11.7356 10.6003 11.775 10.6003 11.8538 10.6003 11.9325 10.6003 11.9719 10.6003 12.0507 10.6003 12.09 10.6003 12.1294 10.6003 12.1688 10.5603 12.2082 10.5603 12.2476 10.5603 12.1294 11.1203 12.09 11.1603 12.0507 11.1603 12.0113 11.2003 11.9719 11.2003 11.9325 11.2003 11.8931 11.2403 11.8538 11.2403 11.8144 11.2403 11.775 11.2403 11.7356 11.2403 11.6962 11.2403 11.6175 11.2803 11.4205 11.2803 11.3024 11.2403 11.1843 11.2403 11.1055 11.2403 10.9873 11.2003 10.948 11.1603 10.8692 11.1603 10.8298 11.1203 10.7904 11.0803 10.7511 11.0403 10.7511 10.9603 10.7117 10.9203 10.7117 10.8803 10.7117 10.8003 10.7117 10.7203 10.7117 10.6803 10.7511 10.6003"></polygon>
                <polygon id="Path" stroke="#FFFFFF" stroke-width="0.216" points="11.3024 7.28027 12.1294 7.28027 12.0113 8.00028 12.5232 8.00028 12.4051 8.68028 11.8538 8.68028 11.5781 10.3603 11.5781 10.4403 11.6175 10.4803 11.6175 10.5203 11.6568 10.5603 11.7356 10.6003 11.775 10.6003 11.8538 10.6003 11.9325 10.6003 11.9719 10.6003 12.0507 10.6003 12.09 10.6003 12.1294 10.6003 12.1688 10.5603 12.2082 10.5603 12.2476 10.5603 12.1294 11.1203 12.09 11.1603 12.0507 11.1603 12.0113 11.2003 11.9719 11.2003 11.9325 11.2003 11.8931 11.2403 11.8538 11.2403 11.8144 11.2403 11.775 11.2403 11.7356 11.2403 11.6962 11.2403 11.6175 11.2803 11.4205 11.2803 11.3024 11.2403 11.1843 11.2403 11.1055 11.2403 10.9873 11.2003 10.948 11.1603 10.8692 11.1603 10.8298 11.1203 10.7904 11.0803 10.7511 11.0403 10.7511 10.9603 10.7117 10.9203 10.7117 10.8803 10.7117 10.8003 10.7117 10.7203 10.7117 10.6803 10.7511 10.6003"></polygon>
                <polygon id="Path" stroke="#FFFFFF" stroke-width="0.216" points="13.1533 9.84045 13.1533 9.88045 13.1533 9.96045 13.1533 10.0004 13.1926 10.0805 13.1926 10.1204 13.232 10.1604 13.2714 10.2404 13.2714 10.2805 13.3108 10.3204 13.3895 10.4004 13.4289 10.4404 13.4683 10.4805 13.5471 10.4805 13.5864 10.5204 13.6652 10.5604 13.7046 10.5604 13.7834 10.5604 13.8621 10.5604 13.9409 10.6004 14.0196 10.6004 14.0984 10.6004 14.1772 10.6004 14.2559 10.6004 14.3347 10.6004 14.4135 10.5604 14.4922 10.5604 14.571 10.5604 14.6497 10.5204 14.7285 10.4805 14.8467 10.4404 14.9254 10.4004 15.0042 10.3604 14.886 11.0805 14.8467 11.1204 14.7679 11.1604 14.7285 11.1604 14.6891 11.1604 14.6497 11.2004 14.6104 11.2004 14.571 11.2004 14.4922 11.2405 14.4528 11.2405 14.3741 11.2405 14.3347 11.2405 14.2559 11.2405 14.1772 11.2405 14.0984 11.2405 14.0196 11.2805 13.9015 11.2805 13.744 11.2405 13.6258 11.2405 13.4683 11.2405 13.3108 11.2004 13.1533 11.1604 13.0351 11.0805 12.8776 11.0004 12.7594 10.9204 12.6413 10.8004 12.5625 10.6805 12.4444 10.5604 12.405 10.4004 12.3262 10.2004 12.2869 10.0004 12.2869 9.80045 12.3262 9.52045 12.3262 9.44045 12.3262 9.32045 12.3656 9.20045 12.405 9.08045 12.4444 8.96045 12.4838 8.80045 12.5625 8.68045 12.6413 8.56045 12.7594 8.44045 12.8776 8.32045 12.9957 8.20045 13.1533 8.12045 13.3108 8.04045 13.5077 8.00045 13.7046 7.96045 13.9803 7.96045 14.0984 7.96045 14.2165 7.96045 14.3347 8.00045 14.4528 8.00045 14.571 8.04045 14.6891 8.12045 14.8073 8.20045 14.886 8.28045 14.9648 8.36045 15.0436 8.48045 15.1223 8.64045 15.1617 8.80045 15.2011 8.96045 15.2011 9.20045 15.1617 9.40045 15.1223 9.68045 15.1223 9.84045 12.917 9.84045 13.0745 9.24045 14.3741 9.24045 14.3741 9.20045 14.3741 9.12045 14.3741 9.04045 14.3741 9.00045 14.3347 8.92045 14.3347 8.88045 14.2953 8.84045 14.2559 8.80045 14.2165 8.76045 14.1772 8.72045 14.1378 8.68045 14.0984 8.68045 14.059 8.64045 13.9803 8.64045 13.9409 8.64045 13.9015 8.64045 13.8227 8.64045 13.7834 8.64045 13.744 8.64045 13.6652 8.68045 13.6258 8.68045 13.5864 8.72045 13.5471 8.76045 13.5077 8.80045 13.4683 8.84045 13.4289 8.88045 13.3895 8.92045 13.3502 8.96045 13.3502 9.04045 13.3108 9.08045 13.3108 9.16045 13.2714 9.20045"></polygon>
                <polygon id="Path" fill="#FFFFFF" points="20.2811 8.20012 20.2417 8.16012 20.2024 8.16012 20.163 8.12012 20.1236 8.12012 20.0842 8.08012 20.0448 8.08012 20.0055 8.04012 19.9267 8.04012 19.8873 8.04012 19.8086 8.00012 19.7692 8.00012 19.6904 8.00012 19.6116 8.00012 19.5723 7.96012 19.4935 7.96012 19.4147 7.96012 19.336 7.96012 19.2572 8.00012 19.1785 8.00012 19.0997 8.00012 19.0209 8.04012 18.9422 8.08012 18.824 8.12012 18.7453 8.16012 18.6665 8.24012 18.5877 8.32012 18.509 8.40012 18.4696 8.52012 18.3908 8.64012 18.3121 8.80012 18.2727 8.96012 18.2333 9.16012 18.1939 9.28012 18.1939 9.40012 18.1939 9.48012 18.1939 9.60012 18.1939 9.68012 18.2333 9.80012 18.2333 9.88012 18.2727 9.96012 18.3121 10.0401 18.3908 10.1201 18.4302 10.2001 18.509 10.2801 18.5877 10.3201 18.6665 10.3601 18.7846 10.4001 18.9028 10.4401 18.9422 10.4401 18.9816 10.4401 19.0209 10.4801 19.0997 10.4801 19.1785 10.4801 19.2178 10.4801 19.2966 10.4801 19.3754 10.4801 19.4541 10.4401 19.5329 10.4401 19.6116 10.4401 19.6904 10.4001 19.7692 10.3601 19.8086 10.3201 19.8873 10.2801 19.9661 10.2401 19.8086 11.0401 19.7692 11.0801 19.7298 11.1201 19.6904 11.1201 19.651 11.1601 19.6116 11.1601 19.5723 11.2001 19.4935 11.2001 19.4147 11.2401 19.336 11.2401 19.2178 11.2401 19.0997 11.2401 18.9422 11.2401 18.824 11.2401 18.6271 11.2401 18.509 11.2401 18.3515 11.2001 18.2333 11.1601 18.0758 11.0801 17.9576 11.0401 17.8395 10.9201 17.7214 10.8401 17.6032 10.7201 17.5244 10.5601 17.4063 10.4001 17.3669 10.2401 17.2882 10.0401 17.2488 9.84012 17.2488 9.64012 17.2488 9.40012 17.2882 9.16012 17.3275 9.04012 17.3275 8.92012 17.3669 8.80012 17.4063 8.68012 17.4457 8.56012 17.4851 8.48012 17.5244 8.36012 17.5638 8.28012 17.6032 8.16012 17.6426 8.08012 17.682 8.00012 17.7607 7.92012 17.8001 7.84012 17.8395 7.76012 17.9183 7.72012 17.997 7.64012 18.0364 7.60012 18.1152 7.52012 18.1939 7.48012 18.2727 7.44012 18.3515 7.36012 18.4302 7.32012 18.509 7.32012 18.5877 7.28012 18.7059 7.24012 18.7846 7.20012 18.8634 7.20012 18.9816 7.16012 19.0997 7.16012 19.1785 7.16012 19.2966 7.16012 19.4147 7.12012 19.4935 7.16012 19.6116 7.16012 19.6904 7.16012 19.7692 7.16012 19.8479 7.20012 19.9267 7.20012 20.0055 7.20012 20.0842 7.24012 20.163 7.24012 20.2024 7.28012 20.2811 7.28012 20.3205 7.32012 20.3599 7.32012 20.3993 7.32012 20.4387 7.36012"></polygon>
                <polygon id="Path" stroke="#FFFFFF" stroke-width="0.216" points="20.2811 8.20012 20.2417 8.16012 20.2024 8.16012 20.163 8.12012 20.1236 8.12012 20.0842 8.08012 20.0448 8.08012 20.0055 8.04012 19.9267 8.04012 19.8873 8.04012 19.8086 8.00012 19.7692 8.00012 19.6904 8.00012 19.6116 8.00012 19.5723 7.96012 19.4935 7.96012 19.4147 7.96012 19.336 7.96012 19.2572 8.00012 19.1785 8.00012 19.0997 8.00012 19.0209 8.04012 18.9422 8.08012 18.824 8.12012 18.7453 8.16012 18.6665 8.24012 18.5877 8.32012 18.509 8.40012 18.4696 8.52012 18.3908 8.64012 18.3121 8.80012 18.2727 8.96012 18.2333 9.16012 18.1939 9.28012 18.1939 9.40012 18.1939 9.48012 18.1939 9.60012 18.1939 9.68012 18.2333 9.80012 18.2333 9.88012 18.2727 9.96012 18.3121 10.0401 18.3908 10.1201 18.4302 10.2001 18.509 10.2801 18.5877 10.3201 18.6665 10.3601 18.7846 10.4001 18.9028 10.4401 18.9422 10.4401 18.9816 10.4401 19.0209 10.4801 19.0997 10.4801 19.1785 10.4801 19.2178 10.4801 19.2966 10.4801 19.3754 10.4801 19.4541 10.4401 19.5329 10.4401 19.6116 10.4401 19.6904 10.4001 19.7692 10.3601 19.8086 10.3201 19.8873 10.2801 19.9661 10.2401 19.8086 11.0401 19.7692 11.0801 19.7298 11.1201 19.6904 11.1201 19.651 11.1601 19.6116 11.1601 19.5723 11.2001 19.4935 11.2001 19.4147 11.2401 19.336 11.2401 19.2178 11.2401 19.0997 11.2401 18.9422 11.2401 18.824 11.2401 18.6271 11.2401 18.509 11.2401 18.3515 11.2001 18.2333 11.1601 18.0758 11.0801 17.9576 11.0401 17.8395 10.9201 17.7214 10.8401 17.6032 10.7201 17.5244 10.5601 17.4063 10.4001 17.3669 10.2401 17.2882 10.0401 17.2488 9.84012 17.2488 9.64012 17.2488 9.40012 17.2882 9.16012 17.3275 9.04012 17.3275 8.92012 17.3669 8.80012 17.4063 8.68012 17.4457 8.56012 17.4851 8.48012 17.5244 8.36012 17.5638 8.28012 17.6032 8.16012 17.6426 8.08012 17.682 8.00012 17.7607 7.92012 17.8001 7.84012 17.8395 7.76012 17.9183 7.72012 17.997 7.64012 18.0364 7.60012 18.1152 7.52012 18.1939 7.48012 18.2727 7.44012 18.3515 7.36012 18.4302 7.32012 18.509 7.32012 18.5877 7.28012 18.7059 7.24012 18.7846 7.20012 18.8634 7.20012 18.9816 7.16012 19.0997 7.16012 19.1785 7.16012 19.2966 7.16012 19.4147 7.12012 19.4935 7.16012 19.6116 7.16012 19.6904 7.16012 19.7692 7.16012 19.8479 7.20012 19.9267 7.20012 20.0055 7.20012 20.0842 7.24012 20.163 7.24012 20.2024 7.28012 20.2811 7.28012 20.3205 7.32012 20.3599 7.32012 20.3993 7.32012 20.4387 7.36012"></polygon>
                <polygon id="Path" fill="#FFFFFF" points="27.6455 11.2803 26.8185 11.2803 26.8972 10.9203 26.8972 10.8803 26.8579 10.9603 26.7791 11.0003 26.7397 11.0403 26.7003 11.1203 26.6216 11.1603 26.5822 11.1603 26.5428 11.2003 26.4641 11.2403 26.4247 11.2403 26.3459 11.2803 26.3065 11.2803 26.2278 11.2803 26.1884 11.2803 26.1096 11.3203 26.0703 11.3203 25.9915 11.3203 25.834 11.2803 25.7158 11.2803 25.5583 11.2003 25.4402 11.1603 25.3614 11.0403 25.2433 10.9603 25.1645 10.8403 25.0857 10.7203 25.0464 10.5603 24.9676 10.4403 24.9676 10.2803 24.9282 10.1203 24.9282 9.96027 24.9282 9.80027 24.9282 9.64027 24.9676 9.52027 25.007 9.32027 25.0464 9.16027 25.1251 9.00027 25.2039 8.84027 25.2826 8.72027 25.3614 8.60027 25.4402 8.48027 25.5583 8.40027 25.6765 8.28027 25.7552 8.24027 25.8734 8.16027 25.9915 8.12027 26.1096 8.08027 26.2278 8.04027 26.3459 8.00027 26.4641 8.00027 26.5822 8.00027 26.661 8.04027 26.7397 8.04027 26.8185 8.04027 26.8579 8.08027 26.9366 8.12027 26.976 8.16027 27.0548 8.16027 27.0942 8.20027 27.1335 8.24027 27.1729 8.28027 27.2123 8.32027 27.2517 8.36027 27.2517 8.40027 27.2911 8.44027 27.2911 8.48027 27.5273 7.28027 28.3149 7.28027"></polygon>
                <polygon id="Path" stroke="#FFFFFF" stroke-width="0.216" points="27.6455 11.2803 26.8185 11.2803 26.8972 10.9203 26.8972 10.8803 26.8579 10.9603 26.7791 11.0003 26.7397 11.0403 26.7003 11.1203 26.6216 11.1603 26.5822 11.1603 26.5428 11.2003 26.4641 11.2403 26.4247 11.2403 26.3459 11.2803 26.3065 11.2803 26.2278 11.2803 26.1884 11.2803 26.1096 11.3203 26.0703 11.3203 25.9915 11.3203 25.834 11.2803 25.7158 11.2803 25.5583 11.2003 25.4402 11.1603 25.3614 11.0403 25.2433 10.9603 25.1645 10.8403 25.0857 10.7203 25.0464 10.5603 24.9676 10.4403 24.9676 10.2803 24.9282 10.1203 24.9282 9.96027 24.9282 9.80027 24.9282 9.64027 24.9676 9.52027 25.007 9.32027 25.0464 9.16027 25.1251 9.00027 25.2039 8.84027 25.2826 8.72027 25.3614 8.60027 25.4402 8.48027 25.5583 8.40027 25.6765 8.28027 25.7552 8.24027 25.8734 8.16027 25.9915 8.12027 26.1096 8.08027 26.2278 8.04027 26.3459 8.00027 26.4641 8.00027 26.5822 8.00027 26.661 8.04027 26.7397 8.04027 26.8185 8.04027 26.8579 8.08027 26.9366 8.12027 26.976 8.16027 27.0548 8.16027 27.0942 8.20027 27.1335 8.24027 27.1729 8.28027 27.2123 8.32027 27.2517 8.36027 27.2517 8.40027 27.2911 8.44027 27.2911 8.48027 27.5273 7.28027 28.3149 7.28027"></polygon>
                <polygon id="Path" fill="#C7C7C7" points="26.3065 10.52 26.3852 10.52 26.464 10.52 26.5428 10.48 26.6215 10.44 26.6609 10.4 26.7397 10.36 26.779 10.32 26.8184 10.24 26.8972 10.2 26.9366 10.12 26.9759 10.08 26.9759 10 27.0153 9.92001 27.0547 9.84001 27.0547 9.76001 27.0941 9.68001 27.0941 9.60001 27.0941 9.48001 27.0941 9.40001 27.0941 9.32001 27.0941 9.24001 27.0941 9.16001 27.0547 9.12001 27.0547 9.04001 27.0153 8.96001 26.9759 8.92001 26.9366 8.88001 26.8972 8.84001 26.8578 8.80001 26.779 8.76001 26.7397 8.76001 26.6609 8.76001 26.5821 8.76001 26.5034 8.76001 26.4246 8.80001 26.3852 8.80001 26.3065 8.84001 26.2671 8.92001 26.1883 8.96001 26.149 9.00001 26.1096 9.08001 26.0702 9.16001 26.0308 9.24001 25.9914 9.32001 25.9521 9.40001 25.9521 9.48001 25.9127 9.56001 25.9127 9.64001 25.8733 9.76001 25.8733 9.92001 25.9127 10.08 25.9521 10.2 25.9914 10.32 26.0702 10.44 26.1883 10.52"></polygon>
                <polygon id="Path" fill="#FFFFFF" points="7.95487 10.6005 7.83673 11.2805 7.08848 11.2805 7.08848 11.1205 7.12786 11.0405 7.12786 10.9605 7.12786 10.8805 7.08848 10.9605 7.0491 11.0005 6.97033 11.0405 6.93095 11.0805 6.85219 11.1205 6.77343 11.1605 6.69466 11.2005 6.6159 11.2405 6.53714 11.2405 6.45837 11.2805 6.34023 11.2805 6.26147 11.3205 6.1827 11.3205 6.10394 11.3205 6.02518 11.3205 5.94642 11.2805 5.82827 11.2805 5.74951 11.2405 5.63136 11.2005 5.5526 11.1605 5.51322 11.1205 5.43446 11.0405 5.39507 11.0005 5.35569 10.9205 5.31631 10.8805 5.27693 10.8005 5.27693 10.7205 5.23755 10.6805 5.23755 10.6005 5.23755 10.5205 5.23755 10.4405 5.23755 10.4005 5.23755 10.2805 5.23755 10.1605 5.27693 10.0405 5.31631 9.96045 5.35569 9.84045 5.43446 9.76045 5.47384 9.68045 5.5526 9.60045 5.63136 9.52045 5.71013 9.48045 5.78889 9.40045 5.90703 9.36045 5.9858 9.32045 6.06456 9.28045 6.1827 9.28045 6.30085 9.24045 6.34023 9.24045 6.37961 9.24045 6.41899 9.24045 6.45837 9.24045 6.49776 9.20045 6.53714 9.20045 6.57652 9.20045 6.65528 9.20045 6.69466 9.20045 6.73404 9.20045 6.77343 9.20045 6.85219 9.20045 6.89157 9.20045 6.97033 9.20045 7.0491 9.20045 7.12786 9.20045 7.16724 9.20045 7.246 9.20045 7.28538 9.20045 7.32477 9.20045 7.32477 9.16045 7.32477 9.12045 7.36415 9.04045 7.36415 9.00045 7.36415 8.92045 7.32477 8.88045 7.28538 8.80045 7.246 8.76045 7.16724 8.72045 7.12786 8.72045 7.0491 8.68045 6.97033 8.68045 6.89157 8.68045 6.81281 8.68045 6.69466 8.68045 6.6159 8.68045 6.49776 8.68045 6.41899 8.68045 6.30085 8.72045 6.22209 8.72045 6.14332 8.72045 6.06456 8.76045 5.9858 8.76045 5.90703 8.76045 5.82827 8.80045 5.78889 8.80045 5.74951 8.84045 5.71013 8.84045 5.90703 8.12045 5.9858 8.08045 6.06456 8.08045 6.10394 8.04045 6.1827 8.04045 6.26147 8.00045 6.34023 8.00045 6.41899 8.00045 6.49776 8.00045 6.57652 7.96045 6.65528 7.96045 6.77343 7.96045 6.85219 7.96045 6.93095 7.96045 7.0491 7.96045 7.16724 7.96045 7.246 7.96045 7.32477 8.00045 7.44291 8.00045 7.52167 8.00045 7.60044 8.04045 7.71858 8.08045 7.79734 8.12045 7.87611 8.16045 7.95487 8.24045 8.03363 8.32045 8.1124 8.36045 8.19116 8.44045 8.23054 8.56045 8.23054 8.64045 8.26992 8.76045 8.26992 8.88045 8.23054 9.00045"></polygon>
                <polygon id="Path" stroke="#FFFFFF" stroke-width="0.216" points="7.95487 10.6005 7.83673 11.2805 7.08848 11.2805 7.08848 11.1205 7.12786 11.0405 7.12786 10.9605 7.12786 10.8805 7.08848 10.9605 7.0491 11.0005 6.97033 11.0405 6.93095 11.0805 6.85219 11.1205 6.77343 11.1605 6.69466 11.2005 6.6159 11.2405 6.53714 11.2405 6.45837 11.2805 6.34023 11.2805 6.26147 11.3205 6.1827 11.3205 6.10394 11.3205 6.02518 11.3205 5.94642 11.2805 5.82827 11.2805 5.74951 11.2405 5.63136 11.2005 5.5526 11.1605 5.51322 11.1205 5.43446 11.0405 5.39507 11.0005 5.35569 10.9205 5.31631 10.8805 5.27693 10.8005 5.27693 10.7205 5.23755 10.6805 5.23755 10.6005 5.23755 10.5205 5.23755 10.4405 5.23755 10.4005 5.23755 10.2805 5.23755 10.1605 5.27693 10.0405 5.31631 9.96045 5.35569 9.84045 5.43446 9.76045 5.47384 9.68045 5.5526 9.60045 5.63136 9.52045 5.71013 9.48045 5.78889 9.40045 5.90703 9.36045 5.9858 9.32045 6.06456 9.28045 6.1827 9.28045 6.30085 9.24045 6.34023 9.24045 6.37961 9.24045 6.41899 9.24045 6.45837 9.24045 6.49776 9.20045 6.53714 9.20045 6.57652 9.20045 6.65528 9.20045 6.69466 9.20045 6.73404 9.20045 6.77343 9.20045 6.85219 9.20045 6.89157 9.20045 6.97033 9.20045 7.0491 9.20045 7.12786 9.20045 7.16724 9.20045 7.246 9.20045 7.28538 9.20045 7.32477 9.20045 7.32477 9.16045 7.32477 9.12045 7.36415 9.04045 7.36415 9.00045 7.36415 8.92045 7.32477 8.88045 7.28538 8.80045 7.246 8.76045 7.16724 8.72045 7.12786 8.72045 7.0491 8.68045 6.97033 8.68045 6.89157 8.68045 6.81281 8.68045 6.69466 8.68045 6.6159 8.68045 6.49776 8.68045 6.41899 8.68045 6.30085 8.72045 6.22209 8.72045 6.14332 8.72045 6.06456 8.76045 5.9858 8.76045 5.90703 8.76045 5.82827 8.80045 5.78889 8.80045 5.74951 8.84045 5.71013 8.84045 5.90703 8.12045 5.9858 8.08045 6.06456 8.08045 6.10394 8.04045 6.1827 8.04045 6.26147 8.00045 6.34023 8.00045 6.41899 8.00045 6.49776 8.00045 6.57652 7.96045 6.65528 7.96045 6.77343 7.96045 6.85219 7.96045 6.93095 7.96045 7.0491 7.96045 7.16724 7.96045 7.246 7.96045 7.32477 8.00045 7.44291 8.00045 7.52167 8.00045 7.60044 8.04045 7.71858 8.08045 7.79734 8.12045 7.87611 8.16045 7.95487 8.24045 8.03363 8.32045 8.1124 8.36045 8.19116 8.44045 8.23054 8.56045 8.23054 8.64045 8.26992 8.76045 8.26992 8.88045 8.23054 9.00045"></polygon>
                <polygon id="Path" fill="#999999" points="7.2066 9.79956 7.2066 9.75952 7.16722 9.75952 7.12784 9.75952 7.08846 9.75952 7.04908 9.75952 7.0097 9.75952 6.97032 9.75952 6.89155 9.75952 6.85217 9.75952 6.81279 9.75952 6.77341 9.75952 6.73403 9.75952 6.69465 9.79956 6.65527 9.79956 6.61588 9.79956 6.5765 9.83961 6.53712 9.83961 6.49774 9.83961 6.45836 9.87965 6.41898 9.87965 6.3796 9.91969 6.34022 9.95973 6.30084 9.99977 6.26145 10.0398 6.22207 10.0398 6.22207 10.0799 6.18269 10.1199 6.18269 10.2 6.14331 10.24 6.14331 10.3201 6.18269 10.4402 6.18269 10.4803 6.22207 10.5203 6.26145 10.5604 6.34022 10.5604 6.3796 10.6004 6.41898 10.6004 6.49774 10.6004 6.61588 10.5604 6.69465 10.5604 6.73403 10.5604 6.81279 10.5203 6.85217 10.4803 6.89155 10.4803 6.97032 10.4402 7.0097 10.4002 7.04908 10.3602 7.04908 10.3201 7.08846 10.2801 7.12784 10.24 7.12784 10.2 7.12784 10.1599 7.16722 10.0799 7.2066 9.95973 7.2066 9.87965"></polygon>
                <polygon id="Path" fill="#FFFFFF" points="1.65415 11.2803 0.827148 11.2803 1.536 7.28027 2.95372 7.28027 3.07186 9.64028 4.05638 7.28027 5.51348 7.28027 4.844 11.2803 4.017 11.2803 4.52895 8.28028 4.48957 8.28028 3.26876 11.2803 2.363 11.2803 2.363 11.1203 2.32362 10.8003 2.32362 10.3203 2.28424 9.80028 2.24486 9.24028 2.20548 8.76028 2.20548 8.44028 2.20548 8.28028 2.1661 8.28028"></polygon>
                <polygon id="Path" stroke="#FFFFFF" stroke-width="0.216" points="1.65415 11.2803 0.827148 11.2803 1.536 7.28027 2.95372 7.28027 3.07186 9.64028 4.05638 7.28027 5.51348 7.28027 4.844 11.2803 4.017 11.2803 4.52895 8.28028 4.48957 8.28028 3.26876 11.2803 2.363 11.2803 2.363 11.1203 2.32362 10.8003 2.32362 10.3203 2.28424 9.80028 2.24486 9.24028 2.20548 8.76028 2.20548 8.44028 2.20548 8.28028 2.1661 8.28028"></polygon>
                <polygon id="Path" fill="#FFFFFF" points="22.8017 10.6005 22.6442 11.2805 21.8959 11.2805 21.8959 11.1205 21.9353 11.0405 21.9353 10.9605 21.9353 10.9205 21.8959 10.9605 21.8566 11.0005 21.7778 11.0405 21.7384 11.0805 21.6597 11.1205 21.5809 11.1605 21.5021 11.2005 21.4234 11.2405 21.3446 11.2405 21.2659 11.2805 21.1871 11.2805 21.1083 11.3205 21.0296 11.3205 20.9508 11.3205 20.8721 11.3205 20.7933 11.2805 20.6752 11.2805 20.557 11.2405 20.4783 11.2005 20.3995 11.1605 20.3601 11.1205 20.2814 11.0405 20.242 11.0005 20.2026 10.9205 20.1632 10.8805 20.1239 10.8005 20.1239 10.7205 20.0845 10.6805 20.0845 10.6005 20.0845 10.5205 20.0845 10.4405 20.0845 10.4005 20.0845 10.2805 20.0845 10.1605 20.1239 10.0405 20.1632 9.96045 20.2026 9.84045 20.2814 9.76045 20.3208 9.68045 20.3995 9.60045 20.4783 9.52045 20.557 9.48045 20.6358 9.40045 20.7539 9.36045 20.8327 9.32045 20.9114 9.28045 21.0296 9.28045 21.1083 9.24045 21.1477 9.24045 21.1871 9.24045 21.2265 9.24045 21.2659 9.24045 21.3052 9.20045 21.384 9.20045 21.4234 9.20045 21.4628 9.20045 21.5415 9.20045 21.5809 9.20045 21.6203 9.20045 21.6597 9.20045 21.699 9.20045 21.7384 9.20045 21.8172 9.20045 21.8959 9.20045 21.9353 9.20045 22.0141 9.20045 22.0928 9.20045 22.1322 9.20045 22.1716 9.20045 22.1716 9.16045 22.1716 9.12045 22.1716 9.04045 22.211 9.00045 22.1716 8.92045 22.1716 8.88045 22.1322 8.80045 22.0535 8.76045 22.0141 8.72045 21.9747 8.72045 21.8959 8.68045 21.8172 8.68045 21.7384 8.68045 21.6597 8.68045 21.5415 8.68045 21.4628 8.68045 21.3446 8.68045 21.2659 8.68045 21.1871 8.72045 21.069 8.72045 20.9902 8.72045 20.9114 8.76045 20.8327 8.76045 20.7539 8.76045 20.6752 8.80045 20.6358 8.80045 20.5964 8.84045 20.557 8.84045 20.7539 8.12045 20.8327 8.08045 20.9114 8.08045 20.9508 8.04045 21.0296 8.04045 21.1083 8.00045 21.1871 8.00045 21.2659 8.00045 21.3446 8.00045 21.4234 7.96045 21.5021 7.96045 21.6203 7.96045 21.699 7.96045 21.7778 7.96045 21.8959 7.96045 21.9747 7.96045 22.0928 7.96045 22.1716 8.00045 22.2504 8.00045 22.3685 8.00045 22.4473 8.04045 22.526 8.08045 22.6442 8.12045 22.7229 8.16045 22.8017 8.24045 22.8804 8.32045 22.9592 8.36045 22.9986 8.44045 23.038 8.56045 23.0773 8.64045 23.1167 8.76045 23.1167 8.88045 23.0773 9.00045"></polygon>
                <polygon id="Path" fill="#FFFFFF" points="22.6443 11.2811 22.6837 11.2811 22.8018 10.6003 22.7624 10.6003 22.6443 11.241 22.6443 11.2811 22.6837 11.2811"></polygon>
                <polygon id="Path" fill="#FFFFFF" points="21.8958 11.2796 22.644 11.2796 22.644 11.24 21.8958 11.24 21.9351 11.2796"></polygon>
                <polygon id="Path" fill="#FFFFFF" points="21.9352 10.9196 21.8958 10.8796 21.8958 10.9596 21.8958 11.0396 21.8958 11.1196 21.8958 11.2796 21.9352 11.2796 21.9352 11.1196 21.9352 11.0396 21.9352 10.9596 21.9352 10.9196 21.8958 10.8796"></polygon>
                <polygon id="Path" fill="#FFFFFF" points="20.7932 11.3196 20.872 11.3196 20.9507 11.3196 21.0295 11.3196 21.1083 11.3196 21.187 11.3196 21.2658 11.2796 21.384 11.2796 21.4627 11.2396 21.5415 11.1996 21.6203 11.1996 21.6596 11.1596 21.7384 11.1196 21.8172 11.0396 21.8566 10.9996 21.8959 10.9596 21.9353 10.9196 21.8959 10.8796 21.8566 10.9596 21.8172 10.9996 21.7778 11.0396 21.699 11.0796 21.6596 11.1196 21.5809 11.1596 21.5021 11.1996 21.4233 11.1996 21.3446 11.2396 21.2658 11.2396 21.187 11.2796 21.1083 11.2796 21.0295 11.2796 20.9507 11.2796 20.872 11.2796 20.7932 11.2796"></polygon>
                <polygon id="Path" fill="#FFFFFF" points="20.0452 10.4001 20.0452 10.4402 20.0452 10.5203 20.0845 10.6004 20.0845 10.6804 20.0845 10.7205 20.1239 10.8006 20.1633 10.8806 20.2027 10.9207 20.2421 11.0008 20.2814 11.0408 20.3208 11.1209 20.3996 11.1609 20.4783 11.201 20.5571 11.241 20.6752 11.2811 20.7933 11.3211 20.7933 11.2811 20.6752 11.241 20.5964 11.201 20.5177 11.1609 20.4389 11.1209 20.3602 11.0809 20.3208 11.0408 20.2421 10.9607 20.2027 10.9207 20.2027 10.8406 20.1633 10.8006 20.1239 10.7205 20.1239 10.6804 20.1239 10.6004 20.0845 10.5203 20.0845 10.4402 20.0845 10.4001"></polygon>
                <polygon id="Path" fill="#FFFFFF" points="21.1085 9.24023 21.0297 9.24023 20.9116 9.28023 20.8328 9.32023 20.7146 9.36023 20.6359 9.40023 20.5571 9.44023 20.4784 9.52023 20.3996 9.60023 20.3208 9.68023 20.2421 9.76023 20.2027 9.84023 20.1633 9.96023 20.1239 10.0402 20.0845 10.1602 20.0452 10.2802 20.0452 10.4002 20.0845 10.4002 20.0845 10.2802 20.1239 10.1602 20.1239 10.0402 20.1633 9.96023 20.2421 9.88023 20.2815 9.76023 20.3602 9.68023 20.3996 9.60023 20.4784 9.56023 20.5571 9.48023 20.6359 9.44023 20.754 9.40023 20.8328 9.36023 20.9509 9.32023 21.0297 9.28023 21.1085 9.28023"></polygon>
                <polygon id="Path" fill="#FFFFFF" points="21.7382 9.15967 21.6988 9.15967 21.6594 9.15967 21.62 9.15967 21.5807 9.15967 21.5413 9.15967 21.4625 9.19975 21.4232 9.19975 21.3838 9.19975 21.305 9.19975 21.2657 9.19975 21.2263 9.19975 21.1869 9.19975 21.1475 9.23984 21.1082 9.23984 21.1082 9.27993 21.1475 9.27993 21.1475 9.23984 21.1869 9.23984 21.2263 9.23984 21.2657 9.23984 21.305 9.23984 21.3838 9.23984 21.4232 9.23984 21.4625 9.19975 21.5413 9.19975 21.5807 9.19975 21.62 9.19975 21.6594 9.19975 21.6988 9.19975 21.7382 9.19975"></polygon>
                <polygon id="Path" fill="#FFFFFF" points="22.1321 9.19932 22.1714 9.15967 22.1321 9.15967 22.0927 9.15967 22.0139 9.15967 21.9352 9.15967 21.8958 9.15967 21.817 9.15967 21.7383 9.15967 21.7383 9.19932 21.817 9.19932 21.8958 9.19932 21.9352 9.19932 22.0139 9.19932 22.0927 9.19932 22.1321 9.19932 22.1714 9.19932"></polygon>
                <polygon id="Path" fill="#FFFFFF" points="22.1715 8.99976 22.1715 9.03976 22.1715 9.11976 22.1321 9.15976 22.1321 9.19976 22.1715 9.19976 22.1715 9.15976 22.2109 9.11976 22.2109 9.03976 22.2109 8.99976"></polygon>
                <polygon id="Path" fill="#FFFFFF" points="21.8171 8.68038 21.8171 8.72038 21.8959 8.72038 21.9353 8.72038 22.014 8.76038 22.0534 8.80038 22.0928 8.84038 22.1322 8.88038 22.1716 8.92038 22.1716 9.00038 22.211 9.00038 22.211 8.92038 22.1716 8.88038 22.1322 8.80038 22.0928 8.76038 22.014 8.72038 21.9747 8.68038 21.8959 8.68038 21.8171 8.64038"></polygon>
                <polygon id="Path" fill="#FFFFFF" points="20.5173 8.84059 20.5567 8.88063 20.5961 8.84059 20.6355 8.84059 20.6749 8.80054 20.7536 8.80054 20.8324 8.7605 20.9112 8.7605 20.9899 8.7605 21.0687 8.72046 21.1868 8.72046 21.2656 8.72046 21.3444 8.72046 21.4625 8.68042 21.5413 8.68042 21.6594 8.68042 21.7382 8.68042 21.8169 8.68042 21.7382 8.64038 21.6594 8.64038 21.5413 8.64038 21.4625 8.64038 21.3444 8.68042 21.2656 8.68042 21.1868 8.68042 21.0687 8.68042 20.9899 8.72046 20.9112 8.72046 20.8324 8.72046 20.7536 8.7605 20.6749 8.7605 20.6355 8.80054 20.5961 8.80054 20.5567 8.84059"></polygon>
                <polygon id="Path" fill="#FFFFFF" points="20.7536 8.07983 20.7536 8.11988 20.5173 8.84064 20.5567 8.84064 20.793 8.11988 20.7536 8.11988 20.7536 8.07983 20.7536 8.11988"></polygon>
                <polygon id="Path" fill="#FFFFFF" points="22.0929 7.96045 21.9747 7.96045 21.896 7.96045 21.7778 7.96045 21.699 7.96045 21.6203 7.96045 21.5021 7.96045 21.4234 7.96045 21.3446 7.96045 21.2659 7.96045 21.1871 8.00056 21.1083 8.00056 21.0296 8.00056 20.9508 8.04067 20.9114 8.04067 20.8327 8.08079 20.7539 8.08079 20.7539 8.1209 20.8327 8.1209 20.9114 8.08079 20.9508 8.08079 21.0296 8.04067 21.1083 8.04067 21.1871 8.00056 21.2659 8.00056 21.3446 8.00056 21.4234 8.00056 21.5021 8.00056 21.6203 8.00056 21.699 8.00056 21.7778 8.00056 21.896 8.00056 21.9747 8.00056 22.0929 8.00056"></polygon>
                <polygon id="Path" fill="#FFFFFF" points="23.1165 9.00046 23.1165 8.88046 23.1165 8.76045 23.1165 8.64045 23.0771 8.56045 23.0377 8.44045 22.9589 8.36045 22.8802 8.28045 22.8014 8.20045 22.7227 8.16045 22.6439 8.12045 22.5651 8.08045 22.447 8.04045 22.3682 8.00045 22.2501 7.96045 22.1713 7.96045 22.0925 7.96045 22.0925 8.00045 22.1713 8.00045 22.2501 8.00045 22.3682 8.04045 22.447 8.08045 22.5257 8.12045 22.6439 8.16045 22.7227 8.20045 22.8014 8.24045 22.8802 8.32045 22.9196 8.40045 22.9983 8.48045 23.0377 8.56045 23.0771 8.64045 23.0771 8.76045 23.0771 8.88046 23.0771 9.00046"></polygon>
                <polygon id="Path" fill="#FFFFFF" points="22.8018 10.5998 23.1169 8.99976 23.0775 8.99976 22.7625 10.5998"></polygon>
                <polygon id="Path" fill="#C7C7C7" points="22.0534 9.8003 22.0534 9.76026 22.014 9.76026 21.9747 9.76026 21.9353 9.72021 21.8565 9.72021 21.8171 9.76026 21.7778 9.76026 21.7384 9.76026 21.699 9.76026 21.6203 9.76026 21.5809 9.76026 21.5415 9.8003 21.5021 9.8003 21.4628 9.8003 21.4234 9.8003 21.384 9.84034 21.3446 9.84034 21.3052 9.88038 21.2659 9.88038 21.2265 9.92042 21.1871 9.96047 21.1477 9.96047 21.1084 10.0005 21.069 10.0405 21.069 10.0806 21.0296 10.1206 21.0296 10.2007 20.9902 10.2408 20.9902 10.3208 21.0296 10.441 21.0296 10.481 21.069 10.521 21.1084 10.5611 21.1871 10.5611 21.2265 10.6011 21.2659 10.6011 21.384 10.6011 21.4628 10.5611 21.5415 10.5611 21.5809 10.521 21.6596 10.521 21.699 10.481 21.7778 10.441 21.8171 10.441 21.8565 10.4009 21.8959 10.3609 21.9353 10.3208 21.9747 10.2808 21.9747 10.2408 21.9747 10.2007 22.014 10.1607 22.014 10.1206 22.014 10.0405 22.0534 9.96047 22.0534 9.88038"></polygon>
                <polygon id="Path" fill="#FFFFFF" points="28.197 10.8407 28.2364 10.7607 28.2364 10.6807 28.2758 10.6407 28.3545 10.5607 28.3939 10.5207 28.4727 10.4807 28.5514 10.4407 28.6302 10.4407 28.7089 10.4407 28.7877 10.4807 28.8665 10.5207 28.9452 10.5607 28.9846 10.6407 29.024 10.6807 29.0633 10.7607 29.0633 10.8407 28.9452 10.8407 28.9452 10.8007 28.9452 10.7207 28.9058 10.6807 28.8665 10.6007 28.8271 10.5607 28.7877 10.5207 28.7089 10.5207 28.6302 10.5207 28.5514 10.5207 28.512 10.5207 28.4333 10.5607 28.3939 10.6007 28.3545 10.6807 28.3152 10.7207 28.3152 10.8007 28.3152 10.8407"></polygon>
                <polygon id="Path" fill="#FFFFFF" points="28.4727 10.8399 28.4727 10.6794 28.6302 10.6794 28.6695 10.6794 28.7089 10.6794 28.7483 10.6794 28.7877 10.7196 28.7877 10.7597 28.7877 10.7998 28.7877 10.8399 28.6302 10.8399 28.6695 10.8399 28.7089 10.8399 28.7089 10.7998 28.7483 10.7998 28.7483 10.7597 28.7089 10.7196 28.6695 10.7196 28.6302 10.7196 28.5514 10.7196 28.5514 10.8399"></polygon>
                <polygon id="Path" fill="#FFFFFF" points="28.197 10.8403 28.197 10.8803 28.2364 10.9603 28.2364 11.0403 28.2758 11.1203 28.3545 11.1603 28.3939 11.2003 28.4727 11.2403 28.5514 11.2803 28.6302 11.2803 28.7089 11.2803 28.7877 11.2403 28.8665 11.2003 28.9452 11.1603 28.9846 11.1203 29.024 11.0403 29.0633 10.9603 29.0633 10.8803 29.0633 10.8403 28.9452 10.8403 28.9846 10.8803 28.9452 10.9203 28.9452 11.0003 28.9058 11.0803 28.8665 11.1203 28.8271 11.1603 28.7877 11.2003 28.7089 11.2003 28.6302 11.2003 28.5514 11.2003 28.512 11.2003 28.4333 11.1603 28.3939 11.1203 28.3545 11.0803 28.3152 11.0003 28.3152 10.9203 28.3152 10.8803 28.3152 10.8403"></polygon>
                <polygon id="Path" fill="#FFFFFF" points="28.4727 10.8403 28.4727 11.0403 28.5514 11.0403 28.5514 10.8803 28.6302 10.8803 28.7089 11.0403 28.7877 11.0403 28.7089 10.8803 28.7483 10.8803 28.7877 10.8403 28.6302 10.8403 28.5514 10.8403"></polygon>
                <path d="M28.197,10.8811 L28.197,10.8011 L28.2364,10.721 L28.2758,10.6409 L28.3152,10.5608 L28.3939,10.5208 L28.4727,10.4807 L28.5514,10.4407 L28.6302,10.4407 L28.7089,10.4407 L28.7877,10.4807 L28.8665,10.5208 L28.9452,10.5608 L28.9846,10.6409 L29.024,10.721 L29.0633,10.8011 L29.0633,10.8811 L29.0633,10.9612 L29.024,11.0413 L28.9846,11.1214 L28.9452,11.2015 L28.8665,11.2015 L28.7877,11.2415 L28.7089,11.2816 L28.6302,11.2816 L28.5514,11.2816 L28.4727,11.2415 L28.3939,11.2015 L28.3545,11.1614 L28.3152,11.0813 L28.2758,11.0013 L28.2364,10.9212 L28.197,10.8811 Z M28.5514,11.0413 L28.4727,11.0413 L28.4727,10.6809 L28.6302,10.6809 L28.6696,10.6809 L28.7089,10.6809 L28.7483,10.6809 L28.7877,10.6809 L28.7877,10.721 L28.7877,10.761 L28.7877,10.8011 L28.7877,10.8411 L28.7483,10.8411 L28.7089,10.8411 L28.7877,11.0013 L28.7089,11.0013 L28.6302,10.8411 L28.5514,10.8411 L28.5514,11.0413 L28.5514,11.0413 Z M28.6302,10.8411 L28.6696,10.8411 L28.6696,10.8011 L28.5908,10.8011 L28.5908,10.9212 L28.6302,10.9212 L28.6302,10.8411 Z M28.6302,11.2015 L28.7089,11.2015 L28.7877,11.1614 L28.8271,11.1214 L28.8665,11.0813 L28.9058,11.0413 L28.9452,11.0013 L28.9452,10.9212 L28.9452,10.8411 L28.9452,10.761 L28.9452,10.6809 L28.9058,10.6008 L28.8665,10.5608 L28.8271,10.5208 L28.7877,10.4807 L28.7089,10.4407 L28.6302,10.4407 L28.5514,10.4407 L28.4727,10.4807 L28.4333,10.5208 L28.3939,10.5608 L28.3545,10.6809 L28.3152,10.761 L28.3152,10.8411 L28.3152,10.9212 L28.3152,11.0013 L28.3152,11.0813 L28.3545,11.1214 L28.3939,11.1614 L28.4333,11.2015 L28.4727,11.2415 L28.5514,11.2816 L28.6302,11.2015 Z" id="Shape" stroke="#FFFFFF" stroke-width="0.216"></path>
                <polygon id="Path" fill="#FFFFFF" points="22.9985 11.2805 23.8649 11.2805 24.1406 9.52045 24.18 9.48045 24.18 9.40045 24.18 9.32045 24.2194 9.28045 24.2587 9.20045 24.2981 9.12045 24.3375 9.08045 24.3769 9.00045 24.4163 8.96045 24.495 8.92045 24.5738 8.88045 24.6526 8.84045 24.7313 8.80045 24.8101 8.80045 24.9282 8.76045 25.0464 8.76045 25.0858 8.76045 25.1251 8.76045 25.2433 7.96045 25.1645 8.00045 25.0858 8.00045 25.007 8.00045 24.9282 8.04045 24.8888 8.04045 24.8101 8.08045 24.7313 8.12045 24.6919 8.16045 24.6526 8.20045 24.5738 8.24045 24.5344 8.28045 24.495 8.32045 24.4556 8.40045 24.4163 8.44045 24.3769 8.48045 24.2981 8.56045 24.4163 8.00045 23.5499 8.00045"></polygon>
                <polygon id="Path" stroke="#FFFFFF" stroke-width="0.216" points="22.9985 11.2805 23.8649 11.2805 24.1406 9.52045 24.18 9.48045 24.18 9.40045 24.18 9.32045 24.2194 9.28045 24.2587 9.20045 24.2981 9.12045 24.3375 9.08045 24.3769 9.00045 24.4163 8.96045 24.495 8.92045 24.5738 8.88045 24.6526 8.84045 24.7313 8.80045 24.8101 8.80045 24.9282 8.76045 25.0464 8.76045 25.0858 8.76045 25.1251 8.76045 25.2433 7.96045 25.1645 8.00045 25.0858 8.00045 25.007 8.00045 24.9282 8.04045 24.8888 8.04045 24.8101 8.08045 24.7313 8.12045 24.6919 8.16045 24.6526 8.20045 24.5738 8.24045 24.5344 8.28045 24.495 8.32045 24.4556 8.40045 24.4163 8.44045 24.3769 8.48045 24.2981 8.56045 24.4163 8.00045 23.5499 8.00045"></polygon>
                <polygon id="Path" fill="#FFFFFF" points="15.0828 11.2805 15.9491 11.2805 16.2248 9.52045 16.2642 9.48045 16.2642 9.40045 16.2642 9.36045 16.3036 9.28045 16.3036 9.20045 16.343 9.16045 16.3823 9.12045 16.4217 9.04045 16.4611 9.00045 16.5399 8.96045 16.5792 8.92045 16.658 8.88045 16.7368 8.88045 16.8549 8.84045 16.9337 8.84045 17.0518 8.80045 17.0912 8.80045 17.0912 8.84045 17.1306 8.84045 17.17 8.84045 17.17 8.80045 17.17 8.72045 17.2093 8.68045 17.2093 8.60045 17.2487 8.48045 17.2487 8.40045 17.2881 8.32045 17.3275 8.28045 17.3275 8.20045 17.3669 8.16045 17.4062 8.12045 17.4456 8.04045 17.4456 8.00045 17.485 8.00045 17.4456 8.00045 17.4062 8.00045 17.3669 7.96045 17.3275 7.96045 17.2487 8.00045 17.17 8.00045 17.0912 8.00045 17.0124 8.04045 16.9337 8.04045 16.8943 8.08045 16.8155 8.12045 16.7761 8.16045 16.6974 8.20045 16.658 8.24045 16.6186 8.28045 16.5792 8.32045 16.5399 8.40045 16.5005 8.44045 16.4611 8.48045 16.3823 8.56045 16.5005 8.00045 15.6341 8.00045"></polygon>
                <polygon id="Path" stroke="#FFFFFF" stroke-width="0.216" points="15.0828 11.2805 15.9491 11.2805 16.2248 9.52045 16.2642 9.48045 16.2642 9.40045 16.2642 9.36045 16.3036 9.28045 16.3036 9.20045 16.343 9.16045 16.3823 9.12045 16.4217 9.04045 16.4611 9.00045 16.5399 8.96045 16.5792 8.92045 16.658 8.88045 16.7368 8.88045 16.8549 8.84045 16.9337 8.84045 17.0518 8.80045 17.0912 8.80045 17.0912 8.84045 17.1306 8.84045 17.17 8.84045 17.17 8.80045 17.17 8.72045 17.2093 8.68045 17.2093 8.60045 17.2487 8.48045 17.2487 8.40045 17.2881 8.32045 17.3275 8.28045 17.3275 8.20045 17.3669 8.16045 17.4062 8.12045 17.4456 8.04045 17.4456 8.00045 17.485 8.00045 17.4456 8.00045 17.4062 8.00045 17.3669 7.96045 17.3275 7.96045 17.2487 8.00045 17.17 8.00045 17.0912 8.00045 17.0124 8.04045 16.9337 8.04045 16.8943 8.08045 16.8155 8.12045 16.7761 8.16045 16.6974 8.20045 16.658 8.24045 16.6186 8.28045 16.5792 8.32045 16.5399 8.40045 16.5005 8.44045 16.4611 8.48045 16.3823 8.56045 16.5005 8.00045 15.6341 8.00045"></polygon>
                <polygon id="Path" fill="#C7C7C7" points="28.2363 14.441 28.2363 14.3608 28.2757 14.2806 28.3545 14.2405 28.3938 14.2003 28.4726 14.1602 28.5514 14.1201 28.6301 14.1201 28.7089 14.1201 28.7876 14.1602 28.8664 14.2003 28.9452 14.2405 28.9845 14.2806 29.0239 14.3608 29.0633 14.441 28.9452 14.441 28.9452 14.4009 28.9058 14.3207 28.8664 14.2806 28.827 14.2405 28.7876 14.2003 28.7089 14.2003 28.6301 14.1602 28.5514 14.2003 28.512 14.2003 28.4332 14.2405 28.3938 14.2806 28.3545 14.3207 28.3151 14.4009 28.3151 14.441"></polygon>
                <polygon id="Path" fill="#C7C7C7" points="28.4727 14.4403 28.4727 14.3601 28.6302 14.3601 28.6695 14.3601 28.7089 14.3601 28.7483 14.3601 28.7877 14.4002 28.7877 14.4403 28.7483 14.4403 28.7483 14.4002 28.7089 14.4002 28.6695 14.4002 28.6302 14.4002 28.5514 14.4002 28.5514 14.4403"></polygon>
                <polygon id="Path" fill="#C7C7C7" points="28.197 14.5203 28.2366 14.4397 28.3157 14.4397 28.3157 14.5203"></polygon>
                <polygon id="Path" fill="#C7C7C7" points="28.4727 14.5199 28.4727 14.4397 28.5514 14.4397 28.5514 14.5199 28.6302 14.5199 28.6695 14.5199 28.7089 14.5199 28.7089 14.4798 28.7483 14.4798 28.7483 14.4397 28.7877 14.4397 28.7877 14.4798 28.7877 14.5199"></polygon>
                <polygon id="Path" fill="#C7C7C7" points="28.9844 14.5203 28.9448 14.4397 29.0636 14.4397 29.0636 14.5203"></polygon>
                <polygon id="Path" fill="#C7C7C7" points="28.197 14.5203 28.2364 14.6003 28.2364 14.7203 28.2758 14.7603 28.3545 14.8403 28.3939 14.8803 28.4727 14.9203 28.5514 14.9603 28.6302 14.9603 28.7089 14.9603 28.7877 14.9203 28.8665 14.8803 28.9452 14.8403 28.9846 14.7603 29.024 14.7203 29.0633 14.6003 29.0633 14.5203 28.9846 14.5203 28.9452 14.6003 28.9452 14.6803 28.9058 14.7203 28.8665 14.8003 28.8271 14.8403 28.7877 14.8403 28.7089 14.8803 28.6302 14.8803 28.5514 14.8803 28.512 14.8403 28.4333 14.8403 28.3939 14.8003 28.3545 14.7203 28.3152 14.6803 28.3152 14.6003 28.3152 14.5203"></polygon>
                <polygon id="Path" fill="#C7C7C7" points="28.4727 14.5203 28.4727 14.6807 28.5514 14.6807 28.5514 14.5604 28.6302 14.5604 28.7089 14.6807 28.7877 14.6807 28.7089 14.5604 28.7483 14.5604 28.7483 14.5203 28.7877 14.5203"></polygon>
                <path d="M15.201,8.96045 L15.1617,8.80045 L15.1223,8.64045 L15.0435,8.52045 L14.9648,8.36045 L14.886,8.24045 L14.8072,8.16045 L14.6891,8.08045 L14.5709,8.04045 L14.4528,8.00045 L14.3346,8.00045 L14.2165,7.96045 L14.0984,7.96045 L13.9802,7.96045 L13.7439,7.96045 L13.5076,8.00045 L13.3107,8.04045 L13.1532,8.12045 L12.9957,8.20045 L12.8775,8.32045 L12.7594,8.44045 L12.6806,8.56045 L12.6018,8.68045 L12.4837,8.80045 L12.4443,8.92045 L12.4049,9.04045 L12.3656,9.20045 L12.3262,9.32045 L12.3262,9.44045 L12.3262,9.52045 L12.3262,9.76045 L12.3262,10.0004 L12.3656,10.2004 L12.4049,10.3604 L12.4837,10.5204 L12.5625,10.6404 L12.6806,10.7604 L12.7988,10.8804 L12.9169,10.9604 L13.035,11.0404 L13.1926,11.0804 L13.3501,11.1204 L13.5076,11.1604 L13.6652,11.2004 L13.8227,11.2004 L13.9802,11.2004 L14.0984,11.2004 L14.1771,11.2004 L14.2559,11.2004 L14.3346,11.2004 L14.4134,11.2004 L14.4922,11.2004 L14.5316,11.2004 L14.5709,11.2004 L14.6103,11.2004 L14.6497,11.2004 L14.6891,11.2004 L14.7285,11.2004 L14.7678,11.2004 L14.8072,11.1604 L14.8466,11.1204 L14.9648,10.3604 L14.9254,10.4004 L14.8466,10.4404 L14.7678,10.4804 L14.6891,10.5204 L14.5709,10.5604 L14.4922,10.5604 L14.4134,10.5604 L14.3346,10.5604 L14.2559,10.5604 L14.1771,10.5604 L14.0984,10.5604 L14.0196,10.5604 L13.9408,10.5604 L13.8621,10.5604 L13.7833,10.5604 L13.7045,10.5604 L13.6258,10.5604 L13.547,10.5204 L13.4682,10.4804 L13.4289,10.4404 L13.3895,10.4004 L13.3501,10.3604 L13.3107,10.3204 L13.2713,10.2804 L13.232,10.2404 L13.1926,10.2004 L13.1532,10.1604 L13.1532,10.1204 L13.1532,10.0804 L13.1532,10.0404 L13.1532,10.0004 L15.0829,10.0004 L15.0829,9.80045 L15.1223,9.56045 L15.1617,9.32045 L15.201,8.96045 Z M14.374,9.24045 L13.2713,9.24045 L13.2713,9.20045 L13.2713,9.12045 L13.2713,9.04045 L13.3107,8.96045 L13.3501,8.92045 L13.3895,8.88045 L13.4289,8.84045 L13.4682,8.80045 L13.5076,8.76045 L13.547,8.72045 L13.5864,8.68045 L13.6258,8.64045 L13.6652,8.60045 L13.7045,8.60045 L13.7439,8.60045 L13.7833,8.60045 L13.8227,8.60045 L13.8621,8.60045 L13.9014,8.60045 L13.9408,8.60045 L13.9802,8.60045 L14.0196,8.64045 L14.059,8.68045 L14.0984,8.72045 L14.1377,8.76045 L14.1771,8.80045 L14.2165,8.84045 L14.2559,8.88045 L14.2953,8.92045 L14.2953,9.00045 L14.2953,9.08045 L14.2953,9.16045 L14.374,9.24045 Z" id="Shape" fill="#FFFFFF"></path>
            </g>
        </g>
    </g>
</svg>
