<svg width="22" height="22" viewBox="0 0 22 22" fill="none" xmlns="http://www.w3.org/2000/svg">
<path d="M9.16671 10.0833H7.33337V11.9166H9.16671V10.0833Z" fill="#F8CF51"/>
<path d="M11.9167 10.0833H10.0834V11.9166H11.9167V10.0833Z" fill="#F8CF51"/>
<path d="M14.6667 10.0833H12.8334V11.9166H14.6667V10.0833Z" fill="#F8CF51"/>
<path d="M9.16671 12.8333H7.33337V14.6666H9.16671V12.8333Z" fill="#F8CF51"/>
<path d="M11.9167 12.8333H10.0834V14.6666H11.9167V12.8333Z" fill="#F8CF51"/>
<path d="M14.6667 12.8333H12.8334V14.6666H14.6667V12.8333Z" fill="#F8CF51"/>
<path d="M9.16671 15.5833H7.33337V17.4166H9.16671V15.5833Z" fill="#F8CF51"/>
<path d="M11.9167 15.5833H10.0834V17.4166H11.9167V15.5833Z" fill="#F8CF51"/>
<path d="M14.6667 15.5833H12.8334V17.4166H14.6667V15.5833Z" fill="#F8CF51"/>
<path d="M1.83333 8.25V19.25C1.83333 20.8083 3.025 22 4.58333 22H17.4167C18.975 22 20.1667 20.8083 20.1667 19.25V8.25C21.175 8.25 22 7.425 22 6.41667V5.5H21.9083C21.3583 2.10833 18.0583 0 12.8333 0H9.16667C3.94167 0 0.55 2.10833 0.0916667 5.5H0V6.41667C0 7.425 0.825 8.25 1.83333 8.25ZM18.3333 19.25C18.3333 19.8 17.9667 20.1667 17.4167 20.1667H4.58333C4.03333 20.1667 3.66667 19.8 3.66667 19.25V8.25H5.5C6.50833 8.25 7.33333 7.425 7.33333 6.41667V5.5H14.6667V6.41667C14.6667 7.425 15.4917 8.25 16.5 8.25H18.3333V19.25ZM9.16667 1.83333H12.8333C14.575 1.83333 20.1667 2.2 20.1667 6.41667H16.5V5.5V3.66667H5.5V5.5V6.41667H1.83333C1.83333 2.2 7.425 1.83333 9.16667 1.83333Z" fill="#F8CF51"/>
</svg>
