<svg width="18" height="18" viewBox="0 0 18 18" fill="none" xmlns="http://www.w3.org/2000/svg">
<path d="M12.8571 6.42857C12.8571 2.89286 9.96429 0 6.42857 0C2.89286 0 0 2.89286 0 6.42857C0 9.96429 2.89286 12.8571 6.42857 12.8571C7.875 12.8571 9.24107 12.375 10.3661 11.4911L10.9286 12.0536L10.125 12.8571L15.2679 18L18 15.2679L12.8571 10.125L12.0536 10.9286L11.4911 10.3661C12.375 9.24107 12.8571 7.875 12.8571 6.42857ZM15.75 15.2679L15.2679 15.75L12.375 12.8571L12.8571 12.375L15.75 15.2679ZM6.42857 11.25C3.77679 11.25 1.60714 9.08036 1.60714 6.42857C1.60714 3.77679 3.77679 1.60714 6.42857 1.60714C9.08036 1.60714 11.25 3.77679 11.25 6.42857C11.25 9.08036 9.08036 11.25 6.42857 11.25Z" fill="#191919"/>
</svg>
