<svg width="40" height="40" viewBox="0 0 40 40" fill="none" xmlns="http://www.w3.org/2000/svg">
<path d="M19.9999 7.23535C12.9691 7.23535 7.23535 12.9691 7.23535 19.9999C7.23535 27.0306 12.9691 32.7644 19.9999 32.7644C27.0306 32.7644 32.7644 27.0306 32.7644 19.9999C32.7644 12.9691 27.0306 7.23535 19.9999 7.23535ZM20.3412 27.6449C21.0237 27.6449 21.6381 27.5084 22.2524 27.3036L22.7985 30.307C22.1159 30.5118 21.4333 30.5801 20.7507 30.6483L20.3412 27.6449ZM19.9999 25.5971C16.9282 25.5971 14.4026 23.0715 14.4026 19.9999C14.4026 16.9282 16.9282 14.4026 19.9999 14.4026C23.0715 14.4026 25.5971 16.9282 25.5971 19.9999C25.5971 23.0715 23.0715 25.5971 19.9999 25.5971ZM13.6517 24.2319L10.9214 25.6654C10.5118 25.051 10.2388 24.3685 9.96573 23.6859L12.8326 22.5937C13.0374 23.1398 13.3104 23.6859 13.6517 24.2319ZM24.4367 13.7883C23.8906 13.3787 23.3446 13.1057 22.7302 12.8326L24.1637 10.034C24.778 10.307 25.3241 10.5801 25.8702 10.9214L24.4367 13.7883ZM27.6449 19.9999L30.7166 20.6824C30.6483 21.4333 30.5801 22.1159 30.3753 22.7985L27.3036 22.2524C27.5084 21.5016 27.6449 20.7507 27.6449 19.9999ZM30.6483 18.5664L27.3036 17.8156C27.0306 16.8599 26.5528 15.9726 25.9384 15.2217L27.4401 12.2865C29.1466 13.993 30.307 16.1773 30.6483 18.5664ZM22.1159 9.48791L20.6142 12.4231C20.4094 12.4231 20.2046 12.4231 19.9999 12.4231C18.976 12.4231 18.0203 12.6278 17.133 12.9691L14.7439 10.7166C16.3138 9.82921 18.0886 9.35139 19.9316 9.35139C20.7507 9.28313 21.4333 9.35139 22.1159 9.48791ZM13.1057 11.8087L15.3582 13.993C14.8121 14.4708 14.2661 14.9487 13.8565 15.563L11.5357 13.5152C11.9452 12.9009 12.4913 12.3548 13.1057 11.8087ZM10.3753 15.29L12.8326 17.406C12.5596 18.2251 12.3548 19.1125 12.3548 19.9999C12.3548 20.1364 12.3548 20.3412 12.3548 20.4777L9.35139 21.6381C9.28313 21.092 9.21487 20.5459 9.21487 19.9999C9.28313 18.2934 9.69269 16.7234 10.3753 15.29ZM12.15 27.3036L15.0169 25.8019C15.9043 26.5528 16.9964 27.1671 18.2251 27.4401L18.7029 30.6483C16.1091 30.307 13.8565 29.0784 12.15 27.3036ZM24.778 29.6244L24.1637 26.4162C25.0511 25.8019 25.8019 25.0511 26.4162 24.1637L29.5562 24.8463C28.5323 26.8941 26.8941 28.5323 24.778 29.6244Z" fill="#E24C40"/>
<path d="M20 0C9.01024 0 0 9.01024 0 20C0 30.9898 9.01024 40 20 40C30.9898 40 40 30.9898 40 20C40 9.01024 31.058 0 20 0ZM20 37.9522C10.1024 37.9522 2.04778 29.8976 2.04778 20C2.04778 10.1024 10.1024 2.04778 20 2.04778C29.8976 2.04778 37.9522 10.1024 37.9522 20C37.9522 29.8976 29.8976 37.9522 20 37.9522Z" fill="#E24C40"/>
<path d="M20 16.6553C18.157 16.6553 16.6553 18.157 16.6553 20C16.6553 21.843 18.157 23.3447 20 23.3447C21.843 23.3447 23.3447 21.843 23.3447 20C23.3447 18.157 21.843 16.6553 20 16.6553ZM20 21.2969C19.3174 21.2969 18.7031 20.7508 18.7031 20C18.7031 19.2491 19.2491 18.7031 20 18.7031C20.6826 18.7031 21.2969 19.2491 21.2969 20C21.2969 20.7508 20.7508 21.2969 20 21.2969Z" fill="#E24C40"/>
</svg>
