<svg width="40" height="40" viewBox="0 0 40 40" fill="none" xmlns="http://www.w3.org/2000/svg">
<path fill-rule="evenodd" clip-rule="evenodd" d="M14.9766 19.25L9.54758 13.8125H6.42746L0.811232 4.4375L4.43058 0.8125L13.791 6.4375V9.5625L19.22 15L23.2761 10.9375L21.8409 6.6875L28.5803 0L34.9454 2.125L30.702 6.375L31.3885 8.5L33.5101 9.1875L37.7535 4.9375L39.8752 11.3125L33.1981 18L28.9548 16.5625L26.3339 19.1875L33.3853 26.25H36.1935L40 30.0625V34.5625L34.5086 40H30.0156L26.2715 36.1875V33.375L19.22 26.3125L16.5367 29L17.9719 33.25L11.2949 39.9375L4.9298 37.8125L9.17317 33.5625L8.48674 31.4375L6.36505 30.75L2.12169 35L0 28.625L6.67707 21.9375L10.9204 23.375L14.9766 19.25ZM23.4633 22.0625L31.0764 29.6875L29.6412 31.125L22.0281 23.5L20.5928 24.9375L28.2059 32.5625V35.375L30.8268 38H33.6973L37.9407 33.75V30.9375L35.3198 28.3125H32.5117L24.8986 20.6875L23.4633 22.0625ZM11.4821 25.625L7.23869 24.1875L2.30889 29.125L2.99532 31.25L5.80343 28.4375L10.0468 29.875L11.4821 34.125L8.67395 36.9375L10.7956 37.625L15.7254 32.6875L14.2902 28.4375L21.3417 21.375L28.3931 14.3125L32.6365 15.75L37.5663 10.8125L36.8799 8.6875L34.0718 11.5L29.8284 10.0625L28.3931 5.8125L31.2013 3L29.0796 2.3125L24.1498 7.25L25.585 11.5L18.5335 18.5625L11.4821 25.625ZM17.8471 16.4375L11.8565 10.4375V7.625L4.74259 3.375L3.36974 4.75L7.6131 11.8125H10.4212L16.4119 17.8125L17.8471 16.4375Z" fill="#E24C40"/>
</svg>
