<svg width="64" height="64" viewBox="0 0 64 64" fill="none" xmlns="http://www.w3.org/2000/svg">
<g clip-path="url(#clip0)">
<path d="M34.2 9.19995C39.3 10.2 43.9999 12.7 47.5999 16.4L49.7 14.3C45.5 10.1 40.1 7.29995 34.2 6.19995V9.19995Z" fill="#E24C40"/>
<path d="M63.9 32C62.3 12.8 45.4 -1.50002 26.2 0.0999769V5.99998C12.4 7.39998 1.5 18.3 0.0999952 32.1C-1.5 48.1 10.2 62.3 26.2 63.9C42.2 65.5 56.4 53.8 58 37.8H63.9C64 35.9 64 33.9 63.9 32ZM32 60.9C17.6 62.5 4.7 52.2 3.1 37.8C1.5 23.5 11.8 10.5 26.2 8.89998V9.49998L31.4 14.7C40.8 15.8 48.2 23.2 49.3 32.6L54.5 37.8H55.1C53.7 50 44.1 59.6 32 60.9ZM55.7 34.9L52 31.2C50.4 21.3 42.6 13.6 32.8 12L29.1 8.29998V2.89998C29.1 2.89998 29.1 2.89998 29 2.89998H29.1C46.7 2.99998 61 17.3 61 34.9H55.7Z" fill="#E24C40"/>
<path d="M46.5 33.9001C46.5 34.6001 46.5 35.2001 46.5 35.9001C45.9 45.5001 37.7 52.8001 28.1 52.3001C18.5 51.7001 11.2 43.5001 11.7 33.9001C12.3 24.3001 20.5 17.0001 30.1 17.5001L27.2 14.6001C17.4 15.5001 9.69995 23.2001 8.79995 33.0001C7.79995 44.2001 16 54.1001 27.2 55.1001C38.4 56.1001 48.3 47.9001 49.3 36.7001L46.5 33.9001Z" fill="#E24C40"/>
<path d="M20.8999 26.7C16.3999 31.2 16.3999 38.5999 20.8999 43.0999C25.3999 47.5999 32.7999 47.5999 37.2999 43.0999C41.7999 38.5999 41.7999 31.2 37.2999 26.7C32.7999 22.2 25.3999 22.2 20.8999 26.7ZM24.0999 26.1C24.6999 25.5 25.5999 25.5 26.1999 26.1C26.7999 26.7 26.7999 27.6 26.1999 28.2C25.5999 28.8 24.6999 28.8 24.0999 28.2C23.4999 27.6 23.5999 26.7 24.0999 26.1ZM21.5999 37.2999C20.9999 37.9 20.0999 37.9 19.4999 37.2999C18.8999 36.6999 18.8999 35.8 19.4999 35.2C20.0999 34.6 20.9999 34.6 21.5999 35.2C22.0999 35.8 22.0999 36.6999 21.5999 37.2999ZM28.7999 44.5C28.1999 45.1 27.2999 45.1 26.6999 44.5C26.0999 43.9 26.0999 43 26.6999 42.4C27.2999 41.8 28.1999 41.8 28.7999 42.4C29.2999 43 29.2999 43.9 28.7999 44.5ZM37.8999 37.7999C38.4999 38.4 38.4999 39.3 37.8999 39.9C37.2999 40.5 36.3999 40.5 35.7999 39.9C35.1999 39.3 35.1999 38.4 35.7999 37.7999C36.3999 37.1999 37.2999 37.1999 37.8999 37.7999ZM34.1999 27.7C34.7999 27.1 35.6999 27.1 36.2999 27.7C36.8999 28.3 36.8999 29.1999 36.2999 29.7999C35.6999 30.3999 34.7999 30.3999 34.1999 29.7999C33.5999 29.1999 33.5999 28.3 34.1999 27.7ZM33.1999 30.7999C35.4999 32.9999 35.4999 36.7 33.1999 38.9C30.9999 41.2 27.2999 41.2 25.0999 38.9C22.8999 36.6 22.7999 32.9999 25.0999 30.7999C27.2999 28.5999 30.8999 28.5999 33.1999 30.7999Z" fill="#E24C40"/>
</g>
<defs>
<clipPath id="clip0">
<rect width="64" height="64" fill="white"/>
</clipPath>
</defs>
</svg>
