<svg width="58" height="64" viewBox="0 0 58 64" fill="none" xmlns="http://www.w3.org/2000/svg">
<path fill-rule="evenodd" clip-rule="evenodd" d="M38.6 0L40 4.3L41.3 4.7L42.6 5L46 2L48.4 3.4L47.5 7.8L48.5 8.8L49.5 9.8L53.9 8.9L55.3 11.3L52.3 14.7L52.7 16L53.1 17.3L57.4 18.7V21.5L53.1 22.9L52.7 24.2L52.3 25.5L55.3 28.9L53.9 31.3L49.5 30.4L48.5 31.4L47.5 32.4L48.4 36.8L46 38.1L42.6 35.1L41.3 35.5L40 35.8L38.6 40.1H35.8L34.4 35.8L33.1 35.4L31.8 35L28.4 38L26 36.8L26.9 32.4L25.9 31.4L24.9 30.4L20.5 31.3L19.1 28.9L22.1 25.5L21.7 24.2L21.3 22.9L17 21.5V18.7L21.3 17.3L21.7 16L22.1 14.7L19.1 11.3L20.5 8.9L24.9 9.8L25.9 8.8L26.9 7.8L26 3.4L28.3 2L31.7 5L33 4.6L34.3 4.2L35.8 0H38.6ZM43.4 39.9L44.1 42.1L44.8 42.3L45.5 42.5L47.3 40.9L48.5 41.6L48 44L48.5 44.5L49 45L51.3 44.5L52 45.7L50.4 47.5L50.6 48.2L50.8 48.9L53 49.6V51L50.8 51.7L50.6 52.4L50.4 53.1L52 54.9L51.3 56.1L49 55.6L48.5 56.1L48 56.6L48.5 58.9L47.3 59.6L45.5 58L44.8 58.2L44.1 58.4L43.4 60.6H42L41.3 58.4L40.6 58.2L39.9 58L38.1 59.6L36.8 59L37.3 56.7L36.8 56.2L36.3 55.7L34 56.1L33.3 54.9L34.9 53.1L34.7 52.4L34.5 51.7L32.3 51V49.6L34.5 48.9L34.7 48.2L34.9 47.5L33.3 45.7L34 44.5L36.3 45L36.8 44.5L37.3 44L36.8 41.7L38 41L39.8 42.6L40.5 42.4L41.2 42.2L41.9 40H43.4V39.9ZM42.7 44.5L39.8 45.3L37.7 47.4L36.9 50.3L37.7 53.2L39.8 55.3L42.7 56.1L45.6 55.3L47.7 53.2L48.5 50.3L47.7 47.4L45.6 45.3L42.7 44.5ZM17.6 31L18.8 34.6L19.9 34.9L21 35.2L23.8 32.7L25.8 33.8L25 37.5L25.8 38.3L26.6 39.1L30.3 38.3L31.4 40.3L28.8 43L29.1 44.1L29.4 45.2L33 46.4V48.7L29.4 49.9L29.1 51L28.8 52L31.3 54.8L30.2 56.8L26.6 56L25.8 56.8L25 57.6L25.8 61.3L23.8 62.4L21 59.9L19.9 60.2L18.8 60.5L17.6 64H15.3L14.1 60.4L13 60.1L12 59.9L9.2 62.4L7.2 61.3L8 57.6L7.2 56.8L6.4 56L2.7 56.8L1.6 54.8L4.1 52L3.8 50.9L3.5 49.8L0 48.6V46.3L3.6 45.1L3.9 44L4.1 43L1.6 40.2L2.7 38.2L6.4 39L7.2 38.2L8 37.4L7.2 33.7L9.2 32.6L12 35.1L13.1 34.8L14.2 34.5L15.4 30.9H17.6V31ZM16.5 36.2L16.3 36.8L11.3 38.1L10.8 37.7L10.9 38.3L7.3 42L6.7 41.9L7.1 42.4L5.8 47.4L5.2 47.6L5.8 47.8L7.1 52.8L6.7 53.3L7.3 53L11 56.7L10.9 57.3L11.4 56.9L16.4 58.2L16.6 58.8L16.8 58.2L21.8 56.9L22.3 57.3L22 56.7L25.7 53L26.3 53.1L25.9 52.6L27.2 47.6L27.8 47.4L27.2 47.2L25.9 42.2L26.3 41.7L25.7 42L22 38.3L22.1 37.7L21.6 38.1L16.6 36.8L16.5 36.2ZM16.5 42.2C19.5 42.2 21.9 44.6 21.9 47.6C21.9 50.6 19.5 53 16.5 53C13.5 53 11.1 50.6 11.1 47.6C11.1 44.5 13.5 42.2 16.5 42.2ZM16.5 44.8C18 44.8 19.2 46 19.2 47.5C19.2 49 18 50.2 16.5 50.2C15 50.2 13.8 49 13.8 47.5C13.8 46 15 44.8 16.5 44.8ZM37.2 4.4L36.5 6.5L31 8L29.4 6.5L29.9 8.7L25.9 12.7L23.7 12.2L25.2 13.8L23.7 19.3L21.6 20L23.7 20.7L25.2 26.2L23.7 27.8L25.9 27.3L29.9 31.3L29.4 33.5L31 32L36.5 33.5L37.2 35.6L37.9 33.5L43.4 32L45 33.5L44.5 31.3L48.5 27.3L50.7 27.8L49.2 26.2L50.7 20.7L52.8 20L50.7 19.3L49.2 13.8L50.7 12.2L48.5 12.7L44.5 8.7L45 6.5L43.4 8L37.9 6.5L37.2 4.4ZM37.2 11.6C41.9 11.6 45.7 15.4 45.7 20.1C45.7 24.8 41.9 28.6 37.2 28.6C32.5 28.6 28.7 24.8 28.7 20.1C28.7 15.4 32.5 11.6 37.2 11.6ZM37.2 14.3C40.4 14.3 43 16.9 43 20.1C43 23.3 40.4 25.9 37.2 25.9C34 25.9 31.4 23.3 31.4 20.1C31.4 16.9 34 14.3 37.2 14.3Z" fill="#E24C40"/>
</svg>
