
<svg width="68px" height="66px" viewBox="0 0 68 66" version="1.1" xmlns="http://www.w3.org/2000/svg" xmlns:xlink="http://www.w3.org/1999/xlink">
    <g id="Page-1" stroke="none" stroke-width="1" fill="none" fill-rule="evenodd">
        <g id="services_4" transform="translate(1.000000, 0.000000)">
            <path d="M37.2,10.19995 C42.3,11.2 46.9999,13.7 50.5999,17.4 L52.7,15.3 C48.5,11.1 43.1,8.29995 37.2,7.19995 L37.2,10.19995 Z" id="Path" fill="#E24C40" fill-rule="nonzero"></path>
            <path d="M66.9,33 C65.3,13.8 48.4,-0.50002 29.2,1.0999769 L29.2,6.99998 C15.4,8.39998 4.5,19.3 3.0999952,33.1 C1.5,49.1 13.2,63.3 29.2,64.9 C45.2,66.5 59.4,54.8 61,38.8 L66.9,38.8 C67,36.9 67,34.9 66.9,33 Z M35,61.9 C20.6,63.5 7.7,53.2 6.1,38.8 C4.5,24.5 14.8,11.5 29.2,9.89998 L29.2,10.49998 L34.4,15.7 C43.8,16.8 51.2,24.2 52.3,33.6 L57.5,38.8 L58.1,38.8 C56.7,51 47.1,60.6 35,61.9 Z M58.7,35.9 L55,32.2 C53.4,22.3 45.6,14.6 35.8,13 L32.1,9.29998 L32.1,3.89998 C32.1,3.89998 32.1,3.89998 32,3.89998 L32.1,3.89998 C49.7,3.99998 64,18.3 64,35.9 L58.7,35.9 Z" id="Shape" fill="#E24C40" fill-rule="nonzero"></path>
            <path d="M49.5,34.9001 C49.5,35.6001 49.5,36.2001 49.5,36.9001 C48.9,46.5001 40.7,53.8001 31.1,53.3001 C21.5,52.7001 14.2,44.5001 14.7,34.9001 C15.3,25.3001 23.5,18.0001 33.1,18.5001 L30.2,15.6001 C20.4,16.5001 12.69995,24.2001 11.79995,34.0001 C10.79995,45.2001 19,55.1001 30.2,56.1001 C41.4,57.1001 51.3,48.9001 52.3,37.7001 L49.5,34.9001 Z" id="Path" fill="#E24C40" fill-rule="nonzero"></path>
            <path d="M23.8999,27.7 C19.3999,32.2 19.3999,39.5999 23.8999,44.0999 C28.3999,48.5999 35.7999,48.5999 40.2999,44.0999 C44.7999,39.5999 44.7999,32.2 40.2999,27.7 C35.7999,23.2 28.3999,23.2 23.8999,27.7 Z M27.0999,27.1 C27.6999,26.5 28.5999,26.5 29.1999,27.1 C29.7999,27.7 29.7999,28.6 29.1999,29.2 C28.5999,29.8 27.6999,29.8 27.0999,29.2 C26.4999,28.6 26.5999,27.7 27.0999,27.1 Z M24.5999,38.2999 C23.9999,38.9 23.0999,38.9 22.4999,38.2999 C21.8999,37.6999 21.8999,36.8 22.4999,36.2 C23.0999,35.6 23.9999,35.6 24.5999,36.2 C25.0999,36.8 25.0999,37.6999 24.5999,38.2999 Z M31.7999,45.5 C31.1999,46.1 30.2999,46.1 29.6999,45.5 C29.0999,44.9 29.0999,44 29.6999,43.4 C30.2999,42.8 31.1999,42.8 31.7999,43.4 C32.2999,44 32.2999,44.9 31.7999,45.5 Z M40.8999,38.7999 C41.4999,39.4 41.4999,40.3 40.8999,40.9 C40.2999,41.5 39.3999,41.5 38.7999,40.9 C38.1999,40.3 38.1999,39.4 38.7999,38.7999 C39.3999,38.1999 40.2999,38.1999 40.8999,38.7999 Z M37.1999,28.7 C37.7999,28.1 38.6999,28.1 39.2999,28.7 C39.8999,29.3 39.8999,30.1999 39.2999,30.7999 C38.6999,31.3999 37.7999,31.3999 37.1999,30.7999 C36.5999,30.1999 36.5999,29.3 37.1999,28.7 Z M36.1999,31.7999 C38.4999,33.9999 38.4999,37.7 36.1999,39.9 C33.9999,42.2 30.2999,42.2 28.0999,39.9 C25.8999,37.6 25.7999,33.9999 28.0999,31.7999 C30.2999,29.5999 33.8999,29.5999 36.1999,31.7999 Z" id="Shape" fill="#E24C40" fill-rule="nonzero"></path>
            <g id="Group-127" transform="translate(0.000000, 27.000000)">
                <circle id="Oval" fill="#F7F7F7" fill-rule="nonzero" cx="21.1105" cy="15.2944" r="11.6325"></circle>
                <rect id="Rectangle" fill="#F7F7F7" fill-rule="nonzero" transform="translate(9.519819, 26.186885) rotate(40.843700) translate(-9.519819, -26.186885) " x="7.02713379" y="18.8425353" width="4.98537" height="14.6887"></rect>
                <path d="M2.47004,25.4361 L2.46777,25.438 C-0.211529,27.6514 -0.009157,31.5983 2.19625,33.8037 C4.50425,36.1117 8.44825,36.1915 10.6451,33.5322 L10.6469,33.53 L15.2736,27.9068 C17.0688,28.7386 19.0699,29.1746 21.1211,29.1746 C29.0059,29.1746 35.5,22.7762 35.5,14.7958 C35.5,6.8153 29.0889,0.5 21.2042,0.5 C13.2301,0.5 6.82536,6.90474 6.82536,14.8789 C6.82536,16.9949 7.2601,19.0089 8.0934,20.8093 L2.47004,25.4361 Z M15.2229,21.9397 L14.3758,21.375 L13.9772,20.7771 C13.8575,20.5976 13.7398,20.4505 13.6599,20.3506 L13.6511,20.3397 C13.5649,20.2319 13.5208,20.1755 13.4786,20.1123 L13.4652,20.0922 L13.4512,20.0725 C12.3946,18.5933 11.8195,16.8238 11.8195,14.7958 C11.8195,9.7173 15.9746,5.49415 21.1211,5.49415 C26.2752,5.49415 30.4228,9.6418 30.4228,14.7958 C30.4228,19.9573 26.2676,24.0974 21.2042,24.0974 C19.2889,24.0974 17.4141,23.4559 15.8877,22.4383 C15.8245,22.3962 15.7681,22.352 15.6603,22.2658 L15.6494,22.257 C15.5495,22.1771 15.4024,22.0594 15.2229,21.9397 Z M5.70566,29.3314 L11.0034,24.9718 L6.66589,30.2976 C6.66572,30.2978 6.66555,30.298 6.66537,30.2983 C6.63374,30.3365 6.5473,30.4057 6.3481,30.4021 C6.13858,30.3982 5.93574,30.3094 5.81318,30.1868 C5.69062,30.0643 5.60175,29.8614 5.59794,29.6519 C5.5943,29.4516 5.66425,29.3653 5.70238,29.3341 L5.70566,29.3314 Z" id="Shape" stroke="#F7F7F7" stroke-width="3" fill="#E24C40" fill-rule="nonzero"></path>
                <path d="M25.0263,11.3061 L25.0263,8.64722 L23.1983,10.4752 L17.7975,15.876 L16.3019,12.8848 L15.8865,11.9708 L14.8894,12.4693 L12.646,13.5495 C12.6434,13.5755 12.6408,13.6015 12.6382,13.6274 C12.5579,14.4273 12.485,15.1542 12.646,15.9591 L14.8894,14.8789 L16.5512,18.2025 L17.2159,19.5319 L18.2961,18.4518 L22.866,13.8819 L22.866,19.8643 L22.866,20.9445 L23.9462,20.9445 L27.2697,20.9445 C27.9344,20.2797 28.433,19.5319 28.8484,18.7841 L25.0263,18.7841 L25.0263,11.3061 Z" id="Path" fill="#E24C40" fill-rule="nonzero"></path>
                <path d="M25.0263,11.3061 L25.0263,8.64722 L23.1983,10.4752 L17.7975,15.876 L16.3019,12.8848 L15.8865,11.9708 L14.8894,12.4693 L12.646,13.5495 C12.6434,13.5755 12.6408,13.6015 12.6382,13.6274 C12.5579,14.4273 12.485,15.1542 12.646,15.9591 L14.8894,14.8789 L16.5512,18.2025 L17.2159,19.5319 L18.2961,18.4518 L22.866,13.8819 L22.866,19.8643 L22.866,20.9445 L23.9462,20.9445 L27.2697,20.9445 C27.9344,20.2797 28.433,19.5319 28.8484,18.7841 L25.0263,18.7841 L25.0263,11.3061 Z" id="Path" stroke="#F7F7F7"></path>
            </g>
        </g>
    </g>
</svg>