<svg width="64" height="64" viewBox="0 0 64 64" fill="none" xmlns="http://www.w3.org/2000/svg">
<g clip-path="url(#clip0)">
<path d="M36.0998 9.59998H33.2998C33.3998 10.4 32.7998 11 31.9998 11.1C31.1998 11.2 30.5998 10.6 30.4998 9.79998C30.4998 9.69998 30.4998 9.59998 30.4998 9.59998H27.7998C27.7998 11.9 29.5998 13.7 31.8998 13.7C34.2998 13.8 36.0998 11.9 36.0998 9.59998Z" fill="#E24C40"/>
<path d="M36.0999 24.5V18.4C38.0999 17.4 39.6999 15.8 40.6999 13.8C42.9999 8.99995 40.8999 3.19995 36.0999 0.899951C31.2999 -1.40005 25.4999 0.699951 23.2999 5.49995C21.0999 10.3 23.0999 16.0999 27.8999 18.2999V24.4C18.3999 26.1 11.4999 34.2999 11.3999 43.9C11.3999 55.2999 20.8999 63.9 32.0999 63.9C43.2999 63.9 52.6999 55.2999 52.6999 43.9C52.5999 34.4 45.5999 26.1 36.0999 24.5ZM25.0999 9.59995C25.0999 5.79995 28.1999 2.69995 31.9999 2.69995C35.7999 2.69995 38.8999 5.79995 38.8999 9.59995C38.8999 13.4 35.7999 16.5 31.9999 16.5C28.1999 16.5 25.0999 13.4 25.0999 9.59995ZM31.9999 47.5C37.0999 47.5 41.5999 43.8999 41.5999 38.5999C41.5999 35 39.3999 31.7999 36.0999 30.5V30.2999C40.9999 31.7999 44.2999 36.2 44.3999 41.2999C44.2999 48.0999 38.5999 53 31.9999 53C25.2999 53 19.5999 48.1 19.5999 41.2C19.5999 36.1 22.9999 31.7 27.8999 30.2V30.4C24.5999 31.6999 22.3999 34.9 22.3999 38.5C22.3999 43.7999 26.8999 47.5 31.9999 47.5ZM30.5999 19.2C31.4999 19.3 32.3999 19.3 33.2999 19.2V26.9V37.2C33.2999 37.6 32.6999 37.9 31.9999 37.9C31.1999 37.9 30.5999 37.6 30.5999 37.2V26.9V19.2ZM31.9999 40.5999C33.9999 40.5999 36.0999 39.4 36.0999 37.2V33.5999C37.7999 34.6999 38.8999 36.5999 38.8999 38.5999C38.8999 42.3999 35.5999 44.7999 31.9999 44.7999C28.3999 44.7999 25.0999 42.3999 25.0999 38.5999C25.0999 36.5999 26.0999 34.6999 27.8999 33.5999V37.2C27.8999 39.4 29.9999 40.5999 31.9999 40.5999ZM31.9999 61.2C22.2999 61.2 14.0999 53.8999 14.0999 44C14.1999 35.8999 19.8999 28.9 27.8999 27.2999V27.4C21.4999 29 16.8999 34.7 16.8999 41.2999C16.8999 49.7 23.8999 55.7999 31.9999 55.7999C40.0999 55.7999 47.0999 49.7 47.0999 41.2999C47.0999 34.7 42.4999 28.9 36.0999 27.4V27.2999C44.0999 28.9 49.7999 35.8999 49.8999 44C49.8999 53.8999 41.6999 61.2 31.9999 61.2Z" fill="#E24C40"/>
</g>
<defs>
<clipPath id="clip0">
<rect width="64" height="64" fill="white"/>
</clipPath>
</defs>
</svg>
