<?xml version="1.0" encoding="UTF-8"?>
<svg width="71px" height="58px" viewBox="0 0 71 58" version="1.1" xmlns="http://www.w3.org/2000/svg" xmlns:xlink="http://www.w3.org/1999/xlink">
    <!-- Generator: Sketch 58 (84663) - https://sketch.com -->
    <title>Group</title>
    <desc>Created with Sketch.</desc>
    <g id="Page-1" stroke="none" stroke-width="1" fill="none" fill-rule="evenodd">
        <g id="Group" transform="translate(1.000000, 1.000000)">
            <path d="M49.5999,40 L51.2999,37.5 L41.1999,37.5 C40.4999,38.4 39.6999,39.2 38.8999,40 L49.5999,40 Z" id="Path" fill="#E24C40" fill-rule="nonzero"></path>
            <path d="M59.5,37.6 L67,35.1 C69,34.4 66.7,29.8 62.9,26.9 C64.6,26.5 65.8,25 65.8,23.3 C65.8,21.3 64.1,19.6 62.1,19.6 L59.9,19.6 L59.5,19.6 L57.3,19.6 C56,19.6 54.8,20.3 54.1,21.3 L53.5,20.5 C52.2,18.8 49.6,16.6 45.4,16.5 C45.6,17.3 45.8,18.2 46,19 C48.2,19.2 50.1,20.2 51.5,22 L53.4,24.5 L46.3,24.5 C46.2,25.3 46.1,26.2 46,27 L56.8,27 C58.3,27 59.8,27.8 61,28.6 C62.2,29.4 63.3,30.6 64.1,31.7 C64.3,32 64.7,32.6 64.9,33.1 L54.5,36.6 L52.1,40 L67,40 C66.9,42.3 66.5,47.7 65.3,48.6 C64.5,49.2 63.1,49.3 62.1,49.4 C60.1,49.5 58,49.5 55.9,49.4 C51.1,46.3 50.9,41.9 44,41.9 L37.5,41.9 L36.3,41.9 C34.8,42.9 33.2,43.7 31.6,44.4 L37.5,44.4 L44,44.4 C48.5,44.4 49.5,47.7 51.7,49.4 L37.5,49.4 L23.3,49.4 C24.6,48.4 25.5,46.8 27,45.7 C25.8,45.9 24.5,46 23.3,46 C23.2,46 23,46 22.9,46 C21.9,47.1 20.8,48.4 19.1,49.4 C17.1,49.4 15,49.5 12.9,49.4 C12,49.3 10.5,49.2 9.7,48.6 C8.5,47.7 8.1,42.7 8,40.2 C7.1,39.4 6.2,38.5 5.5,37.6 C5.5,42.2 6,47.4 7,49.2 L7,54.3 C7,55.7 8.2,56.9 9.6,56.9 L19.7,56.9 C21.1,56.9 22.3,55.7 22.3,54.3 L22.3,52 L37.5,52 L52.7,52 L52.7,54.4 C52.7,55.8 53.9,57 55.3,57 L65.4,57 C66.8,57 68,55.8 68,54.4 L68,49.3 C69.1,47.5 69.5,42.2 69.5,37.6 L59.5,37.6 Z M62.2,24.5 L60.6,24.5 L59,24.5 L57.4,24.5 C56.7,24.5 56.2,23.9 56.2,23.3 C56.2,22.6 56.8,22.1 57.4,22.1 L60.6,22.1 L61.6,22.1 L62.3,22.1 C63,22.1 63.5,22.7 63.5,23.3 C63.4,23.9 62.8,24.5 62.2,24.5 Z M19.8,54.3 C19.8,54.4 19.8,54.5 19.7,54.5 L9.6,54.5 C9.6,54.5 9.5,54.4 9.5,54.3 L9.5,51.3 C11.6,52.1 14.7,52 19.1,51.9 L19.8,51.9 L19.8,54.3 Z M65.5,54.3 C65.5,54.4 65.5,54.5 65.4,54.5 L55.3,54.5 C55.3,54.5 55.2,54.4 55.2,54.3 L55.2,52 L55.9,52 C60.2,52 63.3,52.2 65.5,51.4 L65.5,54.3 Z" id="Shape" fill="#E24C40" fill-rule="nonzero"></path>
            <path d="M36.9001,29.8 L33.6001,27.9 L36.5001,26.2001 C37.0001,25.9001 37.2001,25.2001 36.9001,24.7001 C36.6001,24.2001 35.9001,24 35.4001,24.3 L31.4001,26.6 L25.4001,23.1 L31.4001,19.6 L35.4001,21.9 C35.6001,22 35.8001,22.1 36.0001,22.1 C36.4001,22.1 36.8001,21.9 37.0001,21.5 C37.3001,21 37.1001,20.3 36.6001,20 L33.7001,18.3 L37.0001,16.4 C37.5001,16.1 37.7001,15.4 37.4001,14.9 C37.1001,14.4 36.4001,14.2 35.9001,14.5 L32.6001,16.4 L32.6001,13.1 C32.6001,12.5 32.1001,12 31.5001,12 C30.9001,12 30.4001,12.5 30.4001,13.1 L30.4001,17.7 L24.4001,21.2 L24.4001,14.3 L28.4001,12 C28.9001,11.7 29.1001,11 28.8001,10.5 C28.5001,10 27.8001,9.8 27.3001,10.1 L24.4001,11.7 L24.4001,7.90005 C24.4001,7.30005 23.9001,6.80005 23.3001,6.80005 C22.7001,6.80005 22.2001,7.30005 22.2001,7.90005 L22.2001,11.7 L19.3001,10.1 C18.8001,9.8 18.1001,10 17.8001,10.5 C17.3001,11 17.5001,11.7 18.0001,12 L22.0001,14.3 L22.0001,21.2 L16.0001,17.7 L16.0001,13.1 C16.0001,12.5 15.5001,12 14.9001,12 C14.3001,12 13.8001,12.5 13.8001,13.1 L13.8001,16.4 L10.5001,14.5 C10.0001,14.2 9.3001,14.4 9.0001,14.9 C8.70008,15.4 8.90008,16.1 9.4001,16.4 L12.7001,18.3 L9.8001,20 C9.3001,20.3 9.1001,21 9.4001,21.5 C9.6001,21.9 10.0001,22.1 10.4001,22.1 C10.6001,22.1 10.8001,22.1 11.0001,21.9 L15.0001,19.6 L21.0001,23.1 L15.0001,26.6 L11.0001,24.3 C10.5001,24 9.8001,24.2001 9.5001,24.7001 C9.2001,25.2001 9.4001,25.9001 9.9001,26.2001 L12.8001,27.9 L9.5001,29.8 C9.0001,30.1 8.80009,30.8 9.1001,31.3 C9.3001,31.7 9.7001,31.9001 10.1001,31.9001 C10.3001,31.9001 10.5001,31.9001 10.7001,31.7001 L14.0001,29.8 L14.0001,33.2001 C14.0001,33.8001 14.5001,34.3 15.1001,34.3 C15.7001,34.3 16.2001,33.8001 16.2001,33.2001 L16.2001,28.6 L22.2001,25.1 L22.2001,32 L18.2001,34.3 C17.7001,34.6 17.5001,35.3 17.8001,35.8 C18.0001,36.2 18.4001,36.4001 18.8001,36.4001 C19.0001,36.4001 19.2001,36.4 19.3001,36.3 L22.2001,34.7001 L22.2001,38.5 C22.2001,39.1 22.7001,39.6 23.3001,39.6 C23.9001,39.6 24.4001,39.1 24.4001,38.5 L24.4001,34.7001 L27.3001,36.3 C27.5001,36.4 27.7001,36.4001 27.8001,36.4001 C28.2001,36.4001 28.6001,36.2 28.8001,35.8 C29.1001,35.3 28.9001,34.6 28.4001,34.3 L24.4001,32 L24.4001,25.1 L30.4001,28.6 L30.4001,33.2001 C30.4001,33.8001 30.9001,34.3 31.5001,34.3 C32.1001,34.3 32.6001,33.8001 32.6001,33.2001 L32.6001,29.8 L35.9001,31.7001 C36.1001,31.8001 36.3001,31.9001 36.5001,31.9001 C36.9001,31.9001 37.3001,31.7 37.5001,31.3 C37.6001,30.8 37.5001,30.1 36.9001,29.8 Z" id="Path" fill="#E24C40" fill-rule="nonzero"></path>
            <path d="M23.1,46.2 C35.8578,46.2 46.2,35.8578 46.2,23.1 C46.2,10.3422 35.8578,0 23.1,0 C10.3422,0 0,10.3422 0,23.1 C0,35.8578 10.3422,46.2 23.1,46.2 Z" id="Path" stroke="#E24C40" stroke-width="2"></path>
        </g>
    </g>
</svg>