<svg width="53" height="64" viewBox="0 0 53 64" fill="none" xmlns="http://www.w3.org/2000/svg">
<g clip-path="url(#clip0)">
<path d="M50.8934 60.8409C48.6806 62.3619 47.8654 61.5429 46.235 60.1389C43.5564 57.5649 40.5284 55.8098 34.0066 60.9579C31.7938 62.4789 30.9786 61.6599 29.3481 60.1389C26.6695 57.5649 23.6416 55.8098 17.1198 60.9579C14.907 62.4789 14.0918 61.6599 12.4613 60.1389C9.89918 57.5649 6.98766 55.6928 0.465853 60.9579C1.00043e-05 61.3089 -0.116451 62.1279 0.232932 62.5959C0.582314 63.0639 1.39754 63.1809 1.86338 62.8299C7.33704 58.3839 9.08395 60.0219 11.0638 61.8939C12.1119 62.8299 13.393 64.117 15.2564 64.117C16.1881 64.117 17.3527 63.766 18.6337 62.9469C24.1074 58.5009 25.8543 60.1389 27.8341 62.0109C28.8823 62.9469 30.1634 64.234 32.0267 64.234C32.9584 64.234 34.123 63.883 35.4041 63.0639C40.8778 58.6179 42.6247 60.2559 44.6045 62.1279C45.6527 63.0639 46.9337 64.351 48.7971 64.351C49.7288 64.351 50.8934 64 52.1745 63.1809C52.7568 62.8299 52.8732 62.1279 52.5238 61.5429C52.1745 60.6069 51.4757 60.4899 50.8934 60.8409Z" fill="#E24C40" stroke="#E24C40" stroke-width="0.5"/>
<path d="M1.86338 55.6929C7.33704 51.2469 9.08395 52.8849 11.0638 54.7569C12.1119 55.6929 13.393 56.98 15.2564 56.98C16.1881 56.98 17.3527 56.6289 18.6337 55.8099C24.1074 51.4809 25.8543 53.0019 27.8341 54.8739C28.8823 55.8099 30.1634 57.097 32.0267 57.097C32.9584 57.097 34.123 56.7459 35.4041 55.9269C40.8778 51.4809 42.6247 53.1189 44.6045 54.9909C45.6527 55.9269 46.9337 57.214 48.7971 57.214C49.7288 57.214 50.8934 56.863 52.1745 56.0439C52.7568 55.6929 52.8732 54.9909 52.5238 54.4059C52.1745 53.8209 51.4757 53.7039 50.8934 54.0549C48.6806 55.5759 47.8654 54.7569 46.235 53.3529C43.5564 50.7789 40.5284 49.0238 34.0066 54.0549C31.7938 55.5759 30.9786 54.7569 29.3481 53.3529C26.6695 50.7789 23.6416 49.0238 17.1198 54.0549C14.907 55.5759 14.0918 54.7569 12.4613 53.3529C9.89918 50.5449 6.98766 48.6728 0.465853 53.9379C1.00043e-05 54.2889 -0.116451 55.1079 0.232932 55.5759C0.698775 56.0439 1.39754 56.1609 1.86338 55.6929Z" fill="#E24C40" stroke="#E24C40" stroke-width="0.5"/>
<path d="M1.86338 48.6728C7.33704 44.3437 9.08395 45.8647 11.0638 47.7368C12.1119 48.6728 13.393 49.9598 15.2564 49.9598C16.1881 49.9598 17.3527 49.6088 18.6337 48.7898C19.216 48.4388 19.3325 47.7368 18.9831 47.1517C18.6337 46.5667 17.935 46.4497 17.3527 46.8007C15.1399 48.3218 14.3247 47.5028 12.6942 46.0987C9.89918 43.5247 6.98766 41.6527 0.465853 46.9177C1.0008e-05 47.2687 -0.116451 48.0878 0.232932 48.5558C0.698775 49.0238 1.39754 49.1408 1.86338 48.6728Z" fill="#E24C40" stroke="#E24C40" stroke-width="0.5"/>
<path d="M50.8934 46.8007C48.6807 48.3218 47.8655 47.5028 46.235 46.0987C43.44 43.5247 40.5284 41.6527 34.0066 46.9177C33.5408 47.2687 33.4243 48.0878 33.7737 48.5558C34.1231 49.0238 34.9383 49.1408 35.4042 48.7898C40.8778 44.4607 42.6247 45.9817 44.6046 47.8538C45.6527 48.7898 46.9338 50.0768 48.7972 50.0768C49.7288 50.0768 50.8934 49.7258 52.1745 48.9068C52.7568 48.5558 52.8733 47.8538 52.5239 47.2688C52.1745 46.5667 51.4757 46.4497 50.8934 46.8007Z" fill="#E24C40" stroke="#E24C40" stroke-width="0.5"/>
<path d="M1.86338 41.7696C7.33704 37.3236 9.08395 38.9616 11.0638 40.8336C12.1119 41.7697 13.393 43.0567 15.2564 43.0567C16.1881 43.0567 17.3527 42.7057 18.6337 41.8867C19.216 41.5356 19.3325 40.8336 18.9831 40.2486C18.6337 39.6636 17.935 39.5466 17.3527 39.8976C15.1399 41.4186 14.3247 40.5996 12.6942 39.1956C9.89918 36.5046 6.98766 34.6325 0.465853 39.8976C1.0008e-05 40.2486 -0.116451 41.0676 0.232932 41.5356C0.698775 42.0037 1.39754 42.1207 1.86338 41.7696Z" fill="#E24C40" stroke="#E24C40" stroke-width="0.5"/>
<path d="M35.5206 41.7697C40.9943 37.3236 42.7412 38.9617 44.721 40.8337C45.7692 41.7697 47.0502 43.0567 48.9136 43.0567C49.8453 43.0567 51.0099 42.7057 52.291 41.8867C52.8733 41.5357 52.9897 40.8337 52.6404 40.2487C52.291 39.6637 51.5922 39.5467 51.0099 39.8977C48.7971 41.4187 47.9819 40.5997 46.3515 39.1957C43.5564 36.6216 40.6449 34.7496 34.1231 40.0147C33.6572 40.3657 33.5408 41.1847 33.8902 41.6527C34.2395 42.0037 35.0548 42.1207 35.5206 41.7697Z" fill="#E24C40" stroke="#E24C40" stroke-width="0.5"/>
<path d="M15.8387 30.6545C15.8387 30.7786 15.8386 31.1225 15.8386 31.8245C15.8386 32.5265 15.8386 32.7116 15.8388 32.9945H22.1275V37.4406C20.4971 38.7276 19.4489 40.5996 19.4489 42.7057C19.4489 46.3327 22.4769 49.3748 26.0872 49.3748C29.6975 49.3748 32.7255 46.3327 32.7255 42.7057C32.7255 40.5996 31.7938 38.6106 30.0469 37.4406V3.97806C30.0469 1.75503 28.2999 0 26.0872 0C23.8744 0 22.1275 1.75503 22.1275 3.97806V11.2322H15.8387C15.8387 11.2322 15.8386 11.7002 15.8386 12.4022C15.8386 13.1042 15.8386 13.301 15.8386 13.5722H22.1275V20.9433H15.8386C15.8386 21.2865 15.8386 21.4113 15.8386 22.1133C15.8386 22.8154 15.8387 23.2834 15.8387 23.2834H22.1275V30.6545H15.8387ZM23.8744 38.9616C24.2238 38.7276 24.4567 38.3766 24.4567 37.9086V3.97806C24.4567 3.04205 25.1555 2.34004 26.0872 2.34004C27.0189 2.34004 27.7176 3.04205 27.7176 3.97806V38.0256C27.7176 38.4936 27.9506 38.8446 28.2999 39.0786C29.581 39.8976 30.3962 41.3016 30.3962 42.8227C30.3962 45.1627 28.4164 47.1517 26.0872 47.1517C23.758 47.1517 21.7781 45.1627 21.7781 42.8227C21.7781 41.1846 22.5934 39.7806 23.8744 38.9616Z" fill="#E24C40" stroke="#E24C40" stroke-width="0.5"/>
</g>
<defs>
<clipPath id="clip0">
<rect width="52.7568" height="64" fill="white"/>
</clipPath>
</defs>
</svg>
