
<svg width="64px" height="64px" viewBox="0 0 64 64" version="1.1" xmlns="http://www.w3.org/2000/svg" xmlns:xlink="http://www.w3.org/1999/xlink">
    <g id="Page-1" stroke="none" stroke-width="1" fill="none" fill-rule="evenodd">
        <g id="services_1" fill="#E24C40" fill-rule="nonzero">
            <path d="M12,10.6999 L52,10.6999 C53.6,10.2999 54.8,8.89994 54.8,7.19994 C54.8,5.19994 53.2,3.59994 51.2,3.59994 L48.9,3.59994 C47.7,3.59994 46.5,4.19994 45.9,5.29994 L45.3,4.59994 C43.4,2.09994 40.5,0.699937 37.4,0.799937 L26.6,0.799937 C23.5,0.699937 20.5,2.19994 18.6,4.69994 L18,5.39994 C17.4,4.39994 16.2,3.69994 15,3.69994 L12.7,3.69994 C10.7,3.69994 9.09998,5.29994 9.09998,7.29994 C9.19998,8.79994 10.4,10.2999 12,10.6999 Z M48.9,5.99994 L51.2,5.99994 C51.9,5.99994 52.4,6.49994 52.4,7.19994 C52.4,7.89994 51.9,8.39994 51.2,8.39994 L48.9,8.39994 C48.2,8.39994 47.7,7.89994 47.7,7.19994 C47.7,6.49994 48.3,5.99994 48.9,5.99994 Z M20.6,5.89994 C22,3.99994 24.2,2.89994 26.6,2.99994 L33.2,2.99994 L37.4,2.99994 C39.8,2.99994 42,3.99994 43.4,5.89994 L45.2,8.29994 L18.7,8.29994 L20.6,5.89994 Z M12.8,5.99994 L15.1,5.99994 C15.8,5.99994 16.3,6.49994 16.3,7.19994 C16.3,7.89994 15.8,8.39994 15.1,8.39994 L12.8,8.39994 C12.1,8.39994 11.6,7.89994 11.6,7.19994 C11.6,6.49994 12.1,5.99994 12.8,5.99994 Z" id="Shape"></path>
            <path d="M61.6,58.5999 L61.6,10.7 L59.2,10.7 L59.2,58.5999 L56.8,58.5999 L56.8,25 C57.8,23.3 57.7,20.6 57.7,16.1 L48.7,16.1 L45.6,16.1 L44,18.6 L55.3,18.6 C55.2,20.8 55.4,23.6 54.2,24.5 C53.3,25 52.2,25.3 51.2,25.3 C50,25.4 48.8,25.4 47.7,25.3 C43.1,22.3 42.9,20.5 36.2,20.5 L27.9,20.5 C21.2,20.5 21,22.3 16.4,25.3 C15.2,25.4 14,25.4 12.9,25.3 C11.9,25.3 10.8,25 9.9,24.5 C8.7,23.6 8.9,20.8 8.8,18.6 L20,18.6 L18.3,16.2 L6.3,16.2 C6.3,20.7 6.2,23.4 7.2,25.1 L7.2,58.5999 L4.8,58.5999 L4.8,10.7 L2.4,10.7 L2.4,58.5999 L0,58.5999 L0,61 L16.8,61 L16.8,58.5999 L9.6,58.5999 L9.6,32.4 L14.6,32.4 C16,32.4 17.1,31.3 17.1,29.9 L17.1,27.6 L22.3,27.6 L24,35.0999 L29.1,38.7 L31.3,44.5 L31.4,56.2 L29.3,58.2999 L27.8,63.2999 L40,63.2999 L39.8,61 L44,61 L42.5,43.7 L42.9,31.2999 L42.9,31.2 C43.6,30.1 43.9,28.9 43.8,27.6 L47,27.6 L47,30 C47,31.4 48.1,32.5 49.5,32.5 L54.5,32.5 L54.5,58.5999 L47.3,58.5999 L47.3,61 L64,61 L64,58.5999 L61.6,58.5999 Z M14.7,29.9 C14.7,30 14.6,30.1 14.6,30.1 L9.6,30.1 C9.5,30.1 9.5,30 9.5,29.9 L9.5,27 C11.6,27.7999 9.8,27.6 13.9,27.6 L14.6,27.6 L14.6,29.9 L14.7,29.9 Z M31.1,37.2 L26.2,33.7 L24.8,27.7 L26.4,27.7 L29.1,32.5999 L34.8,34.2999 L34.8,41.7999 L32.9,41.7999 L31.1,37.2 Z M32.6,31.1 L30.7,30.5 L29.1,27.6 L32.4,27.6 C32.1,28.8 32.2,30 32.6,31.1 Z M35.5,31.2 C34.6,30.2 34.4,28.7 35,27.6 L35.2,27.6 L37.2,29.6 L39.2,31.6 C38,32.4 36.5,32.2 35.5,31.2 Z M40.8,33.4 L40.4,41.7 L37.1,41.7 L37.1,34.4 C38.4,34.5 39.8,34.2 40.8,33.4 Z M39.4,58.5999 L38.6,47.2 L36.6,49.5999 L37.4,61 L31,61 L31.4,59.7 L33.8,57.2999 L33.7,44.0999 L40,44.0999 L41.3,58.5 L39.4,58.5 L39.4,58.5999 Z M40.9,29.9 L40,29 L38.7,27.7 L41.4,27.7 C41.5,28.4 41.3,29.2 40.9,29.9 Z M20.5,25.3 C22.6,23.7 23.6,22.9 27.9,22.9 L33.2,22.9 L36.1,22.9 C40.4,22.9 41.4,23.7 43.5,25.3 L20.5,25.3 Z M54.4,29.9 C54.4,30 54.4,30.1 54.3,30.1 L49.4,30.1 C49.4,30.1 49.3,30 49.3,29.9 L49.3,27.7 L50,27.7 C54.2,27.7 52.4,27.9 54.4,27.1 L54.4,29.9 Z" id="Shape"></path>
            <polygon id="Path" points="20.9 16.1999 22.4 18.4999 41.5 18.4999 43.1 16.0999 33.2 16.0999 33.2 16.1999"></polygon>
        </g>
        <g id="Group-127" transform="translate(18.000000, 30.000000)">
            <circle id="Oval" fill="#F7F7F7" fill-rule="nonzero" cx="16.5" cy="11.5" r="9.5"></circle>
            <polygon id="Rectangle" fill="#F7F7F7" fill-rule="nonzero" transform="translate(6.668743, 20.822404) rotate(40.843700) translate(-6.668743, -20.822404) " points="4.53019808 14.7551135 8.60542136 14.8236273 8.80728776 26.8896953 4.73206448 26.8211815"></polygon>
            <path d="M1.57591615,20.6428313 L1.57410015,20.6444042 C-0.56934845,22.4767213 -0.407450141,25.7440803 1.35688319,27.5697748 C3.20329129,29.4804046 6.35850512,29.5464653 8.11599283,27.3450192 L8.11743283,27.343198 L11.8188091,22.6881489 C13.2549754,23.3767372 14.8558624,23.7376707 16.4968296,23.7376707 C22.8046972,23.7376707 28,18.4408885 28,11.8344805 C28,5.22798965 22.8710975,0 16.5633099,0 C10.1840019,0 5.06018743,5.30203069 5.06018743,11.9032731 C5.06018743,13.6549596 5.40798095,15.3222076 6.07462388,16.8126313 L1.57591615,20.6428313 Z M11.7782489,17.7484094 L11.1005659,17.2809342 L10.7816845,16.7859752 C10.6859241,16.6373798 10.5917637,16.5156061 10.5278434,16.432906 L10.5208034,16.4238827 C10.4518431,16.3346427 10.4165629,16.2879531 10.3828028,16.2356343 L10.3720827,16.2189949 L10.3608827,16.2026867 C9.51559896,14.9781618 9.05551695,13.513318 9.05551695,11.8344805 C9.05551695,7.63034994 12.3796115,4.13430312 16.4968296,4.13430312 C20.6201276,4.13430312 23.9382222,7.56784884 23.9382222,11.8344805 C23.9382222,16.1073208 20.6140476,19.5346164 16.5633099,19.5346164 C15.0310631,19.5346164 13.5312166,19.003564 12.3100912,18.161165 C12.259531,18.1263134 12.2144108,18.0897233 12.1281704,18.0183645 L12.1194504,18.0110796 C12.03953,17.944936 11.9218495,17.8475005 11.7782489,17.7484094 Z M4.1644235,23.8674743 L8.40263408,20.2584702 L4.93261087,24.6673229 C4.93247487,24.6674885 4.93233887,24.667654 4.93219487,24.6679024 C4.90689076,24.6995255 4.83773845,24.7568112 4.67837776,24.753831 C4.51076102,24.7506025 4.34848831,24.6770913 4.25043988,24.5755994 C4.15239145,24.4741904 4.08129514,24.3062238 4.07824713,24.1327936 C4.07533511,23.9669794 4.13129536,23.8955378 4.16179949,23.8697095 L4.1644235,23.8674743 Z" id="Shape" stroke="#F7F7F7" stroke-width="3" fill="#E24C40" fill-rule="nonzero"></path>
            <path d="M18.9513946,8.1621692 L18.9513946,6 L17.4933347,7.48649132 L13.1855176,11.8783568 L11.9925885,9.44594902 L11.6612547,8.70269523 L10.8659421,9.10806943 L9.07654849,9.98647506 C9.07447466,10.0076179 9.07240083,10.0287608 9.070327,10.0498224 C9.00627766,10.7002914 8.94813074,11.2913978 9.07654849,11.9459328 L10.8659421,11.0675271 L12.1914366,13.7702386 L12.7216184,14.8512907 L13.5832138,13.9729664 L17.2282837,10.2567787 L17.2282837,15.1215944 L17.2282837,16 L18.089879,16 L20.7407882,16 C21.2709701,15.4593926 21.6686663,14.8512907 22,14.2431887 L18.9513946,14.2431887 L18.9513946,8.1621692 Z" id="Path" fill="#E24C40" fill-rule="nonzero"></path>
            <path d="M18.9513946,8.1621692 L18.9513946,6 L17.4933347,7.48649132 L13.1855176,11.8783568 L11.9925885,9.44594902 L11.6612547,8.70269523 L10.8659421,9.10806943 L9.07654849,9.98647506 C9.07447466,10.0076179 9.07240083,10.0287608 9.070327,10.0498224 C9.00627766,10.7002914 8.94813074,11.2913978 9.07654849,11.9459328 L10.8659421,11.0675271 L12.1914366,13.7702386 L12.7216184,14.8512907 L13.5832138,13.9729664 L17.2282837,10.2567787 L17.2282837,15.1215944 L17.2282837,16 L18.089879,16 L20.7407882,16 C21.2709701,15.4593926 21.6686663,14.8512907 22,14.2431887 L18.9513946,14.2431887 L18.9513946,8.1621692 Z" id="Path" stroke="#F7F7F7"></path>
        </g>
    </g>
</svg>