<svg width="64" height="65" viewBox="0 0 64 65" fill="none" xmlns="http://www.w3.org/2000/svg">
<path fill-rule="evenodd" clip-rule="evenodd" d="M18.4 18.4961C25.9 10.9569 38.1 10.9569 45.6 18.4961C53.1 26.0353 53.1 38.299 45.6 45.8382C38.1 53.3774 25.9 53.3774 18.4 45.8382C10.9 38.299 10.9 26.0353 18.4 18.4961ZM64 61.1176H46C56.6 55.8905 64 44.9335 64 32.1672C64 14.3747 49.7 0 32 0C14.3 0 0 14.3747 0 32.1672C0 44.9335 7.4 55.8905 18 61.1176H0V64.3344H32H64V61.1176ZM6.4 32.1672C6.4 17.9935 17.9 6.43343 32 6.43343V9.65015C19.6 9.65015 9.6 19.7024 9.6 32.1672H6.4ZM57.6 32.1672C57.6 46.3408 46.1 57.9009 32 57.9009V54.6842C44.4 54.6842 54.4 44.632 54.4 32.1672H57.6ZM32 3.21672C47.9 3.21672 60.8 16.1841 60.8 32.1672C60.8 48.1502 47.9 61.1176 32 61.1176C16.1 61.1176 3.2 48.1502 3.2 32.1672C3.2 16.1841 16.1 3.21672 32 3.21672ZM28.6 28.7494C30.5 26.8395 33.5 26.8395 35.4 28.7494C37.3 30.6593 37.3 33.675 35.4 35.5849C33.5 37.4949 30.5 37.4949 28.6 35.5849C26.7 33.675 26.7 30.6593 28.6 28.7494ZM30.9 31.0614C31.5 30.4583 32.5 30.4583 33.2 31.0614C33.8 31.6646 33.8 32.6698 33.2 33.3734C32.6 33.9766 31.6 33.9766 30.9 33.3734C30.2 32.6698 30.2 31.6646 30.9 31.0614ZM40.8 25.2311C41.8 26.4374 42.4 27.8447 42.8 29.252L47.8 30.0562C47.4 26.6384 45.8 23.4217 43.3 20.8081C43.2 20.7076 43.2 20.7076 43.1 20.6071L40.8 25.2311ZM43.2 32.5693C43.2 33.474 43 34.3787 42.8 35.1828L47.6 35.987C47.8 35.0823 48 34.1776 48 33.2729L43.2 32.5693ZM41.4 38.299C41 38.9022 40.5 39.6058 39.9 40.1084C39.3 40.7116 38.7 41.2142 38.1 41.6163L38.9 46.6424C40.5 45.8382 42 44.833 43.3 43.5262C44.6 42.2194 45.7 40.7116 46.4 39.1032L41.4 38.299ZM35.1 43.0236C34.2 43.2246 33.4 43.4257 32.5 43.4257L33.3 48.2508C34.2 48.2508 35.1 48.0497 36 47.8487L35.1 43.0236ZM29.1 43.0236C27.6 42.6215 26.2 41.9179 25 40.9126L20.5 43.3252C20.6 43.4257 20.6 43.4257 20.7 43.5262C23.3 46.1398 26.5 47.6476 29.9 48.0497L29.1 43.0236ZM36.8 25.7337L39.1 21.4113C38.3 20.9087 37.5 20.5066 36.7 20.205L34.4 24.5275C33.3 24.1254 32.1 24.0249 30.9 24.2259L33.4 19.4008C31.1 19.0993 28.8 19.5013 26.7 20.4061L30.5 24.2259C29.4 24.4269 28.3 24.9296 27.3 25.5327L23.9 22.1149C23.6 22.4165 23.2 22.7181 22.9 23.0196C22.6 23.3212 22.3 23.7233 22 24.0249L25.4 27.4426C24.7 28.4478 24.3 29.5536 24 30.6593L20.2 26.8395C19.2 28.9505 18.9 31.2625 19.2 33.5745L24 31.0614C23.9 32.2677 24 33.3734 24.3 34.5797L20 36.7912C20.3 37.5954 20.7 38.3996 21.2 39.2037L25.5 36.8917C25.7 37.1933 26 37.4949 26.3 37.7964C29.4 40.9126 34.5 40.9126 37.6 37.7964C40.7 34.6802 40.7 29.5536 37.6 26.4374C37.4 26.2364 37.1 25.9348 36.8 25.7337Z" fill="#E24C40"/>
</svg>
