<svg width="64" height="37" viewBox="0 0 64 37" fill="none" xmlns="http://www.w3.org/2000/svg">
<g clip-path="url(#clip0)">
<path d="M53.2168 17.0732H6.98901V19.2698H53.2168V17.0732Z" fill="#E24C40"/>
<path d="M33.5475 20.5679H6.98901V22.7644H33.5475V20.5679Z" fill="#E24C40"/>
<path d="M53.2167 20.5679H34.7456V22.7644H53.2167V20.5679Z" fill="#E24C40"/>
<path d="M33.5475 4.39307H10.3837C8.38682 4.39307 6.88916 5.99057 6.88916 7.98745V14.5772H33.5475V4.39307ZM8.98588 7.98745C8.98588 7.1887 9.58495 6.58963 10.3837 6.58963H19.17V12.3806H8.98588V7.98745ZM21.2667 12.3806V6.58963H31.3509V12.3806H21.2667Z" fill="#E24C40"/>
<path d="M46.8267 7.78776C45.3291 5.69104 42.833 4.39307 40.237 4.39307H34.8455V14.4773H51.8189L46.8267 7.78776ZM36.9422 12.3806V6.58963H40.1372C42.0342 6.58963 43.9313 7.48823 45.0295 9.08573L47.5256 12.4804H36.9422V12.3806Z" fill="#E24C40"/>
<path d="M49.0234 34.4462C51.0203 33.947 52.5179 32.4493 53.0172 30.4524H57.2106C59.8066 30.4524 61.9033 28.3557 61.9033 25.7597V19.0702L54.9142 12.6802L49.922 5.79095C47.8253 2.89548 44.0312 0 39.9376 0H8.08736C4.79251 0 2.09672 2.69579 2.09672 5.99064V25.4602C2.09672 28.0562 4.19345 30.1529 6.78939 30.1529H12.0811C12.4805 32.2496 14.078 33.947 16.1747 34.3463H0V36.5429H64V34.3463H49.0234V34.4462ZM57.7098 22.3651V18.1716L59.7067 19.9688V22.3651H57.7098ZM47.7254 25.9594C49.5226 25.9594 50.9204 27.3573 50.9204 29.1544C50.9204 30.9516 49.5226 32.3495 47.7254 32.3495C45.9282 32.3495 44.5304 30.9516 44.5304 29.1544C44.5304 27.4571 46.0281 25.9594 47.7254 25.9594ZM59.8066 24.5616V25.6599C59.8066 27.0577 58.6084 28.2558 57.2106 28.2558H53.0172C52.6178 25.6599 50.3214 23.7629 47.7254 23.7629C45.1295 23.7629 42.9329 25.6599 42.4337 28.2558H22.6646C22.2652 25.6599 19.9688 23.7629 17.3729 23.7629C14.7769 23.7629 12.6802 25.5601 12.0811 28.0562L6.88924 27.9563C5.49142 27.9563 4.29329 26.7582 4.29329 25.3604V5.99064C4.29329 3.89392 5.99064 2.19657 8.08736 2.19657H39.9376C43.2325 2.19657 46.4275 4.59282 48.1248 7.08892L53.2169 14.078L55.6131 16.2746V24.6615H59.8066V24.5616ZM17.4727 25.9594C19.2699 25.9594 20.6677 27.3573 20.6677 29.1544C20.6677 30.9516 19.2699 32.3495 17.4727 32.3495C15.6755 32.3495 14.2777 30.9516 14.2777 29.1544C14.1778 27.4571 15.6755 25.9594 17.4727 25.9594ZM22.6646 30.4524H42.5335C43.0328 32.4493 44.6303 33.947 46.5273 34.4462H18.6708C20.5679 33.947 22.1654 32.4493 22.6646 30.4524Z" fill="#E24C40"/>
</g>
<defs>
<clipPath id="clip0">
<rect width="64" height="36.5429" fill="white"/>
</clipPath>
</defs>
</svg>
