<svg width="40" height="40" viewBox="0 0 40 40" fill="none" xmlns="http://www.w3.org/2000/svg">
<path d="M24.0053 0C15.0732 0 7.90671 7.15937 7.90671 16.0827C7.90671 18.9879 8.63374 21.6856 9.98394 23.9683L1.77886 30.7127C-0.609961 32.6841 -0.5061 36.3157 1.57114 38.3909C3.75223 40.5698 7.3874 40.5698 9.36077 38.1833L16.1118 29.9864C18.3967 31.3352 21.0972 32.0615 23.9014 32.0615C32.7297 32.0615 40 24.9022 40 15.9789C40 7.05561 32.8335 0 24.0053 0ZM24.0053 29.4676C21.201 29.4676 18.5006 28.5337 16.3195 27.0811C16.0079 26.8736 15.8002 26.6661 15.4886 26.4586L7.28354 36.5232C6.34878 37.6645 4.47927 37.5608 3.44065 36.5232C2.40203 35.4856 2.29817 33.6179 3.44065 32.6841L13.4114 24.4871C13.2037 24.1759 12.9959 23.9683 12.7882 23.6571C11.2303 21.4781 10.3994 18.8841 10.3994 15.9789C10.3994 8.612 16.4234 2.49022 23.9014 2.49022C31.3795 2.49022 37.4035 8.50824 37.4035 15.9789C37.4035 23.4495 31.3795 29.4676 24.0053 29.4676Z" fill="#E24C40"/>
<path d="M28.7828 11.6206V8.30029L26.4979 10.583L19.7469 17.3273L17.8773 13.592L17.358 12.4507L16.1117 13.0732L13.3074 14.4221C13.3042 14.4546 13.3009 14.487 13.2977 14.5193C13.1974 15.5183 13.1062 16.426 13.3074 17.4311L16.1117 16.0822L18.1889 20.2326L19.0198 21.8927L20.37 20.5439L26.0824 14.8371V22.3078V23.6566H27.4326H31.5871C32.418 22.8266 33.0412 21.8927 33.5605 20.9589H28.7828V11.6206Z" fill="#E24C40"/>
<path d="M28.7828 11.6206V8.30029L26.4979 10.583L19.7469 17.3273L17.8773 13.592L17.358 12.4507L16.1117 13.0732L13.3074 14.4221C13.3042 14.4546 13.3009 14.487 13.2977 14.5193C13.1974 15.5183 13.1062 16.426 13.3074 17.4311L16.1117 16.0822L18.1889 20.2326L19.0198 21.8927L20.37 20.5439L26.0824 14.8371V22.3078V23.6566H27.4326H31.5871C32.418 22.8266 33.0412 21.8927 33.5605 20.9589H28.7828V11.6206Z" stroke="#F7F7F7"/>
</svg>
