
<svg width="65px" height="62px" viewBox="0 0 65 62" version="1.1" xmlns="http://www.w3.org/2000/svg" xmlns:xlink="http://www.w3.org/1999/xlink">
    <g id="Page-1" stroke="none" stroke-width="1" fill="none" fill-rule="evenodd">
        <g id="Frame" fill="#E24C40">
            <path d="M60.9,22.9 L57.7,22.9 L57.7,27.9 L56.2,27.9 L56.2,25.2 C56.2,23.4 54.7,22 53,22 L52.3,22 L50.1,22 C49.7,22 49.4,21.7 49.4,21.3 L49.4,17.3 C49.4,15.9 48.6,14 47.6,13 L44.4,9.8 C43.4,8.8 41.6,8 40.1,8 L35.4,8 L35.4,6.5 L42.4,6.5 L42.4,3.2 C42.2,1.5 40.8,0 39,0 L25.1,0 C23.3,0 21.9,1.5 21.9,3.2 L21.9,6.4 L28.9,6.4 L28.9,7.9 L22.2,7.9 C20.8,7.9 18.9,8.7 17.9,9.7 L14.7,12.9 C14.2,13.4 12.9,13.9 12.2,13.9 L11.2,13.9 C9.4,13.9 8,15.4 8,17.1 L8,20.8 L6.5,20.8 L6.5,14.8 L3.2,14.8 C1.4,14.8 0,16.3 0,18 L0,29.9 C0,31.7 1.5,33.1 3.2,33.1 L6.4,33.1 L6.4,27.1 L8,27.1 L8,30.8 C8,32.6 9.5,34 11.2,34 L12.2,34 C13,34 14.2,34.5 14.7,35 L17.9,38.2 C18.9,39.2 20.7,40 22.2,40 L49.8,40 L52.3,40 L53,40 C54.8,40 56.2,38.5 56.2,36.8 L56.2,34.1 L57.7,34.1 L57.7,39.1 L60.9,39.1 C62.7,39.1 64.1,37.6 64.1,35.9 L64.1,26 C64.1,24.3 62.7,22.9 60.9,22.9 Z M24.4,4 L24.4,3.2 C24.4,2.8 24.7,2.5 25.1,2.5 L39,2.5 C39.4,2.5 39.7,2.8 39.7,3.2 L39.7,4 L35.2,4 L28.7,4 L24.4,4 Z M31.3,6.5 L32.8,6.5 L32.8,8 L31.3,8 L31.3,6.5 Z M4,30.8 L3.2,30.8 C2.8,30.8 2.5,30.5 2.5,30.1 L2.5,18.1 C2.5,17.7 2.8,17.4 3.2,17.4 L4,17.4 L4,20.9 L4,27.4 L4,30.8 Z M6.5,24.8 L6.5,23.3 L8,23.3 L8,24.8 L6.5,24.8 Z M49.7,37.8 L22.1,37.8 C21.3,37.8 20.1,37.3 19.6,36.8 L16.4,33.6 C15.4,32.6 13.6,31.8 12.1,31.8 L11.1,31.8 C10.7,31.8 10.4,31.5 10.4,31.1 L10.4,27.4 L10.4,20.9 L10.4,17.2 C10.4,16.8 10.7,16.5 11.1,16.5 L12.1,16.5 C13.5,16.5 15.4,15.7 16.4,14.7 L19.6,11.5 C19.8,11.3 20,11.2 20.2,11.1 L20.2,14.7 L22.7,14.7 L22.7,10.5 L25.4,10.5 L25.4,14.7 L28,14.7 L28,10.5 L28.9,10.5 L30.9,10.5 L30.9,14.7 L33.4,14.7 L33.4,10.5 L35.4,10.5 L40,10.5 C40.8,10.5 42,11 42.5,11.5 L45.7,14.7 C46.2,15.2 46.7,16.5 46.7,17.2 L46.7,21.2 C46.7,22.9 48,24.3 49.7,24.4 L49.7,37.8 Z M53.7,37 C53.7,37.4 53.4,37.7 53,37.7 L52.3,37.7 L52.3,24.4 L53,24.4 C53.4,24.4 53.7,24.7 53.7,25.1 L53.7,27.8 L53.7,34.3 L53.7,37 Z M56.2,31.8 L56.2,30.3 L57.7,30.3 L57.7,31.8 L56.2,31.8 Z M61.6,36 C61.6,36.4 61.3,36.7 60.9,36.7 L60.2,36.7 L60.2,34.2 L60.2,27.7 L60.2,25.2 L60.9,25.2 C61.3,25.2 61.6,25.5 61.6,25.9 L61.6,36 Z" id="Shape"></path>
            <path d="M44.7998,15.9001 L41.5998,12.6001 L39.7998,14.4001 L42.7998,17.4001 C42.7998,17.4001 42.7998,17.4001 42.7998,17.5001 L42.7998,21.3001 L45.2998,21.3001 L45.2998,17.4001 L45.2998,17.2001 C45.1998,16.7001 44.8998,16.1001 44.7998,15.9001 Z" id="Path"></path>
            <path d="M13.3,27.8999 L13,30.3999 C14.7,30.5999 16.4,31.4999 17.5,32.4999 L20.6,35.5999 L22.4,33.7999 L19.3,30.6999 C17.8,29.2999 15.5,28.1999 13.3,27.8999 Z" id="Path"></path>
        </g>
        <g id="Group-126" transform="translate(14.000000, 24.000000)">
            <circle id="Oval" fill="#F7F7F7" fill-rule="nonzero" cx="21.1105" cy="15.2944" r="11.6325"></circle>
            <rect id="Rectangle" fill="#F7F7F7" fill-rule="nonzero" transform="translate(9.519819, 26.186885) rotate(40.843700) translate(-9.519819, -26.186885) " x="7.02713379" y="18.8425353" width="4.98537" height="14.6887"></rect>
            <path d="M2.47004,25.4361 L2.46777,25.438 C-0.211529,27.6514 -0.009157,31.5983 2.19625,33.8037 C4.50425,36.1117 8.44825,36.1915 10.6451,33.5322 L10.6469,33.53 L15.2736,27.9068 C17.0688,28.7386 19.0699,29.1746 21.1211,29.1746 C29.0059,29.1746 35.5,22.7762 35.5,14.7958 C35.5,6.8153 29.0889,0.5 21.2042,0.5 C13.2301,0.5 6.82536,6.90474 6.82536,14.8789 C6.82536,16.9949 7.2601,19.0089 8.0934,20.8093 L2.47004,25.4361 Z M15.2229,21.9397 L14.3758,21.375 L13.9772,20.7771 C13.8575,20.5976 13.7398,20.4505 13.6599,20.3506 L13.6511,20.3397 C13.5649,20.2319 13.5208,20.1755 13.4786,20.1123 L13.4652,20.0922 L13.4512,20.0725 C12.3946,18.5933 11.8195,16.8238 11.8195,14.7958 C11.8195,9.7173 15.9746,5.49415 21.1211,5.49415 C26.2752,5.49415 30.4228,9.6418 30.4228,14.7958 C30.4228,19.9573 26.2676,24.0974 21.2042,24.0974 C19.2889,24.0974 17.4141,23.4559 15.8877,22.4383 C15.8245,22.3962 15.7681,22.352 15.6603,22.2658 L15.6494,22.257 C15.5495,22.1771 15.4024,22.0594 15.2229,21.9397 Z M5.70566,29.3314 L11.0034,24.9718 L6.66589,30.2976 C6.66572,30.2978 6.66555,30.298 6.66537,30.2983 C6.63374,30.3365 6.5473,30.4057 6.3481,30.4021 C6.13858,30.3982 5.93574,30.3094 5.81318,30.1868 C5.69062,30.0643 5.60175,29.8614 5.59794,29.6519 C5.5943,29.4516 5.66425,29.3653 5.70238,29.3341 L5.70566,29.3314 Z" id="Shape" stroke="#F7F7F7" stroke-width="3" fill="#E24C40" fill-rule="nonzero"></path>
            <path d="M25.0263,11.3061 L25.0263,8.64722 L23.1983,10.4752 L17.7975,15.876 L16.3019,12.8848 L15.8865,11.9708 L14.8894,12.4693 L12.646,13.5495 C12.6434,13.5755 12.6408,13.6015 12.6382,13.6274 C12.5579,14.4273 12.485,15.1542 12.646,15.9591 L14.8894,14.8789 L16.5512,18.2025 L17.2159,19.5319 L18.2961,18.4518 L22.866,13.8819 L22.866,19.8643 L22.866,20.9445 L23.9462,20.9445 L27.2697,20.9445 C27.9344,20.2797 28.433,19.5319 28.8484,18.7841 L25.0263,18.7841 L25.0263,11.3061 Z" id="Path" fill="#E24C40" fill-rule="nonzero"></path>
            <path d="M25.0263,11.3061 L25.0263,8.64722 L23.1983,10.4752 L17.7975,15.876 L16.3019,12.8848 L15.8865,11.9708 L14.8894,12.4693 L12.646,13.5495 C12.6434,13.5755 12.6408,13.6015 12.6382,13.6274 C12.5579,14.4273 12.485,15.1542 12.646,15.9591 L14.8894,14.8789 L16.5512,18.2025 L17.2159,19.5319 L18.2961,18.4518 L22.866,13.8819 L22.866,19.8643 L22.866,20.9445 L23.9462,20.9445 L27.2697,20.9445 C27.9344,20.2797 28.433,19.5319 28.8484,18.7841 L25.0263,18.7841 L25.0263,11.3061 Z" id="Path" stroke="#F7F7F7"></path>
        </g>
    </g>
</svg>