<svg width="64" height="64" viewBox="0 0 64 64" fill="none" xmlns="http://www.w3.org/2000/svg">
<path d="M12 10.6999H52C53.6 10.2999 54.8 8.89994 54.8 7.19994C54.8 5.19994 53.2 3.59994 51.2 3.59994H48.9C47.7 3.59994 46.5 4.19994 45.9 5.29994L45.3 4.59994C43.4 2.09994 40.5 0.699937 37.4 0.799937H26.6C23.5 0.699937 20.5 2.19994 18.6 4.69994L18 5.39994C17.4 4.39994 16.2 3.69994 15 3.69994H12.7C10.7 3.69994 9.09998 5.29994 9.09998 7.29994C9.19998 8.79994 10.4 10.2999 12 10.6999ZM48.9 5.99994H51.2C51.9 5.99994 52.4 6.49994 52.4 7.19994C52.4 7.89994 51.9 8.39994 51.2 8.39994H48.9C48.2 8.39994 47.7 7.89994 47.7 7.19994C47.7 6.49994 48.3 5.99994 48.9 5.99994ZM20.6 5.89994C22 3.99994 24.2 2.89994 26.6 2.99994H33.2H37.4C39.8 2.99994 42 3.99994 43.4 5.89994L45.2 8.29994H18.7L20.6 5.89994ZM12.8 5.99994H15.1C15.8 5.99994 16.3 6.49994 16.3 7.19994C16.3 7.89994 15.8 8.39994 15.1 8.39994H12.8C12.1 8.39994 11.6 7.89994 11.6 7.19994C11.6 6.49994 12.1 5.99994 12.8 5.99994Z" fill="#E24C40"/>
<path d="M61.6 58.5999V10.7H59.2V58.5999H56.8V25C57.8 23.3 57.7 20.6 57.7 16.1H48.7H45.6L44 18.6H55.3C55.2 20.8 55.4 23.6 54.2 24.5C53.3 25 52.2 25.3 51.2 25.3C50 25.4 48.8 25.4 47.7 25.3C43.1 22.3 42.9 20.5 36.2 20.5H27.9C21.2 20.5 21 22.3 16.4 25.3C15.2 25.4 14 25.4 12.9 25.3C11.9 25.3 10.8 25 9.9 24.5C8.7 23.6 8.9 20.8 8.8 18.6H20L18.3 16.2H6.3C6.3 20.7 6.2 23.4 7.2 25.1V58.5999H4.8V10.7H2.4V58.5999H0V61H16.8V58.5999H9.6V32.4H14.6C16 32.4 17.1 31.3 17.1 29.9V27.6H22.3L24 35.0999L29.1 38.7L31.3 44.5L31.4 56.2L29.3 58.2999L27.8 63.2999H40L39.8 61H44L42.5 43.7L42.9 31.2999V31.2C43.6 30.1 43.9 28.9 43.8 27.6H47V30C47 31.4 48.1 32.5 49.5 32.5H54.5V58.5999H47.3V61H64V58.5999H61.6ZM14.7 29.9C14.7 30 14.6 30.1 14.6 30.1H9.6C9.5 30.1 9.5 30 9.5 29.9V27C11.6 27.7999 9.8 27.6 13.9 27.6H14.6V29.9H14.7ZM31.1 37.2L26.2 33.7L24.8 27.7H26.4L29.1 32.5999L34.8 34.2999V41.7999H32.9L31.1 37.2ZM32.6 31.1L30.7 30.5L29.1 27.6H32.4C32.1 28.8 32.2 30 32.6 31.1ZM35.5 31.2C34.6 30.2 34.4 28.7 35 27.6H35.2L37.2 29.6L39.2 31.6C38 32.4 36.5 32.2 35.5 31.2ZM40.8 33.4L40.4 41.7H37.1V34.4C38.4 34.5 39.8 34.2 40.8 33.4ZM39.4 58.5999L38.6 47.2L36.6 49.5999L37.4 61H31L31.4 59.7L33.8 57.2999L33.7 44.0999H40L41.3 58.5H39.4V58.5999ZM40.9 29.9L40 29L38.7 27.7H41.4C41.5 28.4 41.3 29.2 40.9 29.9ZM20.5 25.3C22.6 23.7 23.6 22.9 27.9 22.9H33.2H36.1C40.4 22.9 41.4 23.7 43.5 25.3H20.5ZM54.4 29.9C54.4 30 54.4 30.1 54.3 30.1H49.4C49.4 30.1 49.3 30 49.3 29.9V27.7H50C54.2 27.7 52.4 27.9 54.4 27.1V29.9Z" fill="#E24C40"/>
<path d="M20.9 16.1999L22.4 18.4999H41.5L43.1 16.0999H33.2V16.1999H20.9Z" fill="#E24C40"/>
</svg>
