<svg width="64" height="64" viewBox="0 0 64 64" fill="none" xmlns="http://www.w3.org/2000/svg">
<g clip-path="url(#clip0)">
<path d="M64 15.9999L55.9 7.8999H49.2L47.7 9.3999L40.6 5.8999H23.4L16.3 9.3999L14.8 7.8999H8.1L0 15.9999V22.5999L7.6 31.5999L3.6 35.5999C2.4 36.7999 2 38.6999 2.8 40.2999L2.7 40.3999C0.7 42.4999 0.7 45.7999 2.7 47.9999C4.8 50.1999 8.3 50.3999 10.5 48.2999L15.6 43.1999L17.2 49.8999H19L23.2 58.1999H28.8L31.6 55.3999H32.4L35.2 58.1999H40.9L45.1 49.8999H46.9L48.5 43.1999L53.6 48.2999C55.7 50.2999 59 50.2999 61.2 48.2999C63.4 46.1999 63.6 42.6999 61.5 40.4999L61.4 40.3999C62.2 38.7999 61.8 36.8999 60.6 35.6999L56.6 31.6999L64.2 22.6999V15.9999H64ZM24.1 8.5999H25.1V12.5999H27.9V8.5999H30.7V12.5999H33.5V8.5999H36.3V12.5999H39.1V8.5999H40.1L45.8 11.3999L41.8 15.3999H22.4L18.4 11.3999L24.1 8.5999ZM33 33.8999C33.5 34.3999 33.6 35.2999 33 35.8999C32.4 36.3999 31.6 36.3999 31 35.8999C30.7 35.5999 30.6 35.2999 30.6 34.8999C30.6 34.0999 31.2 33.4999 32 33.4999C32.4 33.4999 32.7 33.5999 33 33.8999ZM28.3 32.9999L27.2 31.8999C27.7 31.0999 28.4 30.3999 29.2 29.8999C31.9 28.2999 35.4 29.1999 37 31.8999L35.7 32.9999C35.3 32.0999 34.6 31.4999 33.7 30.9999C31.7 30.0999 29.2 30.9999 28.3 32.9999ZM29.1 37.7999C29.9 38.5999 30.9 38.9999 32 38.9999C33.1 38.9999 34.1 38.5999 34.9 37.7999L37.7 34.9999C37.6 37.9999 35.2 40.2999 32.2 40.4999C29.1 40.5999 26.4 38.1999 26.3 34.9999L29.1 37.7999ZM26 28.7999L25 29.7999L21.5 26.2999C23.4 25.7999 24.9 24.2999 25.4 22.3999L27.5 24.5999H32H36.5L38.7 22.4999C39.2 24.3999 40.7 25.8999 42.6 26.3999L39 29.7999L38 28.7999C34.7 25.4999 29.3 25.4999 26 28.7999ZM18.1 22.8999C17 21.7999 17 20.0999 18.1 18.9999C19.2 17.8999 20.9 17.8999 22 18.9999C23.1 20.0999 23.1 21.7999 22 22.8999C20.9 23.9999 19.2 23.9999 18.1 22.8999ZM25.1 18.0999H38.9L35.2 21.7999H28.8L25.1 18.0999ZM42 22.8999C40.9 21.7999 40.9 20.0999 42 18.9999C43.1 17.8999 44.8 17.8999 45.9 18.9999C47 20.0999 47 21.7999 45.9 22.8999C44.8 23.9999 43.1 23.9999 42 22.8999ZM5.5 37.5999L9.4 33.6999L11.2 35.7999L7.5 39.5999C6.9 40.1999 6.1 40.1999 5.5 39.5999C5 38.9999 5 38.0999 5.5 37.5999ZM14.8 40.0999L8.6 46.3999C7.6 47.2999 6 47.2999 4.9 46.3999C3.8 45.3999 3.6 43.5999 4.7 42.4999L4.8 42.3999C6.4 43.1999 8.3 42.7999 9.5 41.5999L13 37.9999L14.8 40.0999ZM16.8 38.0999L4.6 23.6999L10.6 17.6999L8.6 15.6999L2.8 21.5999V17.1999L9.3 10.6999H13.7L18.6 15.5999C17.7 15.7999 16.8 16.2999 16.1 16.9999C13.9 19.1999 13.9 22.6999 16.1 24.7999L23.1 31.7999L16.8 38.0999ZM39.1 55.3999H36.3L33.5 52.5999H30.4L27.6 55.3999H24.8L22 49.8999H41.7L39.1 55.3999ZM44.6 47.0999H19.4L17.9 40.8999L23.6 35.1999C23.8 39.6999 27.5 43.2999 32.1 43.2999C36.6 43.2999 40.3 39.6999 40.6 35.1999L46.3 40.8999L44.6 47.0999ZM59.4 42.3999C60.5 43.3999 60.7 45.1999 59.6 46.2999C58.5 47.3999 56.8 47.5999 55.7 46.4999C55.6 46.3999 55.5 46.2999 55.5 46.2999L49.3 40.0999L51 37.9999L54.5 41.4999C55.7 42.6999 57.6 43.0999 59.2 42.2999L59.4 42.3999ZM58.5 37.5999C59.1 38.1999 59.1 38.9999 58.5 39.5999C57.9 40.1999 57.1 40.1999 56.5 39.5999L52.8 35.7999L54.6 33.6999L58.5 37.5999ZM61.3 21.5999L55.4 15.6999L53.4 17.6999L59.4 23.6999L47.2 38.0999L40.9 31.7999L47.9 24.7999C50.1 22.5999 50.1 19.0999 47.9 16.9999C47.2 16.2999 46.4 15.7999 45.4 15.5999L50.3 10.6999H54.8L61.3 17.1999V21.5999Z" fill="#E24C40"/>
</g>
<defs>
<clipPath id="clip0">
<rect width="64" height="64" fill="white"/>
</clipPath>
</defs>
</svg>
