<svg width="40" height="40" viewBox="0 0 40 40" fill="none" xmlns="http://www.w3.org/2000/svg">
<path fill-rule="evenodd" clip-rule="evenodd" d="M35.7107 22.6303L40 21.2407V18.4615L35.7107 17.072L35.3117 15.7816L34.9127 14.4913L37.9052 11.1166L36.5087 8.73449L32.1197 9.62779L31.1222 8.63524L30.1247 7.64268L31.0224 3.27543L28.8279 1.98511L25.4364 4.96278L24.1397 4.56576L22.8429 4.16873L21.3466 0H18.5536L17.1571 4.26799L15.8603 4.66501L14.5636 4.96278L11.1721 1.98511L8.77806 3.37469L9.67581 7.74194L8.6783 8.73449L7.6808 9.72705L3.39152 8.73449L1.99501 11.1166L4.98753 14.4913L4.58853 15.7816L4.18953 17.072L0 18.5608V21.34L4.28928 22.7295L4.68828 24.0199L4.98753 25.3102L1.99501 28.6849L3.39152 31.067L7.78055 30.1737L8.77806 31.1663L9.77556 32.1588L8.87781 36.5261L11.2718 37.9156L14.6633 34.938L15.9601 35.335L17.2569 35.732L18.6534 40H21.4464L22.8429 35.732L24.1397 35.335L25.4364 34.938L28.8279 37.9156L31.2219 36.5261L30.3242 32.1588L31.3217 31.1663L32.3192 30.1737L36.7082 31.067L38.1047 28.6849L35.1122 25.3102L35.5112 24.0199L35.7107 22.6303ZM33.5162 27.6923L31.3217 27.196L27.3317 31.1663L27.8304 33.3499L26.2344 31.861L20.7481 33.3499L20.0499 35.4342L19.3516 33.3499L13.8653 31.861L12.2693 33.3499L12.7681 31.1663L8.77806 27.196L6.58354 27.6923L7.98005 26.005L6.48379 20.5459L4.38903 19.8511L6.48379 19.1563L7.98005 13.7965L6.48379 12.2084L8.6783 12.7047L12.6683 8.73449L12.1696 6.55087L13.8653 7.94045L19.3516 6.45161L20.0499 4.36725L20.7481 6.45161L26.1347 7.94045L27.7307 6.45161L27.2319 8.63524L31.2219 12.6055L33.4165 12.1092L31.9202 13.6973L33.4165 19.1563L35.5112 19.8511L33.4165 20.5459L31.9202 26.005L33.5162 27.6923Z" fill="#E24C40"/>
<path fill-rule="evenodd" clip-rule="evenodd" d="M20.0501 11.5137C15.3618 11.5137 11.5713 15.2854 11.5713 19.9504C11.5713 24.6154 15.3618 28.3871 20.0501 28.3871C24.7384 28.3871 28.5289 24.6154 28.5289 19.9504C28.5289 15.2854 24.7384 11.5137 20.0501 11.5137ZM20.0501 25.7072C16.8581 25.7072 14.2646 23.1266 14.2646 19.9504C14.2646 16.7742 16.8581 14.1936 20.0501 14.1936C23.2421 14.1936 25.8356 16.7742 25.8356 19.9504C25.8356 23.1266 23.2421 25.7072 20.0501 25.7072Z" fill="#E24C40"/>
</svg>
