<svg width="64" height="64" viewBox="0 0 64 64" fill="none" xmlns="http://www.w3.org/2000/svg">
<g clip-path="url(#clip0)">
<path fill-rule="evenodd" clip-rule="evenodd" d="M25.2 6.5H36L38.2 0H56.7L53.1 9.6H56.4C58.5 9.6 60.3 11.3 60.3 13.5C60.3 15.3 59 16.9 57.2 17.3H50.2L48.9 20.7H63.5L59.3 25.9H64C64 30.7 63.5 36.3 62.4 38.1V43.4C62.4 44.9 61.2 46.1 59.7 46.1H49.2C47.7 46.1 46.5 44.9 46.5 43.4V41.5L28.7 63.3L35.4 40.8H17.4V43.3C17.4 44.8 16.2 46 14.7 46H4.2C2.7 46 1.5 44.8 1.5 43.3V38C0.5 36.2 0 30.7 0 25.8H10.3H16.2L18.1 28.4H2.6C2.7 30.8 3.1 36.4 4.4 37.4C5.2 38 6.7 38.2 7.7 38.2C9.8 38.3 12 38.3 14.1 38.2C19.1 35 19.3 30.4 26.5 30.4H37.4C37.8 30.4 38.1 30.4 38.4 30.4L39 28.3H28.7H20.7L19 25.8H29.6L32.4 17.3H6.8C5.1 16.9 3.7 15.4 3.7 13.5C3.7 11.4 5.5 9.6 7.6 9.6H12.7C14.1 9.6 15.3 10.3 16 11.4L16.6 10.6C18 8.8 20.7 6.5 25.2 6.5ZM40 2.6H52.9L45.1 23.3H58L34.9 51.7L42.7 25.9H32.3L40 2.6ZM57.2 28.4L49.4 38C49.6 38.1 49.7 38.2 49.9 38.3C52 38.3 54.2 38.4 56.3 38.3C57.3 38.2 58.8 38.1 59.6 37.5C60.9 36.5 61.3 30.9 61.4 28.5H57.2V28.4ZM36.2 38.3L37.8 33.1C37.7 33.1 37.6 33.1 37.5 33.1H26.5C21.8 33.1 20.8 36.5 18.5 38.3H36.2ZM33.2 14.8L35.1 9.1H25.1C22.5 9.1 20.2 10.2 18.6 12.2L16.6 14.8H33.2ZM52.1 12.2L51.1 14.8C51.2 14.8 51.2 14.8 51.3 14.8H56.4C57.1 14.8 57.7 14.2 57.7 13.5C57.7 12.8 57.1 12.2 56.4 12.2H52.1ZM49.1 40.9H49.9C54.4 40.9 57.6 41.1 59.8 40.2V43.3C59.8 43.4 59.8 43.5 59.7 43.5H49.2C49.2 43.5 49.1 43.4 49.1 43.3V40.9ZM7.6 12.2C6.9 12.2 6.3 12.8 6.3 13.5C6.3 14.2 6.9 14.8 7.6 14.8H12.7C13.4 14.8 14 14.2 14 13.5C14 12.8 13.4 12.2 12.7 12.2H7.6ZM14.9 40.9H14.1C9.6 40.9 6.4 41.1 4.2 40.2V43.3C4.2 43.4 4.2 43.5 4.3 43.5H14.8C14.8 43.5 14.9 43.4 14.9 43.3V40.9Z" fill="#E24C40"/>
</g>
<defs>
<clipPath id="clip0">
<rect width="64" height="63.3" fill="white"/>
</clipPath>
</defs>
</svg>
