<svg width="72" height="72" viewBox="0 0 72 72" fill="none" xmlns="http://www.w3.org/2000/svg">
<g clip-path="url(#clip0)">
<path d="M59.175 24.1874C59.0625 24.0749 58.95 23.9624 58.725 23.8499L51.525 18.6749L56.7 25.8749C57.0375 26.6624 58.05 26.8874 58.725 26.5499C59.5125 26.2124 59.7375 25.1999 59.4 24.5249C59.2875 24.4124 59.2875 24.2999 59.175 24.1874Z" fill="#E24C40"/>
<path d="M58.05 17.325C57.15 17.325 56.3625 17.55 55.4625 17.775L59.625 20.7C61.5375 21.375 62.8875 23.175 62.8875 25.2H65.925C65.925 20.925 62.325 17.325 58.05 17.325Z" fill="#E24C40"/>
<path d="M59.625 11.3625V8.32498H62.6625V5.28748H53.4375V8.32498H56.475V11.3625C49.95 12.0375 44.8875 17.2125 44.1 23.7375C43.2 31.3875 48.825 38.25 56.475 39.15V57.375C56.475 60.975 53.55 63.7875 50.0625 63.7875C46.4625 63.7875 43.65 60.8625 43.65 57.375V43.5375C43.65 39.15 40.1625 35.6625 35.775 35.6625C34.0875 35.6625 32.4 36.225 30.9375 37.2375V19.0125C30.9375 14.7375 27.45 11.25 23.175 11.25H7.7625C3.4875 11.25 0 14.7375 0 19.0125V58.95C0 63.225 3.4875 66.7125 7.7625 66.7125H23.2875C27.5625 66.7125 31.05 63.225 31.05 58.95V43.5375C31.05 40.95 33.1875 38.7 35.8875 38.7C38.475 38.7 40.725 40.8375 40.725 43.5375V57.375C40.725 62.6625 45 66.825 50.175 66.825C55.35 66.825 59.625 62.55 59.625 57.375V39.15C66.15 38.475 71.2125 33.3 72 26.775C72.7875 19.125 67.275 12.2625 59.625 11.3625ZM3.0375 19.0125C3.0375 16.425 5.175 14.2875 7.7625 14.2875H8.4375L3.0375 19.575V19.0125ZM10.9125 63.7875H7.7625C7.425 63.7875 7.0875 63.7875 6.75 63.675L10.9125 59.5125V63.7875ZM10.9125 55.125L4.1625 61.875C3.4875 61.0875 3.15 59.9625 3.15 58.95V58.725H3.0375L10.9125 50.85V55.125ZM10.9125 46.4625L3.0375 54.3375V49.95L10.9125 42.075V46.4625ZM10.9125 37.9125L3.0375 45.7875V41.4L10.9125 33.525V37.9125ZM10.9125 29.1375L3.0375 37.0125V32.625L10.9125 24.75V29.1375ZM10.9125 20.475L3.0375 28.35V24.075L10.9125 16.2V20.475ZM16.9875 63.7875H13.95V14.4H16.9875V63.7875ZM24.1875 63.675C23.85 63.7875 23.5125 63.7875 23.175 63.7875H20.025V59.5125L24.1875 63.675ZM27.9 58.725V58.95C27.9 60.075 27.5625 61.0875 26.8875 61.875L20.1375 55.125V50.7375L27.9 58.725ZM27.9 50.0625V54.3375L20.025 46.4625V42.075L27.9 50.0625ZM27.9 45.7875L20.025 37.9125V33.525L27.9 41.4V45.7875ZM27.9 37.0125L20.025 29.1375V24.75L27.9 32.625V37.0125ZM27.9 28.35L20.025 20.475V16.2L27.9 24.075V28.35ZM27.9 19.6875L22.6125 14.4H23.2875C25.875 14.4 27.9 16.5375 28.0125 19.125V19.6875H27.9ZM57.9375 36.1125C51.8625 36.1125 47.025 31.275 47.025 25.2C47.025 19.125 51.8625 14.2875 57.9375 14.2875C64.0125 14.2875 68.85 19.125 68.85 25.2C68.85 31.275 64.0125 36.1125 57.9375 36.1125Z" fill="#E24C40"/>
</g>
<defs>
<clipPath id="clip0">
<rect width="72" height="72" fill="white"/>
</clipPath>
</defs>
</svg>
