<svg width="64" height="41" viewBox="0 0 64 41" fill="none" xmlns="http://www.w3.org/2000/svg">
<path d="M6.80589 4.89551C4.29843 4.89551 4.29843 8.7164 6.80589 8.7164C9.31335 8.7164 9.31335 4.89551 6.80589 4.89551Z" fill="#E24C40"/>
<path d="M23.6418 4.89551C21.1344 4.89551 21.1344 8.7164 23.6418 8.7164C26.0299 8.7164 26.0299 4.89551 23.6418 4.89551Z" fill="#E24C40"/>
<path d="M40.3581 4.89551C37.8507 4.89551 37.8507 8.7164 40.3581 8.7164C42.8656 8.7164 42.8656 4.89551 40.3581 4.89551Z" fill="#E24C40"/>
<path d="M6.80594 35.4627C9.3134 35.4627 9.3134 31.6418 6.80594 31.6418C4.41788 31.6418 4.41788 35.4627 6.80594 35.4627Z" fill="#E24C40"/>
<path d="M23.6418 35.4627C26.1493 35.4627 26.1493 31.6418 23.6418 31.6418C21.1344 31.6418 21.1344 35.4627 23.6418 35.4627Z" fill="#E24C40"/>
<path d="M40.3582 35.4627C42.8656 35.4627 42.8656 31.6418 40.3582 31.6418C37.9701 31.6418 37.9701 35.4627 40.3582 35.4627Z" fill="#E24C40"/>
<path d="M57.1941 8.7164C59.7015 8.7164 59.7015 4.89551 57.1941 4.89551C54.6866 4.89551 54.6866 8.7164 57.1941 8.7164Z" fill="#E24C40"/>
<path d="M61.4925 0H52.7761C51.4627 0 50.2687 1.07463 50.2687 2.50746V11.2239C50.2687 12.5373 51.3433 13.7313 52.7761 13.7313H55.8806V19.1045H41.5522V13.7313H44.6567C45.9702 13.7313 47.1642 12.6567 47.1642 11.2239V2.50746C47.1642 1.19403 46.0896 0 44.6567 0H35.9403C34.6269 0 33.4328 1.07463 33.4328 2.50746V11.2239C33.4328 12.5373 34.5075 13.7313 35.9403 13.7313H39.0448V19.1045H24.8358V13.7313H27.9403C29.2537 13.7313 30.4478 12.6567 30.4478 11.2239V2.50746C30.4478 1.19403 29.3731 0 27.9403 0H19.2239C17.9104 0 16.7164 1.07463 16.7164 2.50746V11.2239C16.7164 12.5373 17.791 13.7313 19.2239 13.7313H22.3284V19.1045H8V13.7313H11.1045C12.4179 13.7313 13.6119 12.6567 13.6119 11.2239V2.50746C13.6119 1.19403 12.5373 0 11.1045 0H2.50746C1.07463 0 0 1.07463 0 2.50746V11.2239C0 12.5373 1.07463 13.7313 2.50746 13.7313H5.61194V26.7463H2.50746C1.19403 26.7463 0 27.8209 0 29.2537V37.9701C0 39.2836 1.07463 40.4776 2.50746 40.4776H11.2239C12.5373 40.4776 13.7313 39.403 13.7313 37.9701V29.2537C13.7313 27.9403 12.6567 26.7463 11.2239 26.7463H8V21.3731H22.4478V26.7463H19.3433C18.0299 26.7463 16.8358 27.8209 16.8358 29.2537V37.9701C16.8358 39.2836 17.9104 40.4776 19.3433 40.4776H28.0597C29.3731 40.4776 30.5672 39.403 30.5672 37.9701V29.2537C30.5672 27.9403 29.4925 26.7463 28.0597 26.7463H24.9552V21.3731H39.403V26.7463H36.2985C34.9851 26.7463 33.791 27.8209 33.791 29.2537V37.9701C33.791 39.2836 34.8657 40.4776 36.2985 40.4776H45.0149C46.3284 40.4776 47.5224 39.403 47.5224 37.9701V29.2537C47.5224 27.9403 46.4478 26.7463 45.0149 26.7463H41.9104V21.3731H57.5522C58.2687 21.3731 58.7463 20.8955 58.7463 20.1791V13.6119H61.8507C63.1642 13.6119 64.3582 12.5373 64.3582 11.1045V2.50746C64 1.07463 62.9254 0 61.4925 0ZM11.2239 29.1343V37.8507C11.2239 37.8507 11.2239 37.9701 11.1045 37.9701L2.38806 37.8507L2.50746 29.0149L11.2239 29.1343ZM2.38806 11.2239L2.50746 2.38806L11.3433 2.50746V11.2239C11.3433 11.2239 11.3433 11.3433 11.2239 11.3433L2.38806 11.2239ZM28.0597 29.1343V37.8507C28.0597 37.8507 28.0597 37.9701 27.9403 37.9701L19.1045 37.8507L19.2239 29.0149L28.0597 29.1343ZM19.2239 11.2239V2.38806L28.0597 2.50746V11.2239C28.0597 11.2239 28.0597 11.3433 27.9403 11.3433L19.2239 11.2239ZM44.7761 29.1343V37.8507C44.7761 37.8507 44.7761 37.9701 44.6567 37.9701L35.8209 37.8507L35.9403 29.0149L44.7761 29.1343ZM35.9403 11.2239L36.0597 2.38806L44.8955 2.50746V11.2239C44.8955 11.2239 44.8955 11.3433 44.7761 11.3433L35.9403 11.2239ZM61.6119 11.2239H52.7761V2.38806L61.6119 2.50746V11.2239Z" fill="#E24C40"/>
</svg>
