<svg width="64" height="55" viewBox="0 0 64 55" fill="none" xmlns="http://www.w3.org/2000/svg">
<g clip-path="url(#clip0)">
<path fill-rule="evenodd" clip-rule="evenodd" d="M8.1 14.8V0H10.6V14.8H8.1ZM24.2 14.3H32H39.8C44.1 14.3 46.7 16.6 48 18.3L48.6 19.1C49.3 18.1 50.4 17.4 51.8 17.4H54H54.4H56.6C58.6 17.4 60.3 19.1 60.3 21.1C60.3 22.9 59 24.4 57.4 24.7C61.2 27.6 63.4 32.2 61.5 32.9L54 35.4H64C64 40 63.5 45.4 62.5 47.1V52.2C62.5 53.6 61.3 54.8 59.9 54.8H49.8C48.4 54.8 47.2 53.6 47.2 52.2V49.8H32H16.8V52.2C16.8 53.6 15.6 54.8 14.2 54.8H4.1C2.7 54.8 1.5 53.6 1.5 52.2V47.1C0.5 45.3 0 40 0 35.3H9.9L2.4 32.8C0.4 32.1 2.7 27.5 6.5 24.6C4.8 24.2 3.6 22.7 3.6 21C3.6 19 5.3 17.3 7.3 17.3H9.5H10H12.2C13.5 17.3 14.7 18 15.4 19L16 18.2C17.3 16.5 19.9 14.3 24.2 14.3ZM32 16.7H24.2C21.7 16.7 19.5 17.7 17.9 19.7L16 22.3H32H48L46.1 19.8C44.6 17.8 42.4 16.8 39.8 16.8H32V16.7ZM32 24.7H12.6C11.1 24.7 9.6 25.5 8.4 26.3C7.2 27.1 6.1 28.3 5.3 29.4C5.1 29.7 4.7 30.3 4.5 30.8L14.9 34.3L17.4 37.7H2.5C2.6 40 3 45.4 4.2 46.3C5 46.9 6.4 47 7.4 47.1C9.4 47.2 11.5 47.2 13.6 47.1C18.4 44 18.6 39.6 25.5 39.6H32H38.5C45.4 39.6 45.6 43.9 50.4 47.1C52.4 47.1 54.5 47.2 56.6 47.1C57.5 47 59 46.9 59.8 46.3C61 45.4 61.4 40 61.5 37.7H46.6L49.1 34.3L59.5 30.8C59.3 30.3 58.9 29.7 58.7 29.4C57.9 28.2 56.8 27.1 55.6 26.3C54.4 25.4 52.9 24.7 51.4 24.7H32ZM32 42.3H25.5C21 42.3 20 45.6 17.8 47.3H32H46.2C44 45.6 43 42.3 38.5 42.3H32ZM55 19.8H56H56.7C57.4 19.8 57.9 20.4 57.9 21C57.9 21.7 57.3 22.2 56.7 22.2H55H53.4H51.8C51.1 22.2 50.6 21.6 50.6 21C50.6 20.3 51.2 19.8 51.8 19.8H55ZM49.7 49.8H50.4C54.7 49.8 57.8 50 60 49.2V52.2C60 52.3 60 52.4 59.9 52.4H49.8C49.8 52.4 49.7 52.3 49.7 52.2V49.8ZM45.8 35.3H32H18.2L19.9 37.8H32H44.1L45.8 35.3ZM9 19.8H8H7.3C6.6 19.8 6.1 20.4 6.1 21C6.1 21.7 6.7 22.2 7.3 22.2H9H10.6H12.2C12.9 22.2 13.4 21.6 13.4 21C13.4 20.3 12.8 19.8 12.2 19.8H9ZM14.3 49.8H13.6C9.3 49.8 6.2 50 4 49.2V52.2C4 52.3 4 52.4 4.1 52.4H14.2C14.2 52.4 14.3 52.3 14.3 52.2V49.8ZM57.8 14.9V0H60.3V16C59.6 15.4 58.7 15.1 57.8 14.9ZM52.8 14.8V0H55.3V14.8H52.8ZM47.9 14.5V0H50.4V15C49.9 15.1 49.4 15.3 49 15.5C48.6 15.2 48.2 14.8 47.9 14.5ZM42.9 12.1V0H45.4V13C44.6 12.6 43.8 12.3 42.9 12.1ZM37.9 11.8V0H40.4V11.8C40.2 11.8 40 11.8 39.8 11.8H37.9ZM33 11.8V0H35.5V11.8H33ZM28 11.8V0H30.5V11.8H28ZM23 11.8V0H25.5V11.8H24.2C23.8 11.8 23.4 11.8 23 11.8ZM18.1 13.3V0H20.6V12.3C19.7 12.5 18.9 12.9 18.1 13.3ZM13.1 14.9V0H15.6V15C15.4 15.2 15.3 15.3 15.1 15.5C14.5 15.2 13.8 15 13.1 14.9ZM3.2 16.4V0H5.7V15C4.7 15.3 3.9 15.8 3.2 16.4Z" fill="#E24C40"/>
</g>
<defs>
<clipPath id="clip0">
<rect width="64" height="54.8" fill="white"/>
</clipPath>
</defs>
</svg>
