
<svg width="65px" height="54px" viewBox="0 0 65 54" version="1.1" xmlns="http://www.w3.org/2000/svg" xmlns:xlink="http://www.w3.org/1999/xlink">
    <g id="Page-1" stroke="none" stroke-width="1" fill="none" fill-rule="evenodd">
        <g id="Frame" fill="#E24C40" fill-rule="nonzero">
            <path d="M6.80589,4.89551 C4.29843,4.89551 4.29843,8.7164 6.80589,8.7164 C9.31335,8.7164 9.31335,4.89551 6.80589,4.89551 Z" id="Path"></path>
            <path d="M23.6418,4.89551 C21.1344,4.89551 21.1344,8.7164 23.6418,8.7164 C26.0299,8.7164 26.0299,4.89551 23.6418,4.89551 Z" id="Path"></path>
            <path d="M40.3581,4.89551 C37.8507,4.89551 37.8507,8.7164 40.3581,8.7164 C42.8656,8.7164 42.8656,4.89551 40.3581,4.89551 Z" id="Path"></path>
            <path d="M6.80594,35.4627 C9.3134,35.4627 9.3134,31.6418 6.80594,31.6418 C4.41788,31.6418 4.41788,35.4627 6.80594,35.4627 Z" id="Path"></path>
            <path d="M23.6418,35.4627 C26.1493,35.4627 26.1493,31.6418 23.6418,31.6418 C21.1344,31.6418 21.1344,35.4627 23.6418,35.4627 Z" id="Path"></path>
            <path d="M40.3582,35.4627 C42.8656,35.4627 42.8656,31.6418 40.3582,31.6418 C37.9701,31.6418 37.9701,35.4627 40.3582,35.4627 Z" id="Path"></path>
            <path d="M57.1941,8.7164 C59.7015,8.7164 59.7015,4.89551 57.1941,4.89551 C54.6866,4.89551 54.6866,8.7164 57.1941,8.7164 Z" id="Path"></path>
            <path d="M61.4925,0 L52.7761,0 C51.4627,0 50.2687,1.07463 50.2687,2.50746 L50.2687,11.2239 C50.2687,12.5373 51.3433,13.7313 52.7761,13.7313 L55.8806,13.7313 L55.8806,19.1045 L41.5522,19.1045 L41.5522,13.7313 L44.6567,13.7313 C45.9702,13.7313 47.1642,12.6567 47.1642,11.2239 L47.1642,2.50746 C47.1642,1.19403 46.0896,0 44.6567,0 L35.9403,0 C34.6269,0 33.4328,1.07463 33.4328,2.50746 L33.4328,11.2239 C33.4328,12.5373 34.5075,13.7313 35.9403,13.7313 L39.0448,13.7313 L39.0448,19.1045 L24.8358,19.1045 L24.8358,13.7313 L27.9403,13.7313 C29.2537,13.7313 30.4478,12.6567 30.4478,11.2239 L30.4478,2.50746 C30.4478,1.19403 29.3731,0 27.9403,0 L19.2239,0 C17.9104,0 16.7164,1.07463 16.7164,2.50746 L16.7164,11.2239 C16.7164,12.5373 17.791,13.7313 19.2239,13.7313 L22.3284,13.7313 L22.3284,19.1045 L8,19.1045 L8,13.7313 L11.1045,13.7313 C12.4179,13.7313 13.6119,12.6567 13.6119,11.2239 L13.6119,2.50746 C13.6119,1.19403 12.5373,0 11.1045,0 L2.50746,0 C1.07463,0 0,1.07463 0,2.50746 L0,11.2239 C0,12.5373 1.07463,13.7313 2.50746,13.7313 L5.61194,13.7313 L5.61194,26.7463 L2.50746,26.7463 C1.19403,26.7463 0,27.8209 0,29.2537 L0,37.9701 C0,39.2836 1.07463,40.4776 2.50746,40.4776 L11.2239,40.4776 C12.5373,40.4776 13.7313,39.403 13.7313,37.9701 L13.7313,29.2537 C13.7313,27.9403 12.6567,26.7463 11.2239,26.7463 L8,26.7463 L8,21.3731 L22.4478,21.3731 L22.4478,26.7463 L19.3433,26.7463 C18.0299,26.7463 16.8358,27.8209 16.8358,29.2537 L16.8358,37.9701 C16.8358,39.2836 17.9104,40.4776 19.3433,40.4776 L28.0597,40.4776 C29.3731,40.4776 30.5672,39.403 30.5672,37.9701 L30.5672,29.2537 C30.5672,27.9403 29.4925,26.7463 28.0597,26.7463 L24.9552,26.7463 L24.9552,21.3731 L39.403,21.3731 L39.403,26.7463 L36.2985,26.7463 C34.9851,26.7463 33.791,27.8209 33.791,29.2537 L33.791,37.9701 C33.791,39.2836 34.8657,40.4776 36.2985,40.4776 L45.0149,40.4776 C46.3284,40.4776 47.5224,39.403 47.5224,37.9701 L47.5224,29.2537 C47.5224,27.9403 46.4478,26.7463 45.0149,26.7463 L41.9104,26.7463 L41.9104,21.3731 L57.5522,21.3731 C58.2687,21.3731 58.7463,20.8955 58.7463,20.1791 L58.7463,13.6119 L61.8507,13.6119 C63.1642,13.6119 64.3582,12.5373 64.3582,11.1045 L64.3582,2.50746 C64,1.07463 62.9254,0 61.4925,0 Z M11.2239,29.1343 L11.2239,37.8507 C11.2239,37.8507 11.2239,37.9701 11.1045,37.9701 L2.38806,37.8507 L2.50746,29.0149 L11.2239,29.1343 Z M2.38806,11.2239 L2.50746,2.38806 L11.3433,2.50746 L11.3433,11.2239 C11.3433,11.2239 11.3433,11.3433 11.2239,11.3433 L2.38806,11.2239 Z M28.0597,29.1343 L28.0597,37.8507 C28.0597,37.8507 28.0597,37.9701 27.9403,37.9701 L19.1045,37.8507 L19.2239,29.0149 L28.0597,29.1343 Z M19.2239,11.2239 L19.2239,2.38806 L28.0597,2.50746 L28.0597,11.2239 C28.0597,11.2239 28.0597,11.3433 27.9403,11.3433 L19.2239,11.2239 Z M44.7761,29.1343 L44.7761,37.8507 C44.7761,37.8507 44.7761,37.9701 44.6567,37.9701 L35.8209,37.8507 L35.9403,29.0149 L44.7761,29.1343 Z M35.9403,11.2239 L36.0597,2.38806 L44.8955,2.50746 L44.8955,11.2239 C44.8955,11.2239 44.8955,11.3433 44.7761,11.3433 L35.9403,11.2239 Z M61.6119,11.2239 L52.7761,11.2239 L52.7761,2.38806 L61.6119,2.50746 L61.6119,11.2239 Z" id="Shape"></path>
        </g>
        <g id="Group-126" transform="translate(14.000000, 16.000000)">
            <circle id="Oval" fill="#F7F7F7" fill-rule="nonzero" cx="21.1105" cy="15.2944" r="11.6325"></circle>
            <rect id="Rectangle" fill="#F7F7F7" fill-rule="nonzero" transform="translate(9.519819, 26.186885) rotate(40.843700) translate(-9.519819, -26.186885) " x="7.02713379" y="18.8425353" width="4.98537" height="14.6887"></rect>
            <path d="M2.47004,25.4361 L2.46777,25.438 C-0.211529,27.6514 -0.009157,31.5983 2.19625,33.8037 C4.50425,36.1117 8.44825,36.1915 10.6451,33.5322 L10.6469,33.53 L15.2736,27.9068 C17.0688,28.7386 19.0699,29.1746 21.1211,29.1746 C29.0059,29.1746 35.5,22.7762 35.5,14.7958 C35.5,6.8153 29.0889,0.5 21.2042,0.5 C13.2301,0.5 6.82536,6.90474 6.82536,14.8789 C6.82536,16.9949 7.2601,19.0089 8.0934,20.8093 L2.47004,25.4361 Z M15.2229,21.9397 L14.3758,21.375 L13.9772,20.7771 C13.8575,20.5976 13.7398,20.4505 13.6599,20.3506 L13.6511,20.3397 C13.5649,20.2319 13.5208,20.1755 13.4786,20.1123 L13.4652,20.0922 L13.4512,20.0725 C12.3946,18.5933 11.8195,16.8238 11.8195,14.7958 C11.8195,9.7173 15.9746,5.49415 21.1211,5.49415 C26.2752,5.49415 30.4228,9.6418 30.4228,14.7958 C30.4228,19.9573 26.2676,24.0974 21.2042,24.0974 C19.2889,24.0974 17.4141,23.4559 15.8877,22.4383 C15.8245,22.3962 15.7681,22.352 15.6603,22.2658 L15.6494,22.257 C15.5495,22.1771 15.4024,22.0594 15.2229,21.9397 Z M5.70566,29.3314 L11.0034,24.9718 L6.66589,30.2976 C6.66572,30.2978 6.66555,30.298 6.66537,30.2983 C6.63374,30.3365 6.5473,30.4057 6.3481,30.4021 C6.13858,30.3982 5.93574,30.3094 5.81318,30.1868 C5.69062,30.0643 5.60175,29.8614 5.59794,29.6519 C5.5943,29.4516 5.66425,29.3653 5.70238,29.3341 L5.70566,29.3314 Z" id="Shape" stroke="#F7F7F7" stroke-width="3" fill="#E24C40" fill-rule="nonzero"></path>
            <path d="M25.0263,11.3061 L25.0263,8.64722 L23.1983,10.4752 L17.7975,15.876 L16.3019,12.8848 L15.8865,11.9708 L14.8894,12.4693 L12.646,13.5495 C12.6434,13.5755 12.6408,13.6015 12.6382,13.6274 C12.5579,14.4273 12.485,15.1542 12.646,15.9591 L14.8894,14.8789 L16.5512,18.2025 L17.2159,19.5319 L18.2961,18.4518 L22.866,13.8819 L22.866,19.8643 L22.866,20.9445 L23.9462,20.9445 L27.2697,20.9445 C27.9344,20.2797 28.433,19.5319 28.8484,18.7841 L25.0263,18.7841 L25.0263,11.3061 Z" id="Path" fill="#E24C40" fill-rule="nonzero"></path>
            <path d="M25.0263,11.3061 L25.0263,8.64722 L23.1983,10.4752 L17.7975,15.876 L16.3019,12.8848 L15.8865,11.9708 L14.8894,12.4693 L12.646,13.5495 C12.6434,13.5755 12.6408,13.6015 12.6382,13.6274 C12.5579,14.4273 12.485,15.1542 12.646,15.9591 L14.8894,14.8789 L16.5512,18.2025 L17.2159,19.5319 L18.2961,18.4518 L22.866,13.8819 L22.866,19.8643 L22.866,20.9445 L23.9462,20.9445 L27.2697,20.9445 C27.9344,20.2797 28.433,19.5319 28.8484,18.7841 L25.0263,18.7841 L25.0263,11.3061 Z" id="Path" stroke="#F7F7F7"></path>
        </g>
    </g>
</svg>