<svg width="62" height="64" viewBox="0 0 62 64" fill="none" xmlns="http://www.w3.org/2000/svg">
<path d="M21.6058 14.3321H21.1058V14.8321V20.7883V21.2883H21.6058H40.8759H41.3759V20.7883V14.8321V14.3321H40.8759H21.6058ZM40.8759 22.6241H21.6058C20.5973 22.6241 19.77 21.7968 19.77 20.7883V14.8321C19.77 13.8236 20.5973 12.9963 21.6058 12.9963H40.8759C41.8844 12.9963 42.7116 13.8236 42.7116 14.8321V20.7883C42.7116 21.7968 41.8844 22.6241 40.8759 22.6241Z" fill="#E24C40" stroke="#E24C40"/>
<path d="M27.5 32.5V31.5H34.5V32.5H27.5Z" fill="#E24C40" stroke="#E24C40"/>
<path d="M34.5 58.5V57.5H44.5V58.5H34.5Z" fill="#E24C40" stroke="#E24C40"/>
<path d="M17.5 58.5V57.5H27.5V58.5H17.5Z" fill="#E24C40" stroke="#E24C40"/>
<path d="M30.281 2.33577V0.5H31.6168V2.33577V2.83577H32.1168H35.3869C37.7796 2.83577 40.8801 3.37958 43.3636 4.64955C45.8431 5.91746 47.6168 7.85236 47.6168 10.6277V12.0292V12.5292H48.1168H49.8686C50.8772 12.5292 51.7044 13.3564 51.7044 14.365V20.7883C51.7044 21.7969 50.8772 22.6241 49.8686 22.6241H48.1168H47.6168V23.1241V30.2482C47.6168 32.9081 46.5096 35.3473 44.6208 37.125L44.4635 37.273V37.4891V37.7226C44.4635 37.7373 44.4647 37.7629 44.4663 37.7987C44.4806 38.1152 44.5308 39.2272 44.1324 40.6218L43.9574 41.2343L44.5939 41.2588C46.0925 41.3164 48.9461 41.5475 51.7771 42.2516C54.6353 42.9626 57.3401 44.125 58.6894 45.9569C60.5747 48.6214 61.0474 52.7113 61.0183 56.2879C61.0039 58.0612 60.8668 59.6783 60.733 60.8827C60.6661 61.4846 60.6001 61.9828 60.5507 62.3464C60.5426 62.4058 60.5349 62.4621 60.5276 62.5149C60.5129 62.6223 60.5002 62.7151 60.4904 62.7899C60.482 62.8537 60.4725 62.9267 60.4673 62.9889L60.3396 63.5H1.20792L1.08015 62.9889C1.07498 62.9266 1.06543 62.8536 1.05703 62.7897C1.04686 62.7124 1.0336 62.6159 1.01821 62.5041C1.01138 62.4544 1.00413 62.4017 0.996545 62.3462C0.946826 61.9828 0.880358 61.4849 0.812561 60.8838C0.676889 59.6808 0.53621 58.067 0.514579 56.3005C0.470926 52.7354 0.915866 48.6758 2.74311 46.071C4.1439 44.1341 7.00697 42.998 10.0323 42.2991L10.609 42.1837C13.5048 41.6046 16.1573 41.3759 17.2847 41.3759H17.9476L17.7655 40.7386C17.367 39.344 17.4172 38.232 17.4316 37.9155C17.4332 37.8797 17.4343 37.8541 17.4343 37.8394V37.4891V37.273L17.277 37.125C15.3882 35.3473 14.281 32.9081 14.281 30.2482V23.1241V22.6241H13.781H12.0292C11.0207 22.6241 10.1934 21.7969 10.1934 20.7883V14.365C10.1934 13.3564 11.0207 12.5292 12.0292 12.5292H13.781H14.281V12.0292V10.6277C14.281 7.85236 16.0548 5.91746 18.5342 4.64955C21.0177 3.37958 24.1183 2.83577 26.511 2.83577H29.781H30.281V2.33577ZM43.5621 42.5949H43.2945L43.146 42.8175C43.0938 42.8959 43.0498 42.9657 43.0085 43.0313C42.9359 43.1464 42.8717 43.2483 42.7862 43.3594C42.6665 43.515 42.5461 43.6278 42.4041 43.6988L42.3034 43.7491L42.234 43.8378C40.2506 46.3721 36.7881 47.8609 32.0563 48.438L31.6168 48.4916V48.9343V61.781V62.281H32.1168H46.0146H46.3952L46.4966 61.9142L51.4017 44.1624L51.5382 43.6684L51.041 43.5441C48.1918 42.8318 45.1138 42.5949 43.5621 42.5949ZM42.6078 40.9827L42.6171 40.9641L42.6248 40.9448C42.7335 40.6731 42.8189 40.4007 42.8947 40.1588C42.9065 40.1212 42.918 40.0844 42.9294 40.0484C43.0173 39.77 43.0947 39.5419 43.1918 39.3477L43.8626 38.0061L42.5209 38.6769C41.1919 39.3414 39.7507 39.6752 38.1898 39.6752H24.0584C22.4975 39.6752 21.0563 39.3414 19.7273 38.6769L18.8916 38.2591L19.0075 39.1861C19.1318 40.1801 19.507 41.6896 20.7631 43.0747C22.8736 45.553 26.3007 46.8594 31.0283 47.2139L31.0657 47.2167L31.1031 47.2139C35.8348 46.8591 39.2636 45.5508 41.3737 43.0684L41.3785 43.0627L41.3832 43.0569C41.8703 42.4479 42.2454 41.8285 42.5001 41.1981L42.6078 40.9827ZM50.3686 14.365V13.865H49.8686H48.1168H47.6168V14.365V20.7883V21.2883H48.1168H49.8686H50.3686V20.7883V14.365ZM11.646 20.7883V21.2883H12.146H13.8978H14.3978V20.7883V14.365V13.865H13.8978H12.146H11.646V14.365V20.7883ZM18.5795 36.454L18.5893 36.4631L18.5996 36.4717C20.0825 37.7074 21.9455 38.4562 23.9416 38.4562H38.1898C42.6703 38.4562 46.3978 34.7287 46.3978 30.2482V20.7883V14.365V10.6277C46.3978 8.28883 44.6229 6.67059 42.4907 5.6646C40.3397 4.64967 37.666 4.17153 35.5037 4.17153H32.2336H29.8978H26.6278C24.4654 4.17153 21.7917 4.64967 19.6407 5.6646C17.5086 6.67059 15.7336 8.28883 15.7336 10.6277V14.365V20.7883V30.2482C15.7336 32.6263 16.8583 34.8558 18.5795 36.454ZM18.8686 42.8175L18.7202 42.5949H18.4526H17.9854C16.5465 42.5949 13.8232 42.8327 11.2177 43.4248L10.7141 43.5393L10.8447 44.0389L15.5163 61.9075L15.6139 62.281H16H29.781H30.281V61.781V49.0511V48.6084L29.8416 48.5548C25.1306 47.9803 21.7604 46.3813 19.6485 43.936L19.6366 43.9221L19.6236 43.9092C19.4856 43.7712 19.3621 43.6013 19.2381 43.4085C19.1824 43.3217 19.1293 43.2348 19.0744 43.145L19.0562 43.1152C18.9963 43.0172 18.9332 42.9144 18.8686 42.8175ZM9.47621 44.2522L9.34514 43.7547L8.85163 43.8999C7.83287 44.1995 6.83373 44.5919 5.97684 45.0662C5.12787 45.5362 4.38438 46.1054 3.9142 46.7752C2.4208 48.8315 1.9241 51.9397 1.83602 54.7875C1.74716 57.6609 2.07238 60.3817 2.31033 61.7499L2.38239 62.1642H2.80294H13.5475H14.1963L14.031 61.5368L9.47621 44.2522ZM47.9849 61.5321L47.8118 62.1642H48.4672H58.7445H59.1651L59.2371 61.7499C59.4751 60.3817 59.8003 57.6609 59.7115 54.7875C59.6233 51.938 59.1261 48.8278 57.6307 46.7716L57.6259 46.7651L57.621 46.7587C56.7108 45.5885 55.076 44.7319 53.2968 44.1388L52.796 43.9719L52.6565 44.481L47.9849 61.5321Z" fill="#E24C40" stroke="#E24C40"/>
</svg>
