<svg width="64" height="64" viewBox="0 0 64 64" fill="none" xmlns="http://www.w3.org/2000/svg">
<path d="M19.3 24.1001L21 26.6001H43L44.7001 24.1001H32H19.3Z" fill="#E24C40"/>
<path d="M61.5 41.1V35.8C62.6 34 63 28.7 63 24H53L60.5 21.5C62.5 20.8 59.7 17.7 56.4 15.7C58.1 15.3 59.4 13.8 59.4 12C59.4 9.90002 57.7 8.20002 55.6 8.20002H50.7C49.4 8.20002 48.2 8.90002 47.5 10L46.9 9.20002C44.9 6.60002 41.8 5.10002 38.6 5.20002H25.4C22.2 5.10002 19.1 6.60002 17.1 9.20002L16.5 10C15.8 8.90002 14.6 8.20002 13.3 8.20002H8.4C6.3 8.20002 4.6 9.90002 4.6 12C4.6 13.8 5.9 15.3 7.6 15.7C4.3 17.6 1.5 20.8 3.5 21.5L11 24H1C1 28.7 1.4 34 2.5 35.8V41.1H0V58.6H2.5V43.6H17.9V56.1H32H46.1V43.7H61.5V58.7H64V41.1H61.5ZM50.7 10.9H53.9H55.6C56.3 10.9 56.8 11.5 56.9 12.2C56.9 12.9 56.3 13.4 55.6 13.5H50.7C50 13.5 49.5 12.9 49.4 12.2C49.5 11.4 50 10.9 50.7 10.9ZM19.1 10.8C20.6 8.80002 22.9 7.70002 25.4 7.80002H32H38.6C41.1 7.70002 43.4 8.80002 44.9 10.8L46.8 13.3H17.1L19.1 10.8ZM7.1 12.1C7.1 11.4 7.7 10.8 8.4 10.8H10.1H13.3C14 10.8 14.6 11.4 14.6 12.1C14.6 12.8 14 13.3 13.3 13.4H8.4C7.7 13.4 7.1 12.8 7.1 12.1ZM15.4 41C15.4 41.1 15.3 41.2 15.3 41.2H5.1C5 41.1 5 41.1 5 41V38C7.1 38.8 10.3 38.6 14.6 38.6H15.3V41H15.4ZM46.1 41.1H43.6V53.6H20.4V41.1H17.9V38.6H46.1V41.1ZM18.9 36.1C21.1 34.4 22.1 31.1 26.7 31.1H32H37.3C41.8 31.1 42.9 34.4 45.1 36.1H18.9ZM59 41C59 41.1 59 41.2 58.9 41.2H48.7C48.7 41.2 48.6 41.1 48.6 41V38.6H49.3C53.7 38.6 56.8 38.8 58.9 38V41H59ZM58.7 35.3C57.7 35.8 56.6 36.1 55.5 36.1C53.5 36.2 51.3 36.1 49.3 36.1C44.5 32.9 44.3 28.6 37.3 28.6H26.7C19.8 28.6 19.6 33 14.7 36.1C12.6 36.2 10.5 36.2 8.5 36.1C7.4 36.1 6.3 35.8 5.3 35.3C4 34.3 3.7 28.9 3.5 26.5H18.5L16 23.1L6.2 19.9C8.8 17.2 12.5 15.8 16.2 15.9H32H47.8C51.5 15.8 55.2 17.2 57.8 19.9L48 23.1L45.5 26.6H60.5C60.4 28.9 60 34.3 58.7 35.3Z" fill="#E24C40"/>
</svg>
