
<svg width="55px" height="66px" viewBox="0 0 55 66" version="1.1" xmlns="http://www.w3.org/2000/svg" xmlns:xlink="http://www.w3.org/1999/xlink">
    <g id="Page-1" stroke="none" stroke-width="1" fill="none" fill-rule="evenodd">
        <g id="services_9" transform="translate(1.000000, 1.000000)" fill="#E24C40" fill-rule="nonzero" stroke="#E24C40" stroke-width="0.5">
            <path d="M50.8934,60.8409 C48.6806,62.3619 47.8654,61.5429 46.235,60.1389 C43.5564,57.5649 40.5284,55.8098 34.0066,60.9579 C31.7938,62.4789 30.9786,61.6599 29.3481,60.1389 C26.6695,57.5649 23.6416,55.8098 17.1198,60.9579 C14.907,62.4789 14.0918,61.6599 12.4613,60.1389 C9.89918,57.5649 6.98766,55.6928 0.465853,60.9579 C1.00043e-05,61.3089 -0.116451,62.1279 0.232932,62.5959 C0.582314,63.0639 1.39754,63.1809 1.86338,62.8299 C7.33704,58.3839 9.08395,60.0219 11.0638,61.8939 C12.1119,62.8299 13.393,64.117 15.2564,64.117 C16.1881,64.117 17.3527,63.766 18.6337,62.9469 C24.1074,58.5009 25.8543,60.1389 27.8341,62.0109 C28.8823,62.9469 30.1634,64.234 32.0267,64.234 C32.9584,64.234 34.123,63.883 35.4041,63.0639 C40.8778,58.6179 42.6247,60.2559 44.6045,62.1279 C45.6527,63.0639 46.9337,64.351 48.7971,64.351 C49.7288,64.351 50.8934,64 52.1745,63.1809 C52.7568,62.8299 52.8732,62.1279 52.5238,61.5429 C52.1745,60.6069 51.4757,60.4899 50.8934,60.8409 Z" id="Path"></path>
            <path d="M1.86338,55.6929 C7.33704,51.2469 9.08395,52.8849 11.0638,54.7569 C12.1119,55.6929 13.393,56.98 15.2564,56.98 C16.1881,56.98 17.3527,56.6289 18.6337,55.8099 C24.1074,51.4809 25.8543,53.0019 27.8341,54.8739 C28.8823,55.8099 30.1634,57.097 32.0267,57.097 C32.9584,57.097 34.123,56.7459 35.4041,55.9269 C40.8778,51.4809 42.6247,53.1189 44.6045,54.9909 C45.6527,55.9269 46.9337,57.214 48.7971,57.214 C49.7288,57.214 50.8934,56.863 52.1745,56.0439 C52.7568,55.6929 52.8732,54.9909 52.5238,54.4059 C52.1745,53.8209 51.4757,53.7039 50.8934,54.0549 C48.6806,55.5759 47.8654,54.7569 46.235,53.3529 C43.5564,50.7789 40.5284,49.0238 34.0066,54.0549 C31.7938,55.5759 30.9786,54.7569 29.3481,53.3529 C26.6695,50.7789 23.6416,49.0238 17.1198,54.0549 C14.907,55.5759 14.0918,54.7569 12.4613,53.3529 C9.89918,50.5449 6.98766,48.6728 0.465853,53.9379 C1.00043e-05,54.2889 -0.116451,55.1079 0.232932,55.5759 C0.698775,56.0439 1.39754,56.1609 1.86338,55.6929 Z" id="Path"></path>
            <path d="M1.86338,48.6728 C7.33704,44.3437 9.08395,45.8647 11.0638,47.7368 C12.1119,48.6728 13.393,49.9598 15.2564,49.9598 C16.1881,49.9598 17.3527,49.6088 18.6337,48.7898 C19.216,48.4388 19.3325,47.7368 18.9831,47.1517 C18.6337,46.5667 17.935,46.4497 17.3527,46.8007 C15.1399,48.3218 14.3247,47.5028 12.6942,46.0987 C9.89918,43.5247 6.98766,41.6527 0.465853,46.9177 C1.0008e-05,47.2687 -0.116451,48.0878 0.232932,48.5558 C0.698775,49.0238 1.39754,49.1408 1.86338,48.6728 Z" id="Path"></path>
            <path d="M50.8934,46.8007 C48.6807,48.3218 47.8655,47.5028 46.235,46.0987 C43.44,43.5247 40.5284,41.6527 34.0066,46.9177 C33.5408,47.2687 33.4243,48.0878 33.7737,48.5558 C34.1231,49.0238 34.9383,49.1408 35.4042,48.7898 C40.8778,44.4607 42.6247,45.9817 44.6046,47.8538 C45.6527,48.7898 46.9338,50.0768 48.7972,50.0768 C49.7288,50.0768 50.8934,49.7258 52.1745,48.9068 C52.7568,48.5558 52.8733,47.8538 52.5239,47.2688 C52.1745,46.5667 51.4757,46.4497 50.8934,46.8007 Z" id="Path"></path>
            <path d="M1.86338,41.7696 C7.33704,37.3236 9.08395,38.9616 11.0638,40.8336 C12.1119,41.7697 13.393,43.0567 15.2564,43.0567 C16.1881,43.0567 17.3527,42.7057 18.6337,41.8867 C19.216,41.5356 19.3325,40.8336 18.9831,40.2486 C18.6337,39.6636 17.935,39.5466 17.3527,39.8976 C15.1399,41.4186 14.3247,40.5996 12.6942,39.1956 C9.89918,36.5046 6.98766,34.6325 0.465853,39.8976 C1.0008e-05,40.2486 -0.116451,41.0676 0.232932,41.5356 C0.698775,42.0037 1.39754,42.1207 1.86338,41.7696 Z" id="Path"></path>
            <path d="M35.5206,41.7697 C40.9943,37.3236 42.7412,38.9617 44.721,40.8337 C45.7692,41.7697 47.0502,43.0567 48.9136,43.0567 C49.8453,43.0567 51.0099,42.7057 52.291,41.8867 C52.8733,41.5357 52.9897,40.8337 52.6404,40.2487 C52.291,39.6637 51.5922,39.5467 51.0099,39.8977 C48.7971,41.4187 47.9819,40.5997 46.3515,39.1957 C43.5564,36.6216 40.6449,34.7496 34.1231,40.0147 C33.6572,40.3657 33.5408,41.1847 33.8902,41.6527 C34.2395,42.0037 35.0548,42.1207 35.5206,41.7697 Z" id="Path"></path>
            <path d="M15.8386,30.6545 C15.8386,30.7786 15.8386,31.1225 15.8386,31.8245 C15.8386,32.5265 15.8386,32.7116 15.8388,32.9945 L22.1275,32.9945 L22.1275,37.4406 C20.4971,38.7276 19.4489,40.5996 19.4489,42.7057 C19.4489,46.3327 22.4769,49.3748 26.0872,49.3748 C29.6975,49.3748 32.7255,46.3327 32.7255,42.7057 C32.7255,40.5996 31.7938,38.6106 30.0469,37.4406 L30.0469,3.97806 C30.0469,1.75503 28.2999,0 26.0872,0 C23.8744,0 22.1275,1.75503 22.1275,3.97806 L22.1275,11.2322 L15.8386,11.2322 C15.8386,11.2322 15.8386,11.7002 15.8386,12.4022 C15.8386,13.1042 15.8386,13.301 15.8386,13.5722 L22.1275,13.5722 L22.1275,20.9433 L15.8386,20.9433 C15.8386,21.2865 15.8386,21.4113 15.8386,22.1133 C15.8386,22.8154 15.8386,23.2834 15.8386,23.2834 L22.1275,23.2834 L22.1275,30.6545 L15.8386,30.6545 Z M23.8744,38.9616 C24.2238,38.7276 24.4567,38.3766 24.4567,37.9086 L24.4567,3.97806 C24.4567,3.04205 25.1555,2.34004 26.0872,2.34004 C27.0189,2.34004 27.7176,3.04205 27.7176,3.97806 L27.7176,38.0256 C27.7176,38.4936 27.9506,38.8446 28.2999,39.0786 C29.581,39.8976 30.3962,41.3016 30.3962,42.8227 C30.3962,45.1627 28.4164,47.1517 26.0872,47.1517 C23.758,47.1517 21.7781,45.1627 21.7781,42.8227 C21.7781,41.1846 22.5934,39.7806 23.8744,38.9616 Z" id="Shape"></path>
        </g>
        <g id="Group-127" transform="translate(8.000000, 25.000000)">
            <circle id="Oval" fill="#F7F7F7" fill-rule="nonzero" cx="21.1105" cy="15.2944" r="11.6325"></circle>
            <rect id="Rectangle" fill="#F7F7F7" fill-rule="nonzero" transform="translate(9.519819, 26.186885) rotate(40.843700) translate(-9.519819, -26.186885) " x="7.02713379" y="18.8425353" width="4.98537" height="14.6887"></rect>
            <path d="M2.47004,25.4361 L2.46777,25.438 C-0.211529,27.6514 -0.009157,31.5983 2.19625,33.8037 C4.50425,36.1117 8.44825,36.1915 10.6451,33.5322 L10.6469,33.53 L15.2736,27.9068 C17.0688,28.7386 19.0699,29.1746 21.1211,29.1746 C29.0059,29.1746 35.5,22.7762 35.5,14.7958 C35.5,6.8153 29.0889,0.5 21.2042,0.5 C13.2301,0.5 6.82536,6.90474 6.82536,14.8789 C6.82536,16.9949 7.2601,19.0089 8.0934,20.8093 L2.47004,25.4361 Z M15.2229,21.9397 L14.3758,21.375 L13.9772,20.7771 C13.8575,20.5976 13.7398,20.4505 13.6599,20.3506 L13.6511,20.3397 C13.5649,20.2319 13.5208,20.1755 13.4786,20.1123 L13.4652,20.0922 L13.4512,20.0725 C12.3946,18.5933 11.8195,16.8238 11.8195,14.7958 C11.8195,9.7173 15.9746,5.49415 21.1211,5.49415 C26.2752,5.49415 30.4228,9.6418 30.4228,14.7958 C30.4228,19.9573 26.2676,24.0974 21.2042,24.0974 C19.2889,24.0974 17.4141,23.4559 15.8877,22.4383 C15.8245,22.3962 15.7681,22.352 15.6603,22.2658 L15.6494,22.257 C15.5495,22.1771 15.4024,22.0594 15.2229,21.9397 Z M5.70566,29.3314 L11.0034,24.9718 L6.66589,30.2976 C6.66572,30.2978 6.66555,30.298 6.66537,30.2983 C6.63374,30.3365 6.5473,30.4057 6.3481,30.4021 C6.13858,30.3982 5.93574,30.3094 5.81318,30.1868 C5.69062,30.0643 5.60175,29.8614 5.59794,29.6519 C5.5943,29.4516 5.66425,29.3653 5.70238,29.3341 L5.70566,29.3314 Z" id="Shape" stroke="#F7F7F7" stroke-width="3" fill="#E24C40" fill-rule="nonzero"></path>
            <path d="M25.0263,11.3061 L25.0263,8.64722 L23.1983,10.4752 L17.7975,15.876 L16.3019,12.8848 L15.8865,11.9708 L14.8894,12.4693 L12.646,13.5495 C12.6434,13.5755 12.6408,13.6015 12.6382,13.6274 C12.5579,14.4273 12.485,15.1542 12.646,15.9591 L14.8894,14.8789 L16.5512,18.2025 L17.2159,19.5319 L18.2961,18.4518 L22.866,13.8819 L22.866,19.8643 L22.866,20.9445 L23.9462,20.9445 L27.2697,20.9445 C27.9344,20.2797 28.433,19.5319 28.8484,18.7841 L25.0263,18.7841 L25.0263,11.3061 Z" id="Path" fill="#E24C40" fill-rule="nonzero"></path>
            <path d="M25.0263,11.3061 L25.0263,8.64722 L23.1983,10.4752 L17.7975,15.876 L16.3019,12.8848 L15.8865,11.9708 L14.8894,12.4693 L12.646,13.5495 C12.6434,13.5755 12.6408,13.6015 12.6382,13.6274 C12.5579,14.4273 12.485,15.1542 12.646,15.9591 L14.8894,14.8789 L16.5512,18.2025 L17.2159,19.5319 L18.2961,18.4518 L22.866,13.8819 L22.866,19.8643 L22.866,20.9445 L23.9462,20.9445 L27.2697,20.9445 C27.9344,20.2797 28.433,19.5319 28.8484,18.7841 L25.0263,18.7841 L25.0263,11.3061 Z" id="Path" stroke="#F7F7F7"></path>
        </g>
    </g>
</svg>