<svg width="30" height="64" viewBox="0 0 30 64" fill="none" xmlns="http://www.w3.org/2000/svg">
<g clip-path="url(#clip0)">
<path d="M19.7834 61.2945C22 61.4636 21.5 63.7463 21.5 64C21.5 64 21.8124 64 22.4888 64H28.0687C30 64.5 29.3369 64.2733 29.3369 62.7318C29.3369 57.9973 26.0396 53.1783 19.7834 53.1783C18.3461 53.1783 18.3461 51.9947 18.3461 51.741V50.4729H18.5997C19.2761 50.4729 19.8679 49.8811 19.8679 49.2047V47.9365H25.2787C27.0542 47.9365 28.576 46.4993 28.576 44.6393C28.576 43.6248 28.0687 42.6948 27.3078 42.103V8.36984C28.0687 7.77803 28.576 6.84804 28.576 5.83351C28.4914 3.97353 27.0542 2.53628 25.2787 2.53628H19.8679V-1.30896C19.8679 -1.98532 19.2761 -4.80413e-05 18.5997 -4.80413e-05H9.89168C9.21532 -4.80413e-05 9.89168 -0.132733 8.62351 -0.000168085V2.53628H3.29723C1.43725 2.53628 0 3.97353 0 5.83351C0 6.84804 0.507266 7.77803 1.26816 8.36984V42.103C0.507266 42.6948 0 43.6248 0 44.6393C0 46.4147 1.43725 47.9365 3.29723 47.9365H8.70806V49.2047C8.70806 49.8811 9.29987 50.4729 9.97622 50.4729H10.2299V51.741C10.2299 56.4755 13.5271 61.2945 19.7834 61.2945ZM19.7834 55.7146C24.0106 55.7146 26.2087 58.5046 26.716 61.4636H23.5878C23.1651 59.9418 21.8124 58.7582 19.7834 58.7582C14.9643 58.7582 12.7662 55.1228 12.7662 51.741V50.4729H15.8098V51.741C15.8098 53.6856 17.1625 55.7146 19.7834 55.7146ZM3.80449 9.13073H19.6988V19.5297C20 19.5297 20.2906 19.5297 20.967 19.5297C21.6433 19.5297 22 19.5297 22.2351 19.5297V9.13073H24.7715V41.4266H3.80449V9.13073ZM3.29723 5.07261H9.97622H18.5997H25.2787C25.7015 5.07261 26.0396 5.41078 26.0396 5.83351C26.0396 6.25623 25.7015 6.5944 25.2787 6.5944H3.29723C2.8745 6.5944 2.53633 6.25623 2.53633 5.83351C2.53633 5.41078 2.8745 5.07261 3.29723 5.07261ZM2.53633 44.6393C2.53633 44.2166 2.8745 43.8784 3.29723 43.8784H25.2787C25.7015 43.8784 26.0396 44.2166 26.0396 44.6393C26.0396 45.062 25.7015 45.4002 25.2787 45.4002H18.5997H9.89168H3.29723C2.8745 45.4002 2.53633 45.062 2.53633 44.6393Z" fill="#E24C40"/>
</g>
<defs>
<clipPath id="clip0">
<rect width="29.3369" height="64" fill="white"/>
</clipPath>
</defs>
</svg>
