<svg width="16" height="16" viewBox="0 0 16 16" fill="none" xmlns="http://www.w3.org/2000/svg">
<path d="M0 7.9602C0 12.3383 3.58209 15.9204 7.9602 15.9204C12.3383 15.9204 15.9204 12.3383 15.9204 7.9602C15.9204 6.36816 15.4428 4.77612 14.5672 3.58209L13.5323 4.77612C13.9303 5.49254 14.2488 6.36816 14.408 7.24378H12.8955V8.83582H14.3284C13.9303 11.7015 11.7015 14.01 8.75622 14.408V12.8159H7.16418V14.408C4.29851 14.01 1.99005 11.7811 1.59204 8.83582H3.18408V7.16418H1.59204C1.99005 4.29851 4.21891 1.99005 7.16418 1.59204V3.18408H8.75622V1.67164C9.63184 1.75124 10.5075 2.06965 11.2239 2.54726L12.4179 1.35323C11.1443 0.477612 9.63184 0 7.9602 0C3.58209 0 0 3.58209 0 7.9602Z" fill="#F8CF51"/>
<path d="M6.20892 5.01489L5.01489 6.20892L7.96017 9.15419L15.7612 1.4328L14.5671 0.23877L7.96017 6.84573L6.20892 5.01489Z" fill="#F8CF51"/>
</svg>
