<svg width="44" height="15" viewBox="0 0 44 15" fill="none" xmlns="http://www.w3.org/2000/svg">
<rect width="43.2677" height="14.0732" fill="white"/>
<path d="M18.782 13.8997H15.21L17.4569 0.231934H20.9713L18.782 13.8997Z" fill="#999999"/>
<path d="M12.2716 0.231934L8.93005 9.61405L8.52676 7.58705L7.31688 1.44813C7.31688 1.44813 7.20165 0.231934 5.6461 0.231934H0.0576132L0 0.463591C0 0.463591 1.7284 0.811077 3.68725 2.02728L6.74075 13.8997H10.428L16.0165 0.289848H12.2716V0.231934Z" fill="#999999"/>
<path d="M40.0413 13.8997H43.2676L40.4446 0.231934H37.6215C36.2964 0.231934 36.0084 1.27439 36.0084 1.27439L30.708 13.8997H34.3952L35.1442 11.8727H39.638L40.0413 13.8997ZM36.1236 9.03491L37.9672 3.93845L39.0042 9.03491H36.1236Z" fill="#999999"/>
<path d="M30.9959 3.53277L31.4568 0.579142C31.4568 0.579142 29.9012 0 28.2881 0C26.5597 0 22.3539 0.752885 22.3539 4.51731C22.3539 8.05008 27.251 8.10799 27.251 9.90333C27.251 11.7566 22.8724 11.4091 21.4321 10.2508L20.9136 13.3203C20.9136 13.3203 22.4691 14.0732 24.8889 14.0732C27.3086 14.0732 30.9383 12.799 30.9383 9.38211C30.9383 5.84934 25.9835 5.50185 25.9835 3.99608C26.0411 2.49031 29.4979 2.66405 30.9959 3.53277Z" fill="#999999"/>
<path d="M8.46912 7.58705L7.31686 1.44813C7.31686 1.44813 7.20163 0.231934 5.64608 0.231934H0.057613L0 0.463591C0 0.463591 2.6502 1.04273 5.24279 3.12765C7.72015 5.09674 8.46912 7.58705 8.46912 7.58705Z" fill="#C7C7C7"/>
</svg>
