<svg width="28" height="29" viewBox="0 0 28 29" fill="none" xmlns="http://www.w3.org/2000/svg">
<path fill-rule="evenodd" clip-rule="evenodd" d="M14 28.1463C21.732 28.1463 28 21.8456 28 14.0732C28 6.30077 21.732 0 14 0C6.26801 0 0 6.30077 0 14.0732C0 21.8456 6.26801 28.1463 14 28.1463Z" fill="#3E6FA1"/>
<path fill-rule="evenodd" clip-rule="evenodd" d="M15.1193 17.3544C15.1554 16.7955 15.406 15.9257 16.0324 16.4001C16.4109 16.6875 16.7112 17.1038 17.0513 17.4692C17.3832 17.8251 17.7793 18.1361 18.5172 18.117C18.9548 18.1057 20.2117 18.1475 20.5391 18.0276C21.5286 17.6667 19.7754 16.0174 19.3473 15.6483C19.1671 15.4931 18.9652 15.272 18.8108 15.1077C18.6197 14.9047 18.5281 14.6991 18.6798 14.3809L19.3432 13.4429C19.5397 13.2273 20.2663 12.1827 20.442 11.8967C20.6949 11.4845 21.2138 10.6742 20.545 10.5443C20.1688 10.4712 18.9476 10.5393 18.4829 10.5425C17.5675 10.5484 17.7535 10.4467 17.3019 11.4949C17.0011 12.1923 16.0726 13.8356 15.5804 14.0231C14.6677 14.3709 15.3817 11.0432 14.9969 10.4676C14.7634 10.1185 13.6813 10.1621 13.1751 10.1689C12.5871 10.1762 11.7742 10.2075 11.6026 10.695C11.6549 10.74 11.5976 10.7096 11.6992 10.7513C11.7724 10.7813 11.8866 10.7881 12.0108 10.8548C12.121 10.9134 12.2213 11.0165 12.2786 11.1091C12.5559 11.5549 12.5225 13.433 12.2931 13.8883C11.8636 14.739 10.609 12.3489 10.394 11.923C10.0869 11.3152 9.96635 10.7241 9.61861 10.5729C9.36661 10.464 7.93815 10.5248 7.55383 10.5312C7.20202 10.5366 6.89853 10.5925 7.03221 11.0115C7.0995 11.2226 7.25937 11.5199 7.35602 11.7328C7.9517 13.0471 8.88293 14.6605 9.70351 15.7537C10.6298 16.9871 11.9991 18.0798 13.7301 18.0939C14.9734 18.1039 15.0673 18.1593 15.1193 17.3544Z" fill="white"/>
</svg>
