<svg viewBox="0 0 50 60" fill="none" xmlns="http://www.w3.org/2000/svg">
<path d="M37.6121 26.7025C37.6121 19.6572 31.7494 13.9242 24.5432 13.9242C17.3371 13.9242 11.4744 19.6572 11.4744 26.7025C11.4744 33.7477 17.3371 39.4807 24.5432 39.4807C31.7494 39.4807 37.6121 33.7491 37.6121 26.7025ZM14.2419 26.7025C14.2419 21.1481 18.8633 16.629 24.5446 16.629C30.2258 16.629 34.8471 21.1481 34.8471 26.7025C34.8471 32.2568 30.2258 36.7759 24.5446 36.7759C18.862 36.7759 14.2419 32.2581 14.2419 26.7025ZM36.7391 44.7937C44.1049 40.647 49.0863 32.8883 49.0863 23.9975C49.0863 10.765 38.0771 0 24.5432 0C11.0105 0 0 10.765 0 23.9976C0 32.9034 4.99918 40.6757 12.3868 44.8169L6.00176 55.6297C5.38522 56.6732 5.32522 57.7699 5.83806 58.636C6.34954 59.5035 7.35076 60.0001 8.58385 60.0001H40.5556C41.7887 60.0001 42.7885 59.5022 43.3013 58.636C43.8128 57.7699 43.7528 56.6731 43.1376 55.6297L36.7391 44.7937ZM2.76624 23.9976C2.76624 12.2573 12.5355 2.70496 24.5432 2.70496C36.5508 2.70496 46.3201 12.2573 46.3201 23.9976C46.3201 35.7378 36.5508 45.2902 24.5432 45.2902C12.5355 45.2902 2.76624 35.7393 2.76624 23.9976ZM40.5556 57.2951H8.58257C8.43932 57.2951 8.33697 57.2788 8.27152 57.261C8.28925 57.1969 8.32615 57.1014 8.39705 56.9814L14.8571 46.0405C17.8308 47.294 21.1031 47.9951 24.5418 47.9951C27.9969 47.9951 31.2828 47.2858 34.2674 46.0214L40.7397 56.9814C40.8107 57.1029 40.8475 57.197 40.8652 57.261C40.8012 57.2788 40.6989 57.2951 40.5556 57.2951Z" fill="white"/>
</svg>
