<svg viewBox="0 0 78 54" fill="none" xmlns="http://www.w3.org/2000/svg">
<path d="M67.7369 0.315918H34.8947C30.0053 0.315918 26.0315 3.60014 24.9517 8.11585H18.8843C12.7264 8.11585 7.38967 11.8106 5.33694 17.1475L0.410498 29.4631C0 30.2844 0 30.6946 0 31.5159V39.3158C0 41.9472 1.85149 44.2831 4.27342 45.1248C5.06988 50.0307 9.20789 53.6842 14.3684 53.6842C19.4097 53.6842 23.5026 50.207 24.4303 45.4737H26.684H49.464C50.3919 50.2072 54.4849 53.6842 59.526 53.6842C64.5671 53.6842 68.6602 50.207 69.5879 45.4737H71.8416C75.1258 45.4737 77.9995 42.6 77.9995 39.3158V10.5791C78 4.83163 73.4841 0.315918 67.7369 0.315918V0.315918ZM14.3684 49.579C11.0841 49.579 8.21043 46.7052 8.21043 43.421C8.21043 40.1368 11.0841 37.2631 14.3684 37.2631C17.6526 37.2631 20.5263 40.1368 20.5263 43.421C20.5263 46.7052 17.6526 49.579 14.3684 49.579ZM14.3684 33.1579C9.87719 33.1579 6.17021 35.933 4.74974 39.8822C4.61008 39.5949 4.51571 39.2788 4.51571 38.9051V31.1051L9.44216 18.7893C11.0841 14.684 14.7789 12.2208 18.8843 12.2208H24.6318V41.3683H24.4305C23.5026 36.6351 19.4097 33.1579 14.3684 33.1579V33.1579ZM59.5262 49.579C56.242 49.579 53.3683 46.7052 53.3683 43.421C53.3683 40.1368 56.242 37.2631 59.5262 37.2631C62.8104 37.2631 65.6841 40.1368 65.6841 43.421C65.6841 46.7052 62.8104 49.579 59.5262 49.579V49.579ZM73.8948 39.3158C73.8948 40.5473 73.0738 41.3685 71.8421 41.3685H69.5883C68.6605 36.6351 64.5675 33.1581 59.5264 33.1581C54.4853 33.1581 50.3921 36.6353 49.4645 41.3685H28.737V10.5791C28.737 7.29485 31.6107 4.42113 34.8949 4.42113H67.7371C71.0213 4.42113 73.895 7.29485 73.895 10.5791V39.3158H73.8948Z" fill="white"/>
</svg>
