<svg viewBox="0 0 59 54" fill="none" xmlns="http://www.w3.org/2000/svg">
<path d="M7.375 47.9375H53.4688V11.0625H45.0258V40.5759H7.375V47.9375Z" fill="white"/>
<path d="M19.6157 42.2422L7 36.3862V43H19.6921L19.6157 42.2422ZM45 20.0585V10H38.501L45 20.0585Z" fill="white"/>
<path d="M32.5313 29.6228V23.846L20.3321 11.0833V7.45607H36.6717L59 42.3854V53.4688H52.198L49.9799 51.991V53.4688H43.8434L0.0739281 33.3172H2.36591L43.9173 52.5284H49.0927L16.2657 33.25H0V7.45607H4.06642L12.1992 14.2404V3.69445H8.05889V0H20.2582L26.2469 7.45607H23.4373L20.2582 3.69445H16.1917V18.5394H20.2582L32.5313 29.6228ZM20.6278 29.6228H29.1303L20.3321 22.2339H9.90726L20.6278 29.6228ZM20.3321 32.2425V30.496L8.13283 22.1667V18.4722H12.2732V15.4495L4.14034 8.53083V29.4884H16.3396L20.3321 32.2425ZM36.0063 33.25H22.1065L52.4937 52.4612H57.2256L36.0063 33.25ZM36.6717 9.2697V32.6455L57.9649 51.7895V42.6541L36.6717 9.2697ZM32.5313 22.5026V11.0833H21.7368L32.5313 22.5026Z" fill="white"/>
</svg>
