<svg  viewBox="0 0 399 74" fill="none" xmlns="http://www.w3.org/2000/svg">
<path d="M269.519 55.6838H277.332L273.578 35.3766H265.257L262.009 46.4031L258.762 35.3766H250.543L246.788 55.6838H254.805L256.124 43.8302L259.676 55.6838H264.546L268.098 43.8302L269.519 55.6838ZM283.319 55.6838H298.54V50.1705H291.234V48.0571H297.729V42.9114H291.234V40.8898H298.337V35.3766H283.319V55.6838ZM308.688 55.6838H316.704V41.9925H321.169V35.3766H304.02V42.0844H308.688V55.6838ZM374.038 55.6838H382.663L386.519 41.6249L390.375 55.6838H399.001L390.984 35.2847H382.054L374.038 55.6838ZM348.162 55.6838H356.686L360.643 41.6249L364.499 55.6838H373.023L365.006 35.2847H355.975L348.162 55.6838ZM332.839 48.2408L334.767 41.5331L336.593 48.2408H332.839ZM322.286 55.6838H330.809L331.52 53.1109H337.811L338.623 55.6838H347.045L339.13 35.2847H330.099L322.286 55.6838Z" fill="#2D3493"/>
<path d="M17.9596 43.3709V35.8361L17.2493 35.6523L16.5389 35.4685L15.8286 35.2848L15.1183 35.101L14.408 35.0091L13.6976 34.9172L12.9873 34.8253H12.277L11.1608 34.9172L10.0445 35.0091L8.92831 35.2848L7.81209 35.5604L6.79734 36.0199L5.78259 36.4793L4.86932 37.0306L4.05752 37.6738L3.24572 38.4089L2.5354 39.2359L1.92654 40.1548L1.41917 41.0737L1.01327 42.0844L0.708847 43.1871L0.5059 44.3816L0.404419 45.5762L0.5059 46.587L0.607373 47.5977L0.81032 48.5166L1.11475 49.4354L1.52065 50.3543L2.02802 51.1813L2.5354 51.9164L3.14425 52.6515L3.85457 53.2947L4.5649 53.938L5.37669 54.4893L6.18849 54.9487L7.20324 55.3163L8.21799 55.6838L9.23274 55.8676L10.349 56.0514L10.5519 56.1433H10.7549L10.9578 56.2352H11.3637L11.5667 56.327H11.8711H12.074H12.277H12.9873L13.6976 56.2352L14.408 56.1433L15.1183 56.0514L15.8286 55.8676L16.5389 55.6838L17.2493 55.5L17.9596 55.3163L18.1625 47.5977L17.5537 47.9653L17.0463 48.3328L16.4375 48.7004L15.7271 49.0679L15.1183 49.2517L14.408 49.4354L13.6976 49.5273L12.9873 49.6192H12.8858L12.7844 49.5273L12.6829 49.4354H12.5814L11.7696 49.3436L11.0593 49.0679L10.4504 48.7004L9.94306 48.2409L9.53716 47.6896L9.23274 47.0464L9.02979 46.3113L8.92831 45.5762L9.02979 44.7492L9.23274 44.0141L9.63864 43.3709L10.146 42.8196L10.7549 42.3601L11.5667 41.9926L12.3785 41.8088L13.2917 41.7169L14.0021 41.8088L14.6109 41.9007L15.2198 42.0844L15.8286 42.2682L16.336 42.5439L16.8434 42.9114L17.3507 43.279L17.9596 43.3709ZM24.454 55.6838H39.8782V50.1706H32.4705V48.0571H38.9649V42.9114H32.4705V40.8899H39.5737V35.3766H24.454V55.6838ZM46.5755 55.6838H57.2304L58.651 55.5919L59.9702 55.4081L61.2894 55.0406L62.6085 54.5812L63.7248 53.938L64.638 53.111L65.3484 52.1002L65.7543 50.8138V50.5381L65.8557 50.1706V50.0787V49.8949L65.7543 48.976L65.5513 48.149L65.1454 47.4139L64.638 46.7707L63.9277 46.3113L63.1159 45.8518L62.2026 45.4843L61.1879 45.2086L61.8982 45.0249L62.6085 44.6573L63.1159 44.2898L63.6233 43.8303L64.0292 43.279L64.3336 42.6358L64.5365 41.9926L64.638 41.2575V40.8899L64.4351 39.6035L63.9277 38.4089L63.2174 37.4901L62.3041 36.755L61.2894 36.1117L60.0717 35.7442L58.7525 35.4685L57.3318 35.3766H46.474V55.6838H46.5755ZM54.0846 47.4139H54.795H55.3023L55.8097 47.5058L56.3171 47.5977L56.8245 47.6896L57.2304 47.8734L57.6363 48.149L57.8392 48.5166L57.9407 48.976L57.8392 49.4354L57.6363 49.803L57.2304 50.0787L56.8245 50.2625L56.3171 50.3543L55.8097 50.4462L55.3023 50.5381H54.795H54.592H54.3891H54.1861H54.0846V47.4139ZM57.4333 41.8088L57.3318 42.1763L57.1289 42.452L56.723 42.6358L56.2156 42.8196L55.7082 42.9114L55.2009 43.0033L54.6935 43.0952H54.2876L54.1861 43.0033H54.0846H53.9832V40.1548H54.795H55.2009L55.6068 40.2467L56.0127 40.3386L56.4186 40.5224L56.723 40.7061L56.9259 40.9818L57.1289 41.3493L57.2304 41.8088H57.4333ZM81.3814 35.2848L80.9755 35.1929L80.5696 35.101L80.1637 35.0091H79.7578L79.3519 34.9172H78.8445H78.4386H78.0327H77.3224L76.5106 35.0091L75.6988 35.101L74.887 35.1929L74.0752 35.3766L73.2634 35.4685L72.4516 35.6523L71.6398 35.8361L71.5383 41.1656L71.9442 41.0737L72.3501 40.9818L72.756 40.8899L73.1619 40.798L73.6693 40.7061L74.1767 40.6143L74.684 40.5224L75.1914 40.4305H75.3944H75.6988H76.0032H76.2062H76.6121L77.018 40.5224L77.3224 40.6143L77.6268 40.7061L77.8298 40.798L78.0327 40.8899L78.2357 41.0737L78.3371 41.1656L78.2357 41.4412L78.1342 41.8088L78.0327 42.0844L77.8298 42.3601L77.5253 42.6358L77.1194 42.8196L76.6121 42.9114L76.0032 43.0033H75.9017L75.6988 42.9114L75.4958 42.8196H75.2929H72.4516V47.2302H75.9017L76.6121 47.322L77.2209 47.4139L77.7283 47.5977L78.1342 47.7815L78.3371 47.9653L78.5401 48.2409L78.6416 48.5166V48.8841L78.5401 49.0679L78.3371 49.2517L78.0327 49.4354L77.6268 49.6192L77.2209 49.803L76.7135 49.8949L76.3076 50.0787H75.8003H75.6988L75.5973 49.9868H75.2929H74.7855L74.2781 49.8949L73.7708 49.803L73.2634 49.7111L72.756 49.5273L72.2486 49.3436L71.7413 49.1598L71.3354 48.976L71.4368 54.8568L72.1472 55.0406L72.959 55.2244L73.7708 55.4081L74.5826 55.5919L75.3944 55.7757L76.3076 55.8676L77.2209 55.9595H78.1342L79.6563 55.8676L81.077 55.6838L82.4976 55.3163L83.8168 54.7649L84.933 54.0298L85.9478 53.111L86.6581 52.0083L87.1655 50.7219V50.4462V50.0787V49.8949L87.064 48.976L86.861 48.0571L86.4551 47.322L85.9478 46.6788L85.2374 46.1275L84.4256 45.6681L83.6138 45.3924L82.5991 45.2086L83.4109 44.933L84.1212 44.5654L84.6286 44.106L85.136 43.5546L85.5419 42.9114L85.7448 42.1763L85.9478 41.4412L86.0492 40.7061L85.9478 39.7872L85.7448 38.8684L85.4404 38.1333L84.933 37.3982L84.3242 36.755L83.5124 36.2036L82.4976 35.6523L81.3814 35.2848ZM119.434 55.6838H127.552V40.8899H132.322V55.6838H140.541V35.3766H119.434V55.6838ZM100.357 48.2409L102.285 41.5331L104.112 48.2409H100.357ZM89.8038 55.6838H98.4292L99.241 53.0191H105.532L106.243 55.6838H114.665L106.852 35.2848H97.9218L89.8038 55.6838Z" fill="#2D3493"/>
<path d="M178.391 45.0248L223.75 71.6722L223.852 72.3155H215.734L156.879 45.1167H178.391V45.0248ZM177.579 4.50232V26.004H183.262L200.817 41.9006V14.61H184.378V10.8426L189.452 10.7507L183.972 4.50232H177.579ZM205.282 44.9329V11.6696L206.195 11.7614L236.029 58.1647L235.927 72.4073L227.201 72.3155L185.393 45.7599V45.0248L205.282 44.9329ZM160.836 41.2574V10.6588L173.013 20.8583V26.004H167.838V29.8633L183.972 29.9552L197.469 41.2574H184.175V44.6573H183.465L177.782 41.2574H160.836Z" fill="white"/>
<path d="M200.411 40.5225V32.6201L183.668 15.1615V10.1995H206.094L236.739 57.9812V73.1426H227.403L224.359 71.1211V73.1426H215.937L155.864 45.5763H159.009L216.038 71.8562H223.142L178.087 45.4844H155.762V10.1995H161.343L172.506 19.4802V5.05382H166.823V0H183.566L191.786 10.1995H187.93L183.566 5.05382H177.985V25.361H183.566L200.411 40.5225ZM184.074 40.5225H195.743L183.668 30.4148H169.36L184.074 40.5225ZM183.668 44.1061V41.717L166.924 30.3229V25.2691H172.607V21.1342L161.445 11.6698V40.3387H178.188L183.668 44.1061ZM205.18 45.4844H186.103L227.809 71.7643H234.304L205.18 45.4844ZM206.094 12.6805V44.6574L235.319 70.8454V58.3487L206.094 12.6805ZM200.411 30.7824V15.1615H185.596L200.411 30.7824Z" fill="#2D3393"/>
<path d="M183.668 58.1649L166.925 50.3545V59.1757H183.77L183.668 58.1649ZM217.358 28.5771V15.1615H208.733L217.358 28.5771Z" fill="#2F479D"/>
<path d="M166.925 65.7916H228.419V15.1615H217.155V55.684H166.925V65.7916Z" fill="#2D3493"/>
<path d="M5.27669 32.5283V29.9555L4.76932 29.8636H4.26194L3.75457 29.7717L3.34867 29.6798L2.94277 29.5879L2.63835 29.496L2.23245 29.3122L2.0295 29.1285L1.52212 28.7609L1.11622 28.3934L0.710322 28.0258L0.507375 27.6583L0.405894 27.3826L0.30442 27.1069L0.202947 26.9232L0.101473 26.6475L0 26.3719V26.1881V26.0043V25.8205V25.453L0.101473 25.0854L0.202947 24.7179L0.30442 24.3503L0.405894 23.9828L0.507375 23.7071L0.710322 23.5233L0.913268 23.3395L1.11622 23.1558L1.31917 22.972L1.52212 22.7882L1.72507 22.6963L1.92802 22.5126L2.13097 22.4207L2.33392 22.3288L2.53687 22.2369L2.84129 22.145L3.2472 22.0531L3.55162 21.9612L3.85604 21.8693H4.16047H4.36342H4.56637H5.27669V19.2046H5.47964H8.01651V21.8693H8.52389L9.03126 21.9612L9.53864 22.0531L9.94454 22.145L10.3504 22.2369L10.7563 22.3288L11.0608 22.5126L11.3652 22.6044L11.8726 22.972L12.2785 23.3395L12.5829 23.7071L12.8873 24.1665L12.9888 24.3503L13.0903 24.5341L13.1917 24.7179V24.9016L13.2932 25.0854V25.2692V25.453V25.6367V25.8205V26.0043V26.1881V26.3719L13.1917 26.5556V26.7394V26.9232L13.0903 27.1069L12.9888 27.2907L12.8873 27.4745L12.7858 27.7502L12.5829 27.9339L12.3799 28.1177L12.177 28.3015L11.974 28.4853L11.6696 28.669L11.3652 28.8528L11.0608 29.0366L10.6549 29.2203L10.249 29.3122L9.84307 29.4041L9.33569 29.496L8.82832 29.5879L8.32094 29.6798V32.1608H8.118H5.27669V32.5283ZM5.27669 28.3934V23.5233L4.76932 23.6152L4.36342 23.7071L3.95752 23.8909L3.55162 24.1665L3.45014 24.3503L3.34867 24.5341L3.2472 24.7179L3.14572 24.9016L3.04425 25.0854L2.94277 25.2692L2.84129 25.453V25.7286V26.0043L2.94277 26.28L3.04425 26.5556L3.14572 26.7394L3.2472 26.9232L3.34867 27.1069L3.45014 27.2907L3.55162 27.4745L3.85604 27.7502L4.16047 27.9339L4.56637 28.1177L4.97227 28.2096H5.07375H5.17522H5.27669H5.37817H5.47964L5.58112 28.3015L5.27669 28.3934ZM7.91504 23.5233V28.3934H8.01651L8.118 28.3015L8.21947 28.2096H8.32094H8.42242H8.32094L8.42242 28.1177L8.82832 28.0258L9.13275 27.842L9.53864 27.6583L9.84307 27.3826L9.94454 27.1988L10.046 27.015L10.1475 26.8313L10.249 26.6475L10.3504 26.3719L10.4519 26.1881L10.5534 25.9124V25.6367V25.3611L10.3504 25.2692L10.249 25.0854L10.1475 24.9016L10.046 24.7179L9.94454 24.5341L9.84307 24.3503L9.74159 24.1665L9.53864 24.0747L9.33569 23.8909L9.13275 23.799L8.92979 23.7071L8.72684 23.6152L8.42242 23.5233L8.21947 23.4314H7.91504V23.5233ZM17.2507 26.8313L20.3965 22.145H20.5994H23.2378V29.6798H23.0348H20.5994V24.9935L17.4537 29.6798H17.2507H14.7139V22.145H14.9168H17.2507V26.8313Z" fill="#2F479D"/>
<path d="M25.3675 22.145H27.6V22.8801L27.7014 22.7882L27.8029 22.6963L27.9044 22.6044L28.0059 22.5125L28.1074 22.4206L28.2088 22.3287L28.3103 22.2369H28.4118L28.7162 22.0531L28.9192 21.8693L29.2236 21.7774L29.4265 21.6855H29.7309L29.9339 21.5936H30.1368H30.2383H30.3398H30.7457L31.1516 21.6855L31.456 21.7774L31.7604 21.8693L31.9634 21.9612L32.1663 22.0531L32.3693 22.145L32.5722 22.3287L32.9781 22.6963L33.2826 23.0638L33.4855 23.4314L33.6885 23.7989L33.7899 24.1665L33.8914 24.5341L33.9929 24.9016L34.0944 25.1772V25.4529L34.1958 25.6367V25.8205V25.9124V26.3718L34.0944 26.8312L33.9929 27.2907L33.8914 27.6582L33.6885 28.0258L33.4855 28.3933L33.2826 28.669L33.0796 28.9447L32.7752 29.2203L32.4708 29.4041L32.1663 29.5879L31.8619 29.6797L31.456 29.7716L31.0501 29.8635L30.6442 29.9554H30.2383H30.1368H30.0354H29.9339H29.8324L29.7309 29.8635H29.6295L29.4265 29.7716L29.1221 29.6797L28.8177 29.5879L28.6147 29.496L28.4118 29.4041L28.2088 29.2203L28.0059 29.0365V32.3445H27.6H25.2661V22.145H25.3675ZM27.8029 25.9124V26.0961V26.3718L27.9044 26.5556V26.7394L28.0059 26.9231L28.1074 27.1069L28.2088 27.2907L28.3103 27.4744L28.5133 27.842L28.8177 28.0258L29.2236 28.2096L29.7309 28.3014L30.1368 28.2096L30.4413 28.1177L30.6442 28.0258L30.8472 27.842L31.0501 27.6582L31.1516 27.4744L31.2531 27.2907L31.3545 27.1069L31.456 26.9231L31.5575 26.7394L31.659 26.5556V26.3718V26.188V26.0961V26.0042V25.9124V25.5448V25.2691L31.5575 24.9935L31.456 24.7178L31.3545 24.5341L31.2531 24.3503L31.1516 24.1665L31.0501 24.0746L30.8472 23.7989L30.5427 23.6152L30.3398 23.4314L30.0354 23.3395L29.9339 23.2476H29.8324H29.6295H29.528H29.4265H29.325L29.2236 23.3395H29.1221L29.0206 23.4314L28.9192 23.5233L28.8177 23.6152L28.6147 23.707L28.4118 23.7989L28.2088 23.9827L28.0059 24.1665L27.9044 24.3503L27.8029 24.5341L27.7014 24.7178L27.6 24.9016V25.0854L27.4985 25.2691V25.5448V25.9124H27.8029ZM40.3858 29.6797L38.2548 24.8097V29.6797H38.1534H35.718V22.145H35.9209H39.1681L41.1976 27.2907L43.43 22.145H43.633H46.8802V29.6797H46.6772H44.3433V24.8097L42.2124 29.6797H42.1109H40.3858ZM51.3451 24.5341H49.0112V24.4422V24.3503V24.2584V24.3503V24.2584V24.1665V24.0746V23.9827L49.1126 23.6152L49.3156 23.2476L49.62 22.8801L50.0259 22.5125L50.2289 22.3287L50.4318 22.145L50.7362 22.0531L51.1421 21.9612L51.548 21.8693L51.9539 21.7774L52.3598 21.6855H52.8672H53.0702H53.4761H53.882L54.1864 21.7774L54.5923 21.8693L54.7952 21.9612L55.0997 22.0531L55.3026 22.145L55.5056 22.2369L55.81 22.5125L56.1144 22.6963L56.3174 22.9719L56.5203 23.2476L56.6218 23.4314L56.7233 23.6152L56.8247 23.7989V23.8908V24.0746L56.9262 24.1665V24.3503V24.4422V24.5341V24.6259V24.7178V24.8097L56.8247 28.2096V28.3014V28.3933V28.4852V28.5771V28.669V28.7609V28.8528V29.0365L56.9262 29.2203V29.4041V29.496L57.0277 29.6797L57.1292 29.7716L57.2306 29.8635H57.3321V30.0473H57.1292H54.5923L54.3893 29.4041L54.2879 29.496L54.1864 29.5879L54.0849 29.6797L53.9834 29.7716L53.882 29.8635L53.7805 29.9554L53.679 30.0473L53.5775 30.1392L53.2731 30.2311L52.9687 30.323L52.7657 30.4149H52.5628H51.9539H51.751L51.6495 30.5068H51.548H51.4466H51.1421H50.8377L50.6348 30.4149L50.3303 30.323L50.1274 30.2311L49.9244 30.1392L49.7215 30.0473L49.5185 29.9554L49.2141 29.7716L49.0112 29.5879L48.8082 29.3122L48.7067 29.0365V28.9447L48.6053 28.8528L48.5038 28.7609V28.669V28.5771V28.0258V27.9339V27.842V27.5663L48.6053 27.2907L48.7067 27.015L48.8082 26.8312L49.0112 26.6475L49.2141 26.4637L49.4171 26.2799L49.62 26.188L49.823 26.0961L50.1274 25.9124L50.3303 25.8205L50.6348 25.7286L51.0407 25.6367L51.3451 25.5448H51.751L52.1569 25.4529L52.2584 25.361H52.3598H52.4613H52.5628H52.6643L52.7657 25.2691L52.8672 25.1772H52.9687H53.2731L53.4761 25.0854L53.679 24.9935L53.7805 24.9016L53.882 24.8097L53.9834 24.7178L54.0849 24.5341V24.3503V24.2584V24.1665V24.0746V24.3503V24.2584V24.1665V24.0746V23.9827V23.8908L53.9834 23.7989L53.882 23.707L53.7805 23.6152L53.679 23.5233L53.5775 23.4314L53.4761 23.3395L53.2731 23.2476L53.0702 23.1557L52.8672 23.0638H52.6643H52.5628H52.4613H52.3598L52.2584 23.1557H52.1569L52.0554 23.2476L51.9539 23.3395H51.8525L51.751 23.4314L51.548 23.5233L51.4466 23.6152L51.3451 23.7989L51.2436 23.9827L51.1421 24.1665V24.3503H51.3451V24.5341ZM54.1864 26.6475V26.188L54.0849 26.2799H53.9834H53.882L53.7805 26.3718H53.679H53.5775L53.4761 26.4637L53.3746 26.5556H53.2731H53.1716H53.0702H52.9687H52.8672H52.7657L52.6643 26.6475H52.5628H52.9687H52.8672H52.7657L52.6643 26.7394H52.5628H52.4613H52.3598H52.2584H52.1569L52.0554 26.8312L51.9539 26.9231H51.8525L51.6495 27.015L51.548 27.1069L51.3451 27.1988L51.2436 27.2907L51.1421 27.3826L51.0407 27.4744L50.9392 27.6582V27.842V28.0258L51.0407 28.2096L51.1421 28.3014L51.2436 28.3933L51.3451 28.4852L51.548 28.5771L51.751 28.669H51.9539H52.0554H52.1569H52.2584V28.7609H52.3598L52.4613 28.669H52.5628H52.6643L52.7657 28.5771L52.8672 28.4852H52.9687L53.0702 28.3933L53.2731 28.3014L53.4761 28.2096L53.5775 28.0258L53.679 27.842L53.7805 27.6582L53.882 27.4744L53.9834 27.1988L54.1864 26.6475Z" fill="#2F479D"/>
</svg>
