<svg width="31" height="31" viewBox="0 0 31 31" fill="none" xmlns="http://www.w3.org/2000/svg">
<g clip-path="url(#clip0)">
<path d="M27.5025 4.21656H21.8171V1.47399C21.8171 0.66129 21.1557 0 20.3431 0H3.49742C2.68459 0 2.02344 0.66129 2.02344 1.47399V25.3097C2.02344 26.1224 2.68459 26.7837 3.49749 26.7837H9.18288V29.5261C9.18288 30.3388 9.84403 31.0001 10.6569 31.0001H27.5025C28.3152 31.0001 28.9766 30.3388 28.9766 29.5261V5.69055C28.9765 4.87771 28.3152 4.21656 27.5025 4.21656ZM3.49742 25.5202C3.38164 25.5202 3.28687 25.4257 3.28687 25.3097V1.47399C3.28687 1.35786 3.38164 1.26344 3.49742 1.26344H20.3431C20.4591 1.26344 20.5537 1.35786 20.5537 1.47399V4.21656V25.3097C20.5537 25.4257 20.4591 25.5202 20.3431 25.5202H3.49742ZM27.7131 29.5253C27.7131 29.642 27.6185 29.7357 27.5025 29.7357H10.6569C10.5411 29.7357 10.4463 29.6419 10.4463 29.5253V26.8701H20.3431C21.1558 26.8701 21.8172 26.2087 21.8172 25.396V25.3088V24.949H24.8346C25.1834 24.949 25.4664 24.6664 25.4664 24.3172C25.4664 23.9681 25.1834 23.6855 24.8346 23.6855H21.8172V20.5973H24.8346C25.1834 20.5973 25.4664 20.3147 25.4664 19.9656C25.4664 19.6164 25.1834 19.3339 24.8346 19.3339H21.8172V16.1753H24.8346C25.1834 16.1753 25.4664 15.8927 25.4664 15.5436C25.4664 15.1944 25.1834 14.9119 24.8346 14.9119H21.8172V11.8779H22.6582C23.007 11.8779 23.2899 11.5953 23.2899 11.2462C23.2899 10.897 23.007 10.6145 22.6582 10.6145H21.8172V5.48H27.5025C27.6185 5.48 27.7131 5.57435 27.7131 5.69055V29.5253ZM4.93522 6.31712C4.93522 5.9679 5.21814 5.6854 5.56694 5.6854H15.8146C16.1634 5.6854 16.4463 5.96796 16.4463 6.31712C16.4463 6.66627 16.1634 6.94884 15.8146 6.94884H5.56694C5.21821 6.94884 4.93522 6.66627 4.93522 6.31712ZM18.6227 10.6145C18.6227 10.9637 18.3398 11.2463 17.991 11.2463H5.56694C5.21821 11.2463 4.93522 10.9637 4.93522 10.6145C4.93522 10.2653 5.21814 9.98281 5.56694 9.98281H17.991C18.3398 9.98281 18.6227 10.2653 18.6227 10.6145ZM18.6227 15.0365C18.6227 15.3856 18.3398 15.6682 17.991 15.6682H5.56694C5.21821 15.6682 4.93522 15.3856 4.93522 15.0365C4.93522 14.6873 5.21814 14.4048 5.56694 14.4048H17.991C18.3398 14.4048 18.6227 14.6873 18.6227 15.0365ZM18.6227 19.3882C18.6227 19.7374 18.3398 20.0199 17.991 20.0199H5.56694C5.21821 20.0199 4.93522 19.7373 4.93522 19.3882C4.93522 19.039 5.21814 18.7565 5.56694 18.7565H17.991C18.3398 18.7565 18.6227 19.0394 18.6227 19.3882Z" fill="#546580"/>
</g>
<defs>
<clipPath id="clip0">
<rect width="31" height="31" fill="white"/>
</clipPath>
</defs>
</svg>
