<svg width="27" height="27" viewBox="0 0 27 27" fill="none" xmlns="http://www.w3.org/2000/svg">
<g clip-path="url(#clip0)">
<path d="M7.98948 14.0071C7.67929 14.3171 7.67929 14.82 7.98948 15.13L12.9258 20.0664C13.0807 20.2215 13.2842 20.299 13.4873 20.299C13.6904 20.299 13.8939 20.2215 14.049 20.0664L18.9853 15.13C19.2943 14.8208 19.2955 14.3198 18.9874 14.0094C18.6793 13.6985 18.1837 13.6956 17.8722 14.0023L14.292 17.5285V0.794111C14.292 0.355494 13.9266 0 13.4882 0C13.0496 0 12.6844 0.355494 12.6844 0.794111V17.5876L9.10801 14.0071C8.79782 13.6969 8.29967 13.6969 7.98948 14.0071Z" fill="#546580"/>
<path d="M17.0809 4.13521C16.6624 4.00119 16.2161 4.23179 16.0825 4.64891C15.9485 5.06665 16.1785 5.51375 16.5962 5.64776C20.7996 6.9959 23.6242 10.8703 23.6242 15.2889C23.6242 20.8707 19.0832 25.4118 13.5012 25.4118C7.91944 25.4118 3.37829 20.8707 3.37829 15.2889C3.37829 10.8703 6.20258 6.99592 10.4062 5.64776C10.8238 5.51375 11.0537 5.06665 10.9199 4.64891C10.7857 4.23137 10.338 4.0014 9.92108 4.13521C5.05772 5.6951 1.79004 10.1773 1.79004 15.2888C1.79004 21.7464 7.04363 27 13.5012 27C19.9588 27 25.2124 21.7464 25.2124 15.2888C25.2124 10.1773 21.9445 5.6951 17.0809 4.13521Z" fill="#546580"/>
</g>
<defs>
<clipPath id="clip0">
<rect width="27" height="27" fill="white"/>
</clipPath>
</defs>
</svg>
