<?xml version="1.0" encoding="UTF-8"?>
<!DOCTYPE svg PUBLIC "-//W3C//DTD SVG 1.1//EN" "http://www.w3.org/Graphics/SVG/1.1/DTD/svg11.dtd">
<svg xmlns="http://www.w3.org/2000/svg" xmlns:xlink="http://www.w3.org/1999/xlink">
<symbol id="arrow_left" viewBox="0 0 20.019 30.99">
	<path fill-rule="evenodd" d="M20.019 30.99l-15.7-15.495L20.019 0h-4.317L0 15.496 15.702 30.99h4.317z" clip-rule="evenodd"/>
</symbol>
<symbol id="arrow_right" viewBox="0 0 20.019 30.99">
	<path fill-rule="evenodd" d="M4.317 30.99l15.701-15.495L4.317 0H0l15.7 15.496L0 30.99h4.317z" clip-rule="evenodd"/>
</symbol>
<symbol id="close" viewBox="0 0 371.23 371.23">
	<path d="M371.23 21.213L350.018 0 185.615 164.402 21.213 0 0 21.213l164.402 164.402L0 350.018l21.213 21.212 164.402-164.402L350.018 371.23l21.212-21.212-164.402-164.403z"/>
</symbol>
<symbol id="flac_location" viewBox="0 0 26 31">
	<path d="M0 31V0h26v25H7l-7 6z"/>
	<path fill="#FFF" d="M12.016 18.889c-.272.047-.588.08-.948.096s-.7.023-1.02.023c-.752 0-1.46-.127-2.124-.383a4.433 4.433 0 0 1-1.728-1.201c-.488-.543-.873-1.236-1.152-2.076-.28-.84-.42-1.836-.42-2.988 0-1.088.14-2.06.42-2.916.28-.855.68-1.579 1.2-2.172a5.183 5.183 0 0 1 1.86-1.355c.72-.313 1.52-.468 2.4-.468.208 0 .468.008.78.023.312.017.556.04.732.072V3.48h1.992v2.137a4.57 4.57 0 0 1 1.02-.145c.392-.015.716-.023.972-.023.768 0 1.479.14 2.136.42a4.752 4.752 0 0 1 1.716 1.248c.488.552.867 1.247 1.141 2.088.271.84.407 1.812.407 2.916 0 1.136-.155 2.136-.468 3-.313.863-.732 1.584-1.26 2.159a5.103 5.103 0 0 1-1.848 1.297 5.926 5.926 0 0 1-2.256.432c-.177 0-.438-.012-.781-.035s-.604-.068-.779-.133v2.4h-1.992v-2.352zm-1.608-1.56h.324c.136 0 .284-.004.444-.012.16-.008.315-.023.468-.049a3.01 3.01 0 0 0 .396-.084V7.225a6.75 6.75 0 0 0-.708-.072c-.28-.016-.532-.023-.756-.023-.544 0-1.052.107-1.524.324a3.363 3.363 0 0 0-1.237.983c-.352.44-.628.988-.828 1.645-.2.656-.3 1.416-.3 2.279 0 .769.088 1.461.264 2.076.176.616.428 1.141.756 1.572.328.432.72.76 1.176.984s.964.336 1.525.336zm5.303-10.2c-.224 0-.512.008-.863.023-.352.017-.641.064-.863.145v9.959c.159.033.371.053.635.061.265.008.524.012.78.012.544 0 1.052-.104 1.524-.313a3.392 3.392 0 0 0 1.248-.959c.359-.432.644-.976.852-1.632s.313-1.424.313-2.304c0-.736-.084-1.412-.252-2.028s-.408-1.147-.721-1.596a3.15 3.15 0 0 0-1.14-1.021 3.258 3.258 0 0 0-1.513-.347z"/>
</symbol>
<symbol id="flac_location_map" viewBox="0 0 132 63">
	<path fill="#68ac02" d="M0 63V0h132v52H14L0 63z"/>
	<g fill="#FFF">
		<path d="M15.572 28.683v-8.32c0-.82.146-1.535.439-2.146.293-.609.669-1.113 1.128-1.508s.989-.698 1.589-.908 1.199-.339 1.794-.388v-1.128h2.402l.029 1.128c.576.039 1.16.166 1.75.381s1.121.52 1.589.916.854.899 1.157 1.508c.303.611.454 1.326.454 2.146v8.32c0 .82-.151 1.528-.454 2.124s-.693 1.094-1.172 1.495c-.479.4-1.013.705-1.604.914a6.943 6.943 0 0 1-1.75.389v1.553H20.55v-1.553c-.615-.02-1.218-.141-1.809-.365s-1.121-.537-1.589-.938c-.469-.401-.85-.899-1.143-1.495s-.437-1.305-.437-2.125zm2.285-.006c0 .842.21 1.507.63 1.996s1.108.773 2.065.852V17.491c-.781.078-1.426.362-1.934.852s-.762 1.154-.762 1.996v8.338zm5.069 2.847c.742-.039 1.377-.313 1.904-.822s.791-1.184.791-2.025v-8.338c0-.842-.269-1.517-.806-2.025s-1.167-.783-1.89-.822v14.032zM28.316 33.895c.42-.283.767-.555 1.04-.813a2.97 2.97 0 0 0 .645-.887c.156-.332.266-.738.33-1.215.063-.479.095-1.079.095-1.802v-8.846h7.881v14.824h-2.373V22.413h-3.311v6.856c0 .94-.055 1.745-.165 2.415-.109.671-.293 1.255-.553 1.755-.259.498-.597.924-1.015 1.275s-.924.668-1.52.951l-1.054-1.77zM40.694 35.157V20.333h2.314v9.697h.059l4.351-9.697h2.373v14.824h-2.373v-9.755h-.059l-4.38 9.755h-2.285zM52.208 35.157V20.362h2.373v6.431h1.021c.263 0 .532-.022.81-.065.277-.045.54-.14.788-.286s.477-.366.686-.659c.21-.293.377-.679.504-1.157l1.128-4.263h2.285l-1.166 4.293c-.196.725-.46 1.33-.793 1.819-.332.488-.758.816-1.275.982.661.156 1.145.495 1.451 1.017.307.522.557 1.149.752 1.881l1.28 4.802h-2.314l-1.025-4.086c-.117-.476-.266-.866-.445-1.172s-.39-.538-.628-.698-.503-.27-.795-.327a4.561 4.561 0 0 0-.905-.088h-1.357v6.372h-2.375zM69.566 28.683v-8.32c0-.82.146-1.535.439-2.146.293-.609.669-1.113 1.128-1.508s.989-.698 1.589-.908a7.23 7.23 0 0 1 1.795-.388v-1.128h2.402l.029 1.128c.576.039 1.159.166 1.75.381s1.121.52 1.59.916.854.899 1.157 1.508c.303.611.454 1.326.454 2.146v8.32c0 .82-.151 1.528-.454 2.124s-.693 1.094-1.172 1.495c-.479.4-1.014.705-1.604.914a6.943 6.943 0 0 1-1.75.389v1.553h-2.373v-1.553a5.578 5.578 0 0 1-1.809-.365 5.346 5.346 0 0 1-1.59-.938c-.469-.401-.85-.899-1.143-1.495s-.438-1.305-.438-2.125zm2.286-.006c0 .842.21 1.507.63 1.996s1.108.773 2.065.852V17.491c-.781.078-1.426.362-1.934.852s-.762 1.154-.762 1.996v8.338zm5.068 2.847c.742-.039 1.377-.313 1.904-.822s.791-1.184.791-2.025v-8.338c0-.842-.269-1.517-.806-2.025s-1.167-.783-1.89-.822v14.032zM82.311 33.895c.42-.283.767-.555 1.04-.813a2.97 2.97 0 0 0 .645-.887c.156-.332.266-.738.329-1.215.063-.479.096-1.079.096-1.802v-8.846h7.881v14.824h-2.373V22.413h-3.311v6.856c0 .94-.055 1.745-.165 2.415-.109.671-.293 1.255-.553 1.755a4.14 4.14 0 0 1-1.015 1.275 6.997 6.997 0 0 1-1.52.951l-1.054-1.77zM94.234 35.157l1.26-4.643c.116-.461.291-.904.523-1.331s.538-.748.916-.964c-.836-.303-1.419-.77-1.75-1.4a4.44 4.44 0 0 1-.495-2.091c0-1.372.38-2.447 1.139-3.227.759-.778 1.918-1.168 3.475-1.168h4.176v14.824h-2.373v-6.254h-1.296c-.58 0-1.037.162-1.37.485-.334.324-.609.937-.825 1.839l-1.006 3.93h-2.374zM97.12 24.86c0 .649.205 1.152.615 1.512.41.358.996.538 1.758.538h1.611v-4.497h-1.406c-.938 0-1.602.227-1.992.679s-.586 1.042-.586 1.768zM105.763 35.157V20.362h2.373v6.431h1.021c.263 0 .532-.022.81-.065.277-.045.54-.14.788-.286s.477-.366.686-.659c.21-.293.377-.679.504-1.157l1.128-4.263h2.285l-1.166 4.293c-.196.725-.46 1.33-.793 1.819-.332.488-.758.816-1.275.982.661.156 1.145.495 1.451 1.017.307.522.557 1.149.752 1.881l1.28 4.802h-2.314l-1.025-4.086c-.117-.476-.266-.866-.445-1.172s-.39-.538-.628-.698-.503-.27-.795-.327a4.561 4.561 0 0 0-.905-.088h-1.357v6.372h-2.375z"/>
	</g>
</symbol>
<symbol id="ic-fb" viewBox="0 0 97.75 97.75">
	<path d="M48.875 0C21.882 0 0 21.882 0 48.875S21.882 97.75 48.875 97.75 97.75 75.868 97.75 48.875 75.868 0 48.875 0zm18.646 24.89l-6.76.003c-5.301 0-6.326 2.519-6.326 6.215v8.15h12.641l-.006 12.765H54.436v32.758H41.251V52.023H30.229V39.258h11.022v-9.414c0-10.925 6.675-16.875 16.42-16.875l9.851.015V24.89h-.001z"/>
</symbol>
<symbol id="ic-inst" viewBox="0 0 90 90">
	<g fill="none" fill-rule="evenodd">
		<circle cx="45" cy="45" r="45"/>
		<path fill="#FFF" fill-rule="nonzero" d="M69.955 13h-49.27C16.44 13 13 16.432 13 20.666v49.305c0 4.236 3.441 7.666 7.685 7.666h49.27c4.242 0 7.681-3.43 7.681-7.666V20.666c0-4.232-3.437-7.666-7.681-7.666zM59.458 23.101c0-1.116.905-2.02 2.02-2.02h6.06c1.116 0 2.021.904 2.021 2.02v6.06a2.023 2.023 0 0 1-2.02 2.02h-6.06a2.021 2.021 0 0 1-2.021-2.02V23.1zm-14.065 9.895c6.865 0 12.43 5.551 12.43 12.4s-5.565 12.402-12.43 12.402c-6.864 0-12.427-5.553-12.427-12.402 0-6.85 5.563-12.4 12.427-12.4zm26.185 36.563a2.023 2.023 0 0 1-2.019 2.02H21.08a2.021 2.021 0 0 1-2.02-2.02V39.26h8.08c-1.053 1.515-1.407 4.34-1.407 6.134 0 10.816 8.82 19.619 19.66 19.619 10.846 0 19.663-8.801 19.663-19.619 0-1.793-.254-4.578-1.558-6.134h8.08V69.56z"/>
	</g>
</symbol>
<symbol id="ic-ok" viewBox="0 0 97.75 97.75">
	<path d="M48.921 40.507a8.367 8.367 0 0 0 8.367-8.443c-.017-4.679-3.742-8.402-8.411-8.406a8.398 8.398 0 0 0-8.432 8.508c.035 4.66 3.794 8.358 8.476 8.341z"/>
	<path d="M48.875 0C21.882 0 0 21.883 0 48.875S21.882 97.75 48.875 97.75 97.75 75.867 97.75 48.875 75.868 0 48.875 0zm.07 14.863c9.52.026 17.161 7.813 17.112 17.438-.048 9.403-7.814 17.024-17.318 16.992-9.407-.032-17.122-7.831-17.066-17.253.053-9.525 7.772-17.203 17.272-17.177zm19.282 41.194c-2.105 2.161-4.639 3.725-7.453 4.816-2.66 1.031-5.575 1.55-8.461 1.896.437.474.642.707.914.979 3.916 3.937 7.851 7.854 11.754 11.802 1.33 1.346 1.607 3.014.875 4.577-.799 1.71-2.592 2.834-4.351 2.713-1.114-.077-1.983-.63-2.754-1.407-2.956-2.974-5.968-5.895-8.862-8.925-.845-.882-1.249-.714-1.994.052a589.856 589.856 0 0 1-9.034 9.072c-1.365 1.346-2.989 1.59-4.573.82-1.683-.814-2.753-2.533-2.671-4.262.058-1.166.632-2.06 1.434-2.858 3.877-3.869 7.742-7.75 11.608-11.628.257-.257.495-.53.868-.93-5.273-.551-10.028-1.849-14.099-5.032-.506-.396-1.027-.778-1.487-1.222-1.783-1.711-1.962-3.672-.553-5.69 1.207-1.728 3.231-2.19 5.336-1.197.408.191.796.433 1.168.689 7.586 5.213 18.008 5.356 25.624.233.754-.576 1.561-1.05 2.496-1.289 1.816-.468 3.512.201 4.486 1.791 1.115 1.817 1.102 3.589-.271 5z"/>
</symbol>
<symbol id="ic-vk" viewBox="0 0 97.75 97.75">
	<path d="M48.875 0C21.883 0 0 21.882 0 48.875S21.883 97.75 48.875 97.75 97.75 75.868 97.75 48.875 75.867 0 48.875 0zm24.792 54.161c2.278 2.225 4.688 4.319 6.733 6.774.906 1.086 1.76 2.209 2.41 3.472.928 1.801.09 3.776-1.522 3.883l-10.013-.002c-2.586.214-4.644-.829-6.379-2.597-1.385-1.409-2.67-2.914-4.004-4.371-.545-.598-1.119-1.161-1.803-1.604-1.365-.888-2.551-.616-3.333.81-.797 1.451-.979 3.059-1.055 4.674-.109 2.361-.821 2.978-3.19 3.089-5.062.237-9.865-.531-14.329-3.083-3.938-2.251-6.986-5.428-9.642-9.025-5.172-7.012-9.133-14.708-12.692-22.625-.801-1.783-.215-2.737 1.752-2.774 3.268-.063 6.536-.055 9.804-.003 1.33.021 2.21.782 2.721 2.037 1.766 4.345 3.931 8.479 6.644 12.313.723 1.021 1.461 2.039 2.512 2.76 1.16.796 2.044.533 2.591-.762.35-.823.501-1.703.577-2.585.26-3.021.291-6.041-.159-9.05-.28-1.883-1.339-3.099-3.216-3.455-.956-.181-.816-.535-.351-1.081.807-.944 1.563-1.528 3.074-1.528l11.313-.002c1.783.35 2.183 1.15 2.425 2.946l.01 12.572c-.021.695.349 2.755 1.597 3.21 1 .33 1.66-.472 2.258-1.105 2.713-2.879 4.646-6.277 6.377-9.794.764-1.551 1.423-3.156 2.063-4.764.476-1.189 1.216-1.774 2.558-1.754l10.894.013c.321 0 .647.003.965.058 1.836.314 2.339 1.104 1.771 2.895-.894 2.814-2.631 5.158-4.329 7.508-1.82 2.516-3.761 4.944-5.563 7.471-1.656 2.31-1.525 3.473.531 5.479z"/>
</symbol>
<symbol id="ic_box" viewBox="0 0 512 512">
	<path d="M491.729 112.971L259.261.745a7.503 7.503 0 0 0-6.521 0L20.271 112.971a7.5 7.5 0 0 0-4.239 6.754v272.549a7.5 7.5 0 0 0 4.239 6.754l232.468 112.226a7.504 7.504 0 0 0 6.522 0l232.468-112.226a7.5 7.5 0 0 0 4.239-6.754V119.726a7.502 7.502 0 0 0-4.239-6.755zM256 15.828l215.217 103.897-62.387 30.118a7.434 7.434 0 0 0-1.27-.8L193.805 45.853 256 15.828zm-79.133 38.505l214.904 103.746-44.015 21.249L132.941 75.624l43.926-21.291zm219.932 117.974v78.546l-41.113 19.848v-78.546l41.113-19.848zm84.169 215.261L263.5 492.55V236.658l51.873-25.042a7.5 7.5 0 1 0-6.522-13.508L256 223.623l-20.796-10.04a7.498 7.498 0 0 0-10.015 3.493 7.5 7.5 0 0 0 3.493 10.015l19.818 9.567V492.55L31.032 387.566V131.674l165.6 79.945a7.463 7.463 0 0 0 3.255.748 7.5 7.5 0 0 0 3.266-14.256l-162.37-78.386 74.505-35.968L340.582 192.52c.033.046.07.087.104.132v89.999a7.502 7.502 0 0 0 10.761 6.754l56.113-27.089a7.499 7.499 0 0 0 4.239-6.754v-90.495l69.169-33.392v255.893z"/>
	<path d="M92.926 358.479L58.811 342.01a7.5 7.5 0 0 0-6.522 13.508l34.115 16.469a7.463 7.463 0 0 0 3.255.748 7.5 7.5 0 0 0 6.759-4.241 7.499 7.499 0 0 0-3.492-10.015zM124.323 338.042l-65.465-31.604a7.501 7.501 0 0 0-6.521 13.509l65.465 31.604a7.477 7.477 0 0 0 3.255.748 7.5 7.5 0 0 0 3.266-14.257z"/>
</symbol>
<symbol id="ic_cart" viewBox="0 -31 512 512">
	<path d="M164.96 300.004h.024c.02 0 .04-.004.059-.004H437a15.003 15.003 0 0 0 14.422-10.879l60-210a15.003 15.003 0 0 0-2.445-13.152A15.006 15.006 0 0 0 497 60H130.367l-10.722-48.254A15.003 15.003 0 0 0 105 0H15C6.715 0 0 6.715 0 15s6.715 15 15 15h77.969c1.898 8.55 51.312 230.918 54.156 243.71C131.184 280.64 120 296.536 120 315c0 24.812 20.188 45 45 45h272c8.285 0 15-6.715 15-15s-6.715-15-15-15H165c-8.27 0-15-6.73-15-15 0-8.258 6.707-14.977 14.96-14.996zM477.114 90l-51.43 180H177.032l-40-180zm0 0M150 405c0 24.813 20.188 45 45 45s45-20.188 45-45-20.188-45-45-45-45 20.188-45 45zm45-15c8.27 0 15 6.73 15 15s-6.73 15-15 15-15-6.73-15-15 6.73-15 15-15zm0 0M362 405c0 24.813 20.188 45 45 45s45-20.188 45-45-20.188-45-45-45-45 20.188-45 45zm45-15c8.27 0 15 6.73 15 15s-6.73 15-15 15-15-6.73-15-15 6.73-15 15-15zm0 0"/>
</symbol>
<symbol id="ic_clock" viewBox="0 0 512 512">
	<path d="M255 0C114.061 0 0 114.049 0 255c0 139.895 113.025 257 255 257 140.448 0 257-115.709 257-257C512 112.87 394.743 0 255 0zm0 482.2C130.935 482.2 29.8 380.168 29.8 255 29.8 130.935 130.935 29.8 255 29.8c125.168 0 227.2 101.135 227.2 225.2 0 125.168-102.032 227.2-227.2 227.2z"/>
	<path d="M278.213 255l49.393-49.393c5.858-5.858 5.858-15.356 0-21.214-5.857-5.858-15.355-5.858-21.213 0l-60 60c-5.858 5.858-5.858 15.355 0 21.213l60 60c5.857 5.857 15.355 5.858 21.213 0 5.858-5.858 5.858-15.355 0-21.213L278.213 255z"/>
	<path d="M255 60C147.592 60 60 147.397 60 255c0 107.953 87.863 197 195 197 107.494 0 197-89.147 197-197 0-107.075-88.982-195-197-195zm127.587 301.374l-8.915-8.915c-5.857-5.858-15.355-5.858-21.213 0-5.858 5.858-5.858 15.355 0 21.213l8.914 8.914c-25.451 21.386-57.105 35.479-91.374 38.697V407c0-8.284-6.716-15-15-15s-15 6.716-15 15v14.303c-34.136-3.129-65.304-16.816-90.277-37.812l9.818-9.818c5.858-5.858 5.858-15.355 0-21.213-5.857-5.858-15.355-5.858-21.213 0l-9.74 9.74c-21.083-25.429-34.828-57.283-37.914-92.2H105c8.284 0 15-6.716 15-15s-6.716-15-15-15H90.689c3.102-34.25 16.707-65.512 37.571-90.527l10.068 10.068c5.857 5.857 15.355 5.858 21.213 0 5.858-5.858 5.858-15.355 0-21.213l-10.068-10.068C174.488 107.396 205.75 93.791 240 90.689V105c0 8.284 6.716 15 15 15s15-6.716 15-15V90.673c34.917 3.086 66.771 16.831 92.199 37.915l-9.739 9.739c-9.479 9.479-2.637 25.607 10.606 25.607a14.95 14.95 0 0 0 10.606-4.393l9.818-9.818c20.997 24.973 34.684 56.142 37.812 90.277H407c-8.284 0-15 6.716-15 15s6.716 15 15 15h14.284c-3.218 34.269-17.311 65.923-38.697 91.374z"/>
</symbol>
<symbol id="ic_color-palette" viewBox="0 0 512 512">
	<path d="M256.027 512c-.765 0-1.53-.004-2.297-.012-69.007-.597-133.39-28.02-181.285-77.215C24.508 385.535-1.207 320.371.043 251.285c1.219-67.39 28.387-130.55 76.496-177.848C124.711 26.082 188.445 0 256 0c68.383 0 132.672 26.629 181.023 74.98C485.375 123.332 512 187.621 512 256v.605c-.031 14.2-5.777 27.426-16.176 37.204-10.426 9.8-24.633 14.93-38.976 14.074a80.016 80.016 0 0 0-4.746-.145c-43.176 0-78.301 35.121-78.301 78.293 0 1.114.023 2.266.074 3.414 1.375 32.196-10.125 62.817-32.383 86.211-22.078 23.207-51.785 36.114-83.648 36.34-.606.004-1.211.004-1.817.004zM256 20c-62.277 0-121.031 24.043-165.441 67.7-44.352 43.605-69.395 101.827-70.52 163.945-1.152 63.71 22.55 123.792 66.734 169.175 44.145 45.344 103.5 70.618 167.133 71.168 1.27.016 2.535.016 3.801.008 26.379-.187 50.992-10.887 69.297-30.125 18.48-19.426 28.031-44.848 26.887-71.578a104.87 104.87 0 0 1-.09-4.262c0-54.199 44.097-98.293 98.3-98.293 1.973 0 3.973.063 5.938.18 9.008.543 17.559-2.547 24.082-8.684 6.352-5.968 9.86-14.03 9.879-22.707V256c0-63.04-24.547-122.305-69.121-166.875C378.309 44.551 319.043 20 256 20zm0 0"/>
	<path d="M175.926 439.992c-33.082 0-60-26.914-60-60 0-33.082 26.918-60 60-60 33.086 0 60 26.918 60 60 0 33.086-26.914 60-60 60zm0-100c-22.055 0-40 17.945-40 40 0 22.059 17.945 40 40 40 22.058 0 40-17.941 40-40 0-22.055-17.942-40-40-40zm0 0M105.426 316.238c-33.086 0-60-26.914-60-60 0-33.082 26.914-60 60-60 33.082 0 60 26.918 60 60 0 33.086-26.918 60-60 60zm0-100c-22.055 0-40 17.946-40 40 0 22.059 17.945 40 40 40 22.054 0 40-17.941 40-40 0-22.054-17.946-40-40-40zm0 0M173.676 191.738c-33.082 0-60-26.914-60-60 0-33.082 26.918-60 60-60 33.086 0 60 26.918 60 60 0 33.086-26.914 60-60 60zm0-100c-22.055 0-40 17.946-40 40 0 22.059 17.945 40 40 40 22.058 0 40-17.941 40-40 0-22.054-17.942-40-40-40zm0 0M326.68 191.238c-33.086 0-60-26.914-60-60 0-33.082 26.914-60 60-60 33.082 0 60 26.918 60 60 0 33.086-26.918 60-60 60zm0-100c-22.055 0-40 17.946-40 40 0 22.059 17.945 40 40 40 22.054 0 40-17.941 40-40 0-22.054-17.946-40-40-40zm0 0M340.594 299.273a9.954 9.954 0 0 1-6.653-2.535c-4.117-3.676-4.484-9.98-.816-14.105.523-.586 13.055-14.551 32.805-26.551 26.894-16.34 54.43-21.227 79.625-14.133 5.316 1.5 8.41 7.024 6.914 12.34-1.496 5.313-7.024 8.41-12.336 6.914-48.125-13.55-91.645 34.254-92.078 34.738a9.99 9.99 0 0 1-7.461 3.332zm0 0M327.375 335.54c-5.523 0-10.004-4.481-10.004-10 0-5.524 4.473-10 9.996-10h.008c5.523 0 10 4.476 10 10 0 5.519-4.477 10-10 10zm0 0"/>
</symbol>
<symbol id="ic_dancer" viewBox="0 0 512 512">
	<path d="M162.307 176.564c5.255-28.768 21.248-116.314 29.223-167.9A7.518 7.518 0 0 0 184.103 0H72.219a7.516 7.516 0 0 0-7.492 8.106c.754 9.578 1.976 19.877 3.271 30.779 5.316 44.777 12.596 106.102-3.957 197.532-2.196 12.129-2.557 34.466-2.588 56.733-3.401 22.168-5.057 50.69-5.057 87.182 0 36.775 4.817 68.107 13.929 90.61C84.066 504.877 104.688 512 119.568 512c40.738 0 63.172-46.761 63.172-131.669 0-71.785-6.293-113.575-20.357-134.772-2.221-23.695-3.935-46.76-1.546-60.909.091-.537.615-3.402 1.47-8.086zm-83.99 65.909c9.369 1.554 22.717 3.177 37.66 3.177 9.902 0 20.495-.74 31.071-2.663.18 1.963.365 3.94.553 5.929v.002l.012.126.248 2.603c-6.603 10.131-18.641 26.85-34.963 42.25-6.406-5.807-11.901-11.793-16.444-17.313-8.501-10.331-14.783-20.305-18.816-27.408.194-2.448.419-4.696.679-6.703zm46.62 61.203a226.77 226.77 0 0 0 13.929-14.631 258.298 258.298 0 0 0 11.237-13.84c1.36 15.005 2.45 29.765 2.45 42.63v.673c-10.241-3.723-19.465-8.943-27.616-14.832zm27.562 31.049c-.191 20.443-1.084 39.097-5.301 52.715-5.309 17.144-15.078 24.459-32.666 24.459-17.588 0-27.357-7.315-32.666-24.459-4.087-13.2-5.053-31.13-5.282-50.837 12.362-5.208 24.624-12.738 36.495-22.418 11.329 8.583 24.46 15.937 39.42 20.54zM76.484 293.71v-.002c.008-5.861.039-11.808.121-17.579 6.445 8.952 14.593 18.778 24.502 27.981-7.536 5.953-15.769 11.349-24.597 15.664v-1.94c0-3.166-.007-6.476-.013-9.878-.01-4.621-.019-9.413-.013-14.246zm85.077 98.173l.029-.103c.322-1.044.621-2.115.91-3.199.064-.252.133-.506.199-.763.278-1.082.541-2.181.788-3.3.055-.248.106-.501.16-.751.222-1.04.433-2.092.63-3.161.032-.175.067-.346.099-.521a131.81 131.81 0 0 0 .73-4.507c.175-1.198.341-2.408.493-3.636.031-.248.058-.501.088-.751.131-1.097.252-2.207.365-3.327.029-.286.06-.569.088-.857a217.762 217.762 0 0 0 .415-4.881c.097-1.292.188-2.591.268-3.907.013-.214.023-.433.036-.648.069-1.187.131-2.384.188-3.59.018-.373.036-.745.052-1.12.05-1.145.097-2.295.137-3.455.316 9.627.474 19.929.474 30.924 0 35.069-4.69 116.637-48.141 116.637-30.694 0-44.303-45.05-47.422-93.7.038.072.08.137.119.209.454.852.924 1.681 1.411 2.485.097.161.197.318.296.477.49.79.992 1.562 1.513 2.305.03.043.059.089.09.132a44.124 44.124 0 0 0 1.688 2.224c.118.146.235.293.354.438a42.336 42.336 0 0 0 1.767 2.012c.105.112.214.22.32.331a40.476 40.476 0 0 0 1.812 1.779c.066.061.13.125.196.185a39.659 39.659 0 0 0 2.46 2.047 39.568 39.568 0 0 0 2.13 1.532c.107.071.217.138.325.208.694.453 1.402.885 2.127 1.295.106.06.209.124.316.182.772.428 1.565.828 2.373 1.208.167.079.336.156.505.233.819.372 1.651.727 2.506 1.051.095.036.193.068.288.104.812.302 1.642.581 2.486.841.146.045.29.093.438.137a48.75 48.75 0 0 0 2.72.718c.191.045.383.087.575.13.949.211 1.91.405 2.895.568.065.011.131.018.196.029.951.154 1.922.281 2.907.39.187.021.372.044.56.063 1.007.102 2.032.181 3.075.237.21.011.422.019.633.029a69.858 69.858 0 0 0 9.917-.221c20.544-1.953 33.798-13.371 40.416-34.742zm-14.04-218.021a1696.34 1696.34 0 0 0-1.505 8.284v.001c-1.998 11.834-1.58 27.705-.261 45.45-24.59 4.736-50.168 2.074-64.895-.332 14.276-87.121 7.259-146.388 2.064-190.152-.914-7.7-1.792-15.095-2.486-22.081h94.877c-8.284 52.027-22.833 131.67-27.794 158.83z"/>
	<path d="M448.639 319c-4.613-5.753-10.283-12.342-16.285-19.318-14.431-16.771-32.391-37.644-47.24-60.287-17.66-26.928-21.123-61.792-18.724-83.465a19.337 19.337 0 0 0-4.876-15.104c-3.693-4.08-8.947-6.338-14.478-6.322l-41.872.477a12.97 12.97 0 0 0-8.15 2.93c-8.319-2.487-20.482-10.431-29.744-34.511-5.163-13.426-20.359-43.728-45.166-90.068l-1.978-3.69a7.516 7.516 0 0 0-13.245 7.109l1.971 3.677c24.168 45.146 39.516 75.704 44.388 88.369 2.45 6.37 5.13 11.849 7.945 16.562-2.536 6.846-6.675 17.545-11.826 29.153-7.933 17.878-15.657 32.087-22.767 41.972a70734.624 70734.624 0 0 0-33.388-44.307 7.516 7.516 0 0 0-12.002 9.05c37.292 49.454 56.43 74.91 62.056 82.54 8.412 11.407 32.04 29.093 70.218 52.569a20.815 20.815 0 0 0 5.268 5.619l86.044 62.506c5.585 4.134 12.268 6.218 18.962 6.218 6.016 0 12.04-1.683 17.281-5.073a31.942 31.942 0 0 0 14.164-21.686 31.762 31.762 0 0 0-6.556-24.92zm-212.44-109.747c14.997-19.167 28.46-50.271 35.999-69.562 6.979 6.949 14.03 10.586 19.937 12.446l-.007.479a404.054 404.054 0 0 0-.061 4.245v.033a416.392 416.392 0 0 0-.011 4.325l.003.816c.012 2.864.055 5.707.125 8.528l.019.746c.076 2.842.179 5.66.308 8.452l.03.646c.134 2.813.294 5.599.478 8.355l.038.568c.189 2.777.4 5.522.634 8.234l.041.476c.151 1.738.311 3.461.479 5.17-7.512 10.559-20.281 24.453-38.877 31.605-2.835-3.845-9.021-12.111-19.135-25.562zm31.03 37.218c12.269-5.832 22.049-13.923 29.551-21.957.276 1.933.56 3.838.85 5.714l.029.19c.381 2.459.773 4.867 1.173 7.221l.026.153c.401 2.356.81 4.657 1.224 6.901l.027.146a521.307 521.307 0 0 0 1.255 6.551l.026.133c.209 1.052.419 2.09.629 3.111l.028.135a479.857 479.857 0 0 0 1.263 5.959l.038.172c.197.9.393 1.785.589 2.655l.043.192c.202.896.402 1.776.602 2.641l.06.258c.184.796.367 1.578.549 2.346l.058.246a411.844 411.844 0 0 0 1.204 4.948c-16.846-10.802-30.126-20.191-39.224-27.715zm173.13 95.047c-.772 4.771-3.431 8.842-7.488 11.465-5.85 3.782-13.54 3.54-19.192-.645l-86.099-62.546a5.661 5.661 0 0 1-1.777-2.107l-.012-.03c-.055-.115-.089-.231-.136-.348-.066-.163-.141-.321-.192-.492-1.557-5.197-4.239-14.745-7.081-27.506l-.015-.065a541.24 541.24 0 0 1-.793-3.631l-.026-.121-.38-1.792-.031-.148c-.123-.586-.246-1.18-.369-1.777l-.044-.213c-.12-.583-.239-1.172-.359-1.765l-.053-.264c-.116-.578-.232-1.163-.348-1.751l-.063-.318c-.114-.579-.227-1.164-.341-1.752l-.069-.355c-.114-.593-.228-1.193-.341-1.795l-.063-.336c-.114-.608-.227-1.221-.34-1.838l-.063-.34c-.112-.615-.224-1.235-.335-1.858l-.064-.358c-.109-.61-.216-1.225-.324-1.843l-.074-.425c-.105-.605-.209-1.215-.312-1.827l-.079-.466c-.103-.615-.206-1.235-.308-1.858l-.076-.464c-.1-.614-.2-1.234-.299-1.855l-.082-.512c-.099-.623-.196-1.251-.293-1.88l-.078-.507c-.095-.623-.19-1.251-.284-1.881l-.083-.557a635.819 635.819 0 0 1-.619-4.327l-.088-.633c-.086-.626-.171-1.256-.255-1.887l-.083-.625c-.084-.635-.166-1.273-.248-1.913l-.082-.641c-.08-.632-.158-1.267-.236-1.904l-.084-.683c-.077-.635-.152-1.273-.226-1.912l-.081-.693c-.074-.641-.146-1.285-.218-1.931l-.078-.708c-.07-.639-.138-1.28-.206-1.923l-.078-.745c-.067-.645-.132-1.293-.196-1.943l-.074-.743c-.063-.649-.125-1.3-.186-1.953l-.071-.762c-.06-.65-.117-1.304-.174-1.958l-.069-.792c-.055-.644-.108-1.291-.161-1.94l-.067-.83c-.051-.644-.1-1.29-.148-1.938l-.064-.859a539.081 539.081 0 0 1-.196-2.821 555.83 555.83 0 0 1-.122-1.906l-.057-.935c-.038-.629-.073-1.26-.108-1.892l-.053-.965c-.033-.629-.065-1.261-.096-1.893l-.047-.987c-.029-.625-.056-1.253-.082-1.881l-.042-1.02a552.167 552.167 0 0 1-.105-2.922 371.004 371.004 0 0 1-.125-4.766 431.165 431.165 0 0 1-.064-4.108c-.006-.594-.011-1.189-.014-1.784l-.005-1.219c-.002-.583-.002-1.167-.001-1.751l.004-1.259a493.695 493.695 0 0 1 .027-3.036c.007-.558.016-1.117.025-1.677.008-.452.016-.905.026-1.358.011-.55.024-1.101.038-1.652l.019-.69 39.982-.454.052-.001a4.16 4.16 0 0 1 3.114 1.382 4.249 4.249 0 0 1 1.078 3.359c-2.804 25.311 1.266 63.129 21.094 93.363 15.386 23.461 33.7 44.746 48.416 61.848 5.915 6.874 11.502 13.367 15.953 18.917 2.989 3.724 4.212 8.381 3.447 13.112z"/>
</symbol>
<symbol id="ic_discount" viewBox="0 0 512 512">
	<path d="M508.501 234.49c0-4.14-3.36-7.5-7.5-7.5H318.489v-62.494c0-4.143-3.357-7.5-7.5-7.5h-62.488V129.5c0-8.44-1.65-16.63-4.91-24.33a62.385 62.385 0 0 0-13.4-19.87 62.21 62.21 0 0 0-19.859-13.39c-7.71-3.261-15.891-4.91-24.33-4.91-8.44 0-16.62 1.649-24.33 4.91-.199.084-.392.18-.59.267-.198-.087-.391-.183-.59-.267-7.7-3.261-15.881-4.91-24.32-4.91-8.44 0-16.63 1.649-24.33 4.91a62.323 62.323 0 0 0-19.87 13.39 62.246 62.246 0 0 0-13.39 19.87c-3.261 7.7-4.91 15.89-4.91 24.33v27.496H10.999a7.5 7.5 0 0 0-7.5 7.5V504.49a7.5 7.5 0 0 0 7.5 7.5h249.797c.065.002.128.01.193.01h240.012c4.13 0 7.5-3.36 7.5-7.5 0-.07-.009-.139-.011-.209.002-.071.011-.14.011-.211V234.49zm-322.5-152.5c12.68.01 24.609 4.949 33.59 13.92 8.97 8.979 13.91 20.909 13.91 33.59v27.496h-34.83V129.5c0-8.44-1.66-16.63-4.92-24.33-3.141-7.45-7.65-14.13-13.391-19.87a64.477 64.477 0 0 0-2.732-2.559 48.069 48.069 0 0 1 8.373-.751zm-24.917 7.062a47.784 47.784 0 0 1 8.667 6.858c8.97 8.979 13.91 20.909 13.92 33.59v27.496h-45.17V129.5c0-12.681 4.939-24.61 13.91-33.59a47.867 47.867 0 0 1 8.673-6.858zm-58.503 6.858c8.979-8.971 20.91-13.91 33.59-13.92 2.838.002 5.635.265 8.372.751a62.664 62.664 0 0 0-2.732 2.559c-5.74 5.74-10.25 12.42-13.399 19.87-3.25 7.7-4.91 15.89-4.91 24.33v27.496h-34.83V129.5h-.001c0-12.681 4.939-24.61 13.91-33.59zm150.908 401.08H18.499V171.996h55.172V224.5c0 4.13 3.36 7.49 7.5 7.49 4.13 0 7.5-3.36 7.5-7.49v-52.504h42.253c.026 0 .052.004.077.004.026 0 .051-.004.077-.004h52.593V224.5c0 4.13 3.36 7.49 7.5 7.49 4.13 0 7.5-3.36 7.5-7.49v-52.504h42.253c.026 0 .051.004.077.004s.051-.004.077-.004h12.411V496.99zm50 .01h-35V171.996h35V497zm140.012 0H318.489V321.493a56.802 56.802 0 0 0 14.892-4.023c6.85-2.89 13-7.04 18.28-12.32a57.342 57.342 0 0 0 12.319-18.279c3-7.08 4.521-14.62 4.521-22.38 0-4.141-3.36-7.5-7.5-7.5-4.13 0-7.5 3.359-7.5 7.5 0 11.34-4.42 22.01-12.44 30.05-6.241 6.233-14.071 10.28-22.571 11.784V241.99h125.011V497zm50 0h-35V241.99h35V497zM396.005 30.002c-12.406 0-22.5 10.094-22.5 22.5s10.094 22.5 22.5 22.5 22.5-10.094 22.5-22.5-10.094-22.5-22.5-22.5zm0 30c-4.136 0-7.5-3.364-7.5-7.5s3.364-7.5 7.5-7.5 7.5 3.364 7.5 7.5-3.364 7.5-7.5 7.5zM456.005 90.002c-12.406 0-22.5 10.094-22.5 22.5s10.094 22.5 22.5 22.5 22.5-10.094 22.5-22.5-10.094-22.5-22.5-22.5zm0 30c-4.136 0-7.5-3.364-7.5-7.5s3.364-7.5 7.5-7.5 7.5 3.364 7.5 7.5-3.364 7.5-7.5 7.5zM476.311 32.199a7.503 7.503 0 0 0-10.608 0L375.701 122.2a7.502 7.502 0 0 0 10.608 10.608l90.002-90.002a7.5 7.5 0 0 0 0-10.607z"/>
	<path d="M501.001 0h-150a7.501 7.501 0 0 0-7.5 7.5c0 .427.044.843.112 1.25a7.565 7.565 0 0 0-.112 1.25v47.5c0 4.13 3.359 7.5 7.5 7.5 4.14 0 7.5-3.37 7.5-7.5V15h135v127.997L426.001 179l-67.5-36.003V87.5c0-4.141-3.36-7.5-7.5-7.5a7.501 7.501 0 0 0-7.5 7.5v59.935a7.446 7.446 0 0 0 .836 3.489c.022.046.042.094.066.139.018.032.039.063.057.096a7.455 7.455 0 0 0 3.011 2.962l75 40c1.09.569 2.311.88 3.53.88s2.439-.311 3.53-.88l75-40a7.445 7.445 0 0 0 2.643-2.373l.05-.067c.078-.117.147-.239.219-.36.058-.096.117-.188.17-.287.028-.053.051-.108.077-.161a7.431 7.431 0 0 0 .805-3.256c0-.023.004-.047.004-.07l.002-.045V7.5c0-4.141-3.36-7.5-7.5-7.5z"/>
</symbol>
<symbol id="ic_email" viewBox="0 0 512 512">
	<path d="M486.4 59.733H25.6c-14.138 0-25.6 11.461-25.6 25.6v341.333c0 14.138 11.461 25.6 25.6 25.6h460.8c14.138 0 25.6-11.461 25.6-25.6V85.333c0-14.138-11.461-25.6-25.6-25.6zm8.533 366.934a8.533 8.533 0 0 1-8.533 8.533H25.6a8.533 8.533 0 0 1-8.533-8.533V85.333A8.533 8.533 0 0 1 25.6 76.8h460.8a8.533 8.533 0 0 1 8.533 8.533v341.334z"/>
	<path d="M470.076 93.898a8.53 8.53 0 0 0-6.229 1.966L266.982 261.239a17.068 17.068 0 0 1-21.965 0L48.154 95.863a8.535 8.535 0 0 0-10.974 13.073l196.864 165.367c12.688 10.683 31.224 10.683 43.913 0L474.82 108.937a8.532 8.532 0 0 0 1.049-12.023 8.524 8.524 0 0 0-5.793-3.016zM164.124 273.13a8.535 8.535 0 0 0-8.229 2.65l-119.467 128a8.532 8.532 0 1 0 12.476 11.639l119.467-128a8.532 8.532 0 0 0-4.247-14.289zM356.105 275.78a8.534 8.534 0 1 0-12.476 11.639l119.467 128a8.533 8.533 0 1 0 12.476-11.64L356.105 275.78z"/>
</symbol>
<symbol id="ic_hand-bag" viewBox="-14 0 511 512">
	<path d="M412.094 250c0 5.52 4.48 10 10 10s10-4.48 10-10-4.48-10-10-10-10 4.48-10 10zm0 0M422.094 280c-5.524 0-10 4.477-10 10v32c0 16.543-13.457 30-30 30-5.524 0-10 4.477-10 10s4.476 10 10 10c27.57 0 50-22.43 50-50v-32c0-5.523-4.477-10-10-10zm0 0"/>
	<path d="M414.3 122.59l-11.698-23.395C372 38.012 310.5 0 242.094 0 173.69 0 112.19 38.012 81.59 99.195l-11.707 23.407c-10.692 4.73-17.79 15.32-17.79 27.398v11.008c-22.792 4.644-40 24.844-40 48.992v85.527L.946 413.047c-2.527 25.25 5.793 50.523 22.82 69.344C40.798 501.207 65.118 512 90.497 512h303.2c25.374 0 49.699-10.793 66.726-29.61 17.031-18.816 25.348-44.093 22.828-69.292l-11.156-117.57V210c0-24.145-17.203-44.348-40-48.992V150c0-12.102-7.117-22.703-17.793-27.41zM152.095 160v-10c0-11.332-6.317-21.215-15.614-26.316C157.23 84.34 197.445 60 242.094 60c44.39 0 84.984 24.582 105.617 63.684-9.297 5.101-15.617 14.984-15.617 26.316v10zm-80-10c0-5.598 4.531-10 10-10h40c5.515 0 10 4.484 10 10v10h-60zm280 0c0-5.512 4.48-9.992 9.988-10 .008 0 .016.004.02.004.011 0 .023-.004.035-.004h39.957c5.504 0 10 4.406 10 10v10h-60zm-110-130c60.781 0 115.43 33.773 142.617 88.145L390.64 120h-22.364l-1.457-2.922C343.668 70.758 295.914 40 242.094 40c-52.785 0-101.086 29.813-124.727 77.082L115.91 120H93.547l5.933-11.855C126.668 53.773 181.316 20 242.094 20zm203.5 448.973C432.352 483.605 413.434 492 393.695 492H90.496c-19.738 0-38.656-8.395-51.898-23.027-13.246-14.637-19.72-34.297-17.746-53.989l4.382-46.207C41.054 394.676 69.59 412 102.094 412h100c0 22.055 17.945 40 40 40 22.058 0 40-17.945 40-40h100c32.508 0 61.039-17.324 76.863-43.223l4.387 46.258c1.965 19.64-4.504 39.3-17.75 53.938zM262.094 412c0 11.027-8.973 20-20 20s-20-8.973-20-20v-40h40zm190-202v112c0 38.598-31.403 70-70 70h-100v-30c0-5.523-4.477-10-10-10h-60c-5.524 0-10 4.477-10 10v30h-100c-38.598 0-70-31.402-70-70V210c0-16.543 13.457-30 30-30h360c16.543 0 30 13.457 30 30zm0 0"/>
	<path d="M249.168 210.5c-3.906-3.906-10.238-3.906-14.145 0l-42.43 42.43a9.996 9.996 0 0 0 0 14.14l42.43 42.434c1.954 1.95 4.512 2.926 7.07 2.926s5.122-.977 7.071-2.926l42.434-42.434c3.902-3.902 3.902-10.234 0-14.14zm-7.074 77.79L213.809 260l28.285-28.29L270.383 260zm0 0"/>
</symbol>
<symbol id="ic_handshake" viewBox="0 0 512.001 512.001">
	<path d="M509.804 237.734l-40.651-40.651a7.5 7.5 0 0 0-10.607 10.606l35.349 35.348-40.264 40.263-81.913-81.913 40.263-40.263 25.671 25.671a7.5 7.5 0 0 0 10.607-10.606l-30.975-30.975a7.5 7.5 0 0 0-10.608 0l-50.869 50.87c-2.592 2.592-2.885 6.607-.89 9.527l-24.801 24.793a7.502 7.502 0 0 0-.001 10.608l.227.227-6.75 6.75a34.183 34.183 0 0 1-11.732 7.667 29.636 29.636 0 0 0-1.052-6.012 7.511 7.511 0 0 0-.847-1.905c-4.115-6.596-10.6-13.96-18.139-11.567-11.548 3.676-39.021 6.847-77.359 8.927a34.301 34.301 0 0 1-26.062-9.994l-6.747-6.747.227-.227a7.5 7.5 0 0 0 0-10.606l-24.797-24.797a7.498 7.498 0 0 0-.895-9.52l-50.869-50.87a7.5 7.5 0 0 0-10.608 0l-33.413 33.413a7.5 7.5 0 0 0 10.607 10.606l28.109-28.11 40.263 40.263-81.913 81.913-40.258-40.263 32.91-32.91a7.5 7.5 0 0 0-10.607-10.606L2.197 224.857a7.5 7.5 0 0 0 0 10.606l50.869 50.87a7.496 7.496 0 0 0 9.526.892l24.796 24.796a7.5 7.5 0 0 0 10.608 0l.226-.226 13.696 13.696c.65.65 1.204 1.45 1.579 2.265.388.857.627 1.805.692 2.731a39.248 39.248 0 0 0 11.398 25.034l37.066 37.066-20.769 20.762c-8.744 8.759-8.744 23.01.027 31.795l1.103 1.093a22.299 22.299 0 0 0 15.889 6.588c1.092 0 2.173-.078 3.235-.23a22.035 22.035 0 0 0 5.888 10.544l1.578 1.567a21.966 21.966 0 0 0 15.653 6.492c.718 0 1.431-.034 2.136-.101a21.701 21.701 0 0 0 5.935 10.924l1.971 1.971c5.805 5.805 14.095 7.652 21.488 5.552a21.255 21.255 0 0 0 4.991 7.837l2.75 2.75a21.189 21.189 0 0 0 15.078 6.247c5.697 0 11.051-2.22 15.066-6.245l8.679-8.673a21.352 21.352 0 0 0 9.04 2.028c5.46 0 10.926-2.079 15.093-6.237l2.739-2.75a21.265 21.265 0 0 0 4.992-7.836c7.393 2.104 15.685.252 21.489-5.554l1.969-1.969c3.041-3.041 5.076-6.819 5.938-10.932 6.369.608 12.922-1.509 17.765-6.351l1.623-1.612a22.016 22.016 0 0 0 5.87-10.541c6.778.976 13.917-1.137 19.115-6.335l1.129-1.129c8.755-8.754 8.757-23.007-.001-31.779l-7.88-7.879 24.183-24.183a39.251 39.251 0 0 0 11.397-25.038 7.911 7.911 0 0 1 .678-2.694 8.044 8.044 0 0 1 1.593-2.307l13.696-13.689.228.227a7.48 7.48 0 0 0 5.304 2.197 7.479 7.479 0 0 0 5.303-2.196l24.804-24.796a7.48 7.48 0 0 0 4.214 1.3 7.478 7.478 0 0 0 5.304-2.197l50.869-50.869a7.499 7.499 0 0 0-.001-10.605zM92.927 295.875l-.01.009-.009.01-.216.216-19.399-19.397 73.283-73.283 19.398 19.397-.222.222-.005.005-.005.005-72.815 72.816zm75.079 135.941a.018.018 0 0 0-.004.005l-3.813 3.815a7.439 7.439 0 0 1-5.287 2.189c-1.993 0-3.866-.776-5.301-2.213l-1.103-1.093c-2.91-2.915-2.91-7.657-.005-10.566l20.766-20.758 11.684 11.684-16.937 16.937zm25.325 19.265l-.005.005-3.019 3.019a7.101 7.101 0 0 1-5.051 2.093 7.095 7.095 0 0 1-5.061-2.111l-1.582-1.572c-2.777-2.777-2.778-7.301-.005-10.089l.005-.005 16.937-16.936 11.692 11.692-13.911 13.904zm28.443 16.156l-6.143 6.143c-2.687 2.681-7.051 2.683-9.728.005l-1.971-1.971a6.83 6.83 0 0 1-2.011-4.861 6.83 6.83 0 0 1 2.012-4.862l13.915-13.908 11.687 11.687-7.761 7.767zm22.288 22.293a6.256 6.256 0 0 1-4.457 1.848 6.28 6.28 0 0 1-4.471-1.854l-2.751-2.75a6.284 6.284 0 0 1-1.853-4.47c0-1.682.653-3.261 1.84-4.45l.014-.013.001-.001.001-.001 7.756-7.763 11.69 11.69-7.77 7.764zm115.444-67.895l-1.13 1.13c-2.909 2.91-7.65 2.907-10.556.007l-3.819-3.83-.003-.002c-.021-.022-.045-.04-.067-.061l-84.576-84.577a7.5 7.5 0 0 0-10.607 0 7.5 7.5 0 0 0 0 10.606l84.635 84.635.043.039c2.74 2.791 2.727 7.293-.019 10.044l-1.619 1.608c-2.78 2.781-7.311 2.778-10.093 0l-2.989-2.99-.032-.036-89.441-89.441a7.5 7.5 0 0 0-10.607 10.606l89.42 89.42.023.025a6.824 6.824 0 0 1 2.012 4.857c0 1.835-.715 3.56-2.012 4.857l-1.97 1.97c-2.678 2.678-7.042 2.677-9.724 0l-6.117-6.117c-.01-.01-.018-.021-.028-.03l-75.465-75.464a7.5 7.5 0 0 0-10.607 10.606l75.443 75.442a6.277 6.277 0 0 1 1.872 4.486 6.285 6.285 0 0 1-1.864 4.477l-2.734 2.745c-2.47 2.464-6.479 2.465-8.925.019l-.192-.192-.009-.01-.01-.009-131.545-131.54a24.242 24.242 0 0 1-7.042-15.475 22.992 22.992 0 0 0-2.009-7.908 22.9 22.9 0 0 0-4.619-6.647l-13.697-13.697 62.223-62.223 6.743 6.743a49.286 49.286 0 0 0 37.483 14.369c26.616-1.444 61.186-4.137 78.536-8.859.847.89 1.922 2.236 2.825 3.551a14.545 14.545 0 0 1-.568 8.023 14.655 14.655 0 0 1-6.095 7.476l-40.24 16.299a7.5 7.5 0 0 0-2.488 12.254l99.072 99.072 13.184 13.173c2.913 2.918 2.915 7.659.004 10.569zm29.95-93.86a23.047 23.047 0 0 0-4.621 6.685 22.913 22.913 0 0 0-1.987 7.859 24.243 24.243 0 0 1-7.041 15.475l-24.183 24.183-85.767-85.758 30.268-12.26c.313-.126.618-.274.911-.443a29.656 29.656 0 0 0 11.144-11.293 49.237 49.237 0 0 0 26.024-13.632l6.746-6.746 62.222 62.222-13.716 13.708zm29.855-18.783l-.221-.221-.005-.005-.005-.005-72.817-72.817-.009-.01-.01-.009-.216-.216 19.403-19.396 73.283 73.283-19.403 19.396z"/>
	<path d="M369.796 48.735a7.499 7.499 0 0 0-9.7-4.292 7.5 7.5 0 0 0-4.292 9.699c6.647 17.199 3.654 36.866-7.811 51.327a7.503 7.503 0 0 0-1.615 5.001l1.046 22.954-20.818-9.73a7.502 7.502 0 0 0-5.238-.417c-18.886 5.401-39.646-.442-52.913-14.914a48.218 48.218 0 0 1-2.785-3.309c-.308-.397-.59-.78-.872-1.163 10.254-19.785 9.759-42.89-.009-61.851.286-.39.558-.784.857-1.169a53.788 53.788 0 0 1 3.261-3.806 53.203 53.203 0 0 1 8.994-7.593c19.193-12.834 44.959-11.454 62.657 3.357a7.5 7.5 0 0 0 9.627-11.503c-22.776-19.06-55.93-20.835-80.628-4.318a68.3 68.3 0 0 0-11.552 9.754 68.41 68.41 0 0 0-2.017 2.244 67.15 67.15 0 0 0-13.546-12.001c-14.949-9.997-32.893-13.574-50.529-10.074S159.056 20.59 149.06 35.537c-15.79 23.607-15.107 54.175 1.454 76.959l-1.483 32.629a7.503 7.503 0 0 0 7.493 7.841c1.08 0 2.164-.233 3.175-.706l29.589-13.83a67.054 67.054 0 0 0 66.711-21.506 58.71 58.71 0 0 0 1.422 1.602c12.835 14 31.146 21.726 49.783 21.724 5.179 0 10.385-.597 15.503-1.821l29.597 13.833a7.5 7.5 0 0 0 10.668-7.135l-1.487-32.632c13.308-18.36 16.519-42.521 8.311-63.76zm-121.292 53.312c-12.688 18.971-35.95 27.498-57.868 21.229a7.492 7.492 0 0 0-5.239.416l-20.817 9.729 1.043-22.955a7.498 7.498 0 0 0-1.615-5c-14.173-17.868-15.168-42.619-2.479-61.59 7.769-11.616 19.596-19.511 33.303-22.232a52.906 52.906 0 0 1 10.293-1.017c10.247 0 20.267 3.021 28.977 8.846 23.979 16.038 30.44 48.595 14.402 72.574z"/>
	<path d="M183.734 67.74a7.5 7.5 0 0 0-7.5 7.5v1.03c0 4.142 3.357 7.5 7.5 7.5s7.5-3.358 7.5-7.5v-1.03a7.5 7.5 0 0 0-7.5-7.5zM204.972 67.74a7.5 7.5 0 0 0-7.5 7.5v1.03c0 4.142 3.357 7.5 7.5 7.5s7.5-3.358 7.5-7.5v-1.03a7.5 7.5 0 0 0-7.5-7.5zM226.211 67.74a7.5 7.5 0 0 0-7.5 7.5v1.03a7.5 7.5 0 0 0 15 0v-1.03a7.5 7.5 0 0 0-7.5-7.5zM287.619 67.739a7.5 7.5 0 0 0-7.5 7.5v1.03c0 4.142 3.357 7.5 7.5 7.5s7.5-3.358 7.5-7.5v-1.03a7.5 7.5 0 0 0-7.5-7.5zM308.858 67.739a7.5 7.5 0 0 0-7.5 7.5v1.03c0 4.142 3.357 7.5 7.5 7.5s7.5-3.358 7.5-7.5v-1.03a7.5 7.5 0 0 0-7.5-7.5zM330.096 67.739a7.5 7.5 0 0 0-7.5 7.5v1.03c0 4.142 3.357 7.5 7.5 7.5s7.5-3.358 7.5-7.5v-1.03a7.5 7.5 0 0 0-7.5-7.5z"/>
</symbol>
<symbol id="ic_mannequin" viewBox="0 0 496 496">
	<path d="M488 240H338.36l8.352-32H368c17.648 0 32-14.352 32-32v-48c0-15-10.408-27.52-24.352-30.976l9.064-34.736L382.4 59.2c-1.032-1.384-25.088-32.504-86.4-35.04V0h-96v24.168c-61.312 2.528-85.368 33.648-86.4 35.032l-2.32 3.088L120.08 96H0v64h136.768l8.352 32H136c-17.648 0-32 14.352-32 32v48c0 17.648 14.352 32 32 32h4.664c-3.04 14.168-4.664 27.608-4.664 40v4.944l4.424 2.208c1.216.608 27.248 13.256 83.576 16.216V496h16V367.888c2.648.048 5.24.112 8 .112s5.352-.064 8-.112V496h16V367.368c56.328-2.96 82.36-15.608 83.576-16.216l4.424-2.208V344c0-12.392-1.624-25.832-4.664-40H496v-64h-8zm-120-48h-17.12l8.352-32H368c8.816 0 16 7.176 16 16 0 8.816-7.184 16-16 16zM208 40h8V16h64v24h8c48.552 0 72.032 18.944 79.176 26.128L359.376 96H136.624l-7.8-29.872C136.016 58.904 159.488 40 208 40zM32 144H16v-32h16c8.816 0 16 7.176 16 16 0 8.816-7.184 16-16 16zm27.552 0C62.304 139.272 64 133.856 64 128s-1.696-11.272-4.448-16H368c8.816 0 16 7.176 16 16v20.296A31.779 31.779 0 0 0 368 144H59.552zM136 208h13.296l8.352 32H136c-8.816 0-16-7.184-16-16 0-8.824 7.184-16 16-16zm112 144c-54.008 0-84.976-9.272-95.896-13.312.408-10.768 2.12-22.416 4.952-34.688h181.896c2.832 12.264 4.536 23.92 4.952 34.688C332.952 342.736 301.992 352 248 352zm188.448-64H136c-8.816 0-16-7.184-16-16v-20.448c4.728 2.752 10.144 4.448 16 4.448h152v-16H174.184l-20.872-80h189.376l-20.872 80H304v16h132.448c-2.752 4.728-4.448 10.144-4.448 16s1.696 11.272 4.448 16zM480 288h-16c-8.824 0-16-7.184-16-16 0-8.824 7.176-16 16-16h16v32z"/>
</symbol>
<symbol id="ic_medal" viewBox="0 0 512.002 512.002">
	<path d="M499.642 207.617c-3.718-2.257-8.385-1.819-11.611 1.091a350.117 350.117 0 0 1-26.158 21.398 289.818 289.818 0 0 0 5.11-19.03c15.102-8.629 27.192-22.76 35.097-41.084 7.274-16.862 10.74-36.822 9.759-56.204-.221-4.354-3.218-7.963-7.459-8.982-4.252-1.017-8.573.838-10.755 4.631a337.67 337.67 0 0 1-18.502 28.76c-.044-7.929-.389-15.619-1.034-23.015-.002-.148 0-.295-.011-.444-1.716-22.852-5.929-45.76-12.52-68.086a7.511 7.511 0 1 0-14.409 4.253 315.159 315.159 0 0 1 9.499 43.184 340.163 340.163 0 0 0-25.594-22.386 9.754 9.754 0 0 0-11.444-.48 9.743 9.743 0 0 0-4.042 10.703c9.008 33.111 24.067 61.348 43.624 81.957a272.95 272.95 0 0 1-2.222 19.47 326.117 326.117 0 0 0-17.646-27.855 9.776 9.776 0 0 0-10.742-3.727 9.751 9.751 0 0 0-6.991 8.938c-.984 23.341 1.333 57.403 17.545 88.99a276.73 276.73 0 0 1-7.657 17.536 321.096 321.096 0 0 0-8.835-31.562 9.779 9.779 0 0 0-9.188-6.653h-.078a9.756 9.756 0 0 0-9.194 6.49c-10.759 30.375-13.88 62.085-8.931 89.766a275.33 275.33 0 0 1-12.509 14.656 314.695 314.695 0 0 0 .813-32.867 9.775 9.775 0 0 0-6.849-9.049 9.752 9.752 0 0 0-10.766 3.51c-19.249 26.098-31.736 55.769-35.422 83.934-20.016 15.067-30.583 19.066-41.74 23.284-9.194 3.476-18.579 7.033-32.779 16.499-14.2-9.467-23.585-13.023-32.779-16.499-11.157-4.218-21.725-8.218-41.74-23.284-3.686-28.166-16.173-57.837-35.423-83.935a9.758 9.758 0 0 0-10.765-3.509 9.774 9.774 0 0 0-6.849 9.051 314.663 314.663 0 0 0 .813 32.865 274.933 274.933 0 0 1-12.509-14.656c4.949-27.681 1.828-59.391-8.931-89.767a9.754 9.754 0 0 0-9.194-6.489h-.078a9.779 9.779 0 0 0-9.189 6.655 320.899 320.899 0 0 0-8.834 31.56 277.305 277.305 0 0 1-7.657-17.536c16.212-31.587 18.529-65.649 17.545-88.992a9.75 9.75 0 0 0-6.991-8.936 9.778 9.778 0 0 0-10.742 3.727 325.804 325.804 0 0 0-17.646 27.855 272.95 272.95 0 0 1-2.222-19.47c19.557-20.609 34.616-48.845 43.624-81.957a9.743 9.743 0 0 0-4.042-10.703 9.756 9.756 0 0 0-11.444.48 340.163 340.163 0 0 0-25.594 22.386 315.126 315.126 0 0 1 9.499-43.184 7.511 7.511 0 0 0-5.078-9.331c-3.975-1.176-8.156 1.098-9.331 5.078-6.591 22.327-10.803 45.234-12.52 68.086-.011.149-.008.296-.011.444-.646 7.396-.99 15.086-1.034 23.015a337.662 337.662 0 0 1-18.503-28.763c-2.181-3.79-6.501-5.644-10.754-4.628-4.241 1.019-7.238 4.628-7.459 8.983-.981 19.381 2.485 39.341 9.759 56.203 7.905 18.325 19.995 32.455 35.097 41.084a289.192 289.192 0 0 0 5.11 19.03 350.074 350.074 0 0 1-26.156-21.397 9.708 9.708 0 0 0-11.613-1.091 9.686 9.686 0 0 0-4.376 10.783c8.684 33.385 33.876 69.874 71 78.168a290.639 290.639 0 0 0 10.367 16.628 357.607 357.607 0 0 1-31.195-12.752 9.719 9.719 0 0 0-11.411 2.364 9.691 9.691 0 0 0-1.033 11.58c17.157 27.98 49.51 54.334 85.399 54.334a72.84 72.84 0 0 0 5.31-.202c9.927 9.272 21.193 18.368 33.567 27.071 23.314 17.898 35.824 22.628 47.92 27.201 7.529 2.846 14.858 5.622 25.003 11.863-7.767 5.953-16.764 13.423-27.437 22.973a7.51 7.51 0 0 0-.589 10.606 7.49 7.49 0 0 0 5.6 2.503 7.48 7.48 0 0 0 5.006-1.914c12.377-11.075 22.27-19.169 30.508-25.256 8.238 6.087 18.131 14.181 30.508 25.256a7.48 7.48 0 0 0 5.006 1.914 7.491 7.491 0 0 0 5.6-2.503 7.51 7.51 0 0 0-.589-10.606c-10.673-9.551-19.67-17.02-27.437-22.973 10.145-6.24 17.475-9.016 25.003-11.863 12.097-4.573 24.607-9.304 47.92-27.201 12.375-8.703 23.64-17.8 33.567-27.071 1.777.13 3.547.202 5.31.202 35.885 0 68.243-26.356 85.399-54.334a9.691 9.691 0 0 0-1.033-11.58 9.713 9.713 0 0 0-11.409-2.364 357.957 357.957 0 0 1-31.197 12.752 290.309 290.309 0 0 0 10.367-16.629c37.124-8.294 62.316-44.783 71-78.169 1.095-4.197-.664-8.53-4.372-10.782zm-28.092-20.248c.207-1.327.412-2.653.6-3.969.115-.808.218-1.608.326-2.412.166-1.231.329-2.461.477-3.682.1-.823.191-1.64.284-2.458.135-1.193.265-2.383.383-3.565a305.051 305.051 0 0 0 .53-5.958c.034-.431.079-.871.11-1.301a342.635 342.635 0 0 0 21.882-29.931c-2.448 20.436-10.365 41.226-24.873 55.136.101-.624.184-1.238.281-1.86zM15.861 134.093a342.484 342.484 0 0 0 21.882 29.931c.031.43.077.869.11 1.301a262.814 262.814 0 0 0 .53 5.958c.119 1.182.248 2.372.383 3.565.092.818.184 1.635.284 2.458.149 1.221.312 2.451.477 3.682.108.804.211 1.604.326 2.412.188 1.316.393 2.642.6 3.969.097.622.18 1.236.281 1.861-14.508-13.91-22.425-34.7-24.873-55.137zm59.514 44.433c-.826 18.08-4.183 35.296-9.84 50.522-.175-.553-.345-1.104-.517-1.655a302.388 302.388 0 0 1-.979-3.192c-.233-.78-.456-1.556-.681-2.332-.296-1.022-.59-2.043-.872-3.059-.222-.8-.436-1.596-.649-2.391-.263-.98-.522-1.957-.771-2.93-.208-.812-.409-1.62-.607-2.427-.233-.948-.461-1.893-.681-2.833-.097-.412-.188-.822-.282-1.233 4.941-9.98 10.195-19.402 15.879-28.47zm-23.459-41.999c.01-.847.028-1.687.045-2.528.022-1.088.046-2.174.08-3.251.027-.848.061-1.689.096-2.53.043-1.049.09-2.094.145-3.132a255.31 255.31 0 0 1 .354-5.543c.034-.451.071-.899.107-1.348 7.75-8.337 15.651-16.055 23.884-23.322-6.386 17.781-14.734 33.601-24.723 46.867-.004-.624-.002-1.243-.002-1.864.001-1.12.001-2.239.014-3.349zm-22.964 96.192a355.18 355.18 0 0 0 29.536 21.497c.159.408.334.821.496 1.23a278.958 278.958 0 0 0 3.572 8.588c.333.766.665 1.531 1.008 2.3a294.36 294.36 0 0 0 1.492 3.284c.337.733.668 1.463 1.013 2.198.56 1.193 1.139 2.39 1.719 3.588.261.539.508 1.075.774 1.615-17.735-8.84-31.293-25.952-39.61-44.3zm69.656 24.076c4.414 17.299 6.167 34.638 5.155 50.878-.358-.522-.711-1.043-1.064-1.564-.576-.85-1.152-1.7-1.715-2.548-.475-.717-.939-1.432-1.404-2.147a280.756 280.756 0 0 1-1.648-2.556c-.456-.718-.902-1.434-1.348-2.15a270.712 270.712 0 0 1-1.559-2.529 276.276 276.276 0 0 1-2.771-4.67c-.206-.356-.407-.711-.611-1.067 1.843-10.921 4.146-21.394 6.965-31.647zm-28.729 65.102a361.67 361.67 0 0 0 34.451 11.912c.279.355.575.71.857 1.064a254.31 254.31 0 0 0 2.108 2.616c.529.648 1.059 1.295 1.598 1.943.738.888 1.489 1.776 2.245 2.664.537.63 1.072 1.26 1.618 1.891.8.924 1.617 1.846 2.437 2.769.526.592 1.045 1.183 1.579 1.775.903 1.001 1.826 2 2.751 2.999.397.429.779.858 1.18 1.287-19.576-3.351-37.538-15.795-50.824-30.92zm92.354 49.086c-.83-.666-1.661-1.333-2.477-2.002-.668-.548-1.325-1.098-1.983-1.648a275.68 275.68 0 0 1-2.393-2.016c-.645-.551-1.28-1.103-1.914-1.655a262.697 262.697 0 0 1-2.316-2.036 274.884 274.884 0 0 1-4.08-3.714c-.306-.284-.607-.569-.91-.854-1.481-11.037-2.371-21.782-2.686-32.471 9.373 15.378 16.266 31.595 20.237 47.578-.496-.394-.986-.788-1.478-1.182zm203.609-13.925c-.303.285-.604.57-.91.854a274.884 274.884 0 0 1-4.08 3.714c-.763.68-1.537 1.358-2.316 2.036-.635.552-1.27 1.104-1.914 1.655-.789.674-1.59 1.345-2.393 2.016-.658.55-1.315 1.1-1.983 1.648-.816.669-1.647 1.336-2.477 2.002-.491.394-.981.788-1.477 1.181 3.972-15.983 10.865-32.2 20.237-47.578-.315 10.689-1.206 21.435-2.687 32.472zm47.552-100.263c2.819 10.252 5.122 20.726 6.965 31.647-.204.356-.405.711-.611 1.067a271.148 271.148 0 0 1-4.33 7.199c-.446.716-.892 1.432-1.348 2.15-.541.851-1.094 1.704-1.648 2.556-.465.715-.929 1.431-1.404 2.147a299.55 299.55 0 0 1-1.715 2.548c-.353.521-.706 1.042-1.064 1.564-1.012-16.239.741-33.579 5.155-50.878zm28.73 65.102c-13.288 15.126-31.247 27.57-50.825 30.92.446-.477.872-.955 1.314-1.432.87-.941 1.74-1.882 2.591-2.824.565-.626 1.115-1.252 1.671-1.879.792-.892 1.581-1.783 2.354-2.675.56-.646 1.109-1.292 1.659-1.938a302.06 302.06 0 0 0 2.212-2.624 279.346 279.346 0 0 0 3.714-4.569c.283-.356.58-.711.86-1.067a362.219 362.219 0 0 0 34.45-11.912zm-6.749-227.024c8.232 7.267 16.134 14.985 23.884 23.322.036.449.074.897.107 1.348a259.227 259.227 0 0 1 .499 8.679c.034.839.068 1.679.095 2.525.034 1.077.058 2.164.08 3.252.017.841.036 1.681.046 2.528.013 1.11.013 2.229.014 3.349 0 .621.002 1.24-.002 1.864-9.989-13.264-18.339-29.088-24.723-46.867zm1.252 83.653c5.685 9.068 10.938 18.491 15.878 28.468-.094.411-.185.821-.282 1.233a277.505 277.505 0 0 1-1.288 5.26c-.249.973-.508 1.951-.771 2.93-.213.796-.427 1.591-.649 2.391a299.242 299.242 0 0 1-.872 3.059c-.225.777-.448 1.552-.681 2.332a295.34 295.34 0 0 1-.979 3.192c-.171.551-.341 1.102-.517 1.655-5.656-15.224-9.014-32.441-9.839-50.52zm6.813 98.494c.265-.54.513-1.076.774-1.615.58-1.198 1.16-2.395 1.719-3.588.345-.734.676-1.465 1.013-2.198a311.87 311.87 0 0 0 1.492-3.284c.342-.769.674-1.534 1.008-2.3a287.46 287.46 0 0 0 1.353-3.153 279.088 279.088 0 0 0 2.22-5.435c.162-.409.337-.822.496-1.23a354.952 354.952 0 0 0 29.536-21.497c-8.318 18.348-21.876 35.459-39.611 44.3z"/>
	<path d="M389.142 191.801a12.791 12.791 0 0 0-1.97-7.131l-38.639-61.046a12.768 12.768 0 0 0-4.904-4.504c-.063-.032-.128-.06-.192-.091a12.787 12.787 0 0 0-5.735-1.368H174.299c-2.041 0-3.993.494-5.746 1.373-.06.028-.12.054-.178.084a12.773 12.773 0 0 0-4.906 4.504l-10.396 16.423a7.511 7.511 0 0 0 2.329 10.364 7.51 7.51 0 0 0 10.364-2.329l5.632-8.897 28.764 45.154-57.346.002 4.054-6.404a7.511 7.511 0 0 0-2.329-10.364 7.51 7.51 0 0 0-10.364 2.329l-9.348 14.768a12.783 12.783 0 0 0-1.97 7.131l-.003.051c0 .029.004.057.004.086.006.156.014.31.024.464.008.116.017.233.031.348a12.785 12.785 0 0 0 2.661 6.686l120.341 153.402a12.716 12.716 0 0 0 8.099 4.736c.652.101 1.312.171 1.985.171a12.88 12.88 0 0 0 2.262-.219 12.717 12.717 0 0 0 7.822-4.688l120.341-153.401a12.788 12.788 0 0 0 2.661-6.687c.014-.115.022-.23.031-.346.011-.155.019-.309.023-.464 0-.029.004-.057.004-.086l-.003-.051zm-62.209-59.119l-28.785 45.185-28.784-45.185h57.569zm-42.475 51.653h-57.567l28.784-45.185 28.783 45.185zm-99.389-51.653h56.915l-28.457 44.672-28.458-44.672zm-40.457 66.679l63.437-.003 31.575 121.116-95.012-121.113zm127.661 121.248l15.386-59.478a7.51 7.51 0 0 0-5.391-9.153 7.505 7.505 0 0 0-9.152 5.391l-17.142 66.266-32.399-124.277h64.547l-6.169 23.851a7.51 7.51 0 0 0 5.391 9.152 7.537 7.537 0 0 0 1.886.242 7.514 7.514 0 0 0 7.267-5.633l7.142-27.613 63.753.003-95.119 121.249zm39.565-136.273l28.765-45.154 28.582 45.156-57.347-.002z"/>
</symbol>
<symbol id="ic_pay" viewBox="0 0 64 64">
	<g data-name="Payment Method">
		<path d="M57 21h-3v2h3a3 3 0 0 1 3 3v28a3 3 0 0 1-3 3H7a3 3 0 0 1-3-3V26a3 3 0 0 1 3-3h13v-2H7a5.006 5.006 0 0 0-5 5v28a5.006 5.006 0 0 0 5 5h50a5.006 5.006 0 0 0 5-5V26a5.006 5.006 0 0 0-5-5z"/>
		<path d="M19 27H9a1 1 0 0 0-1 1v10a1 1 0 0 0 1 1h10a1 1 0 0 0 1-1V28a1 1 0 0 0-1-1zm-1 4h-4v-2h4zm-6-2v2h-2v-2zm-2 4h2v4h-2zm4 4v-4h4v4zM46.5 42.143a6 6 0 1 0 0 9.714 6 6 0 1 0 0-9.714zM39 47a4.007 4.007 0 0 1 6.793-2.873 4.021 4.021 0 0 1 0 5.741A4.006 4.006 0 0 1 39 47zm15 0a4.01 4.01 0 0 1-6.074 3.428.275.275 0 0 1 .017-.029 6.274 6.274 0 0 0 .405-.689c.028-.055.053-.111.08-.167a6.008 6.008 0 0 0 .275-.69c.008-.024.018-.046.025-.069A5.926 5.926 0 0 0 48.91 48l.028-.189a5.388 5.388 0 0 0 0-1.63c-.009-.063-.018-.127-.029-.19a5.876 5.876 0 0 0-.18-.777c-.008-.026-.02-.052-.028-.078a6.017 6.017 0 0 0-.27-.673c-.029-.062-.057-.124-.088-.185a5.961 5.961 0 0 0-.4-.675c-.008-.011-.013-.024-.02-.035A4.01 4.01 0 0 1 54 47zM8 46h4v2H8zM14 46h4v2h-4zM20 46h4v2h-4zM26 46h4v2h-4zM8 51h8v2H8zM18 51h12v2H18zM24 33h26a2 2 0 0 0 2-2V7a2 2 0 0 0-2-2H24a2 2 0 0 0-2 2v24a2 2 0 0 0 2 2zm0-2V15h8v2a2 2 0 0 0 2 2h6a2 2 0 0 0 2-2v-2h8v16zm8-18h-8v-2h8zm10-2h8v2h-8zm8-2h-8V7h8zM40 7v10h-6V7zm-8 0v2h-8V7z"/>
		<path d="M44 26h4v2h-4zM40 26h2v2h-2z"/>
	</g>
</symbol>
<symbol id="ic_phone" viewBox="0 0 511.999 511.999">
	<path d="M498.827 377.633l-63.649-63.649c-17.548-17.547-46.102-17.547-63.649 0l-28.931 28.931c-13.294 13.294-34.926 13.29-48.215.005l-125.4-125.507c-13.325-13.325-13.327-34.892 0-48.219l28.931-28.931c17.471-17.47 17.715-45.935-.017-63.665l-63.632-63.432C116.717-4.381 88.164-4.381 70.663 13.12L47.471 36.111c-63.28 63.279-63.28 166.242-.003 229.519L246.16 464.426c63.428 63.429 166.088 63.434 229.521 0l23.146-23.145c17.548-17.548 17.548-46.1 0-63.648zM91.833 34.382c5.849-5.849 15.365-5.85 21.233.016l63.632 63.432c5.863 5.863 5.863 15.352 0 21.216l-10.609 10.608-84.81-84.81 10.554-10.462zM267.38 443.213L68.687 244.415c-48.958-48.958-51.649-125.833-8.276-178.006l84.564 84.564c-22.22 25.189-21.294 63.572 2.787 87.653l125.396 125.501.004.004c24.055 24.056 62.436 25.042 87.656 2.792l84.566 84.566c-52.007 43.298-128.709 41.019-178.004-8.276zm210.232-23.148l-10.609 10.609-84.865-84.866 10.607-10.608c5.85-5.849 15.367-5.85 21.217 0l63.649 63.649c5.85 5.85 5.85 15.368.001 21.216z"/>
</symbol>
<symbol id="ic_product" viewBox="-10 0 492 492.011">
	<path d="M455.953 228c0-92.215-55.55-175.355-140.75-210.645C230.008-17.934 131.941 1.57 66.73 66.781c-78.242 78.309-88.949 201.5-25.378 292.13 63.566 90.628 183.039 122.515 283.312 75.609l-1.941 46.054c0 .113-.004.227-.004.34a11.099 11.099 0 0 0 6.41 10.086 10.882 10.882 0 0 0 11.754-1.7l43.07-37.109 43.086 37.121A10.862 10.862 0 0 0 438.777 491a11.104 11.104 0 0 0 6.41-10.09c0-.11 0-.223-.003-.336l-4.13-98c35.786-30.469 41.25-83.703 12.407-120.808A230.905 230.905 0 0 0 455.953 228zm-228 212c-116.898 0-212-95.098-212-212 0-116.898 95.102-212 212-212s212 95.102 212 212c0 6.39-.3 12.79-.863 19.145a87.402 87.402 0 0 0-55.074-19.47 89.022 89.022 0 0 0-24.063 3.364v-64.117a8.059 8.059 0 0 0-5.61-7.613l-115.898-37.371a8.094 8.094 0 0 0-4.925 0l-115.946 37.37a8.066 8.066 0 0 0-5.62 7.614v158.156a8.055 8.055 0 0 0 5.609 7.613l115.898 37.371a8.06 8.06 0 0 0 4.934 0l64.257-20.718a88.43 88.43 0 0 0 24.2 33.234l-1.418 33.715A212.309 212.309 0 0 1 227.954 440zm68.063-124.324a87.916 87.916 0 0 0 1.91 18.39l-57.973 18.688V211.406l104-33.5v59.461c-29.562 14.871-48.14 45.219-47.937 78.309zM127.953 177.91l96 30.918v141.344l-96-30.918zm108 17.977l-89.808-28.965 89.808-28.961 89.809 28.96zm192.754 273.746l-37.336-32.172a10.801 10.801 0 0 0-14.836 0L339.2 469.633l3.219-76.395a87.854 87.854 0 0 0 83.07 0zm-44.754-81.957c-39.765 0-72-32.235-72-72s32.235-72 72-72 72 32.234 72 72c-.043 39.746-32.254 71.957-72 72zm0 0"/>
	<path d="M419.605 280.93l-47.261 47.257-24.016-24.25a8.002 8.002 0 0 0-11.371 11.258l29.676 30.2a8.218 8.218 0 0 0 5.664 2.605h.012a8.238 8.238 0 0 0 5.664-2.578l52.945-53.063a8.036 8.036 0 0 0 .059-11.37c-3.122-3.16-8.215-3.184-11.372-.06zm0 0"/>
</symbol>
<symbol id="ic_sewing" viewBox="0 0 497.456 497">
	<path d="M481.426 384.234l-13.883-10.992c4.352-28.414 13.793-55.957 28.129-81.055l-13.887-7.933c-13.808 24.168-23.41 50.453-28.586 77.637l-44.472-35.2v-78.464h88.73L483.434 86.949a55.976 55.976 0 0 0-38.082-48.281L330.023.227h-41.296v8c0 22.058-17.942 40-40 40-22.055 0-40-17.942-40-40v-8h-41.293L52.105 38.668a55.96 55.96 0 0 0-38.082 48.281L0 248.227h88.727v248h320v-24.903c24.328-2.77 37.992-11.336 43.195-15.351 1.469.168 2.957.254 4.453.254 22.25 0 40.352-18.102 40.352-40.352 0-12.398-5.575-23.934-15.301-31.64zm-88.7 95.993h-288v-360h-16v112H17.458l1.39-16h53.88v-16H20.238l9.73-111.895a39.974 39.974 0 0 1 27.2-34.48l104.297-34.766c5.375 43.406 42.422 77.14 87.262 77.14 32.808 0 62.671-18.054 77.953-47.124l-14.168-7.45c-12.496 23.801-36.946 38.575-63.785 38.575-36.993 0-67.528-28.055-71.528-64h16.098c3.894 27.105 27.262 48 55.43 48s51.539-20.895 55.433-48h15.969c-.512 4.617-1.305 9.183-2.695 13.601l15.261 4.8c1.594-5.065 2.657-10.273 3.305-15.542l104.281 34.758a39.963 39.963 0 0 1 27.2 34.48l9.734 111.903h-52.488v16h53.882l1.391 16h-71.273v-112h-16V314.02l-86.606-68.56 24.606-26.847a53.113 53.113 0 0 0 14-35.984v-1.145c0-29.367-23.887-53.257-53.254-53.257-14.227 0-27.602 5.539-37.657 15.601l-5.09 5.086-5.085-5.086c-10.067-10.062-23.434-15.601-37.657-15.601-29.367 0-53.257 23.89-53.257 53.257v1.145a53.117 53.117 0 0 0 14 35.984l82 89.453 38.007-41.46 105.993 133.878v55.743c-19.887 0-37.032-7.551-56.887-16.301-25.215-11.106-53.793-23.7-95.113-23.7v16c37.953 0 63.73 11.364 88.664 22.337 20.609 9.09 40.082 17.664 63.336 17.664zm-144-195.84l-70.206-76.59a37.181 37.181 0 0 1-9.793-25.168v-1.145c0-20.543 16.714-37.257 37.257-37.257 9.953 0 19.313 3.875 26.344 10.914l16.399 16.398 16.402-16.398c7.039-7.04 16.39-10.914 26.344-10.914 20.543 0 37.254 16.714 37.254 37.257v1.145c0 9.336-3.48 18.277-9.79 25.168zm160 170.816V420.7l16.008 20.227c2.387 3.008 5.16 5.558 8.188 7.734-5.547 2.52-13.508 5.145-24.195 6.543zm47.649-14.976c-7.488 0-14.445-3.368-19.086-9.23L307.305 266.804l143.16 113.336c-1.09 9.472-1.738 19.007-1.738 28.582v8.25l16-.746v-7.504c0-5.606.25-11.2.648-16.782l6.121 4.84c5.863 4.649 9.23 11.614 9.23 19.094 0 13.426-10.925 24.352-24.351 24.352zm0 0"/>
</symbol>
<symbol id="ic_social_arroba" viewBox="0 0 512 512">
	<path fill="#186a47" d="M257 210c-24.814 0-45 20.186-45 45s20.186 45 45 45 45-20.186 45-45-20.186-45-45-45z" class="active-path" data-old_color="#186a47" data-original="#000000"/>
	<path fill="#186a47" d="M255 0C114.39 0 0 114.39 0 255s114.39 257 255 257 257-116.39 257-257S395.61 0 255 0zm107 330c-20.273 0-38.152-10.161-49.017-25.596C299.23 319.971 279.354 330 257 330c-41.353 0-75-33.647-75-75s33.647-75 75-75c16.948 0 32.426 5.865 45 15.383V195c0-8.291 6.709-15 15-15s15 6.709 15 15v75c0 16.538 13.462 30 30 30s30-13.462 30-30c0-100.391-66.432-150-135-150-74.443 0-135 60.557-135 135s60.557 135 135 135c30 0 58.374-9.609 82.061-27.803 15.822-12.078 33.94 11.765 18.281 23.789C328.353 408.237 293.665 420 257 420c-90.981 0-165-74.019-165-165S166.019 90 257 90c82.897 0 165 61.135 165 180 0 33.091-26.909 60-60 60z" class="active-path" data-old_color="#186a47" data-original="#000000"/>
</symbol>
<symbol id="ic_social_fb" viewBox="0 0 97.75 97.75">
	<path fill="#3b5998" d="M48.875 0C21.882 0 0 21.882 0 48.875S21.882 97.75 48.875 97.75 97.75 75.868 97.75 48.875 75.868 0 48.875 0zm18.646 24.89l-6.76.003c-5.301 0-6.326 2.519-6.326 6.215v8.15h12.641l-.006 12.765H54.436v32.758H41.251V52.023H30.229V39.258h11.022v-9.414c0-10.925 6.675-16.875 16.42-16.875l9.851.015V24.89h-.001z" class="active-path" data-old_color="#3b5998" data-original="#000000"/>
</symbol>
<symbol id="ic_social_inst" viewBox="0 0 475 474">
	<radialGradient id="ic_social_inst-a" cx="1.826%" cy="90.829%" r="144.577%" fx="1.826%" fy="90.829%">
		<stop offset="0%" stop-color="#FED576"/>
		<stop offset="26.34%" stop-color="#F47133"/>
		<stop offset="60.91%" stop-color="#BC3081"/>
		<stop offset="100%" stop-color="#4C63D2"/>
	</radialGradient>
	<path fill="url(&apos;#ic_social_inst-a&apos;)" d="M0 230.697v12.8c3.3 122.4 101.9 220.7 219.2 229.9h36.1c118-9.3 214.9-108.5 218.1-230.1v-12.6c-3.2-123.8-103.5-224.2-224.3-230.4-130-6.6-245.5 97.7-249.1 230.4z"/>
	<path fill="#FFF" d="M237.8 118.897c37.7 0 42.2.1 57.1.8 13.8.6 21.2 3 26.2 4.9 6.6 2.6 11.3 5.7 16.2 10.7 4.9 5 8 9.8 10.6 16.5 1.9 5.1 4.2 12.7 4.9 26.7.7 15.2.8 19.7.8 58.1 0 38.4-.1 42.9-.8 58.1-.6 14-2.9 21.6-4.9 26.7-2.6 6.7-5.6 11.5-10.6 16.5-4.9 5-9.6 8.1-16.2 10.7-5 2-12.5 4.3-26.2 4.9-14.9.7-19.4.8-57.1.8s-42.2-.1-57.1-.8c-13.8-.6-21.2-3-26.2-4.9-6.6-2.6-11.3-5.7-16.2-10.7-4.9-5-8-9.8-10.6-16.5-1.9-5.1-4.2-12.7-4.9-26.7-.7-15.2-.8-19.7-.8-58.1 0-38.4.1-42.9.8-58.1.6-14 2.9-21.6 4.9-26.7 2.6-6.7 5.6-11.5 10.6-16.5 4.9-5 9.6-8.1 16.2-10.7 5-2 12.5-4.3 26.2-4.9 14.9-.6 19.4-.8 57.1-.8zm0-25.9c-38.4 0-43.2.2-58.2.9s-25.3 3.1-34.3 6.7c-9.3 3.7-17.2 8.6-25 16.6-7.9 8-12.7 16-16.3 25.5-3.5 9.1-5.9 19.6-6.6 34.9-.7 15.3-.8 20.2-.8 59.2s.2 43.9.8 59.2c.7 15.3 3.1 25.7 6.6 34.9 3.6 9.4 8.4 17.5 16.3 25.5s15.7 12.9 25 16.6c9 3.6 19.3 6 34.3 6.7 15.1.7 19.9.9 58.2.9 38.3 0 43.2-.2 58.2-.9s25.3-3.1 34.3-6.7c9.3-3.7 17.2-8.6 25-16.6 7.9-8 12.7-16 16.3-25.5 3.5-9.1 5.9-19.6 6.6-34.9.7-15.3.8-20.2.8-59.2s-.2-43.9-.8-59.2c-.7-15.3-3.1-25.7-6.6-34.9-3.6-9.4-8.4-17.5-16.3-25.5s-15.7-12.9-25-16.6c-9-3.6-19.3-6-34.3-6.7-15-.7-19.9-.9-58.2-.9z"/>
	<path fill="#FFF" d="M237.8 162.897c-40.1 0-72.5 33-72.5 73.8s32.5 73.8 72.5 73.8 72.5-33 72.5-73.8-32.5-73.8-72.5-73.8zm0 121.7c-26 0-47.1-21.4-47.1-47.9s21.1-47.9 47.1-47.9 47.1 21.4 47.1 47.9-21.1 47.9-47.1 47.9z"/>
	<ellipse cx="313.2" cy="159.997" fill="#FFF" rx="16.9" ry="17.2"/>
</symbol>
<symbol id="ic_social_ok" viewBox="0 0 97.75 97.75">
	<path fill="#f4731c" d="M48.921 40.507a8.367 8.367 0 0 0 8.367-8.443c-.017-4.679-3.742-8.402-8.411-8.406a8.398 8.398 0 0 0-8.432 8.508c.035 4.66 3.794 8.358 8.476 8.341z" class="active-path" data-old_color="#f4731c" data-original="#000000"/>
	<path fill="#f4731c" d="M48.875 0C21.882 0 0 21.883 0 48.875S21.882 97.75 48.875 97.75 97.75 75.867 97.75 48.875 75.868 0 48.875 0zm.07 14.863c9.52.026 17.161 7.813 17.112 17.438-.048 9.403-7.814 17.024-17.318 16.992-9.407-.032-17.122-7.831-17.066-17.253.053-9.525 7.772-17.203 17.272-17.177zm19.282 41.194c-2.105 2.161-4.639 3.725-7.453 4.816-2.66 1.031-5.575 1.55-8.461 1.896.437.474.642.707.914.979 3.916 3.937 7.851 7.854 11.754 11.802 1.33 1.346 1.607 3.014.875 4.577-.799 1.71-2.592 2.834-4.351 2.713-1.114-.077-1.983-.63-2.754-1.407-2.956-2.974-5.968-5.895-8.862-8.925-.845-.882-1.249-.714-1.994.052a589.856 589.856 0 0 1-9.034 9.072c-1.365 1.346-2.989 1.59-4.573.82-1.683-.814-2.753-2.533-2.671-4.262.058-1.166.632-2.06 1.434-2.858 3.877-3.869 7.742-7.75 11.608-11.628.257-.257.495-.53.868-.93-5.273-.551-10.028-1.849-14.099-5.032-.506-.396-1.027-.778-1.487-1.222-1.783-1.711-1.962-3.672-.553-5.69 1.207-1.728 3.231-2.19 5.336-1.197.408.191.796.433 1.168.689 7.586 5.213 18.008 5.356 25.624.233.754-.576 1.561-1.05 2.496-1.289 1.816-.468 3.512.201 4.486 1.791 1.115 1.817 1.102 3.589-.271 5z" class="active-path" data-old_color="#f4731c" data-original="#000000"/>
</symbol>
<symbol id="ic_social_vk" viewBox="0 0 97.75 97.75">
	<path fill="#45668e" d="M48.875 0C21.883 0 0 21.882 0 48.875S21.883 97.75 48.875 97.75 97.75 75.868 97.75 48.875 75.867 0 48.875 0zm24.792 54.161c2.278 2.225 4.688 4.319 6.733 6.774.906 1.086 1.76 2.209 2.41 3.472.928 1.801.09 3.776-1.522 3.883l-10.013-.002c-2.586.214-4.644-.829-6.379-2.597-1.385-1.409-2.67-2.914-4.004-4.371-.545-.598-1.119-1.161-1.803-1.604-1.365-.888-2.551-.616-3.333.81-.797 1.451-.979 3.059-1.055 4.674-.109 2.361-.821 2.978-3.19 3.089-5.062.237-9.865-.531-14.329-3.083-3.938-2.251-6.986-5.428-9.642-9.025-5.172-7.012-9.133-14.708-12.692-22.625-.801-1.783-.215-2.737 1.752-2.774 3.268-.063 6.536-.055 9.804-.003 1.33.021 2.21.782 2.721 2.037 1.766 4.345 3.931 8.479 6.644 12.313.723 1.021 1.461 2.039 2.512 2.76 1.16.796 2.044.533 2.591-.762.35-.823.501-1.703.577-2.585.26-3.021.291-6.041-.159-9.05-.28-1.883-1.339-3.099-3.216-3.455-.956-.181-.816-.535-.351-1.081.807-.944 1.563-1.528 3.074-1.528l11.313-.002c1.783.35 2.183 1.15 2.425 2.946l.01 12.572c-.021.695.349 2.755 1.597 3.21 1 .33 1.66-.472 2.258-1.105 2.713-2.879 4.646-6.277 6.377-9.794.764-1.551 1.423-3.156 2.063-4.764.476-1.189 1.216-1.774 2.558-1.754l10.894.013c.321 0 .647.003.965.058 1.836.314 2.339 1.104 1.771 2.895-.894 2.814-2.631 5.158-4.329 7.508-1.82 2.516-3.761 4.944-5.563 7.471-1.656 2.31-1.525 3.473.531 5.479z" class="active-path" data-old_color="#45668e" data-original="#000000"/>
</symbol>
<symbol id="ic_towel" viewBox="0 0 496 496">
	<path d="M287.36 48C283.456 20.902 260.151 0 232 0H56C25.121 0 0 25.121 0 56v384c0 30.879 25.121 56 56 56h440V48zM480 160h-32v16h32v32H288v-32h144v-16H288V64h192zm-208 32H16v-32h256zm16 32h192v32H288zM56 16h176c22.055 0 40 17.945 40 40v40H88v16h184v32H16v-32h56V96H16V56c0-22.055 17.945-40 40-40zM16 208h256v184.207c-6.703-5.078-14.96-8.207-24-8.207H56c-15.664 0-29.824 6.48-40 16.879zm40 272c-22.055 0-40-17.945-40-40s17.945-40 40-40h192c13.23 0 24 10.77 24 24s-10.77 24-24 24H56c-4.406 0-8-3.594-8-8s3.594-8 8-8h168v-16H56c-13.23 0-24 10.77-24 24s10.77 24 24 24h192c22.055 0 40-17.945 40-40V272h192v208zm0 0"/>
	<path d="M240 416h16v16h-16zm0 0"/>
</symbol>
<symbol id="placeholder" viewBox="0 0 512 512">
	<path d="M256 0C156.748 0 76 80.748 76 180c0 33.534 9.289 66.26 26.869 94.652l142.885 230.257A15 15 0 0 0 258.499 512h.119a14.997 14.997 0 0 0 12.75-7.292L410.611 272.22C427.221 244.428 436 212.539 436 180 436 80.748 355.252 0 256 0zm128.866 256.818L258.272 468.186l-129.905-209.34C113.734 235.214 105.8 207.95 105.8 180c0-82.71 67.49-150.2 150.2-150.2S406.1 97.29 406.1 180c0 27.121-7.411 53.688-21.234 76.818z"/>
	<path d="M256 90c-49.626 0-90 40.374-90 90 0 49.309 39.717 90 90 90 50.903 0 90-41.233 90-90 0-49.626-40.374-90-90-90zm0 150.2c-33.257 0-60.2-27.033-60.2-60.2 0-33.084 27.116-60.2 60.2-60.2s60.1 27.116 60.1 60.2c0 32.683-26.316 60.2-60.1 60.2z"/>
</symbol>
<symbol id="search" viewBox="0 0 129 129">
	<path d="M51.6 96.7c11 0 21-3.9 28.8-10.5l35 35c.8.8 1.8 1.2 2.9 1.2s2.1-.4 2.9-1.2c1.6-1.6 1.6-4.2 0-5.8l-35-35c6.5-7.8 10.5-17.9 10.5-28.8 0-24.9-20.2-45.1-45.1-45.1-24.8 0-45.1 20.3-45.1 45.1 0 24.9 20.3 45.1 45.1 45.1zm0-82c20.4 0 36.9 16.6 36.9 36.9C88.5 72 72 88.5 51.6 88.5S14.7 71.9 14.7 51.6c0-20.3 16.6-36.9 36.9-36.9z"/>
</symbol>
<symbol id="tick" viewBox="0 0 512 512">
	<path d="M504.502 75.496c-9.997-9.998-26.205-9.998-36.204 0L161.594 382.203 43.702 264.311c-9.997-9.998-26.205-9.997-36.204 0-9.998 9.997-9.998 26.205 0 36.203l135.994 135.992c9.994 9.997 26.214 9.99 36.204 0L504.502 111.7c9.998-9.997 9.997-26.206 0-36.204z"/>
</symbol>
</svg>