<svg width="132" height="142" fill="none" xmlns="http://www.w3.org/2000/svg"><path fill-rule="evenodd" clip-rule="evenodd" d="M130.744 137.242c0 2.34-22.624 4.134-50.632 4.134-27.929 0-50.553-1.872-50.553-4.134 0-2.263 22.624-4.135 50.553-4.135 28.008 0 50.632 1.872 50.632 4.135z" fill="#354B54"/><path fill-rule="evenodd" clip-rule="evenodd" d="M79.418 2.276c.546.703 1.014 1.56 1.482 2.419 1.093 2.418 1.56 5.07 2.34 7.645.469 1.56 1.015 3.043 1.795 4.525.937 1.483 1.717 2.887 2.73 4.369 1.561 2.496 2.965 5.305 3.277 8.504.078 1.404-.078 2.886-.39 4.29-.078.312-.156.703-.312.937.078.077.156.077.234.077 0-.156.156-.078.156-.078 1.093-.312 2.185-.078 3.277-.078.312-.702.702-1.638.936-2.496.312-1.248.702-2.418.936-3.667l-.078-.078c.234-.468.312-1.092.39-1.56.312-2.652.312-5.305-.156-7.88l-.078.079c0-.39-.234-1.015-.234-1.405-.078-.234-.39-.468-.312-.858-.78-2.418-2.34-4.525-4.525-5.929C89.56 10.156 88 10 86.596 9.532c-.157-.156-.313-.546-.313-.858.156-.468.547-.78 1.015-.937.078.157.156-.078.312-.078.936-.468 2.262-.156 3.276-.078.312.156.624.078.937.313 2.886.936 5.07 2.73 6.943 5.149 1.872 2.574 2.73 5.773 3.354 8.971.156 1.404.391 2.887.469 4.29.936-.311 1.638-1.013 2.808-.78.702.079 1.326.469 1.872.859 1.093-1.326 2.965-1.56 4.525-1.014 1.795.936 3.121 2.73 3.901 4.29.39.079.936.313 1.326.469.078.156.234.234.468.312.39.312.936.702 1.171 1.17.312.39.546.702.702 1.326.078 1.092-.312 2.184-.078 3.199.156.234.312.468.39.858.234 1.092.468 2.34.312 3.432.078 1.405-.702 2.497-1.17 3.745-.859 1.483-1.717 3.199-2.497 4.76-.39.935-.78 1.95-1.248 2.886-1.326 2.496-2.965 4.914-5.149 6.553 1.326 2.808 3.276 5.227 4.525 8.035 1.95 1.17 4.213 1.717 5.227 3.823.624.936 1.638 2.106 1.56 3.433.312 1.092.468 2.106.468 3.276l.078.078c-.078 1.717.078 3.98.078 5.773-.078 1.405-.312 2.887-.468 4.135-.234.468-.156 1.248-.39 1.873-.39 1.95-.936 4.056-1.95 5.773 2.184 1.092 4.68 1.872 6.709 3.12.234.234.312.702.468 1.092.078 0 .078.078.156.078.312 1.093.936 2.029 1.326 3.121.702 1.482 1.248 3.121 2.029 4.603.078.312-.078.702-.234.936-.157.234-.469.156-.625.078-1.56-.702-3.12-1.482-4.68-2.106-1.717 1.248-3.121 2.73-4.681 3.9.468 1.483.858 3.121 1.326 4.603 3.667 2.731 7.489 5.305 11.156 8.114-.546 1.872-.78 3.822-1.404 5.695-.312 1.638-1.014 3.198-1.327 4.915-.078.078-.078 0-.234 0-.624-.546-1.326-.937-2.028-1.405-1.794-1.482-3.901-3.12-5.695-4.603-.702-.078-1.326-.234-2.028-.234-.312 1.561-.937 2.887-1.327 4.369-.078.312-.078.546-.39.702-.078-.078-.156 0-.312-.078-2.418-1.872-4.603-3.9-7.099-5.695a98.553 98.553 0 0 0-5.149-4.603c-.156 1.093 0 2.341-.312 3.433-.312 2.341.78 4.369.858 6.709 0 1.483.078 2.887-.468 4.213-.468.624-1.326.702-2.028 1.092-1.717.468-3.745 1.249-5.54 1.483-1.092.234-2.106.312-3.12.468-1.092 0-2.34.312-3.355.234-1.872.078-3.822-.078-5.695-.546-.702-.078-1.482-.312-2.184-.468-.858-.234-1.716-.468-2.496-.859-.079-.312-.39-.312-.313-.546-.078-1.092 0-2.496-.39-3.666-.234-1.405-.39-2.575-.078-4.135-1.482-.156-3.042 0-4.524-.156-1.093.078-1.873-.234-2.887-.312.234 2.73.936 5.305 1.092 8.113.078.78-.312 1.639-1.092 1.951-1.56.78-3.51 1.092-5.305 1.56-.702.234-1.404.078-2.106.312-1.093 0-2.263.39-3.277.234-3.823.234-7.177-.078-10.844-.702-.234-.078-.546-.234-.78-.312-.234-.468-.78-.702-1.092-1.092a7.13 7.13 0 0 0-.624-1.015c-.625-1.326-.469-3.12-.703-4.524-.078-.624.078-1.093.078-1.795-.078-1.794.39-3.666.937-5.383-.625-2.028-1.093-4.135-1.327-6.241-.624-.312-1.014-.78-1.482-1.092-1.17-.936-2.34-1.95-3.51-2.965-1.327-1.482-2.887-2.73-4.213-4.29-.468-.703-1.093-1.327-1.717-1.951-.702-.858-1.17-1.95-1.872-2.808-.702-.936-1.17-2.263-1.872-3.277-.468-1.092-.78-2.106-1.327-3.199-.546-1.716-1.17-3.51-1.638-5.305-.078-1.716-.702-3.276-.702-4.914.078-.39-.078-.937 0-1.327 0 .078 0 .078.078.078 0-.702 0-1.326-.078-1.95-.078.078 0 .156-.078.234v-.546c0 .078 0 .234.078.312v-.546l-.078.078c-.078-.546.312-1.326-.312-1.716l-.078.078c-1.17-1.717-2.419-3.589-4.447-4.447-.468-.312-1.092-.312-1.56-.234-.624.702-.468 1.95-.156 2.73 1.326 2.73 3.354 4.525 3.978 7.49.313.156.156.624.234.936.468 2.106.703 4.29-.078 6.319-.234.078-.156.312-.312.39-.234.078-.468.078-.624-.078-.234-.234-.234-.468-.156-.858.312-.624.39-1.404.312-2.106-.312.311-.39.702-.702 1.092-.468.624-1.17.936-1.716 1.482-.156.078-.312.078-.468.078-.078-.156-.312-.156-.234-.312-.078-.858 1.092-.858 1.326-1.482.936-1.093 1.326-2.653 1.482-4.057 0-.078-.078-.156-.078-.234-.234-.078-.156.312-.312.468-.702 1.482-1.95 2.496-3.355 3.277-.078.312-.312.156-.468.234-.234-.078-.468-.078-.468-.39 0-.313.234-.469.39-.625.156.078.078-.312.39-.156.313-.234.703-.312.859-.702 1.56-.936 2.34-2.886 2.184-4.915-.234-.858-.936-1.56-1.404-2.34-1.092-1.638-2.887-3.51-2.107-5.93.078-1.091 1.015-1.716 1.873-2.34 1.014-.468 2.262-.468 3.354-.312a7.79 7.79 0 0 1 3.667 2.029c.936-2.34 1.872-4.915 3.277-7.1.312-.078.078-.39.078-.546-.234-.312 0-.702-.078-.936-9.986-4.915-19.894-9.908-29.958-14.9-.78-.937-1.482-1.873-2.34-2.81-.078-.701-.858-.935-1.014-1.638.078-.156.078-.468.078-.702.234-.078.468-.234.702-.078.156.078.39.156.624.078.78.469 1.56.859 2.418 1.093.39-.312.702-.547 1.092-.858.469-.703 1.249-1.093 1.717-1.795a5.044 5.044 0 0 1-.702-1.248c-.078-.078-.078-.234-.078-.234-.078-.312-.312-.468-.468-.702-.079-.312.078-.39.156-.468.312-.078.624.078.78.078.78.156 1.326.702 2.028.936 2.652 1.092 5.305 2.106 7.958 3.276v.157c.078-.157.078 0 .312 0a645.692 645.692 0 0 1 10.922 4.524c-2.497-2.496-5.305-4.837-7.958-7.255-.468-1.092-.39-2.419-.936-3.589-.078-.234.312-.312.234-.624.546-.078.936.468 1.326.546.312.39.702.624 1.093.936.468.313.858 1.015 1.482.78.234-.078.858 0 .546-.468-.078-.468-.312-1.092-.312-1.482-.078-.156 0-.468.234-.546.39.078.468-.234.858-.078 1.014.78 1.872 1.326 2.886 2.106-.468-.702-1.092-1.248-1.716-1.872-.546-.468-1.17-1.404-1.794-1.794.078-.39-.39-.468-.468-.78-1.404-1.327-2.575-2.809-3.979-4.135-.078-.312-.156-.312-.312-.468.234-1.56.546-3.12.936-4.681 0-.39-.078-.936.39-1.014.234.078.312.468.624.468.78.936 1.873 1.872 2.497 2.886.468-.078.702 1.249 1.014.312.078-.546.078-1.248.078-1.794.312-.468.078-1.404.858-1.326 6.007 6.319 12.17 12.56 18.334 18.88.312-.39.546-.937.858-1.327.234-.78.702-1.482.936-2.106-.546-1.483-1.482-2.809-1.716-4.37-.234-.467-.313-1.013-.313-1.637l.078.078c-.936-3.433-1.404-6.788-2.106-10.298-.156-1.093-.702-2.029-1.014-3.12-.39-1.093-.858-2.42-1.404-3.59-.468-.702-.859-1.638-1.327-2.262-.078-.312-.312-.624-.39-.936-1.092-1.482-1.872-3.199-2.886-4.603-.468-.702-.546-1.56-.858-2.34v.156c-.39-1.873-.312-3.98 1.17-5.305.39-.312.78-.468 1.326-.859 1.873-.39 4.135-.39 5.54.313.935.468 1.715.936 2.652 1.404 1.326.858 2.496 2.028 3.51 3.198.078-.624.312-1.092.468-1.716-.312-.39-.312-.936-.468-1.326-.078-.936.156-1.795.858-2.34.469-.313.937-.469 1.483-.469.156-.39.39-.936.702-1.092.468-.546 1.092-.702 1.56-1.248.78-.468 1.56-1.092 2.497-1.482.468.078.858-.469 1.482-.469 2.106-.156 4.29.157 6.085 1.093.078.078.312 0 .39.156.39-.078.624-.546 1.014-.546 1.405-.78 3.667-.624 5.071.078.702.312 1.248.702 1.873 1.014l.936.702c.312-1.326.156-3.12 1.482-4.057.702-.312 1.326-.702 2.184-.936 1.639-.156 3.121 1.014 4.291 2.262z" fill="#000"/><path fill-rule="evenodd" clip-rule="evenodd" d="M78.866 3.29c.39.625.624 1.249 1.092 1.795.546 1.326.858 2.73 1.326 3.979.312 1.326.702 2.574 1.014 3.9.39 1.717 1.327 3.277 2.107 4.838 1.092 1.872 2.262 3.744 3.432 5.617 1.327 2.496 2.34 5.539 1.873 8.503-.312.624-.312 1.404-.546 2.107-.469-.469-1.17-.703-1.795-.859-.312-.312 0-.858-.312-1.092-.702-1.17-1.326-2.496-2.106-3.745-.702-.936-1.482-1.794-2.263-2.652-.39-.468-1.092-.468-1.482-1.092-.234-.312-.858-.468-.702-.936.156-1.639-.468-3.043-1.092-4.291-.156-.312-.468-.468-.468-.858-.624-.468-.858-1.405-1.483-1.873.079-.468.39-.702.625-1.092-.078-.468 0-1.014-.313-1.482-.624-.546-1.482-.702-2.262-.936-.39-.625-.546-1.17-.936-1.795.234-.078.312-.234.468-.39.078-.546-.156-1.17-.234-1.716-.312-1.482-1.56-2.34-2.496-3.51 0-1.093.312-2.107.546-3.121.234-.468.702-.702.936-1.17.702-.313 1.326-.547 2.106-.313 1.248.39 2.185 1.17 2.965 2.185z" fill="#C6C6C6"/><path fill-rule="evenodd" clip-rule="evenodd" d="M59.758 3.837c2.418.858 4.524 2.34 6.553 3.979 1.014 1.092 1.794 2.106 2.496 3.354-.078.312.234.546 0 .78.078.234-.156.312-.312.468-1.248-1.248-2.34-2.496-3.588-3.744-1.405-1.17-2.809-2.107-4.37-2.887-1.325-.468-2.496-1.092-3.9-1.482-.78-.078-1.404-.234-2.184-.234 1.092-1.092 3.198-.702 4.68-.39.234.078.39.234.625.156zm9.905 1.248c.235.078.547.312.859.468 1.17 1.248 2.496 2.262 3.042 4.057-1.716-1.95-3.666-3.9-6.163-4.681-.858-.312-1.716-.78-2.574-.702h-.703c.235-.312.703-.468 1.093-.624 1.56.156 3.198.546 4.447 1.482z" fill="#F7A600"/><path fill-rule="evenodd" clip-rule="evenodd" d="M54.218 5.241c2.887.234 5.383 1.482 7.958 3.12 1.092.78 2.106 1.639 3.043 2.731.858.702 1.482 1.794 2.418 2.419.468.312 1.17-.234 1.794-.234 0-.234.39-.078.39-.312.312-.156.39-.313.546-.625-.312-.468 0-1.092-.312-1.56-.468-1.404-1.56-2.574-2.652-3.745-.702-.702-1.404-1.092-2.263-1.794.937.234 1.717.39 2.497.78 2.34 1.327 4.68 3.277 5.695 5.851.546.937.858 2.263 2.028 2.497.469.234 1.093.234 1.405.702.078.078-.078.312-.078.39-.234.078-.313.234-.39.468-.469-.312-1.093-.312-1.639-.468-.78.078-1.56.468-2.106.936-.39.312-.546 1.014-.468 1.716-.078-.311-.468-.468-.702-.624-.469-.312-1.17-.312-1.717-.39-.546 0-1.482.078-1.716.703-.078.311-.312.39-.39.702-.312.468-.312 1.248-.234 1.872-2.497.702-5.461.312-8.036.312-.624-.234-1.248-.078-1.794-.312-1.248-.156-2.496-.468-3.667-.702-.468-.156-1.092-.078-1.248-.702-1.326-1.639-2.34-3.433-3.745-4.915.078-.78.078-1.717.313-2.497 1.014-.702 2.34 0 3.276.312.546.312 1.092.703 1.716 1.093 1.249 1.014 2.497 2.106 3.59 3.276.311.234.623-.078.935.078.936-.156 1.717-.78 2.185-1.56-.078-.234.078-.468.078-.78-.156-.156 0-.546-.312-.624-.156-.78-.78-1.093-1.093-1.795a21.404 21.404 0 0 0-5.305-3.666c-.468-.156-.936-.312-1.326-.468-.624-.156-1.092-.39-1.794-.469.312-.702.936-1.014 1.56-1.482.468-.156 1.092-.312 1.56-.234z" fill="#F7A600"/><path fill-rule="evenodd" clip-rule="evenodd" d="M54.533 9.376c.936.39 1.56 1.014 2.418 1.56 1.014.624 1.56 1.482 2.34 2.497.079.39.39.78.157 1.17-.234.234-.468.702-.937.468-1.716-1.482-3.51-3.433-5.85-4.29a23.604 23.604 0 0 0-2.497-.937c-.468.078-.936.078-1.326.312l-.235-.702c0-.468-.078-.78 0-1.17.157-.312.313-.546.703-.546.546-.234 1.482.078 2.106.234 1.014.39 2.106.78 3.12 1.404z" fill="#F7A600"/><path fill-rule="evenodd" clip-rule="evenodd" d="M43.45 10.468c1.091.702 1.95 1.794 2.886 2.809 2.028 1.95 3.588 4.134 5.383 6.553-.624-.312-1.405-.468-2.029-.78-.39-.078-.78-.078-1.092-.078-.78 0-1.638.312-2.106.78-.234.078-.39.312-.468.468-.156.234.078.468.156.702.624.546 1.482.078 2.184.468.468.312.936.702 1.326 1.014 1.093 1.17 2.34 2.107 3.277 3.51 1.638 2.107 3.12 4.526 4.915 6.71 1.794 3.12 3.355 5.93 4.993 9.128.936 1.716 1.716 3.51 2.574 5.227 0 .312.39.468.468.702.312.468.858.78 1.249 1.092.936.546 1.872 1.014 2.886 1.17.468.078 1.248-.078 1.794-.234.39-.234.703-.546 1.17-.78.313-.312.235-.936.703-1.092l-.078-.312c.156 0 .312.078.468.156-.078.312.468.312.546.624 0-.078.312.078.156.078.312.156.312.468.546.702.468.702.936 1.482 1.248 2.263l.234 1.794c-.468.234-.936.546-1.482.702-1.248.78-2.73.702-4.213.702-.624-.078-1.17-.468-1.872-.39-1.248-.468-2.34-1.248-3.277-2.028-.624-.624-1.17-1.17-1.482-1.873-1.092-1.326-1.326-2.964-1.794-4.524-.702-1.327-.234-2.809-.78-4.135-.078-.078-.234 0-.39 0-.313.156-.313.468-.157.858a2.658 2.658 0 0 0-1.56 0c-.468 0-.702.468-1.092.702 0 .156-.156.312-.078.468.468.312 1.092 0 1.56.156.39.234.858.234 1.17.546.078 1.404.547 2.419.937 3.745.546 2.184 1.872 4.057 3.51 5.461.859.702 1.717 1.326 2.809 1.716.858.39 1.872.624 2.73.624.312.078.702.078.936 0 .937.625 1.639 1.327 2.419 2.029.468.468 1.092 1.014 1.56 1.482.234-.234.702-.078.78-.468 0-.39-.312-.78-.468-1.014-.702-.78-1.716-1.483-2.496-2.185.468-.156.936-.312 1.482-.39 1.482.937 1.873 2.809 3.51 3.433.313.078.313-.312.625-.39l.468-1.248c.468.312.624.936 1.092 1.326a16.68 16.68 0 0 1 1.326 2.34l-1.014.156c-1.17.156-2.418-.156-3.666-.078-1.405-.078-2.887-.624-4.291-.936-1.873-.546-3.589-1.326-5.54-1.872-.39-.234-.935-.234-1.326-.624-.312-.078-.468-.156-.858-.156a52.967 52.967 0 0 0-4.212-2.107c-.547-.78-1.56-.78-2.34-1.326-1.64-.858-3.434-1.482-5.15-2.34-.312-.624-.234-1.56-.39-2.34.078-1.717.234-3.277.312-4.994.39-.936.312-1.95.546-2.964.156-.468.312-1.093.546-1.56 0-.079-.156-.235-.312-.313-.156.078-.468.078-.624.234 0 .313-.39.312-.39.468-.624 1.483-.546 2.887-1.014 4.37-.312 3.198.078 6.396-.39 9.517-.234.39-.78.468-1.248.624-.313-.156-.937-.078-1.093-.468-.312-.312-.624-.624-.858-.936-1.092-1.482-2.028-3.043-2.73-4.68-.39-.937-.78-1.873-1.093-2.731-.155-.235-.311-.468-.468-.703-.468-.936-.546-1.95-.936-2.886-.468-3.355-1.326-6.553-1.716-9.908-.468-2.106-1.17-4.29-1.95-6.32-.546-1.56-1.17-3.12-2.029-4.446-1.17-2.262-2.496-3.979-3.666-6.085-.469-1.482-.859-3.355-.313-4.993.157-.78.937-1.248 1.639-1.56 1.716-.312 3.354-.078 4.837.702 1.014.078 1.794.546 2.574.936z" fill="#C6C6C6"/><path fill-rule="evenodd" clip-rule="evenodd" d="M92.447 9.064c2.34 1.17 4.525 2.73 5.93 5.07 1.482 2.497 2.184 5.384 2.73 8.348.078.937.39 1.95.39 2.887 0 2.262 0 4.603-.468 6.865-.312 2.106-.937 4.29-1.405 6.32-.39.935-.702 1.872-1.326 2.496.078.312-.39.312-.468.546-.468.39-1.092.702-1.716.936-.468-.468-1.014-.936-1.404-1.404-.078-.702-.313-1.327-.469-2.029-.078-.078-.078-.078-.156-.078 1.17-3.9 2.809-7.723 3.277-11.78.312-.312.078-1.014.156-1.482-.078-.624.312-1.17.078-1.794.156-1.249-.078-2.73-.234-4.135-.468-2.419-1.17-4.915-2.73-6.943-1.015-1.327-2.419-2.731-3.98-3.199-.857-.468-1.872-.702-2.808-1.014.468-.468 1.327-.156 1.795-.312.858.234 1.95.312 2.808.702zM76.37 17.567c-.39-.078-.78.234-1.092.468-.078.078-.078.156-.078.234a4.311 4.311 0 0 0 .078 1.717l.312.702c-.078.078 0 .156.078.234.078 0 0-.078 0-.078.312.702.702 1.326 1.482 1.482.234.234.624.312.858.312.235-.078.547-.078.859-.156.312.234-.078.546.078.78-.312.468.078 1.092-.312 1.482-.078.235-.312.313-.624.39-.39-.077-.937-.077-1.17-.468-.157-.078-.313-.233-.469-.312-.312-.468-1.014-.858-1.092-1.482-.624-.468-.546-1.482-1.092-2.106-.078-.624-.39-1.092-.546-1.795-.234-.468-.078-1.014-.078-1.482-.078-.39.156-.858.468-1.092.858-.312 1.794.624 2.34 1.17zm-5.617.936c-.936.625-1.014 1.56-.702 2.575.312 1.092 1.092 2.028 2.028 2.73.468.078.937.078 1.327.313.234-.157.546 0 .702-.313.312.937.702 2.34-.234 3.043l-.703.156c-1.95-.39-2.886-2.262-3.588-3.9-.156-.313-.312-.703-.468-1.015-.312-.624-.468-1.17-.702-1.872 0-.468 0-.936.156-1.326.156-.078.234-.313.39-.469.078-.156.468-.234.468-.468.546.078.936.234 1.326.546z" fill="#fff"/><path fill-rule="evenodd" clip-rule="evenodd" d="M77.62 19.362c0-.078-.079.078-.079.234-.078 0-.156.312-.312.156-.156-.078-.312-.078-.468-.156-.078-.312-.078-.624-.078-.936.078.078.156 0 .234-.079.312.157.546.39.702.78zm-4.988 1.326c-.156.156.078.39-.078.546-.546 0-.936-.39-1.092-.78 0-.234-.156-.312-.078-.546.156-.156.39-.234.468-.156.312.234.546.624.78.936zm-20.287.858c3.12 2.106 5.695 4.993 8.426 7.723 2.106 2.575 4.29 4.915 6.163 7.724.936 1.482 1.872 2.73 2.808 4.29.468.859 1.015 1.561 1.327 2.497.312 1.092.936 2.184 1.248 3.277.078.624-.234 1.092-.78 1.404-.39.312-.936.234-1.405.156-.702-.078-1.482-.468-2.106-.858a2.946 2.946 0 0 1-.936-.78c-.312-.156-.468-.702-.78-.937-2.107-4.29-4.213-8.581-6.631-12.716-1.249-2.34-3.043-4.135-4.37-6.319-.857-1.014-1.481-2.34-2.496-3.277-1.404-1.404-2.73-2.886-4.525-3.666-.078-.156.157-.234.313-.312 1.326.468 2.73.858 3.744 1.794z" fill="#fff"/><path fill-rule="evenodd" clip-rule="evenodd" d="M53.75 21c1.326.312 2.418.468 3.744.78.702-.078 1.483.078 2.107.156 2.496 0 5.305.39 7.801-.468.39 1.326 1.014 2.809 1.872 3.979 0 .078-.312.234-.312.468.078.624.468 1.014.936 1.326.625.468.937-.312 1.405.312.234.156.468.312.702.39-.078 0-.468 0-.468.234-.078.547.312.936.624 1.327.156.078.468.312.702.078.078-.312.39-.858.078-1.093l-.468-.312c.312.078.624.078.936.078.156.547.312 1.327.936 1.56.156.079.468.079.703 0 .233-.39.39-.936.156-1.326-.234-.234-.39-.624-.547-.936l.469-.39c.078.078.233.312.468.234-.078.234-.39.39-.234.702.312.312.078 1.015.702.936.39.157.624-.311.78-.468.078-.156.078-.312.078-.468.078.312 0 .78.312.936.078.313.468.313.702.469.312 0 .702-.078.858-.312.156-.468.078-.937-.078-1.327-.156-.156-.312-.624-.702-.546.234-.156.156-.468.312-.702.078-.078-.078-.078-.078-.156.156.078.156.234.156.39.312.234.702.468 1.092.39.078-.234.468-.39.312-.702.078 0 .078-.078.078-.078.469.468.39 1.326 1.327 1.248.156-.156.312-.312.312-.546.078-.312-.156-.468-.156-.702-.078-.078-.156-.078-.156-.156-.312-.234-.468-.468-1.015-.312-.234 0-.234.312-.312.468 0-.312-.234-.234-.39-.468.078 0 .234-.234.312-.156l.39-.312c.703.312 1.405.624 1.795 1.326-.312.546.078 1.014.312 1.482.312.078.78.234 1.092 0 .78.78 1.092 1.873 1.716 2.73.234.625.624 1.327.703 1.873-1.873-.234-3.511 0-5.071.312-1.483.468-3.121.937-4.603 1.405a14.55 14.55 0 0 1-1.56.78c-.157.156-.39.468-.313.858.39.234.859 0 1.17-.078.703-.312 1.483-.468 2.185-.78 1.248-.312 2.496-.937 3.745-1.093 2.028-.624 4.29-.312 6.085.157 2.418 1.326 4.603 3.12 5.46 5.85-1.56-.468-3.198-1.17-4.992-.858-.936.235-1.716.39-2.497.78a10.792 10.792 0 0 0-3.9 2.497c-.078.234.078.468.234.546.078-.078.312 0 .39 0 .078 0 0 0 0-.078.39 0 .624-.39 1.014-.468.702-.468 1.404-.936 2.106-1.326.859-.39 1.795-.702 2.809-.936.468-.078 1.014-.078 1.482-.078.468-.078 1.014.234 1.404.312 1.327.39 2.575.936 3.667 1.794h-.078c.078.234.39.39.546.546.936.78 1.092 1.95 1.873 2.809.078.702.468 1.248.702 1.872.234.546.312 1.248.312 1.872-.156.078-.312-.234-.546-.156-1.015-.468-2.107-.546-3.199-.39-.78 0-1.716.312-2.496.39-.546.39-1.56.312-1.873 1.093-.078.156 0 .468.234.624.78.078 1.404-.468 2.107-.624.936.078 1.95-.468 2.964-.157.624.078 1.248-.078 1.873.078 2.028.703 3.354 2.653 4.056 4.681.546 1.56.702 3.511.702 5.227-.156.234.078.625-.234.703-.546.155-.936-.157-1.404-.313-1.326-.546-3.277-.39-4.759-.312-.39.078-.624.39-.936.703-.078.312.156.39.312.546.468.078.936-.078 1.326-.156 1.093 0 2.34-.234 3.511.234.39.078.858.156 1.014.39.312.39.702.78.702 1.404.234.39.312.78.312 1.326-.078 1.483-.468 2.809-.936 3.979h-.078c-.156.312-.234.702-.39.936.078 0 .078.078.078.078h-.078c-.078.468-.39.936-.468 1.482-.312.156-.312.624-.546.859-.312.39-.546.78-.936 1.092-1.17.234-2.653.156-3.9.234l-.157.078.078.078c-.078-.078-.234.078-.312.156.078.312.234.468.468.624.39.156.78.078 1.17.156.702.078 1.483-.156 2.185-.234-.702 1.17-1.405 2.575-2.653 3.277-1.092.936-2.34 1.482-3.745 2.028-.156 0-.39.078-.624.234-2.496.858-5.383 1.092-8.113.702-1.872-.702-4.135-1.872-4.681-4.057-.078-.546-.234-1.326-.078-1.794-.234-.468.156-.936.234-1.404.78-.936 1.326-2.029 1.716-3.12.078-.859.078-1.717-.234-2.497.078-.312-.234-.468-.156-.858.234-.078.468-.078.702.078.937.702 1.327 1.716 2.34 2.34.469.156 1.015.312 1.327.702.156 0 .468.078.702.156.468.39 1.249.468 1.483 1.092.156.624.234 1.327-.313 1.717-.546.546-1.482.702-2.34.468-.234.624-.39 1.326-.39 1.872.078.702.312 1.482.936 1.873.312.078.546-.078.78-.235.078-.156.078-.312.078-.546-.234-.39-.546-.702-.468-1.248.078-.078.156-.234.312-.312.156.624.858 1.092 1.404 1.326.079.234.313.078.469.078.156-.156.39-.078.468-.39.078-.078.078-.312 0-.468a1.93 1.93 0 0 1-1.248-1.092c.078-.156.311-.234.468-.312.468-.312.702-.936.936-1.404.39-.859-.078-1.717-.468-2.34l-.468-.469c.156-.312.078-.936 0-1.326.078-.156.156-.234.156-.39-.313-1.248-.313-2.73-.624-3.901-.78-2.809-2.107-4.993-3.667-7.255-.702-.858-1.404-1.717-2.185-2.575-.702-.468-1.17-1.014-1.872-1.404-.156-2.887-1.716-5.617-4.213-6.631-.156-.234-.702 0-.78-.312-.936-2.887-2.34-5.305-4.057-7.802-1.092-1.482-2.106-3.042-3.198-4.525-3.277-4.68-7.334-8.503-11.78-12.17-.39-.312-.937-.546-1.249-.936.624.156.703.39 1.014.39zm59.369 6.553c.546.702.702 1.482.936 2.34.39.468.78.703 1.404.703 1.326.312 2.263 1.092 2.575 2.418-.156.468.156 1.326-.312 1.638 0 .234-.312.234-.234.468-.078.859.702 1.093.936 1.873.468 1.56.39 3.51-.312 4.993-1.093 2.34-2.185 4.603-3.121 6.943-.78 1.17-1.17 2.34-2.106 3.433-.702 1.482-2.029 2.496-3.043 3.744-.312.312-.546.468-.78.78-.546-.78-1.092-1.638-1.716-2.34-2.029-2.809-4.603-5.305-6.944-7.723.702-2.107.39-4.291 0-6.554.468-1.56.937-3.198 1.249-4.914.546-2.497.936-4.915 1.092-7.49.468-.624 1.092-.936 1.872-1.326.702-.312 1.404 0 1.872.468-.468 1.092-.468 2.34 0 3.51.079.313.157.78.469.937.156.078.39-.078.546-.078.234-.234.468-.546.312-.936-.468-.78-.234-1.639-.312-2.497.234-.312.234-.78.624-.936.702-.78 1.716-1.326 2.808-1.014.78.234 1.561.936 2.185 1.56z" fill="#C6C6C6"/><path fill-rule="evenodd" clip-rule="evenodd" d="M68.805 26.93c.156.155.078.467.312.545 0 .078 0 .312-.078.468-.312.078-.312.312-.702.312-.234.078-.312-.156-.468-.234-.078-.546-.702-1.17-.156-1.638.39-.156.702.39 1.092.546z" fill="#000"/><path fill-rule="evenodd" clip-rule="evenodd" d="M76.763 27.007c.156.078.078.39.312.312-.078.078-.234.156-.156.312-.078-.156-.702-.312-.468-.624-.156-.312.078-.312.078-.468.312.078.156.39.234.468z" fill="#C6C6C6"/><path fill-rule="evenodd" clip-rule="evenodd" d="M79.81 27.397c.233.312.311.702.546 1.015-.078.078-.078.312-.078.468-.157.156-.39.468-.625.156-.156 0-.39-.235-.468-.313-.078-.39-.39-.702-.312-1.092.078-.078.156-.156.312-.234h.624zm-9.132.312c.156.156-.078.312.078.468.078.157.078.547-.234.625-.469.078-.625-.313-.937-.469-.078-.156-.156-.468-.078-.702.078-.078.156-.234.39-.234.313.078.469.312.78.312zm11.936 1.483c-.078.234-.078.312-.078.546-.156.078-.234.078-.39.156-.156-.156-.546-.078-.624-.39.078-.156-.079-.156-.157-.312-.078-.078.079-.234.157-.313.312.079.468-.155.702-.078.156.157.312.235.39.39zm-5.697.545c.312.39.624 1.015.312 1.483-.156.078-.39.312-.546.078-.156.078-.39 0-.468-.234-.156-.312-.234-.624-.39-.936-.078-.313.078-.547.39-.703.312 0 .468.156.702.312zm2.416.469c.078.234-.156.39-.078.624-.312.312-.624.234-.858.078-.312-.078-.234-.468-.312-.702 0-.312.39-.468.624-.468.312 0 .468.234.624.468zm-7.563.156c.078.312-.078.546-.234.78-.234.078-.468.078-.702-.078-.156-.234-.469-.624-.313-.936 0-.156 0-.313.157-.313.468.157 1.014-.078 1.092.547zm9.758.39c.078.234.234.468.156.702-.078.078-.312.468-.624.312-.078-.234-.39 0-.469-.312-.078-.39-.545-.936-.155-1.17.39-.156 1.014-.078 1.092.468zm-6.793-.312c.156.39.468.78.156 1.17-.156.078-.156.312-.39.234l-.078-.078c-.078 0-.078.078-.234.078-.156-.39-.702-.78-.313-1.248.157-.39.547-.39.859-.156zm38.625 1.17c.078.858.39 1.482.858 2.262.078.078.312.156.312.312 0 .312-.156.39-.312.547-.234.155-.468.312-.78.078-.702-.703-1.093-1.639-1.249-2.653 0-.312.156-.702.469-.858.312-.078.702 0 .702.312z" fill="#000"/><path fill-rule="evenodd" clip-rule="evenodd" d="M21.613 33.794c5.851 6.32 11.858 12.483 17.788 18.802-.39.312-.703.624-1.015.936-2.028-1.248-3.822-2.652-5.695-3.979-1.17-.702-1.95-1.872-2.886-2.808-3.277-3.589-6.631-7.021-9.908-10.61.156-1.17.312-2.34.546-3.51.39.39.624.857 1.17 1.17zm7.245 2.887c4.525 4.68 9.128 9.44 13.653 14.198-.312.078-.78.312-1.248.468-.313.234-.546.312-.859.468-5.305-5.46-10.532-10.921-15.759-16.383.313-.78.313-1.716.547-2.496 1.17 1.17 2.652 2.653 3.666 3.745z" fill="#7D8D9E"/><path fill-rule="evenodd" clip-rule="evenodd" d="M93.534 35.823c-.156.624-.39 1.17-.468 1.872-.468-.624-1.014-1.248-1.482-1.872h1.95zm5.542 10.454c-.078.312-.234.78-.468 1.092-.468-1.248-1.093-2.575-1.873-3.745.546-.312 1.327-.624 1.717-1.014.234-.234.468-.312.702-.546.468 1.326.156 2.808-.078 4.213z" fill="#C6C6C6"/><path fill-rule="evenodd" clip-rule="evenodd" d="M25.356 45.496c4.134 2.965 8.113 5.93 12.326 8.816-.39.468-.858 1.092-1.092 1.638h-.156c-3.745-2.808-7.334-5.617-11.078-8.347-.313-.39-1.17-.546-1.17-1.326.077-.468-.079-1.17-.157-1.717.39.312.858.546 1.327.936z" fill="#7D8D9E"/><path fill-rule="evenodd" clip-rule="evenodd" d="M26.834 45.34l-.079-.078h.079v.079z" fill="#fff"/><path fill-rule="evenodd" clip-rule="evenodd" d="M21.998 46.9c1.56 1.093 3.12 2.341 4.603 3.433.624.546 1.326 1.014 1.872 1.56 2.574 1.717 4.837 3.745 7.333 5.54-.156.312-.312.702-.468.936-1.482-.702-3.042-1.17-4.525-1.873-.312 0-.468-.234-.624-.39-.78-.468-1.248-1.326-2.106-1.794-.078-.078-.234-.156-.156-.39-.546-.312-.936-.624-1.404-1.014-1.873-1.717-3.823-3.277-5.695-5.071h-.156c-.469-.234-.313-.78-.39-1.17l.077-.078c-.234-.313-.312-.858-.312-1.249.703.546 1.17 1.093 1.95 1.56zM7.96 47.994c.858.468 1.716.702 2.574 1.014.312.156.546.234.702.468 5.071 2.107 10.064 4.213 15.135 6.32 2.887 1.248 5.695 2.496 8.66 3.744-.078.468-.312.936-.468 1.404-5.071-2.34-10.142-4.524-15.213-6.865-2.653-1.326-5.461-2.262-8.114-3.51-1.17-.703-2.34-1.327-3.666-1.795 0-.234 0-.312-.078-.468-.39.078-.235-.312-.469-.468v-.234c.313.078.547.234.937.39z" fill="#7D8D9E"/><path fill-rule="evenodd" clip-rule="evenodd" d="M108.123 57.979c1.794 3.276 4.213 6.475 5.617 10.142.936 2.34 1.95 4.68 2.73 7.099-.858-.156-1.56-.468-2.418-.546 0-.312-.312-.234-.39-.39-.312.156-.702 0-.702.39.234 1.56.39 2.964.702 4.525.702 3.198.858 6.709 1.092 10.142.078.936.156 2.184-.078 3.12-5.851-2.574-11.624-5.149-17.553-7.645l.078-.078c-2.496-1.092-4.915-2.107-7.411-3.277.39-.078.78-.234 1.092-.312 1.092-.312 2.106-.78 3.12-1.326.703-.39 1.405-.858 2.107-1.248.312-.312.702-.624.936-.937 1.17-1.092 1.794-2.652 2.73-3.9 1.717-1.716 2.263-4.291 3.121-6.632.312-1.638.468-3.042-.312-4.524.702-2.029.312-3.745.078-5.773-.39-2.107-1.326-4.525-2.809-5.773-.156-.313-.546-.313-.702-.703-.078-.546-.078-1.092-.156-1.638.312-.078.546-.312.702-.624 3.355 2.965 6.008 6.241 8.426 9.908zm-61.392-7.724c-.312-.078-.546-.078-.78-.078-.39.156-.858 0-1.248.078.39-.702.702-1.404 1.092-2.106.234.702.546 1.56.936 2.106z" fill="#E30613"/><path fill-rule="evenodd" clip-rule="evenodd" d="M7.017 49.631c9.127 3.901 18.255 8.036 27.383 12.17a18.893 18.893 0 0 0-.546 3.667c-7.724-3.667-15.525-7.255-23.405-10.922-.468-.156-.936-.39-1.482-.624-.858-.546-1.794-.702-2.575-1.326-.312-.078-.468-.234-.702-.312-.312-.234-.702-.39-1.092-.546.702-.703 1.404-1.483 2.185-2.107h.234zm-4.521 2.263C12.95 56.809 23.404 61.646 33.78 66.56c-.078.937.078 1.483.078 2.419-.078.156-.234.156-.312.312-9.908-4.837-19.738-9.83-29.724-14.745C2.808 53.454 1.95 52.362.936 51.27c.624.156 1.014.702 1.56.624z" fill="#7D8D9E"/><path fill-rule="evenodd" clip-rule="evenodd" d="M47.114 51.66c.156.156.468-.078.546.234.468.78 1.092 1.482 1.717 2.34.312.234.624.468.858.702.312.234.78.468 1.17.468.234.234.702.156 1.092-.078.468-.078.936-.39 1.248-.78.156-.312.312-.546.39-.936.468.156.937.39 1.249.702.078 0 .078 0 .078-.078.468.39 1.092.702 1.56 1.092 1.872 1.483 3.745 3.511 4.993 5.227.39.468.702 1.093 1.092 1.56.39.937 1.014 1.873 1.17 2.965.234 1.482.624 3.277.468 4.837-.39.156-.936.468-1.326.156.39-1.092-.156-2.418-.702-3.433-.078-.156-.312-.078-.468-.078-.312 0-.468.234-.624.39.546 1.093 1.014 2.497.546 3.667-.156.234-.312.624-.624.78l-.468.936c-.078-.936-.234-1.872-.39-2.73-.312-.078-.703-.078-1.014.078-.313.078-.235.546-.235.936.156 1.404.468 2.887-.078 4.135.078.078-.078.234-.078.312-.39-.312-.858-.858-1.404-.702-.234.156-.234.39-.312.624 1.794 1.482 2.887 3.667 4.135 5.695.702 1.248 1.092 2.73 1.482 4.135-.312.078-.78.078-1.17.078-1.092.078-2.34-.078-3.433-.078-2.808-.156-5.617-.312-8.191-1.326-1.326-.39-2.575-.859-3.901-1.327-1.248-.546-2.496-.858-3.589-1.326-1.326-.702-2.652-1.326-3.9-2.106-.312-.234-.937-.234-.937-.702-.312-.234-.468-.546-.702-.937a4.508 4.508 0 0 1-.78-2.496c.702.156 1.639.468 2.34.78.157 0 .39 0 .469-.078.078-.078.312-.078.39-.312.078-.312-.156-.312-.312-.468-1.17-.39-2.419-.78-3.355-1.482-.39-.39-.858-1.014-1.326-1.249-.078-.39-.312-.702-.234-1.092-.078-.156 0-.468.078-.624.312-.234 1.092-.312.78-1.092-.312-2.263-.312-4.915.39-6.943.624-2.107 1.17-4.213 2.34-5.93.703-1.092 1.56-2.028 2.497-2.886 1.014-.468 1.872-1.326 3.042-1.404.937-.39 2.107-.312 3.2-.234 0 0 .077.078.233.078z" fill="#C6C6C6"/><path fill-rule="evenodd" clip-rule="evenodd" d="M55.697 52.674s-.078 0 0 0c.156.156.547.156.78.312H56.4c.234.156.312.234.546.312.078 0 .156 0 .156.078l-.078-.078c.312.078.546.312.936.468-.078 0-.078-.078-.078 0l.078.078.078-.078c2.184 1.014 4.213 2.419 6.32 3.51.701.313 1.325.703 2.105.937.469.468 1.249.546 1.873.936.936.234 1.872.624 2.886.936h-.078c.936.078 1.717.702 2.73.702.157.312.547.156.859.312.858.235 1.872.39 2.73.469.469.156 1.093-.078 1.483.078 1.56.312 2.964-.078 4.447-.313.312.78.702 1.56.936 2.419.39 1.014.624 2.106.78 3.276.078.625.078 1.327.078 1.873-1.248-.156-2.496-.78-3.199-1.873-.234-.39-.702-.78-1.014-1.014-.468-.624-1.482-.858-2.184-.624-.078 0-.156.078-.312.078-.468.39-.39 1.014-.312 1.483.156.312.312.702.312 1.092.39 1.248-.078 2.652-.702 3.51-.546 1.093-1.795 2.107-1.327 3.745l-.078.312c-2.34-1.014-4.602-2.028-6.943-3.042-.546-.234-1.248-.468-1.794-.703-.624-.312-1.249-.702-1.873-.858.234-2.808-.078-6.085-1.326-8.66-.702-1.716-1.872-3.198-3.043-4.68-.312-.312-.78-.624-1.014-1.092-1.326-1.249-2.496-2.575-4.29-3.433-.468-.468-1.249-.702-1.873-1.092l-.078-.312c.624.702 1.17.858 1.56.936zm62.412 17.475c.624.858 1.404 1.872 1.716 2.965.078.546-.234.936-.39 1.404-.39.312-.78.936-1.482.858-.936-2.574-1.873-5.149-2.965-7.567 1.17.468 2.497 1.17 3.121 2.34z" fill="#E30613"/><path fill-rule="evenodd" clip-rule="evenodd" d="M81.52 68.979c.312.312.078.936.468 1.248.39.702 1.17.468 1.717.936l-.078.39c-.468.702-1.093.156-1.795.156-.546-.078-.702-.702-1.092-1.092-.156-.468-.312-1.17.078-1.482 0-.234.312-.234.312-.39.156.156.39 0 .39.234zm-42.908 1.248c.156.468-.312.468-.624.702-.702.312-.78-.468-1.248-.702-.078-.156-.234-.156-.312-.312a1.16 1.16 0 0 0 .078-.468c.312-.078.624-.234.936-.156.39.156.78.546 1.17.936z" fill="#000"/><path fill-rule="evenodd" clip-rule="evenodd" d="M64.203 71.787c4.135 1.873 8.426 3.589 12.638 5.383.157.312.235.702.469 1.014.078.079.234.39.312.469.624 1.17 1.638 1.482 2.574 2.184.312.156.624.234.936.468.234 0 .468.078.703.234.936.312 1.95.234 2.886.312 1.092 0 1.95-.078 3.12-.156.079.156.157.234.313.234a1380.966 1380.966 0 0 1 18.957 8.036 826.77 826.77 0 0 0 17.241 7.567c-.078.702.234 1.326.312 1.872h-.078c.156.624.312 1.249.468 1.795-12.638-5.851-25.354-11.468-37.993-17.163a8.896 8.896 0 0 1-1.482-.78c-1.014-.313-1.716-.859-2.73-1.093-3.511-1.56-7.022-3.12-10.454-4.68-3.277-1.327-6.553-2.731-9.83-4.291-.078-.234-.312-.078-.39-.313.312-.468.468-1.092.858-1.638.312.234.702.468 1.17.546z" fill="#7D8D9E"/><path fill-rule="evenodd" clip-rule="evenodd" d="M35.027 73.894c0 .78.156 1.716.312 2.496.234.156.156.546.468.703.078.624 1.092.936.468 1.56-.468.702-.624 1.482-.936 2.184-.468.936-.39 1.873-.468 2.887.078.936.078 1.794.468 2.652.858 1.483 1.326 3.12 2.184 4.681.936 1.56 1.795 3.043 2.809 4.603.936 1.404 1.95 2.886 3.12 4.135.39.468.859.936 1.249 1.326 1.17 1.092 2.73 1.872 4.134 2.73 1.093.703 2.497.859 3.901 1.249.546 0 .936-.078 1.482-.078.234-.156.468-.312.702-.624 0-.391-.312-.391-.702-.469-1.482-.078-2.964-.624-4.368-1.092-2.575-1.092-4.681-3.12-6.32-5.227-.624-.624-.936-1.482-1.482-2.106-.936-1.326-1.716-2.653-2.496-4.057.858.468 1.794.858 2.73 1.248.936.312 1.873.547 2.887.78 1.638.39 3.432.313 4.915.39.312-.077.468-.155.624-.468v-.468c-1.014 0-2.029-.078-2.887-.156-1.404-.078-2.808-.546-4.134-.858-1.95-.702-3.667-1.794-5.15-3.12-1.794-2.185-2.73-5.54-1.56-8.348.156-.39.39-.78.702-1.014.312.156.468.468.78.624 1.483.702 2.887 1.56 4.525 2.184 1.95.624 3.745 1.639 5.695 2.185.624.078 1.093.468 1.717.468 1.248.468 2.496.702 3.9.78 2.34.468 4.993.39 7.334.39.624 0 1.092-.234 1.716-.234.468 0 .624-.078 1.092 0 .39.546.936 1.014 1.326 1.638 3.2 3.121 6.086 6.32 9.206 9.518a462.506 462.506 0 0 0 8.504 8.972c4.68 5.227 9.752 10.61 14.666 16.149-1.17.858-2.184 1.482-3.432 2.262-1.95.702-3.979 1.639-6.163 1.795-4.837.936-9.596 1.014-14.589.702 2.028-1.717 3.277-4.135 3.589-6.944.078-1.638 0-3.432-.624-4.68-.625-1.327-1.483-2.497-2.809-3.277-1.482-1.092-3.276-1.638-4.993-2.34-2.34-.859-5.07-1.093-7.723-1.093-.937.234-1.873.156-2.887.39-.936.312-1.794.469-2.652.703-1.56.624-2.965 1.482-4.291 2.34-.234.234-.546.468-.78.546-1.014.858-2.107 1.716-2.887 2.731-.234.312-.546.546-.702.936 0 .156-.156.39-.312.546a.497.497 0 0 1-.468 0c-.858-.702-1.716-1.482-2.497-2.107.078 0 .078.078.078 0-.078-.078-.155-.312-.311-.234 0 0 0-.078.078-.078l-.157-.078v.078c.079-.078.079-.078 0-.156-.156 0-.312-.312-.39-.234-1.326-1.326-2.652-2.574-3.9-3.9-1.093-1.327-2.107-2.731-3.12-4.135-.391-.546-.703-1.17-1.171-1.795-.468-.858-.936-1.716-1.326-2.496-.39-.936-.703-1.716-1.17-2.496-.313-.937-.78-1.873-1.015-2.73-.312-.86-.39-1.64-.624-2.42-.468-1.872-.546-3.744-.702-5.616.156-.703-.078-1.483.078-2.263.078-3.276.468-6.631 1.794-9.518.468-1.482 1.17-2.652 1.873-3.978.312.546.546.936 1.092 1.326z" fill="#E30613"/><path fill-rule="evenodd" clip-rule="evenodd" d="M61.938 74.128c.312.156.546.312.858.468 8.347 3.588 16.539 7.333 24.964 11.078 12.561 5.617 25.121 11.234 37.603 16.929-2.262 1.872-4.446 3.745-6.631 5.539-1.014-1.17-1.56-2.73-2.418-3.979-.702-.078-1.405-.468-2.107-.702A8484.613 8484.613 0 0 0 75.98 85.284c-.546-.234-1.17-.624-1.794-.702l-.078-.156c-4.135-1.873-8.348-3.901-12.482-5.851-.546-.78-.937-1.717-1.639-2.497.468-.312.624-1.014 1.093-1.326.078-.312.312-.468.39-.78.078 0 .312.156.468.156z" fill="#7D8D9E"/><path fill-rule="evenodd" clip-rule="evenodd" d="M120.527 78.184c0 1.717.078 3.511-.078 5.15-.078 1.716-.468 3.432-.702 5.148-.312 1.873-1.092 3.667-1.716 5.383-.858-.312-1.56-.702-2.418-1.014l.078-.156c.156-2.886-.156-5.695-.312-8.503-.157-2.575-.781-4.915-1.093-7.49-.156-.39-.078-.78-.234-1.17 1.795.468 3.901 1.404 5.617.156l.468-.702c.39 1.092.312 2.106.39 3.198z" fill="#E30613"/><path fill-rule="evenodd" clip-rule="evenodd" d="M26.288 77.794c.312.157.702.234.936.469.936.468 1.482 1.092 2.106 1.716-.078.858-.312 1.716-.39 2.574-1.014-1.716-2.73-3.51-4.68-4.29-.157-.235-.547-.079-.78-.313l-.547.078c.078-.234.468-.234.702-.39.858-.078 1.873-.078 2.653.156z" fill="#C6C6C6"/><path fill-rule="evenodd" clip-rule="evenodd" d="M70.052 83.724c14.98 7.099 29.958 13.964 44.859 21.376.312.936.858 1.716 1.248 2.73.78 1.248 1.404 2.809 2.106 4.135-13.964-7.021-27.85-14.199-41.893-21.22-1.873-.624-3.355-1.872-5.15-2.496h.079c-.937-.313-1.56-.859-2.419-1.17.078-.235-.156-.079-.156-.235v.078c-.39-.312-.936-.312-1.248-.702-.468.078-.78-.312-1.326-.468-.156-.078-.468-.078-.546-.312-.468-.234-1.327-.39-1.249-1.092-.702-1.326-1.092-2.809-1.794-4.135l7.49 3.51z" fill="#7D8D9E"/><path fill-rule="evenodd" clip-rule="evenodd" d="M28.944 84.66c-.08.08-.08.08 0 0-.08.08-.08 0 0 0z" fill="#fff"/><path d="M28.944 86.454h-.078v.858h.078v-.858z" fill="#000"/><path fill-rule="evenodd" clip-rule="evenodd" d="M35.656 87.078l.078.078-.078-.078z" fill="#000"/><path fill-rule="evenodd" clip-rule="evenodd" d="M71.537 89.34c5.929 3.043 11.858 5.852 17.787 8.894.39.234.702.468.936.859 1.56 1.17 3.043 2.184 4.603 3.432.468.468 1.092.858 1.56 1.326v-.078l.078.078-.078.078.078.078v-.078c.936.702 1.795 1.483 2.73 2.107-.077 0-.077-.078-.077-.078.078 0 .078.078.078.078.702.468 1.17 1.092 1.872 1.482l.078-.078c.468.468 1.17.936 1.638 1.326.391.156.937.702 1.327 1.014.078-.078-.078-.078-.078-.156.078.078.156.234.234.312v-.078l.39.313v.078c.624.468 1.17 1.014 1.794 1.404l.078-.078c.078.078.078.156.156.234 0 0 .078 0 .078-.078.078.312.312.078.312.39v-.078c3.511 2.886 7.1 5.539 10.532 8.347 0 .312 0 .468-.156.781h.078c-.312 1.716-.468 3.51-.702 5.305l-.078-.078c-.234.78-.156 1.56-.312 2.34.078.234-.156.312-.078.546-15.369-13.574-30.582-27.071-45.873-40.49.234.157.703.39 1.015.547z" fill="#7D8D9E"/><path fill-rule="evenodd" clip-rule="evenodd" d="M60.77 90.823a.497.497 0 0 1 0 .468c-.468.702-1.092 1.482-1.56 2.106.624.078 1.092-.312 1.716-.468.234-.156.624-.234.858-.312.702-.39 1.248-.858 1.872-1.326.078.078.156-.078.313-.078.077-.078.312.078.39.156.078.234-.078.468-.078.702-1.249.936-2.497 1.716-3.98 2.184-.233.157-.467.079-.701.313-.937.39-2.107.546-3.12.468-.157-.078-.157-.312-.079-.468.39-.468.936-.624 1.404-1.093.39-.156.468-.546.78-.858-1.482.39-3.12.936-4.915.858 0-.156-.233 0-.312-.078 0-.078-.234-.312-.156-.468.468-.312.937-.312 1.405-.468.624.078 1.092-.312 1.638-.312.936-.312 1.872-.39 2.73-.936.469-.078.937-.468 1.405-.702 0 .078.39.078.39.312z" fill="#000"/><path fill-rule="evenodd" clip-rule="evenodd" d="M73.25 93.32c3.51 3.12 7.177 6.163 10.766 9.361v-.078c.078.312.468.312.624.624v-.078c.156.234.468.468.702.702-.078.078-.078-.078-.156-.078.078 0 .078.078.156.078 0 .156.312.078.156.234.078 0 0 0 .078-.078.078 0 0 .078.078.156v-.078c.078.312.468.156.468.469v-.079c.078.234.39.313.546.469-.078-.078-.078 0-.078 0 .78.468 1.326 1.326 2.107 1.794 0 .078.156.156.312.156l-.078.078c4.368 3.667 8.66 7.411 12.95 11.156 0 .702-.234 1.326-.312 1.872-.234 1.093-.468 1.951-.702 3.121-9.05-10.298-18.568-19.972-27.773-29.958l.156.156z" fill="#7D8D9E"/><path fill-rule="evenodd" clip-rule="evenodd" d="M67.56 96.128c.078.078.312.156.312.39l-.078.39c-.702 1.56-1.56 2.887-2.73 4.135-.157.156-.469.39-.703.624-.546.39-1.326.936-1.872 1.248-1.717.936-3.745 2.029-5.851 1.95-.234-.078-.312-.39-.39-.468.234-.156.312-.702.702-.624 1.326-.468 2.73-.624 3.978-1.092.937-.468 1.873-.936 2.653-1.482 1.716-1.326 2.574-3.355 3.589-5.071.156.156.234-.156.39 0z" fill="#000"/><path fill-rule="evenodd" clip-rule="evenodd" d="M96.581 102.135c-.078.468.546.468.78.858 1.405 1.17 2.965 2.107 4.447 3.277l.078-.078c.234.39.624.546.936.858.703.546 1.483 1.17 2.341 1.716l.078.156a4125.921 4125.921 0 0 0 22.078 16.773c-2.575-.546-5.461-.39-8.114-.936 0-1.482.078-3.12.078-4.603-.078-.078-.234-.078-.39-.156-8.425-6.553-16.851-13.028-25.276-19.581.936.468 2.184 1.014 2.964 1.716z" fill="#7D8D9E"/><path fill-rule="evenodd" clip-rule="evenodd" d="M84.332 102.915l.079.078-.079-.078zm.311.312l.156.156-.156-.156z" fill="#000"/><path fill-rule="evenodd" clip-rule="evenodd" d="M126.068 104.319v-.078.078c.312.312.468.859.78 1.171l-1.872-1.015c.078-.312.468-.468.78-.702.078.234.156.39.312.546zm-23.946.312c5.695 2.809 11.156 5.93 16.851 8.738 0 .078.078.156 0 .156.078.312.624.312.624.702.936.546 1.639 1.248 2.497 1.717 2.652 1.95 5.149 4.056 7.801 5.929.078.078.078.312.078.468-.39 1.014-.546 1.95-.936 2.964-3.043-2.028-5.851-4.291-8.738-6.475-6.397-4.915-13.106-9.908-19.581-14.901.39.39.936.546 1.404.702z" fill="#7D8D9E"/><path fill-rule="evenodd" clip-rule="evenodd" d="M85.657 104.163l.078.079-.078-.079zm13.965 2.107l-.156-.156.078.078.078.078zm2.653 2.106l.078.078-.078-.078z" fill="#000"/><path fill-rule="evenodd" clip-rule="evenodd" d="M73.413 112.823c1.092.702 1.56 2.028 2.34 3.043.312 1.014.468 2.262.468 3.354-.078.546-.312 1.248-.156 1.872-.234 1.483-1.092 2.887-2.028 4.135-.468.468-1.014.936-1.56 1.326l-.312-.078c.546-1.716 1.014-3.432 1.326-5.227 1.014-.858 1.794-2.028 1.794-3.354.078-.234 0-.468-.234-.546-.468.468-.39 1.326-1.014 1.872l-.156-.078c.156-1.17.156-2.34.078-3.589-.078-.234-.234-.39-.468-.39-.468.234-.312.703-.39 1.171 0 1.716-.234 3.666-.702 5.305-.312.702-.546 1.326-.936 1.95-.234-.156-.469-.078-.703 0-.312.312.078.39-.078.702.156 1.794.703 3.511.703 5.305.078.936.155 1.794.311 2.731h.079c-.078 0-.079.078-.079.156h.079c-.078.936.546 1.872.39 2.808v-.078c-.156.312.156.624 0 .936 0 .312 0 .702-.234.858-.313 0-.313.468-.624.468-.313.235-.703.157-.937.313-1.872.468-3.744.936-5.695 1.092-1.326.312-3.198 0-4.525.234-3.12.078-6.085-.312-9.127-.858-.624-.234-.937-.703-1.483-1.015-.078-.468-.39-.936-.468-1.326-.234-.546-.234-1.404-.312-2.028-.078-1.873.078-3.121.078-4.993.312-1.95 1.093-3.901 1.483-5.851-.234-.312-.546 0-.859-.078-.234.078-.312.312-.468.468-.546-1.716-.78-3.667-1.014-5.539-.156-.546 0-1.17.312-1.638 2.497-2.887 5.93-4.681 9.518-5.851 2.028-.391 3.745-.547 5.695-.703 3.9 0 6.865 1.561 9.908 3.121z" fill="#C6C6C6"/><path fill-rule="evenodd" clip-rule="evenodd" d="M42.675 113.681l.079.078-.079-.078z" fill="#000"/><path fill-rule="evenodd" clip-rule="evenodd" d="M103.683 121.717c0 1.716-.78 3.354-.234 5.149.312.936.39 1.95.702 2.886-.078.702.234 1.248.156 1.872-.078.781-.078 1.561-.234 2.341-.312-.078-.078.312-.234.39-.156.468-.702.702-1.249.936-.312.234-.702.234-1.092.312-4.056 1.248-8.347 2.029-12.872 1.795-2.263-.313-4.525-.703-6.631-1.405-.078-.078-.312-.078-.312-.234-.156-.702-.078-1.56-.234-2.34l-.468-2.809c0-.702 0-1.482.078-2.184 2.184-.234 4.368-.312 6.553-.78a17.532 17.532 0 0 0 4.837-1.17c2.34-.781 4.29-2.029 6.163-3.511.546.546 1.092 1.248 1.638 1.716.078.234.39.312.624.39.312-.078.858.078 1.014-.39.312-.078 0-.468.312-.702.312-1.404.468-2.887.937-4.369.78.312.39 1.248.546 2.107z" fill="#C6C6C6"/><path fill-rule="evenodd" clip-rule="evenodd" d="M66.549 124.291c-.078.546-.859.702-.937 1.326-.078.156-.078.468.078.625 1.093 1.014 2.809.702 3.98.312.155 0 .077.234.155.312-.468 1.014-1.716 1.17-2.886 1.092a5.179 5.179 0 0 1-1.56-.468c-.703-.468-1.405-1.248-1.405-2.185.156-.156.156-.468.312-.624.468-.312.936-.468 1.56-.78.39.078.703.156.703.39z" fill="#000"/><path fill-rule="evenodd" clip-rule="evenodd" d="M128.102 127.099c.078 1.093-.234 2.341-.312 3.511-1.56-1.404-3.276-2.652-4.915-4.057 1.717.234 3.667.234 5.227.546z" fill="#7D8D9E"/><path fill-rule="evenodd" clip-rule="evenodd" d="M66.39 129.362c1.014.234 2.106-.078 3.12-.234.078.234.39.312.234.468-.312.702-1.326.702-1.95.936-.858.078-1.716-.078-2.496-.312l-.39-.468c-.079-.312.078-.546.156-.78.156-.156.312-.078.468-.156.39.156.546.468.858.546zm36.902 1.872c-.312.312-.39.781-.936.937-.156.234-.624.39-.858.702-.546.312-.234 1.248-.78 1.404-.078.078-.312-.078-.312.156-.312-.078-.547-.468-.469-.858.157-.546-.468-.468-.702-.78-1.092-.312-2.496-.234-3.198.702-.858.546-.468 1.95-1.405 2.418-.156-.078-.468-.078-.468-.312-.312-.936.468-1.482.703-2.34.936-1.17 2.184-1.873 3.9-1.717.702.157 1.483.234 2.107.547.546-.469 1.17-.937 1.872-1.171.312-.078.468.156.546.312zm-10.381 2.107c0 .234-.312.39-.312.624-.936.39-2.419.312-2.73 1.482-.079.312-.157.858-.469.858-.234-.312-.702.078-.78-.312.234-1.482 1.17-2.496 2.418-2.808.469-.078 1.093-.312 1.639-.156l.234.312zm-21.3 1.092c.078.078 0 .156.078.234 0 .078.078.312-.078.312l-.078-.078c.078.156-.078.156-.078.312v-.078c-.234.078-.312.39-.546.156-.078.078-.156-.234-.312-.078-.078-.078-.078-.234-.234-.312-.468-.156-.936-.312-1.326 0-.156.468-.312.936-.312 1.482-.234.078-.234.234-.39.312-.312.078-.546-.078-.858-.078v.078c-.937-.234-1.717-1.248-2.731-1.092-.936.078-1.482.468-2.106 1.092-.312.468-.468 1.092-.937 1.17-.156.235-.39.078-.624.078-.39-.156.312-.39-.156-.468.156-1.17 1.327-1.872 2.107-2.496.936-.468 1.716-.702 2.808-.468.702.078 1.249.468 1.795.936.234-.234.234-.702.546-.936.936-.858 2.418-.624 3.432-.078zm.396-.312l.078.234-.078-.234zm.155.624l-.078-.156h.078v.156zm-12.718.234c.156.078.156.312.312.39-.078.312-.312.468-.546.624-.312.078-.702.156-1.092.234-.703-.156-.858.624-1.17.936 0 .312-.313.391-.469.625h-.546c-.312-.078-.078-.312-.234-.468.468-.937 1.092-2.107 2.263-2.107.468-.078 1.014-.156 1.482-.234z" fill="#000"/></svg>